<svg width="127" height="35" viewBox="0 0 127 35" fill="none" xmlns="http://www.w3.org/2000/svg">
<path d="M98.3432 31.3934C98.3432 31.6838 98.2499 31.9065 98.0634 32.0614C97.8833 32.2098 97.6775 32.284 97.446 32.284C97.2145 32.284 97.0055 32.2098 96.8189 32.0614C96.6389 31.9065 96.5488 31.6838 96.5488 31.3934C96.5488 31.103 96.6389 30.8836 96.8189 30.7351C97.0055 30.5802 97.2145 30.5028 97.446 30.5028C97.6775 30.5028 97.8833 30.5802 98.0634 30.7351C98.2499 30.8836 98.3432 31.103 98.3432 31.3934Z" fill="#1D0070"/>
<path d="M98.7756 29.6122C98.7756 29.2443 98.8335 28.899 98.9492 28.5764C99.0714 28.2472 99.2451 27.9633 99.4702 27.7245C99.6953 27.4792 99.9686 27.2856 100.29 27.1436C100.612 27.0017 100.978 26.9307 101.39 26.9307C101.66 26.9307 101.908 26.9565 102.133 27.0081C102.358 27.0533 102.577 27.121 102.789 27.2114L102.49 28.3634C102.355 28.3118 102.207 28.2666 102.046 28.2279C101.885 28.1891 101.705 28.1698 101.506 28.1698C101.081 28.1698 100.763 28.3021 100.551 28.5667C100.345 28.8313 100.242 29.1798 100.242 29.6122C100.242 30.0704 100.338 30.4253 100.531 30.677C100.731 30.9287 101.075 31.0546 101.564 31.0546C101.737 31.0546 101.924 31.0384 102.123 31.0062C102.322 30.9739 102.506 30.9223 102.673 30.8513L102.876 32.0323C102.708 32.1033 102.499 32.1646 102.249 32.2162C101.998 32.2679 101.721 32.2937 101.419 32.2937C100.956 32.2937 100.557 32.2259 100.223 32.0904C99.8882 31.9484 99.6116 31.758 99.393 31.5192C99.1807 31.2805 99.0232 30.9997 98.9203 30.677C98.8238 30.3479 98.7756 29.9929 98.7756 29.6122Z" fill="#1D0070"/>
<path d="M108.342 29.6025C108.342 30.0026 108.284 30.3705 108.168 30.7061C108.052 31.0352 107.885 31.3192 107.666 31.558C107.448 31.7903 107.184 31.971 106.875 32.1001C106.573 32.2291 106.232 32.2937 105.853 32.2937C105.48 32.2937 105.139 32.2291 104.83 32.1001C104.528 31.971 104.267 31.7903 104.049 31.558C103.83 31.3192 103.66 31.0352 103.537 30.7061C103.415 30.3705 103.354 30.0026 103.354 29.6025C103.354 29.2024 103.415 28.8377 103.537 28.5086C103.666 28.1795 103.84 27.8987 104.058 27.6664C104.283 27.4341 104.547 27.2533 104.849 27.1243C105.158 26.9952 105.493 26.9307 105.853 26.9307C106.219 26.9307 106.554 26.9952 106.856 27.1243C107.165 27.2533 107.428 27.4341 107.647 27.6664C107.866 27.8987 108.036 28.1795 108.158 28.5086C108.281 28.8377 108.342 29.2024 108.342 29.6025ZM106.875 29.6025C106.875 29.1572 106.785 28.8087 106.605 28.557C106.432 28.2988 106.181 28.1698 105.853 28.1698C105.525 28.1698 105.271 28.2988 105.091 28.557C104.911 28.8087 104.821 29.1572 104.821 29.6025C104.821 30.0478 104.911 30.4028 105.091 30.6674C105.271 30.9255 105.525 31.0546 105.853 31.0546C106.181 31.0546 106.432 30.9255 106.605 30.6674C106.785 30.4028 106.875 30.0478 106.875 29.6025Z" fill="#1D0070"/>
<path d="M112.243 29.4573C112.243 28.9926 112.182 28.6635 112.06 28.4699C111.944 28.2763 111.742 28.1795 111.452 28.1795C111.362 28.1795 111.269 28.1859 111.172 28.1988C111.076 28.2053 110.983 28.2149 110.893 28.2279V32.1582H109.455V27.2404C109.577 27.2082 109.719 27.1759 109.88 27.1436C110.047 27.1049 110.221 27.0726 110.401 27.0468C110.587 27.0146 110.777 26.992 110.97 26.9791C111.163 26.9597 111.352 26.95 111.539 26.95C111.906 26.95 112.201 26.9984 112.426 27.0952C112.658 27.1856 112.848 27.2953 112.996 27.4244C113.201 27.2759 113.436 27.1598 113.7 27.0759C113.97 26.992 114.218 26.95 114.443 26.95C114.848 26.95 115.179 27.0081 115.436 27.1243C115.7 27.234 115.909 27.3921 116.063 27.5986C116.218 27.8051 116.324 28.0504 116.382 28.3343C116.44 28.6183 116.469 28.9345 116.469 29.283V32.1582H115.031V29.4573C115.031 28.9926 114.97 28.6635 114.848 28.4699C114.732 28.2763 114.53 28.1795 114.24 28.1795C114.163 28.1795 114.054 28.1988 113.912 28.2375C113.777 28.2763 113.665 28.3247 113.574 28.3827C113.62 28.5312 113.648 28.6893 113.661 28.8571C113.674 29.0184 113.681 29.1927 113.681 29.3798V32.1582H112.243V29.4573Z" fill="#1D0070"/>
<path fill-rule="evenodd" clip-rule="evenodd" d="M98.8731 21.3567V24.4014H94.2711V19.4654C94.8384 19.9155 95.586 20.676 95.586 20.676C95.586 20.676 95.2114 18.9278 94.6232 17.5785C94.3193 16.8812 93.9738 16.2186 93.7197 15.7557C93.3089 14.9987 92.8438 14.2519 92.3438 13.6357C90.9974 11.9764 89.5779 11.0989 88.9509 10.7634C88.844 10.7062 88.8597 10.5359 88.9775 10.5072C89.816 10.3031 91.0316 10.1181 92.4742 10.6563C94.3452 11.3543 95.5667 12.713 96.2769 14.0249C98.3336 10.172 106.01 7.37349 110.162 6.31283C110.305 6.27624 110.39 6.48665 110.265 6.5655C108.866 7.4477 105.769 9.59308 102.708 13.0061C99.3529 16.7473 98.9181 20.1945 98.8731 21.3567ZM59.4754 24.3776L65.467 12.9377C65.6732 12.5302 66.0531 12.2586 66.6064 12.1227C66.7674 12.0825 66.9661 12.0624 67.2026 12.0624C67.439 12.0624 67.6956 12.1303 67.9723 12.2661C68.254 12.3969 68.4754 12.6057 68.6363 12.8924L75.0656 24.3776H68.9457L68.4703 23.1853H65.2104L64.8029 24.3776H59.4754ZM65.5802 20.7932H68.0176L66.863 17.5333L65.5802 20.7932ZM49.1976 12.3265H60.6073V16.2354H57.2493V24.3776H52.5556V16.2354H49.1976V12.3265ZM77.4351 12.3265H76.2126V24.3776H80.446V20.2348L86.6413 24.3776H88.2637V12.3265H84.0153V17.0202L77.4351 12.3265ZM100.879 24.3776L106.87 12.9377C107.077 12.5302 107.456 12.2586 108.01 12.1227C108.171 12.0825 108.369 12.0624 108.606 12.0624C108.842 12.0624 109.099 12.1303 109.376 12.2661C109.657 12.3969 109.879 12.6057 110.04 12.8924L116.469 24.3776H110.349L109.874 23.1853H106.614L106.206 24.3776H100.879ZM106.983 20.7932H109.421L108.266 17.5333L106.983 20.7932ZM25.3753 12.3267V16.0318L28.2806 12.3267H33.178L29.2842 17.4052L33.7817 24.3778H28.2806L25.7602 20.1142L25.481 20.6047V24.3778H20.5986V12.3267H25.3753ZM41.2297 24.6721C37.2302 24.6721 35.2305 22.9717 35.2305 19.5709V12.3267H39.9921V19.4351C39.9921 20.1494 40.2311 20.6148 40.709 20.8311C40.875 20.9066 41.0737 20.9443 41.3051 20.9443C41.9591 20.9443 42.3716 20.6324 42.5427 20.0086C42.593 19.8225 42.6181 19.6212 42.6181 19.4049V12.3267H46.7911V19.5709C46.7911 22.9717 44.9373 24.6721 41.2297 24.6721Z" fill="#1D0070"/>
<path fill-rule="evenodd" clip-rule="evenodd" d="M33.5214 10C31.4045 7.52599 28.2594 5.95799 24.748 5.95799C18.3735 5.95799 13.206 11.1255 13.206 17.5C13.206 18.8124 13.4242 20.0697 13.8248 21.24C14.1125 22.0805 14.0956 23.0601 13.647 23.9401L11.4176 28.3129L17.2231 27.3658C18.0018 27.2388 18.7594 27.395 19.3908 27.7265C20.9896 28.5661 22.8103 29.042 24.748 29.042C27.1834 29.042 29.4427 28.2877 31.3049 27H36.9964C34.1606 30.6508 29.7287 33 24.748 33C22.2081 33 19.8056 32.3876 17.6855 31.3007L10.9353 32.4019C8.19938 32.8482 6.11716 29.9954 7.37623 27.5258L10.0195 22.3411C9.51836 20.8155 9.248 19.1874 9.248 17.5C9.248 8.93959 16.1876 2 24.748 2C30.5878 2 35.6733 5.22952 38.3159 10H33.5214Z" fill="#9A4BFF"/>
</svg>
