<svg width="24" height="24" viewBox="0 0 24 24" fill="none" xmlns="http://www.w3.org/2000/svg">
<path d="M21.8997 7.89L20.8497 4.52C20.6297 3.62 19.8497 3 18.9397 3H5.04971C4.14971 3 3.35971 3.63 3.14971 4.52L2.09971 7.89C1.63971 9.86 2.94971 11 2.99971 11.06V19C2.99971 20.1 3.89971 21 4.99971 21H18.9997C20.0997 21 20.9997 20.1 20.9997 19V11.06C22.1197 9.94 22.0897 8.65 21.8997 7.89ZM12.9997 5H14.9597L15.4997 8.52C15.5897 9.23 15.1097 10 14.2197 10C13.5497 10 12.9997 9.41 12.9997 8.69V5ZM6.43971 8.86C6.35971 9.51 5.83971 10 5.22971 10C4.29971 10 3.87971 9.03 4.03971 8.36L5.04971 5H7.01971L6.43971 8.86ZM10.9997 8.69C10.9997 9.41 10.4497 10 9.70971 10C8.95971 10 8.40971 9.3 8.48971 8.52L9.03971 5H10.9997V8.69ZM18.7697 10C18.1597 10 17.6297 9.51 17.5597 8.86L16.9797 5L18.9097 4.99L19.9597 8.36C20.1197 9.03 19.7097 10 18.7697 10Z" fill="white"/>
</svg>
