<svg width="100%" height="100%" viewBox="0 0 80 80" fill="none" xmlns="http://www.w3.org/2000/svg">
<path d="M28.5556 29.9448H46.6112V39.667H49.3889V29.9448C49.3889 28.4128 48.1431 27.167 46.6112 27.167H28.5556C27.0237 27.167 25.7778 28.4128 25.7778 29.9448V46.6114C25.7778 48.1434 27.0237 49.3892 28.5556 49.3892H39.6667V46.6114H28.5556V29.9448Z" fill="#7B6EE3"/>
<path d="M34.111 38.2778L29.9443 43.8333H45.2221L39.6666 35.5L35.4999 41.0556L34.111 38.2778Z" fill="#7B6EE3"/>
<path d="M49.3888 42.4443H46.611V46.611H42.4443V49.3888H46.611V53.5554H49.3888V49.3888H53.5554V46.611H49.3888V42.4443Z" fill="#7B6EE3"/>
<rect x="1" y="1" width="78" height="78" rx="15" stroke="#CCCDCE" stroke-width="2" stroke-miterlimit="16" stroke-linecap="round" stroke-linejoin="round" stroke-dasharray="6 6"/>
</svg>
