<svg viewBox="0 0 18 21" fill="none" xmlns="http://www.w3.org/2000/svg">
<path d="M7.14615 2.24805C7.29556 1.87876 7.55185 1.5625 7.88217 1.33982C8.21249 1.11714 8.60178 0.998169 9.00015 0.998169C9.39852 0.998169 9.78781 1.11714 10.1181 1.33982C10.4484 1.5625 10.7047 1.87876 10.8541 2.24805C12.3329 2.65473 13.6373 3.5356 14.5669 4.75538C15.4966 5.97516 16.0001 7.46639 16.0002 9.00005V13.697L17.8322 16.445C17.9326 16.5956 17.9903 16.7707 17.9991 16.9515C18.0079 17.1324 17.9674 17.3122 17.882 17.4718C17.7966 17.6314 17.6695 17.7649 17.5142 17.8579C17.3588 17.951 17.1812 18.0001 17.0002 18H12.4651C12.3447 18.8331 11.9282 19.595 11.2919 20.146C10.6555 20.697 9.84191 21.0003 9.00015 21.0003C8.15839 21.0003 7.34481 20.697 6.70845 20.146C6.07209 19.595 5.65555 18.8331 5.53515 18H1.00015C0.819107 18.0001 0.641453 17.951 0.486141 17.8579C0.330829 17.7649 0.203685 17.6314 0.118276 17.4718C0.032866 17.3122 -0.00760575 17.1324 0.00117785 16.9515C0.00996145 16.7707 0.067671 16.5956 0.16815 16.445L2.00015 13.697V9.00005C2.00015 5.77605 4.18015 3.06005 7.14615 2.24805ZM7.58615 18C7.68943 18.2927 7.88093 18.5461 8.13427 18.7254C8.38761 18.9046 8.69031 19.0009 9.00065 19.0009C9.31099 19.0009 9.61369 18.9046 9.86703 18.7254C10.1204 18.5461 10.3119 18.2927 10.4151 18H7.58515H7.58615ZM9.00015 4.00005C7.67407 4.00005 6.4023 4.52683 5.46462 5.46451C4.52693 6.40219 4.00015 7.67396 4.00015 9.00005V14C4.00019 14.1976 3.94174 14.3907 3.83215 14.555L2.86915 16H15.1301L14.1671 14.555C14.0579 14.3906 13.9998 14.1975 14.0001 14V9.00005C14.0001 7.67396 13.4734 6.40219 12.5357 5.46451C11.598 4.52683 10.3262 4.00005 9.00015 4.00005Z" fill="#313466"/>
</svg>
