<svg width="18" height="19" viewBox="0 0 18 19" fill="none" xmlns="http://www.w3.org/2000/svg">
<path d="M3.08008 5.33398L3.85508 16.4001C3.89508 16.9712 4.33008 17.4137 4.85208 17.4137H13.1481C13.6701 17.4137 14.1051 16.9723 14.1451 16.4001L14.9201 5.33398H3.08008Z" stroke="#999B9D" stroke-width="2"/>
<path d="M17 4.0166H1C0.447715 4.0166 0 4.50826 0 5.11476C0 5.72126 0.447715 6.21292 1 6.21292H17C17.5523 6.21292 18 5.72126 18 5.11476C18 4.50826 17.5523 4.0166 17 4.0166Z"/>
<path d="M14 0.392578H4C3.44772 0.392578 3 0.884241 3 1.49074C3 2.09723 3.44772 2.5889 4 2.5889H14C14.5523 2.5889 15 2.09723 15 1.49074C15 0.884241 14.5523 0.392578 14 0.392578Z"/>
<path d="M7.5 6.9817C7.5 6.67845 7.27614 6.43262 7 6.43262C6.72386 6.43262 6.5 6.67845 6.5 6.9817V16.8651C6.5 17.1684 6.72386 17.4142 7 17.4142C7.27614 17.4142 7.5 17.1684 7.5 16.8651V6.9817Z" stroke="#999B9D"/>
<path d="M11.5 6.9817C11.5 6.67845 11.2761 6.43262 11 6.43262C10.7239 6.43262 10.5 6.67845 10.5 6.9817V16.8651C10.5 17.1684 10.7239 17.4142 11 17.4142C11.2761 17.4142 11.5 17.1684 11.5 16.8651V6.9817Z" stroke="#999B9D"/>
</svg>
