<svg viewBox="0 0 32 32" xmlns="http://www.w3.org/2000/svg">
<g clip-path="url(#clip0)">
<path d="M7.28331 11.6667C7.28331 14.0836 9.24971 16.05 11.6667 16.05C14.0836 16.05 16.05 14.0836 16.05 11.6667C16.05 9.24971 14.0836 7.28331 11.6667 7.28331C9.24971 7.28331 7.28331 9.24971 7.28331 11.6667ZM8.04998 11.6667C8.04998 9.67293 9.67227 8.04998 11.6667 8.04998C13.661 8.04998 15.2833 9.67293 15.2833 11.6667C15.2833 13.6604 13.661 15.2833 11.6667 15.2833C9.67227 15.2833 8.04998 13.6604 8.04998 11.6667Z" stroke="#66686A" stroke-width="0.1"/>
<path d="M10.7286 13.2714L10.7288 13.2715L13.082 10.114L13.0443 10.0811L13.0443 10.0811C13.0443 10.0811 13.0443 10.0812 13.0443 10.0812L10.9809 12.4395L9.93732 11.396C9.78779 11.2465 9.5448 11.2465 9.39527 11.396C9.24575 11.5455 9.24575 11.7885 9.39527 11.938L10.7286 13.2714Z" stroke="#66686A" stroke-width="0.1"/>
<path d="M1.66667 14.05H6.33333C6.54495 14.05 6.71667 13.8783 6.71667 13.6667C6.71667 13.4551 6.54495 13.2833 6.33333 13.2833H1.66667C1.14295 13.2833 0.716667 12.8571 0.716667 12.3333V3.66667C0.716667 3.14295 1.14295 2.71667 1.66667 2.71667H3C3.21161 2.71667 3.38333 2.54495 3.38333 2.33333C3.38333 2.12172 3.21161 1.95 3 1.95H1.66667C0.720399 1.95 -0.05 2.71971 -0.05 3.66667V12.3333C-0.05 13.2803 0.720399 14.05 1.66667 14.05Z" stroke="#66686A" stroke-width="0.1"/>
<path d="M10.6167 5.66667C10.6167 5.87828 10.7884 6.05 11 6.05C11.2116 6.05 11.3833 5.87828 11.3833 5.66667V3.66667C11.3833 2.71971 10.6129 1.95 9.66666 1.95H8.33333C8.12172 1.95 7.95 2.12172 7.95 2.33333C7.95 2.54495 8.12172 2.71667 8.33333 2.71667H9.66666C10.1904 2.71667 10.6167 3.14295 10.6167 3.66667V5.66667Z" stroke="#66686A" stroke-width="0.1"/>
<path d="M3.66669 4.05H7.66669C8.24563 4.05 8.71669 3.57895 8.71669 3V1.66667C8.71669 1.45505 8.54497 1.28333 8.33335 1.28333H7.34033C7.16529 0.520553 6.48213 -0.05 5.66669 -0.05C4.85125 -0.05 4.16808 0.520553 3.99304 1.28333H3.00002C2.78841 1.28333 2.61669 1.45505 2.61669 1.66667V3C2.61669 3.57895 3.08774 4.05 3.66669 4.05ZM3.38335 3V2.05H4.33335C4.54497 2.05 4.71669 1.87828 4.71669 1.66667C4.71669 1.14295 5.14297 0.716667 5.66669 0.716667C6.19041 0.716667 6.61669 1.14295 6.61669 1.66667C6.61669 1.87828 6.78841 2.05 7.00002 2.05H7.95002V3C7.95002 3.15578 7.82301 3.28333 7.66669 3.28333H3.66669C3.51037 3.28333 3.38335 3.15578 3.38335 3Z" stroke="#66686A" stroke-width="0.1"/>
<path d="M2.33333 6.05002H8.99999C9.2116 6.05002 9.38332 5.87829 9.38332 5.66668C9.38332 5.45506 9.2116 5.28334 8.99999 5.28334H2.33333C2.12172 5.28334 1.95 5.45506 1.95 5.66668C1.95 5.87829 2.12172 6.05002 2.33333 6.05002Z" stroke="#66686A" stroke-width="0.1"/>
<path d="M2.33333 8.04997H7C7.21161 8.04997 7.38333 7.87825 7.38333 7.66664C7.38333 7.45503 7.21161 7.28331 7 7.28331H2.33333C2.12172 7.28331 1.95 7.45503 1.95 7.66664C1.95 7.87825 2.12172 8.04997 2.33333 8.04997Z" stroke="#66686A" stroke-width="0.1"/>
<path d="M2.33333 10.05H5.66667C5.87828 10.05 6.05 9.87828 6.05 9.66667C6.05 9.45506 5.87828 9.28334 5.66667 9.28334H2.33333C2.12172 9.28334 1.95 9.45506 1.95 9.66667C1.95 9.87828 2.12172 10.05 2.33333 10.05Z" stroke="#66686A" stroke-width="0.1"/>
</g>
<defs>
<clipPath id="clip0">
<rect width="16" height="16" fill="white"/>
</clipPath>
</defs>
</svg>
