<svg width="16" height="16" viewBox="0 0 16 16" fill="none" xmlns="http://www.w3.org/2000/svg">
<path d="M8 9C8.79112 9 9.56448 8.76541 10.2223 8.32588C10.8801 7.88635 11.3928 7.26164 11.6955 6.53073C11.9983 5.79983 12.0775 4.99556 11.9231 4.21964C11.7688 3.44372 11.3878 2.73098 10.8284 2.17157C10.269 1.61216 9.55628 1.2312 8.78036 1.07686C8.00444 0.92252 7.20017 1.00173 6.46927 1.30448C5.73836 1.60723 5.11365 2.11992 4.67412 2.77772C4.2346 3.43552 4 4.20888 4 5C4 6.06087 4.42143 7.07828 5.17157 7.82843C5.92172 8.57857 6.93913 9 8 9ZM8 2.14286C8.56509 2.14286 9.11749 2.31043 9.58734 2.62437C10.0572 2.93832 10.4234 3.38455 10.6397 3.90662C10.8559 4.42869 10.9125 5.00317 10.8022 5.5574C10.692 6.11163 10.4199 6.62073 10.0203 7.02031C9.62072 7.41988 9.11163 7.692 8.5574 7.80224C8.00317 7.91249 7.42869 7.85591 6.90662 7.63966C6.38454 7.42341 5.93832 7.0572 5.62437 6.58734C5.31043 6.11749 5.14286 5.56509 5.14286 5C5.14286 4.24224 5.44388 3.51551 5.97969 2.9797C6.51551 2.44388 7.24224 2.14286 8 2.14286Z" fill="#313466"/>
<path d="M13.7554 11.3005C13.0152 10.5739 12.1233 9.99509 11.1341 9.59955C10.1449 9.20401 9.07925 9 8.0023 9C6.92534 9 5.8597 9.20401 4.87051 9.59955C3.88133 9.99509 2.9894 10.5739 2.24923 11.3005C2.08876 11.4597 1.99964 11.6697 2 11.8878V14.1426C2 14.37 2.09725 14.5881 2.27036 14.7489C2.44347 14.9097 2.67826 15 2.92308 15H13.0769C13.3217 15 13.5565 14.9097 13.7296 14.7489C13.9027 14.5881 14 14.37 14 14.1426V11.8878C14.0016 11.6703 13.9142 11.4603 13.7554 11.3005ZM13.0769 14.1426H2.92308V11.8835C3.57718 11.2437 4.36459 10.7343 5.23739 10.3862C6.11019 10.0381 7.05012 9.85859 7.99999 9.85859C8.94986 9.85859 9.88979 10.0381 10.7626 10.3862C11.6354 10.7343 12.4228 11.2437 13.0769 11.8835V14.1426Z" fill="#313466"/>
</svg>
