<svg width="128" height="135" viewBox="0 0 128 135" fill="none" xmlns="http://www.w3.org/2000/svg">
<path d="M70.3001 109.7C98.3001 109.7 121 86.9996 121 58.8996C121 30.7996 98.2001 8.09961 70.3001 8.09961C42.3001 8.09961 19.6001 30.7996 19.6001 58.8996C19.6001 86.9996 42.3001 109.7 70.3001 109.7Z" fill="#EAEEF9"/>
<path d="M117.7 25.6004C119.964 25.6004 121.8 23.7648 121.8 21.5004C121.8 19.236 119.964 17.4004 117.7 17.4004C115.436 17.4004 113.6 19.236 113.6 21.5004C113.6 23.7648 115.436 25.6004 117.7 25.6004Z" fill="#EAEEF9"/>
<path d="M123.7 9.6C125.246 9.6 126.5 8.3464 126.5 6.8C126.5 5.2536 125.246 4 123.7 4C122.154 4 120.9 5.2536 120.9 6.8C120.9 8.3464 122.154 9.6 123.7 9.6Z" fill="#EAEEF9"/>
<path d="M22.3 25.5004C23.8464 25.5004 25.1 24.2468 25.1 22.7004C25.1 21.154 23.8464 19.9004 22.3 19.9004C20.7536 19.9004 19.5 21.154 19.5 22.7004C19.5 24.2468 20.7536 25.5004 22.3 25.5004Z" fill="#EAEEF9"/>
<path d="M5.2 79.4996C8.07188 79.4996 10.4 77.1715 10.4 74.2996C10.4 71.4277 8.07188 69.0996 5.2 69.0996C2.32812 69.0996 0 71.4277 0 74.2996C0 77.1715 2.32812 79.4996 5.2 79.4996Z" fill="#EAEEF9"/>
<g filter="url(#filter0_d)">
<path d="M104.8 33.5002L105.6 97.9002C105.6 100.1 103.8 101.8 101.6 101.8H38.8C36.6 101.8 34.8 100 34.8 97.9002V15.1002C34.8 12.9002 36.6 11.2002 38.8 11.2002H84.3001L104.8 33.5002Z" fill="url(#paint0_linear)"/>
</g>
<path d="M65.4 88.9002H63.1C62.6 88.9002 62.2 88.4002 62.2 87.8002C62.2 87.2002 62.6 86.7002 63.1 86.7002H65.4C65.9 86.7002 66.3 87.2002 66.3 87.8002C66.3 88.5002 65.9 88.9002 65.4 88.9002Z" fill="#CED7E2"/>
<path d="M58.4001 88.9002H45.0001C44.5001 88.9002 44.1001 88.4002 44.1001 87.8002C44.1001 87.2002 44.5001 86.7002 45.0001 86.7002H58.4001C58.9001 86.7002 59.3001 87.2002 59.3001 87.8002C59.3001 88.5002 58.9001 88.9002 58.4001 88.9002Z" fill="#D5DDEA"/>
<path d="M75.5001 24.6996H45.4001C44.7001 24.6996 44.1001 24.0996 44.1001 23.3996C44.1001 22.6996 44.7001 22.0996 45.4001 22.0996H75.5001C76.2001 22.0996 76.8001 22.6996 76.8001 23.3996C76.8001 24.0996 76.2001 24.6996 75.5001 24.6996Z" fill="#D5DDEA"/>
<path d="M57.0001 31.8998H45.4001C44.7001 31.8998 44.1001 31.2998 44.1001 30.5998C44.1001 29.8998 44.7001 29.2998 45.4001 29.2998H56.9001C57.6001 29.2998 58.2001 29.8998 58.2001 30.5998C58.2001 31.2998 57.6001 31.8998 57.0001 31.8998Z" fill="#D5DDEA"/>
<path d="M84.3 11.2002V29.0002C84.3 31.5002 86.5 33.5002 89 33.5002H104.8" fill="#D5DDEA"/>
<path d="M109.6 103.3C108.6 103.3 107.6 102.9 106.8 102L90.1 85.3002L89.5 85.7002C84.1 89.7002 77.8 91.8002 71.4 91.8002C63.7 91.8002 56 88.7002 50.3 83.3002C44.3 77.6002 41 69.9002 41 61.5002C41 44.8002 54.6 31.2002 71.3 31.2002C82.7 31.2002 92.7 37.2002 98.1 47.4002C103.4 57.5002 102.7 69.3002 96.2 78.8002L95.8 79.4002L112.6 96.2002C114.3 97.9002 113.9 99.6002 113.6 100.5C112.8 102.1 111.2 103.3 109.6 103.3ZM71.3 39.5002C59.1 39.5002 49.3 49.4002 49.3 61.5002C49.3 75.3002 60.6 83.6002 71.6 83.6002C78.3 83.6002 84.4 80.6002 88.7 75.2002C94 68.6002 94.9 59.7002 91.2 52.0002C87.4 44.3002 79.8 39.5002 71.3 39.5002Z" fill="#989FB0"/>
<path d="M61.7999 65.0998C63.0999 65.0998 64.1999 63.9998 64.1999 62.6998C64.1999 61.3998 63.0999 60.2998 61.7999 60.2998C60.4999 60.2998 59.3999 61.3998 59.3999 62.6998C59.3999 63.9998 60.4999 65.0998 61.7999 65.0998Z" fill="#989FB0"/>
<path d="M80.2 65.0998C81.5 65.0998 82.6 63.9998 82.6 62.6998C82.6 61.3998 81.5 60.2998 80.2 60.2998C78.9 60.2998 77.8 61.3998 77.8 62.6998C77.8 64.0998 78.9 65.0998 80.2 65.0998Z" fill="#989FB0"/>
<path d="M61.7062 54.7598L56.4268 57.6104L57.1394 58.9302L62.4188 56.0796L61.7062 54.7598Z" fill="#989FB0"/>
<path d="M79.8736 54.722L79.1611 56.042L84.4411 58.892L85.1536 57.572L79.8736 54.722Z" fill="#989FB0"/>
<path d="M71 70.7C72.5464 70.7 73.8 69.7598 73.8 68.6C73.8 67.4402 72.5464 66.5 71 66.5C69.4536 66.5 68.2 67.4402 68.2 68.6C68.2 69.7598 69.4536 70.7 71 70.7Z" fill="#989FB0"/>
<defs>
<filter id="filter0_d" x="12.8" y="0.200195" width="114.8" height="134.6" filterUnits="userSpaceOnUse" color-interpolation-filters="sRGB">
<feFlood flood-opacity="0" result="BackgroundImageFix"/>
<feColorMatrix in="SourceAlpha" type="matrix" values="0 0 0 0 0 0 0 0 0 0 0 0 0 0 0 0 0 0 127 0" result="hardAlpha"/>
<feOffset dy="11"/>
<feGaussianBlur stdDeviation="11"/>
<feColorMatrix type="matrix" values="0 0 0 0 0.397708 0 0 0 0 0.47749 0 0 0 0 0.575 0 0 0 0.27 0"/>
<feBlend mode="normal" in2="BackgroundImageFix" result="effect1_dropShadow"/>
<feBlend mode="normal" in="SourceGraphic" in2="effect1_dropShadow" result="shape"/>
</filter>
<linearGradient id="paint0_linear" x1="70.177" y1="9.10453" x2="70.177" y2="102.777" gradientUnits="userSpaceOnUse">
<stop stop-color="#FDFEFF"/>
<stop offset="0.9964" stop-color="#ECF0F5"/>
</linearGradient>
</defs>
</svg>
