<svg width="120" height="88" viewBox="0 0 120 88" fill="none" xmlns="http://www.w3.org/2000/svg">
<g clip-path="url(#clip0)">
<path d="M102.59 45.4774C102.59 55.1261 99.3627 64.0063 94.0124 71.1788C91.04 75.0212 87.4731 78.4367 83.3967 81.0837C76.7725 85.4384 68.8744 88 60.3818 88C37.0273 88 18.1738 68.9588 18.1738 45.5628C18.1738 22.0814 37.1122 3.12549 60.3818 3.12549C68.8744 3.12549 76.7725 5.68709 83.3967 9.95644C87.4731 12.6034 91.04 16.0189 94.0124 19.8613C99.4477 26.9484 102.59 35.8287 102.59 45.4774Z" fill="#EAEEF9"/>
<path d="M25.7057 11.9963C26.8208 11.6319 27.431 10.4276 27.0686 9.30645C26.7061 8.18527 25.5083 7.57179 24.3932 7.93619C23.278 8.3006 22.6679 9.5049 23.0303 10.6261C23.3928 11.7473 24.5906 12.3607 25.7057 11.9963Z" fill="#EAEEF9"/>
<path d="M30.3396 5.03146C31.0979 4.78367 31.5128 3.96475 31.2663 3.20235C31.0198 2.43995 30.2053 2.02278 29.447 2.27057C28.6888 2.51836 28.2738 3.33728 28.5203 4.09968C28.7668 4.86208 29.5813 5.27925 30.3396 5.03146Z" fill="#EAEEF9"/>
<path d="M102.135 17.4222C103.451 16.2133 103.542 14.161 102.34 12.8381C101.138 11.5153 99.0964 11.4229 97.7806 12.6318C96.4649 13.8406 96.373 15.893 97.5754 17.2158C98.7778 18.5387 100.819 18.6311 102.135 17.4222Z" fill="#EAEEF9"/>
<path d="M102.436 2.93866C102.99 2.42967 103.029 1.56552 102.522 1.00854C102.016 0.451552 101.157 0.412649 100.603 0.921645C100.049 1.43064 100.01 2.29479 100.516 2.85177C101.023 3.40876 101.882 3.44766 102.436 2.93866Z" fill="#EAEEF9"/>
<path d="M18.9385 83.1329H106.412" stroke="#EBF0F6" stroke-width="2" stroke-miterlimit="10" stroke-linecap="round" stroke-linejoin="round"/>
<path d="M87.1335 7.30933C88.4074 7.30933 89.5115 8.33397 89.5115 9.70016V80.4859C89.5115 81.7667 88.4923 82.8767 87.1335 82.8767H34.9892C33.7153 82.8767 32.6113 81.852 32.6113 80.4859V9.70016C32.6113 8.41935 33.6304 7.30933 34.9892 7.30933H87.1335Z" fill="#CED7E2"/>
<path d="M89.5117 14.738V80.4005C89.5117 81.6813 88.4926 82.7913 87.1338 82.7913H39.4905L35.3291 78.6074L82.6327 13.5426L86.7091 12.0056L89.5117 14.738Z" fill="#BCC4CF"/>
<path d="M87.3038 13.201H35.7539V78.9489C35.7539 79.4612 36.1785 79.8028 36.6031 79.8028H87.3038V13.201Z" fill="#A6AFBA"/>
<path d="M86.879 12.7741C86.879 12.3472 86.5393 12.0056 86.1147 12.0056H36.0934C35.6688 12.0056 35.3291 12.3472 35.3291 12.7741V77.7535C35.3291 78.1804 35.6688 78.522 36.0934 78.522H86.0297C86.4544 78.522 86.7941 78.1804 86.7941 77.7535V12.7741H86.879Z" fill="#DFE7F0"/>
<g filter="url(#filter0_d)">
<path d="M86.8791 12.7741C86.8791 12.3472 86.5394 12.0056 86.1148 12.0056H36.0935C35.6689 12.0056 35.2443 12.3472 35.3292 12.7741C35.9237 38.6463 36.1784 67.934 33.291 75.5334L81.1891 74.8503C84.1615 61.7008 86.3695 38.0486 86.8791 12.7741Z" fill="#EDF4FA"/>
</g>
<g filter="url(#filter1_d)">
<path d="M86.7939 12.0911C86.7939 12.0911 86.7089 16.0189 85.52 40.8664C85.52 41.0372 85.52 41.208 85.52 41.3788C84.0762 65.7994 62.4202 70.9226 59.7875 71.1788C58.5985 71.2641 56.3055 71.4349 52.1442 71.5203C47.0486 71.6911 39.2355 71.7765 27.0911 71.9472C26.6665 71.9472 26.4117 71.5203 26.5815 71.1788C35.0741 54.1868 35.159 12.1765 35.159 12.1765H86.7939V12.0911Z" fill="white"/>
</g>
<path d="M74.9047 55.9798H50.1913C50.0215 55.9798 49.8516 55.7237 49.8516 55.2967C49.8516 54.9552 50.0215 54.6136 50.1913 54.6136H74.9896C75.1595 54.6136 75.3293 54.8698 75.3293 55.2967C75.3293 55.6383 75.1595 55.9798 74.9047 55.9798Z" fill="#CED7E2"/>
<path d="M62.2506 59.8222H50.0213C49.8515 59.8222 49.6816 59.5661 49.6816 59.1391C49.6816 58.7976 49.8515 58.4561 50.0213 58.4561H62.2506C62.4205 58.4561 62.5903 58.7122 62.5903 59.1391C62.5903 59.4807 62.4205 59.8222 62.2506 59.8222Z" fill="#E3EAF2"/>
<path d="M78.8958 24.7282H54.0975C53.9276 24.7282 53.7578 24.4721 53.7578 24.0452C53.7578 23.7036 53.9276 23.3621 54.0975 23.3621H78.8958C79.0656 23.3621 79.2355 23.6182 79.2355 24.0452C79.2355 24.4721 79.0656 24.7282 78.8958 24.7282Z" fill="#CED7E2"/>
<path d="M78.7263 28.5708H68.8749C68.7051 28.5708 68.5352 28.3146 68.5352 27.8877C68.5352 27.5461 68.7051 27.2046 68.8749 27.2046H78.7263C78.8961 27.2046 79.066 27.4607 79.066 27.8877C79.066 28.3146 78.8961 28.5708 78.7263 28.5708Z" fill="#CED7E2"/>
<path d="M66.1569 28.5708H53.9276C53.7577 28.5708 53.5879 28.3146 53.5879 27.8877C53.5879 27.5461 53.7577 27.2046 53.9276 27.2046H66.1569C66.3267 27.2046 66.4966 27.4607 66.4966 27.8877C66.4966 28.3146 66.3267 28.5708 66.1569 28.5708Z" fill="#E3EAF2"/>
<path d="M85.4354 41.2933C83.9917 65.714 62.3357 70.8372 59.703 71.0933C58.514 71.1787 56.221 71.3495 52.0596 71.4349C62.8452 66.3971 68.6202 57.4314 68.5352 50.4297C73.8006 50.8567 82.8027 50.4297 85.4354 41.2933Z" fill="#EAEEF9"/>
<path d="M43.9067 28.8269C43.7369 28.8269 43.567 28.7415 43.3972 28.5707L40.9343 26.1799C40.6795 25.9237 40.6795 25.4114 40.9343 25.1552C41.1891 24.8991 41.6987 24.8991 41.9534 25.1552L43.9067 27.1191L47.8982 23.1059C48.153 22.8498 48.6626 22.8498 48.9173 23.1059C49.1721 23.3621 49.1721 23.8744 48.9173 24.1306L44.4163 28.6561C44.2464 28.7415 44.0766 28.8269 43.9067 28.8269Z" fill="url(#paint0_linear)"/>
<path d="M77.7923 40.0126H52.994C52.8242 40.0126 52.6543 39.7564 52.6543 39.3295C52.6543 38.9879 52.8242 38.6464 52.994 38.6464H77.7923C77.9622 38.6464 78.132 38.9025 78.132 39.3295C78.132 39.671 77.9622 40.0126 77.7923 40.0126Z" fill="#CED7E2"/>
<path d="M65.0534 43.855H52.8241C52.6543 43.855 52.4844 43.5988 52.4844 43.1719C52.4844 42.8303 52.6543 42.4888 52.8241 42.4888H65.0534C65.2233 42.4888 65.3931 42.7449 65.3931 43.1719C65.4781 43.5134 65.3082 43.855 65.0534 43.855Z" fill="#E3EAF2"/>
<path d="M42.8031 44.1113C42.6333 44.1113 42.4634 44.0259 42.2936 43.8551L39.9157 41.4643C39.6609 41.2081 39.6609 40.6958 39.9157 40.4396C40.1704 40.1835 40.68 40.1835 40.9348 40.4396L42.8881 42.4035L46.8796 38.3903C47.1343 38.1342 47.6439 38.1342 47.8987 38.3903C48.1535 38.6465 48.1535 39.1588 47.8987 39.415L43.3127 43.8551C43.2278 44.0259 43.0579 44.1113 42.8031 44.1113Z" fill="url(#paint1_linear)"/>
<path d="M42.8031 59.9131C42.6333 59.9131 42.4634 59.8277 42.2936 59.6569L39.9157 57.2661C39.6609 57.0099 39.6609 56.4976 39.9157 56.2414C40.1704 55.9853 40.68 55.9853 40.9348 56.2414L42.8881 58.2053L46.8796 54.1921C47.1343 53.936 47.6439 53.936 47.8987 54.1921C48.1535 54.4483 48.1535 54.9606 47.8987 55.2168L43.3127 59.6569C43.2278 59.8277 43.0579 59.9131 42.8031 59.9131Z" fill="url(#paint2_linear)"/>
<path d="M73.206 7.48017C73.206 7.39478 73.206 7.39478 73.206 7.48017L72.6965 6.96784C72.6965 6.96784 72.4417 7.05323 72.2718 7.22401H64.5436C64.5436 7.05323 64.5436 6.88246 64.5436 6.71168C64.5436 5.08933 63.1848 3.72314 61.5712 3.72314C59.9576 3.72314 58.5988 5.08933 58.5988 6.71168C58.5988 6.88246 58.5988 7.05323 58.6837 7.13862H50.5309C50.1062 7.13862 49.6816 7.48017 49.6816 7.99249V10.6395C49.6816 12.6034 51.0404 13.7988 52.9937 13.7988H69.6392C71.5924 13.7988 73.3759 12.6034 73.3759 10.6395V7.99249C73.4608 7.82171 73.3759 7.65094 73.206 7.48017Z" fill="#1C3754"/>
<path d="M72.951 7.48016V10.1272C72.951 10.2979 72.951 10.4687 72.951 10.6395C72.6963 12.3472 71.2525 13.7134 69.4691 13.7134H52.7387C50.9553 13.7134 49.5115 12.3472 49.2568 10.6395C49.2568 10.4687 49.2568 10.2979 49.2568 10.1272V7.48016C49.2568 7.05322 49.5965 6.62629 50.106 6.62629H58.2589C58.2589 6.45552 58.2589 6.37013 58.2589 6.19936C58.2589 4.57701 59.6177 3.21082 61.2313 3.21082C62.8449 3.21082 64.2037 4.57701 64.2037 6.19936C64.2037 6.37013 64.2037 6.45552 64.2037 6.62629H72.3565C72.6113 6.71168 72.951 7.05322 72.951 7.48016Z" fill="#2D5887"/>
<path d="M61.0619 7.56551C61.8123 7.56551 62.4207 6.95385 62.4207 6.19932C62.4207 5.44479 61.8123 4.83313 61.0619 4.83313C60.3114 4.83313 59.7031 5.44479 59.7031 6.19932C59.7031 6.95385 60.3114 7.56551 61.0619 7.56551Z" fill="#EAEEF9"/>
<path d="M72.8661 10.6395C72.6113 12.3473 71.1676 13.7135 69.3841 13.7135H52.7387C50.9553 13.7135 49.5115 12.3473 49.2568 10.6395H72.8661Z" fill="#316094"/>
<path opacity="0.5" d="M66.4123 9.44408H55.5418C55.2871 9.44408 55.1172 9.2733 55.1172 9.01714C55.1172 8.76098 55.2871 8.59021 55.5418 8.59021H66.4123C66.6671 8.59021 66.8369 8.76098 66.8369 9.01714C66.8369 9.2733 66.6671 9.44408 66.4123 9.44408Z" fill="#1C3754"/>
<path d="M10.2762 36.2556C10.2762 36.2556 1.86857 38.3903 4.41634 40.098C6.96411 41.7204 12.9938 44.5381 18.6838 42.6596C24.3739 40.7811 18.6838 38.1341 18.7688 38.1341C18.8537 38.1341 10.2762 36.2556 10.2762 36.2556Z" fill="#CED7E2"/>
<path d="M0 35.5725C3.05732 36.5118 12.4841 34.9748 18.5138 31.047C23.2696 36.9387 25.0531 38.4757 26.7516 38.6464C24.1189 41.2934 15.3716 45.5628 10.4459 40.0126C4.67091 43.6843 0 35.5725 0 35.5725Z" fill="#DFE7F0"/>
<path d="M93.333 65.1163C96.5601 65.2871 105.308 61.3593 110.064 56.0653C116.178 60.5908 118.216 61.6154 120 61.3593C118.047 64.604 112.102 71.6911 103.694 72.2034C97.5792 68.6172 93.333 65.1163 93.333 65.1163Z" fill="#DFE7F0"/>
<path d="M87.8974 35.1455C87.9912 35.1455 88.0672 35.069 88.0672 34.9747C88.0672 34.8804 87.9912 34.804 87.8974 34.804C87.8036 34.804 87.7275 34.8804 87.7275 34.9747C87.7275 35.069 87.8036 35.1455 87.8974 35.1455Z" fill="#1C3754"/>
<g filter="url(#filter2_d)">
<path d="M37.959 69.565C37.959 70.5416 37.8287 71.5181 37.6338 72.4296C37.504 73.0155 37.3091 73.5363 37.1142 74.0572C35.8789 77.3124 33.2792 79.9164 30.0293 81.1534C29.7693 81.2186 29.5743 81.3489 29.3143 81.4141C28.0794 81.8045 26.8444 82 25.4795 82C18.5898 82 13 76.4009 13 69.4999C13 62.5989 18.5898 57 25.4795 57C32.3692 57.0651 37.959 62.664 37.959 69.565Z" fill="url(#paint3_linear)"/>
</g>
<path d="M37.6343 72.755C37.504 73.2758 37.3091 73.7967 37.1141 74.3175C35.8795 77.4425 33.4095 79.9162 30.2896 81.1533L23.2699 74.1221L22.2949 73.1456L29.1846 66.9607L31.4597 65.6587L37.5691 71.7784L37.6343 72.755Z" fill="url(#paint4_linear)"/>
<path d="M24.1794 74.4477C23.7894 74.4477 23.3994 74.3175 23.1394 73.9919L20.2795 71.1274C19.6946 70.5414 19.6946 69.63 20.2795 69.044C20.8645 68.4581 21.7745 68.4581 22.3595 69.044L24.1794 70.8669L29.3791 65.6586C29.9641 65.0727 30.8743 65.0727 31.4591 65.6586C32.0438 66.2446 32.0438 67.1561 31.4591 67.742L25.2193 73.9919C24.9593 74.3175 24.5693 74.4477 24.1794 74.4477Z" fill="url(#paint5_linear)"/>
</g>
<defs>
<filter id="filter0_d" x="30.291" y="12.0056" width="59.5881" height="69.5278" filterUnits="userSpaceOnUse" color-interpolation-filters="sRGB">
<feFlood flood-opacity="0" result="BackgroundImageFix"/>
<feColorMatrix in="SourceAlpha" type="matrix" values="0 0 0 0 0 0 0 0 0 0 0 0 0 0 0 0 0 0 127 0" result="hardAlpha"/>
<feOffset dy="3"/>
<feGaussianBlur stdDeviation="1.5"/>
<feColorMatrix type="matrix" values="0 0 0 0 0.397708 0 0 0 0 0.47749 0 0 0 0 0.575 0 0 0 0.18 0"/>
<feBlend mode="normal" in2="BackgroundImageFix" result="effect1_dropShadow"/>
<feBlend mode="normal" in="SourceGraphic" in2="effect1_dropShadow" result="shape"/>
</filter>
<filter id="filter1_d" x="22.5283" y="12.0911" width="68.2656" height="68.8561" filterUnits="userSpaceOnUse" color-interpolation-filters="sRGB">
<feFlood flood-opacity="0" result="BackgroundImageFix"/>
<feColorMatrix in="SourceAlpha" type="matrix" values="0 0 0 0 0 0 0 0 0 0 0 0 0 0 0 0 0 0 127 0" result="hardAlpha"/>
<feOffset dy="5"/>
<feGaussianBlur stdDeviation="2"/>
<feColorMatrix type="matrix" values="0 0 0 0 0.397708 0 0 0 0 0.47749 0 0 0 0 0.575 0 0 0 0.18 0"/>
<feBlend mode="normal" in2="BackgroundImageFix" result="effect1_dropShadow"/>
<feBlend mode="normal" in="SourceGraphic" in2="effect1_dropShadow" result="shape"/>
</filter>
<filter id="filter2_d" x="5" y="54" width="40.959" height="41" filterUnits="userSpaceOnUse" color-interpolation-filters="sRGB">
<feFlood flood-opacity="0" result="BackgroundImageFix"/>
<feColorMatrix in="SourceAlpha" type="matrix" values="0 0 0 0 0 0 0 0 0 0 0 0 0 0 0 0 0 0 127 0" result="hardAlpha"/>
<feOffset dy="5"/>
<feGaussianBlur stdDeviation="4"/>
<feColorMatrix type="matrix" values="0 0 0 0 0.1125 0 0 0 0 0.295916 0 0 0 0 1 0 0 0 0.22 0"/>
<feBlend mode="normal" in2="BackgroundImageFix" result="effect1_dropShadow"/>
<feBlend mode="normal" in="SourceGraphic" in2="effect1_dropShadow" result="shape"/>
</filter>
<linearGradient id="paint0_linear" x1="40.7336" y1="25.8467" x2="49.1383" y2="25.8467" gradientUnits="userSpaceOnUse">
<stop stop-color="#83A6FF"/>
<stop offset="1" stop-color="#5A78FF"/>
</linearGradient>
<linearGradient id="paint1_linear" x1="39.6628" y1="41.0866" x2="48.0674" y2="41.0866" gradientUnits="userSpaceOnUse">
<stop stop-color="#83A6FF"/>
<stop offset="1" stop-color="#5A78FF"/>
</linearGradient>
<linearGradient id="paint2_linear" x1="39.6628" y1="56.8884" x2="48.0674" y2="56.8884" gradientUnits="userSpaceOnUse">
<stop stop-color="#83A6FF"/>
<stop offset="1" stop-color="#5A78FF"/>
</linearGradient>
<linearGradient id="paint3_linear" x1="18.7746" y1="59.3091" x2="32.5424" y2="80.2422" gradientUnits="userSpaceOnUse">
<stop stop-color="#83A6FF"/>
<stop offset="1" stop-color="#5A78FF"/>
</linearGradient>
<linearGradient id="paint4_linear" x1="26.679" y1="69.1845" x2="31.9282" y2="74.425" gradientUnits="userSpaceOnUse">
<stop stop-color="#4F6AFF"/>
<stop offset="1" stop-color="#657EFF" stop-opacity="0"/>
</linearGradient>
<linearGradient id="paint5_linear" x1="29.0575" y1="71.5691" x2="23.8945" y2="66.4144" gradientUnits="userSpaceOnUse">
<stop offset="0.0113208" stop-color="#C2D1FF"/>
<stop offset="1" stop-color="white"/>
</linearGradient>
<clipPath id="clip0">
<rect width="120" height="88" fill="white"/>
</clipPath>
</defs>
</svg>
