<svg width="12" height="12" viewBox="0 0 12 12" fill="none" xmlns="http://www.w3.org/2000/svg">
<path d="M11.3327 5.99935C11.3327 8.94487 8.94487 11.3327 5.99935 11.3327C3.05383 11.3327 0.666016 8.94487 0.666016 5.99935C0.666016 3.05383 3.05383 0.666016 5.99935 0.666016C8.94487 0.666016 11.3327 3.05383 11.3327 5.99935Z" stroke="#B2B4B5"/>
<path fill-rule="evenodd" clip-rule="evenodd" d="M5.573 7.30434V6.85517C5.573 6.73559 5.58 6.6335 5.59342 6.54892C5.60683 6.46433 5.63133 6.3885 5.66692 6.32025C5.70192 6.252 5.74858 6.18667 5.80575 6.12425C5.86292 6.06184 5.93233 5.98659 6.014 5.89967L6.64283 5.26267C6.77875 5.12675 6.847 4.94942 6.847 4.73184C6.847 4.5195 6.77758 4.34684 6.63875 4.21325C6.49992 4.07967 6.32433 4.01317 6.112 4.01317C5.88333 4.01317 5.6955 4.09075 5.5485 4.24592C5.4015 4.40109 5.31692 4.59009 5.29533 4.8135L4.25 4.73184C4.28267 4.4705 4.35092 4.23775 4.45417 4.03359C4.55291 3.83545 4.69037 3.65912 4.85842 3.515C5.02467 3.37325 5.21658 3.26592 5.43417 3.19242C5.6661 3.1167 5.90887 3.07946 6.15283 3.08217C6.39783 3.08217 6.62533 3.11717 6.83475 3.18834C7.04475 3.25892 7.22675 3.361 7.38192 3.49459C7.53708 3.62817 7.65842 3.79384 7.74533 3.99275C7.83283 4.19109 7.876 4.41859 7.876 4.67467C7.876 4.85434 7.8515 5.01242 7.8025 5.14833C7.75479 5.28199 7.68883 5.40841 7.6065 5.524C7.52249 5.64106 7.4282 5.75038 7.32475 5.85067C7.14783 6.02361 6.96952 6.19511 6.78983 6.36517C6.73558 6.41942 6.69067 6.47542 6.65508 6.53259C6.62008 6.58975 6.59383 6.65509 6.5775 6.72859C6.55983 6.81592 6.55161 6.90491 6.553 6.994V7.30434H5.573ZM5.40967 8.4395C5.40967 8.26508 5.47383 8.11575 5.60158 7.99033C5.66189 7.92958 5.73384 7.88162 5.81313 7.84935C5.89242 7.81707 5.97741 7.80114 6.063 7.8025C6.23742 7.8025 6.38967 7.86258 6.52033 7.98217C6.583 8.03709 6.63298 8.10497 6.66682 8.18112C6.70067 8.25726 6.71756 8.33985 6.71633 8.42317C6.71633 8.59758 6.65217 8.74692 6.52442 8.87233C6.46411 8.93309 6.39216 8.98105 6.31287 9.01332C6.23358 9.0456 6.14859 9.06153 6.063 9.06017C5.9755 9.06017 5.89267 9.04383 5.81392 9.01117C5.73743 8.98004 5.66696 8.93583 5.60567 8.8805C5.54532 8.82546 5.49671 8.75879 5.46275 8.6845C5.42724 8.60774 5.40911 8.52408 5.40967 8.4395Z" fill="#B2B4B5"/>
</svg>
