<svg width="16" height="17" viewBox="0 0 16 17" fill="none" xmlns="http://www.w3.org/2000/svg">
<path d="M10.5635 0.476719C10.5635 -0.143281 11.5125 -0.143281 11.5125 0.476719V1.42972H13.3165C14.503 1.43022 15.5 2.43172 15.5 3.67172V14.2582C15.5 15.4982 14.503 16.4997 13.3165 16.4997H2.731C1.497 16.4997 0.5 15.4982 0.5 14.2582V3.67172C0.5 2.43172 1.497 1.42972 2.731 1.42972H4.535V0.476719C4.535 -0.143281 5.484 -0.143281 5.484 0.476719V1.42972H10.5635V0.476719ZM11.5125 2.38422V3.33772C11.5125 3.95772 10.5635 3.95772 10.5635 3.33772V2.38472H5.484V3.33822C5.484 3.95822 4.535 3.95822 4.535 3.33822V2.38472H2.731C2.019 2.38472 1.4495 2.95672 1.4495 3.67222V5.43672H14.55V3.67172C14.55 2.95672 13.9805 2.38472 13.316 2.38472L11.5125 2.38422ZM1.45 6.38972V14.2582C1.45 14.9737 2.0195 15.5457 2.7315 15.5457H13.3165C13.9815 15.5457 14.5515 14.9737 14.5515 14.2582V6.38972H1.45Z" fill="#A980F8"/>
<path fill-rule="evenodd" clip-rule="evenodd" d="M5.05701 10.2527C4.62951 9.77566 5.29451 9.10766 5.72151 9.58516L7.43051 11.2542L10.2785 8.39266C10.7055 7.91566 11.3705 8.63116 10.9435 9.06016L7.76251 12.2552C7.57251 12.4462 7.28751 12.4462 7.09801 12.2552L5.05701 10.2527Z" fill="#A980F8"/>
</svg>
