<svg width="14" height="14" viewBox="0 0 14 14" fill="none" xmlns="http://www.w3.org/2000/svg">
<path d="M13.2 9.17751L10.6158 7.33763C10.5894 7.31868 10.5582 7.30743 10.5258 7.30513C10.4933 7.30283 10.4609 7.30957 10.4321 7.32461C10.3727 7.35513 10.3363 7.42177 10.3362 7.48883L10.3375 8.35977H8.01261C7.91377 8.35977 7.81787 8.42935 7.81787 8.52833V10.1302C7.81787 10.2292 7.91377 10.2974 8.01261 10.2974H10.361V11.1752C10.361 11.2421 10.3867 11.3036 10.4462 11.3342C10.5057 11.3649 10.5657 11.3597 10.6201 11.3208L13.2006 9.46885C13.2475 9.43539 13.2674 9.38121 13.2674 9.32353V9.32325C13.2674 9.26515 13.2472 9.21111 13.2 9.17751Z" fill="white"/>
<path d="M8.96841 10.9977H8.05981C7.99558 10.9977 7.93397 11.0233 7.88855 11.0687C7.84313 11.1141 7.81761 11.1757 7.81761 11.2399H7.81663V11.6613H2.12675V5.06271H4.60797C4.67221 5.06271 4.73381 5.03719 4.77923 4.99177C4.82465 4.94635 4.85017 4.88475 4.85017 4.82051V2.33929H7.81649V7.42913H7.81803C7.81938 7.49234 7.84543 7.55251 7.89059 7.59676C7.93576 7.64101 7.99645 7.66581 8.05967 7.66587H8.96827C9.10029 7.66587 9.20697 7.56031 9.20991 7.42913H9.21047V7.42381V1.75045H9.20977V1.18751C9.20977 1.12328 9.18425 1.06167 9.13883 1.01625C9.09341 0.97083 9.03181 0.945313 8.96757 0.945312H4.36577L0.73291 4.57831V12.813C0.73291 12.9468 0.84127 13.0552 0.97511 13.0552H8.96757C9.03181 13.0552 9.09341 13.0297 9.13883 12.9842C9.18425 12.9388 9.20977 12.8772 9.20977 12.813V12.4703H9.21047V11.2397C9.21043 11.1755 9.18491 11.1139 9.13952 11.0686C9.09413 11.0232 9.03259 10.9977 8.96841 10.9977Z" fill="white"/>
</svg>
