<svg width="12" height="12" viewBox="0 0 12 12" fill="none" xmlns="http://www.w3.org/2000/svg">
<path d="M2.20848 7.75016C2.71869 7.74865 3.20961 7.55495 3.58339 7.20766L7.23506 9.29425C7.11271 9.77235 7.16664 10.2785 7.38699 10.7201C7.60734 11.1617 7.97937 11.5091 8.43495 11.6989C8.89054 11.8886 9.39922 11.9079 9.86786 11.7532C10.3365 11.5985 10.7338 11.2802 10.9869 10.8566C11.2401 10.4329 11.3322 9.93229 11.2463 9.4463C11.1605 8.9603 10.9026 8.52147 10.5197 8.21014C10.1367 7.8988 9.65451 7.73579 9.16123 7.75094C8.66795 7.7661 8.19664 7.95841 7.83356 8.29266L4.18189 6.20608C4.22039 6.06025 4.24139 5.90916 4.24489 5.75808L7.83239 3.70766C8.17783 4.02195 8.62084 4.20787 9.08711 4.23425C9.55338 4.26062 10.0145 4.12584 10.3932 3.85251C10.7719 3.57919 11.045 3.18395 11.1668 2.7331C11.2887 2.28225 11.2517 1.80323 11.0622 1.37639C10.8727 0.949553 10.5422 0.600872 10.1261 0.388843C9.70997 0.176815 9.2336 0.11434 8.77689 0.211898C8.32018 0.309457 7.91091 0.561114 7.61775 0.924651C7.32459 1.28819 7.16538 1.74148 7.16681 2.2085C7.16914 2.3765 7.19189 2.54391 7.23506 2.70608L3.91939 4.60016C3.72711 4.3027 3.46075 4.06037 3.14649 3.897C2.83222 3.73362 2.48085 3.65481 2.12691 3.66832C1.77297 3.68182 1.42863 3.78717 1.12773 3.97402C0.826821 4.16087 0.579701 4.42278 0.410646 4.73403C0.241591 5.04528 0.156417 5.39516 0.163494 5.74929C0.17057 6.10342 0.269652 6.44961 0.451006 6.75386C0.63236 7.05811 0.889746 7.30994 1.19788 7.48462C1.50601 7.6593 1.85428 7.75081 2.20848 7.75016Z" fill="white"/>
</svg>
