<svg width="128" height="135" viewBox="0 0 128 135" fill="none" xmlns="http://www.w3.org/2000/svg">
<path d="M70.3001 109.7C98.3001 109.7 121 87 121 58.9C121 30.8 98.2001 8.09998 70.3001 8.09998C42.3001 8.09998 19.6001 30.8 19.6001 58.9C19.6001 87 42.3001 109.7 70.3001 109.7Z" fill="#EAEEF9"/>
<path d="M117.7 25.6C119.964 25.6 121.8 23.7644 121.8 21.5C121.8 19.2357 119.964 17.4 117.7 17.4C115.436 17.4 113.6 19.2357 113.6 21.5C113.6 23.7644 115.436 25.6 117.7 25.6Z" fill="#EAEEF9"/>
<path d="M123.7 9.6C125.246 9.6 126.5 8.3464 126.5 6.8C126.5 5.2536 125.246 4 123.7 4C122.154 4 120.9 5.2536 120.9 6.8C120.9 8.3464 122.154 9.6 123.7 9.6Z" fill="#EAEEF9"/>
<path d="M22.3 25.5C23.8464 25.5 25.1 24.2464 25.1 22.7C25.1 21.1536 23.8464 19.9 22.3 19.9C20.7536 19.9 19.5 21.1536 19.5 22.7C19.5 24.2464 20.7536 25.5 22.3 25.5Z" fill="#EAEEF9"/>
<path d="M5.2 79.5C8.07188 79.5 10.4 77.1719 10.4 74.3C10.4 71.4281 8.07188 69.1 5.2 69.1C2.32812 69.1 0 71.4281 0 74.3C0 77.1719 2.32812 79.5 5.2 79.5Z" fill="#EAEEF9"/>
<g filter="url(#filter0_d_500:6131)">
<path d="M104.8 33.5L105.6 97.9C105.6 100.1 103.8 101.8 101.6 101.8H38.7998C36.5998 101.8 34.7998 100 34.7998 97.9V15.1C34.7998 12.9 36.5998 11.2 38.7998 11.2H84.2998L104.8 33.5Z" fill="url(#paint0_linear_500:6131)"/>
</g>
<path d="M65.4002 88.9H63.1002C62.6002 88.9 62.2002 88.4 62.2002 87.8C62.2002 87.2 62.6002 86.7 63.1002 86.7H65.4002C65.9002 86.7 66.3002 87.2 66.3002 87.8C66.3002 88.5 65.9002 88.9 65.4002 88.9Z" fill="#CED7E2"/>
<path d="M58.4001 88.9H45.0001C44.5001 88.9 44.1001 88.4 44.1001 87.8C44.1001 87.2 44.5001 86.7 45.0001 86.7H58.4001C58.9001 86.7 59.3001 87.2 59.3001 87.8C59.3001 88.5 58.9001 88.9 58.4001 88.9Z" fill="#D5DDEA"/>
<path d="M75.5001 24.7H45.4001C44.7001 24.7 44.1001 24.1 44.1001 23.4C44.1001 22.7 44.7001 22.1 45.4001 22.1H75.5001C76.2001 22.1 76.8001 22.7 76.8001 23.4C76.8001 24.1 76.2001 24.7 75.5001 24.7Z" fill="#D5DDEA"/>
<path d="M57.0001 31.9H45.4001C44.7001 31.9 44.1001 31.3 44.1001 30.6C44.1001 29.9 44.7001 29.3 45.4001 29.3H56.9001C57.6001 29.3 58.2001 29.9 58.2001 30.6C58.2001 31.3 57.6001 31.9 57.0001 31.9Z" fill="#D5DDEA"/>
<path d="M84.2998 11.2V29C84.2998 31.5 86.4998 33.5 88.9998 33.5H104.8" fill="#D5DDEA"/>
<path d="M61.7999 65.1C63.0999 65.1 64.1999 64.0001 64.1999 62.7001C64.1999 61.4001 63.0999 60.3 61.7999 60.3C60.4999 60.3 59.3999 61.4001 59.3999 62.7001C59.3999 64.0001 60.4999 65.1 61.7999 65.1Z" fill="#989FB0"/>
<path d="M80.1998 65.1C81.4998 65.1 82.5998 64.0001 82.5998 62.7001C82.5998 61.4001 81.4998 60.3 80.1998 60.3C78.8998 60.3 77.7998 61.4001 77.7998 62.7001C77.7998 64.1001 78.8998 65.1 80.1998 65.1Z" fill="#989FB0"/>
<path d="M61.7062 54.7599L56.4268 57.6105L57.1394 58.9303L62.4188 56.0797L61.7062 54.7599Z" fill="#989FB0"/>
<path d="M79.8736 54.7219L79.1611 56.0419L84.4411 58.8919L85.1536 57.5719L79.8736 54.7219Z" fill="#989FB0"/>
<path d="M71.0002 70.7C72.5466 70.7 73.8002 69.7598 73.8002 68.6C73.8002 67.4402 72.5466 66.5 71.0002 66.5C69.4538 66.5 68.2002 67.4402 68.2002 68.6C68.2002 69.7598 69.4538 70.7 71.0002 70.7Z" fill="#989FB0"/>
<path d="M87.7748 46.5854L51.2188 82.4146M87.7748 46.5854C83.0151 41.7782 76.5459 39.0512 69.7814 39.0007C63.017 38.9502 56.5078 41.5803 51.6769 46.316C46.8461 51.0516 44.0866 57.5075 44.002 64.2721C43.9174 71.0366 46.5144 77.5595 51.2252 82.4146L87.7748 46.5854ZM87.7748 46.5854C92.4856 51.4405 95.0826 57.9634 94.998 64.7279C94.9134 71.4925 92.1539 77.9484 87.3231 82.684C82.4922 87.4197 75.983 90.0498 69.2186 89.9993C62.4541 89.9488 55.9849 87.2218 51.2252 82.4146L87.7748 46.5854Z" stroke="#989FB0" stroke-width="5.5" stroke-linecap="round" stroke-linejoin="round"/>
<defs>
<filter id="filter0_d_500:6131" x="12.7998" y="0.200012" width="114.8" height="134.6" filterUnits="userSpaceOnUse" color-interpolation-filters="sRGB">
<feFlood flood-opacity="0" result="BackgroundImageFix"/>
<feColorMatrix in="SourceAlpha" type="matrix" values="0 0 0 0 0 0 0 0 0 0 0 0 0 0 0 0 0 0 127 0" result="hardAlpha"/>
<feOffset dy="11"/>
<feGaussianBlur stdDeviation="11"/>
<feColorMatrix type="matrix" values="0 0 0 0 0.397708 0 0 0 0 0.47749 0 0 0 0 0.575 0 0 0 0.27 0"/>
<feBlend mode="normal" in2="BackgroundImageFix" result="effect1_dropShadow_500:6131"/>
<feBlend mode="normal" in="SourceGraphic" in2="effect1_dropShadow_500:6131" result="shape"/>
</filter>
<linearGradient id="paint0_linear_500:6131" x1="70.1767" y1="9.10435" x2="70.1767" y2="102.777" gradientUnits="userSpaceOnUse">
<stop stop-color="#FDFEFF"/>
<stop offset="0.9964" stop-color="#ECF0F5"/>
</linearGradient>
</defs>
</svg>
