<svg width="123" height="136" viewBox="0 0 123 136" fill="none" xmlns="http://www.w3.org/2000/svg">
<path d="M66.6876 110.269C93.2489 110.269 114.782 88.7355 114.782 62.0794C114.782 35.4232 93.154 13.8896 66.6876 13.8896C40.1264 13.8896 18.5928 35.4232 18.5928 62.0794C18.5928 88.7355 40.1264 110.269 66.6876 110.269Z" fill="#EAEEF9"/>
<path d="M111.652 30.4906C113.8 30.4906 115.541 28.7493 115.541 26.6012C115.541 24.4532 113.8 22.7119 111.652 22.7119C109.504 22.7119 107.763 24.4532 107.763 26.6012C107.763 28.7493 109.504 30.4906 111.652 30.4906Z" fill="#EAEEF9"/>
<path d="M117.344 15.3123C118.811 15.3123 120 14.1231 120 12.6561C120 11.1892 118.811 10 117.344 10C115.877 10 114.688 11.1892 114.688 12.6561C114.688 14.1231 115.877 15.3123 117.344 15.3123Z" fill="#EAEEF9"/>
<path d="M21.1542 30.3953C22.6211 30.3953 23.8103 29.2061 23.8103 27.7391C23.8103 26.2722 22.6211 25.083 21.1542 25.083C19.6872 25.083 18.498 26.2722 18.498 27.7391C18.498 29.2061 19.6872 30.3953 21.1542 30.3953Z" fill="#EAEEF9"/>
<path d="M4.93281 81.6205C7.65712 81.6205 9.86561 79.412 9.86561 76.6877C9.86561 73.9634 7.65712 71.7549 4.93281 71.7549C2.20849 71.7549 0 73.9634 0 76.6877C0 79.412 2.20849 81.6205 4.93281 81.6205Z" fill="#EAEEF9"/>
<g filter="url(#filter0_d_2448_39943)">
<path d="M99.4149 37.9842L100.174 99.0751C100.174 101.162 98.4663 102.775 96.3793 102.775H36.8062C34.7192 102.775 33.0117 101.067 33.0117 99.0751V20.5297C33.0117 18.4427 34.7192 16.8301 36.8062 16.8301H79.9682L99.4149 37.9842Z" fill="url(#paint0_linear_2448_39943)"/>
</g>
<path d="M62.0395 90.5372H59.8577C59.3834 90.5372 59.0039 90.0628 59.0039 89.4937C59.0039 88.9245 59.3834 88.4502 59.8577 88.4502H62.0395C62.5138 88.4502 62.8932 88.9245 62.8932 89.4937C62.8932 90.1577 62.5138 90.5372 62.0395 90.5372Z" fill="#CED7E2"/>
<path d="M55.3992 90.5372H42.6877C42.2134 90.5372 41.834 90.0628 41.834 89.4937C41.834 88.9245 42.2134 88.4502 42.6877 88.4502H55.3992C55.8735 88.4502 56.253 88.9245 56.253 89.4937C56.253 90.1577 55.8735 90.5372 55.3992 90.5372Z" fill="#D5DDEA"/>
<path d="M71.6205 29.6363H43.0672C42.4032 29.6363 41.834 29.0672 41.834 28.4031C41.834 27.7391 42.4032 27.1699 43.0672 27.1699H71.6205C72.2846 27.1699 72.8537 27.7391 72.8537 28.4031C72.8537 29.0672 72.2846 29.6363 71.6205 29.6363Z" fill="#D5DDEA"/>
<path d="M54.0711 36.4664H43.0672C42.4032 36.4664 41.834 35.8972 41.834 35.2332C41.834 34.5692 42.4032 34 43.0672 34H53.9763C54.6403 34 55.2095 34.5692 55.2095 35.2332C55.2095 35.8972 54.6403 36.4664 54.0711 36.4664Z" fill="#D5DDEA"/>
<path d="M79.9683 16.8301V33.7155C79.9683 36.087 82.0552 37.9842 84.4268 37.9842H99.4149" fill="#D5DDEA"/>
<path d="M58.6246 67.9596C59.8578 67.9596 60.9013 66.9161 60.9013 65.6829C60.9013 64.4497 59.8578 63.4062 58.6246 63.4062C57.3914 63.4062 56.3479 64.4497 56.3479 65.6829C56.3479 66.9161 57.3914 67.9596 58.6246 67.9596Z" fill="#989FB0"/>
<path d="M76.0789 67.9596C77.3121 67.9596 78.3556 66.9161 78.3556 65.6829C78.3556 64.4497 77.3121 63.4062 76.0789 63.4062C74.8457 63.4062 73.8022 64.4497 73.8022 65.6829C73.8022 67.011 74.8457 67.9596 76.0789 67.9596Z" fill="#989FB0"/>
<path d="M58.5355 58.1514L53.5273 60.8555L54.2034 62.1075L59.2115 59.4034L58.5355 58.1514Z" fill="#989FB0"/>
<path d="M75.7694 58.115L75.0935 59.3672L80.1022 62.0707L80.7781 60.8186L75.7694 58.115Z" fill="#989FB0"/>
<path d="M67.3517 73.2723C68.8186 73.2723 70.0078 72.3804 70.0078 71.2802C70.0078 70.18 68.8186 69.2881 67.3517 69.2881C65.8847 69.2881 64.6956 70.18 64.6956 71.2802C64.6956 72.3804 65.8847 73.2723 67.3517 73.2723Z" fill="#989FB0"/>
<defs>
<filter id="filter0_d_2448_39943" x="11.0117" y="5.83008" width="111.162" height="129.944" filterUnits="userSpaceOnUse" color-interpolation-filters="sRGB">
<feFlood flood-opacity="0" result="BackgroundImageFix"/>
<feColorMatrix in="SourceAlpha" type="matrix" values="0 0 0 0 0 0 0 0 0 0 0 0 0 0 0 0 0 0 127 0" result="hardAlpha"/>
<feOffset dy="11"/>
<feGaussianBlur stdDeviation="11"/>
<feColorMatrix type="matrix" values="0 0 0 0 0.397708 0 0 0 0 0.47749 0 0 0 0 0.575 0 0 0 0.27 0"/>
<feBlend mode="normal" in2="BackgroundImageFix" result="effect1_dropShadow_2448_39943"/>
<feBlend mode="normal" in="SourceGraphic" in2="effect1_dropShadow_2448_39943" result="shape"/>
</filter>
<linearGradient id="paint0_linear_2448_39943" x1="66.5709" y1="14.8421" x2="66.5709" y2="103.701" gradientUnits="userSpaceOnUse">
<stop stop-color="#FDFEFF"/>
<stop offset="0.9964" stop-color="#ECF0F5"/>
</linearGradient>
</defs>
</svg>
