<svg width="122" height="123" viewBox="0 0 122 123" fill="none" xmlns="http://www.w3.org/2000/svg">
<circle cx="58.8602" cy="50.7" r="47.8602" fill="#EAEEF9"/>
<path d="M112.67 30.95C114.935 30.95 116.77 29.1144 116.77 26.85C116.77 24.5856 114.935 22.75 112.67 22.75C110.406 22.75 108.57 24.5856 108.57 26.85C108.57 29.1144 110.406 30.95 112.67 30.95Z" fill="#EAEEF9"/>
<path d="M118.671 14.9496C120.217 14.9496 121.471 13.696 121.471 12.1496C121.471 10.6032 120.217 9.34961 118.671 9.34961C117.125 9.34961 115.871 10.6032 115.871 12.1496C115.871 13.696 117.125 14.9496 118.671 14.9496Z" fill="#EAEEF9"/>
<path d="M16.7195 10.4C19.5914 10.4 21.9195 8.07189 21.9195 5.2C21.9195 2.32812 19.5914 0 16.7195 0C13.8477 0 11.5195 2.32812 11.5195 5.2C11.5195 8.07189 13.8477 10.4 16.7195 10.4Z" fill="#EAEEF9"/>
<path d="M77.3679 24.6256H51.873V14.9502H85.2928C85.3543 14.9502 85.4157 14.9502 85.4771 14.9502C90.699 15.0734 94.9379 19.3873 94.9379 24.6256H83.8799" fill="#CCD4E2"/>
<g filter="url(#filter0_d_478_6229)">
<path d="M86.2157 14.9502C84.2498 15.0734 82.4068 15.8746 81.1167 17.2304C80.9939 17.3536 80.871 17.4769 80.7481 17.6618C79.5809 19.0176 78.7208 20.8048 78.7208 22.7152V80.2748C78.7208 85.6363 74.4205 89.9502 69.0758 89.9502H22.1406V22.2838C22.2635 20.3117 23.0007 18.5246 24.2908 17.2304C25.7038 15.813 27.6082 14.9502 29.7584 14.9502H77.0007H85.97C86.0314 14.9502 86.0928 14.9502 86.2157 14.9502Z" fill="url(#paint0_linear_478_6229)"/>
</g>
<path d="M69.3825 28.1379H55.4371C54.9457 28.1379 54.5156 27.7065 54.5156 27.2135C54.5156 26.7205 54.9457 26.2891 55.4371 26.2891H69.3825C69.874 26.2891 70.304 26.7205 70.304 27.2135C70.304 27.7065 69.9354 28.1379 69.3825 28.1379Z" fill="#B3BFD3"/>
<path d="M48.8636 28.1379H30.6793C30.1878 28.1379 29.7578 27.7065 29.7578 27.2135C29.7578 26.7205 30.1878 26.2891 30.6793 26.2891H48.9251C49.4165 26.2891 49.8466 26.7205 49.8466 27.2135C49.8466 27.7065 49.4165 28.1379 48.8636 28.1379Z" fill="#B3BFD3"/>
<path d="M60.5366 37.259H42.4137C41.9222 37.259 41.4922 36.8276 41.4922 36.3346C41.4922 35.8415 41.9222 35.4102 42.4137 35.4102H60.5366C61.028 35.4102 61.4581 35.8415 61.4581 36.3346C61.5195 36.8276 61.0895 37.259 60.5366 37.259Z" fill="#B3BFD3"/>
<path d="M36.5769 37.259H30.6793C30.1878 37.259 29.7578 36.8276 29.7578 36.3346C29.7578 35.8415 30.1878 35.4102 30.6793 35.4102H36.5769C37.0684 35.4102 37.4984 35.8415 37.4984 36.3346C37.4984 36.8276 37.0684 37.259 36.5769 37.259Z" fill="#D4DBEC"/>
<path d="M69.3828 46.3801H58.2633C57.7718 46.3801 57.3418 45.9487 57.3418 45.4557C57.3418 44.9626 57.7718 44.5312 58.2633 44.5312H69.3828C69.8742 44.5312 70.3043 44.9626 70.3043 45.4557C70.3043 45.9487 69.9357 46.3801 69.3828 46.3801Z" fill="#D4DBEC"/>
<path d="M52.9182 46.3801H30.6793C30.1878 46.3801 29.7578 45.9487 29.7578 45.4557C29.7578 44.9626 30.1878 44.5312 30.6793 44.5312H52.9182C53.4097 44.5312 53.8397 44.9626 53.8397 45.4557C53.8397 45.9487 53.4711 46.3801 52.9182 46.3801Z" fill="#B3BFD3"/>
<path d="M60.5354 55.5012H48.3102C47.8187 55.5012 47.3887 55.0698 47.3887 54.5768C47.3887 54.0837 47.8187 53.6523 48.3102 53.6523H60.5354C61.0269 53.6523 61.4569 54.0837 61.4569 54.5768C61.5184 55.0698 61.0883 55.5012 60.5354 55.5012Z" fill="#B3BFD3"/>
<path d="M42.966 55.5012H30.6793C30.1878 55.5012 29.7578 55.0698 29.7578 54.5768C29.7578 54.0837 30.1878 53.6523 30.6793 53.6523H43.0274C43.5189 53.6523 43.9489 54.0837 43.9489 54.5768C43.9489 55.0698 43.5189 55.5012 42.966 55.5012Z" fill="#D4DBEC"/>
<path d="M69.3826 64.6213H60.8434C60.3519 64.6213 59.9219 64.1899 59.9219 63.6969C59.9219 63.2039 60.3519 62.7725 60.8434 62.7725H69.3826C69.8741 62.7725 70.3041 63.2039 70.3041 63.6969C70.3041 64.1899 69.9355 64.6213 69.3826 64.6213Z" fill="#B3BFD3"/>
<path d="M55.3136 64.6213H40.9996C40.5082 64.6213 40.0781 64.1899 40.0781 63.6969C40.0781 63.2039 40.5082 62.7725 40.9996 62.7725H55.3136C55.8051 62.7725 56.2351 63.2039 56.2351 63.6969C56.2351 64.1899 55.8051 64.6213 55.3136 64.6213Z" fill="#D4DBEC"/>
<path d="M35.6554 64.6213H30.6793C30.1878 64.6213 29.7578 64.1899 29.7578 63.6969C29.7578 63.2039 30.1878 62.7725 30.6793 62.7725H35.6554C36.1469 62.7725 36.5769 63.2039 36.5769 63.6969C36.5769 64.1899 36.1469 64.6213 35.6554 64.6213Z" fill="#B3BFD3"/>
<path d="M60.536 73.7424H52.0582C51.5668 73.7424 51.1367 73.311 51.1367 72.818C51.1367 72.3249 51.5668 71.8936 52.0582 71.8936H60.536C61.0275 71.8936 61.4575 72.3249 61.4575 72.818C61.519 73.311 61.0889 73.7424 60.536 73.7424Z" fill="#B3BFD3"/>
<path d="M46.4677 73.7424H30.6793C30.1878 73.7424 29.7578 73.311 29.7578 72.818C29.7578 72.3249 30.1878 71.8936 30.6793 71.8936H46.4677C46.9592 71.8936 47.3892 72.3249 47.3892 72.818C47.3892 73.311 46.9592 73.7424 46.4677 73.7424Z" fill="#D4DBEC"/>
<path d="M48.4334 82.3086H60.843C60.843 84.4039 61.7031 86.3144 63.0546 87.6701C64.4061 89.0876 66.3106 89.8887 68.3993 89.8887H12.5563C10.4676 89.8887 8.56314 89.0259 7.2116 87.6701C5.86007 86.3144 5 84.4039 5 82.3086H41.7372C41.7372 82.3086 48.5563 82.3702 48.4334 82.3086Z" fill="#CCD4E2"/>
<path d="M101.708 76.4057L93.9512 68.6552L95.7294 66.877L103.48 74.6336L101.708 76.4057Z" fill="#858B9B"/>
<path d="M104.404 79.1328L98.4565 73.185C97.9598 72.6883 97.9598 71.8789 98.4565 71.3823C98.9532 70.8856 99.7625 70.8856 100.259 71.3823L106.207 77.3301C106.704 77.8267 106.704 78.6361 106.207 79.1328C105.71 79.6295 104.901 79.6295 104.404 79.1328Z" fill="#858B9B"/>
<path d="M103.981 79.5129L96.3287 71.8604C96.1509 71.6826 96.1509 71.3944 96.3287 71.2105L98.2847 69.2545C98.4625 69.0766 98.7507 69.0766 98.9347 69.2545L106.587 76.9069C106.765 77.0847 106.765 77.3729 106.587 77.5568L104.631 79.5129C104.447 79.6907 104.159 79.6907 103.981 79.5129Z" fill="url(#paint1_linear_478_6229)"/>
<path d="M85.1704 43.6807C77.052 43.6807 70.4727 50.26 70.4727 58.3784C70.4727 66.4907 77.052 73.0762 85.1643 73.0762C93.2827 73.0762 99.8621 66.4969 99.8621 58.3784C99.8621 50.26 93.2827 43.6807 85.1704 43.6807ZM85.1704 70.3537C78.6524 70.3537 73.373 64.9885 73.373 58.3723C73.373 51.7562 78.6524 46.397 85.1704 46.397C91.6885 46.397 96.9679 51.7623 96.9679 58.3784C96.9679 64.9946 91.6823 70.3537 85.1704 70.3537Z" fill="url(#paint2_linear_478_6229)"/>
<defs>
<filter id="filter0_d_478_6229" x="0.140625" y="3.9502" width="108.074" height="119" filterUnits="userSpaceOnUse" color-interpolation-filters="sRGB">
<feFlood flood-opacity="0" result="BackgroundImageFix"/>
<feColorMatrix in="SourceAlpha" type="matrix" values="0 0 0 0 0 0 0 0 0 0 0 0 0 0 0 0 0 0 127 0" result="hardAlpha"/>
<feOffset dy="11"/>
<feGaussianBlur stdDeviation="11"/>
<feColorMatrix type="matrix" values="0 0 0 0 0.397708 0 0 0 0 0.47749 0 0 0 0 0.575 0 0 0 0.27 0"/>
<feBlend mode="normal" in2="BackgroundImageFix" result="effect1_dropShadow_478_6229"/>
<feBlend mode="normal" in="SourceGraphic" in2="effect1_dropShadow_478_6229" result="shape"/>
</filter>
<linearGradient id="paint0_linear_478_6229" x1="54.1573" y1="13.2154" x2="54.1573" y2="90.7587" gradientUnits="userSpaceOnUse">
<stop stop-color="#FDFEFF"/>
<stop offset="0.9964" stop-color="#ECF0F5"/>
</linearGradient>
<linearGradient id="paint1_linear_478_6229" x1="96.1905" y1="74.3848" x2="106.722" y2="74.3848" gradientUnits="userSpaceOnUse">
<stop stop-color="#B0BACC"/>
<stop offset="1" stop-color="#969EAE"/>
</linearGradient>
<linearGradient id="paint2_linear_478_6229" x1="70.4592" y1="58.3816" x2="99.8674" y2="58.3816" gradientUnits="userSpaceOnUse">
<stop stop-color="#B0BACC"/>
<stop offset="1" stop-color="#969EAE"/>
</linearGradient>
</defs>
</svg>
