<svg width="14" height="14" viewBox="0 0 14 14" fill="none" xmlns="http://www.w3.org/2000/svg">
<path d="M3.20848 8.75016C3.71869 8.74865 4.20961 8.55495 4.58339 8.20766L8.23506 10.2942C8.11271 10.7723 8.16664 11.2785 8.38699 11.7201C8.60734 12.1617 8.97937 12.5091 9.43495 12.6989C9.89054 12.8886 10.3992 12.9079 10.8679 12.7532C11.3365 12.5985 11.7338 12.2802 11.9869 11.8566C12.2401 11.4329 12.3322 10.9323 12.2463 10.4463C12.1605 9.9603 11.9026 9.52147 11.5197 9.21014C11.1367 8.8988 10.6545 8.73579 10.1612 8.75094C9.66795 8.7661 9.19664 8.95841 8.83356 9.29266L5.18189 7.20608C5.22039 7.06025 5.24139 6.90916 5.24489 6.75808L8.83239 4.70766C9.17783 5.02195 9.62084 5.20787 10.0871 5.23425C10.5534 5.26062 11.0145 5.12584 11.3932 4.85251C11.7719 4.57919 12.045 4.18395 12.1668 3.7331C12.2887 3.28225 12.2517 2.80323 12.0622 2.37639C11.8727 1.94955 11.5422 1.60087 11.1261 1.38884C10.71 1.17681 10.2336 1.11434 9.77689 1.2119C9.32018 1.30946 8.91091 1.56111 8.61775 1.92465C8.32459 2.28819 8.16538 2.74148 8.16681 3.2085C8.16914 3.3765 8.19189 3.54391 8.23506 3.70608L4.91939 5.60016C4.72711 5.3027 4.46075 5.06037 4.14649 4.897C3.83222 4.73362 3.48085 4.65481 3.12691 4.66832C2.77297 4.68182 2.42863 4.78717 2.12773 4.97402C1.82682 5.16087 1.5797 5.42278 1.41065 5.73403C1.24159 6.04528 1.15642 6.39516 1.16349 6.74929C1.17057 7.10342 1.26965 7.44961 1.45101 7.75386C1.63236 8.05811 1.88975 8.30994 2.19788 8.48462C2.50601 8.6593 2.85428 8.75081 3.20848 8.75016Z" fill="white"/>
</svg>
