<svg width="148" height="148" viewBox="0 0 148 148" fill="none" xmlns="http://www.w3.org/2000/svg">
<path d="M73.9428 97.351C93.0423 97.351 108.527 81.8667 108.527 62.699C108.527 43.5312 92.9741 28.0469 73.9428 28.0469C54.8432 28.0469 39.3589 43.5312 39.3589 62.699C39.3589 81.8667 54.8432 97.351 73.9428 97.351Z" fill="#EAEEF9"/>
<path d="M106.276 39.9821C107.821 39.9821 109.073 38.73 109.073 37.1854C109.073 35.6408 107.821 34.3887 106.276 34.3887C104.732 34.3887 103.479 35.6408 103.479 37.1854C103.479 38.73 104.732 39.9821 106.276 39.9821Z" fill="#E7EBF6"/>
<path d="M110.368 29.068C111.423 29.068 112.278 28.2128 112.278 27.158C112.278 26.1032 111.423 25.248 110.368 25.248C109.314 25.248 108.458 26.1032 108.458 27.158C108.458 28.2128 109.314 29.068 110.368 29.068Z" fill="#E7EBF6"/>
<path d="M41.201 39.9117C42.2558 39.9117 43.1109 39.0566 43.1109 38.0018C43.1109 36.9469 42.2558 36.0918 41.201 36.0918C40.1461 36.0918 39.291 36.9469 39.291 38.0018C39.291 39.0566 40.1461 39.9117 41.201 39.9117Z" fill="#E7EBF6"/>
<path d="M29.5368 76.7465C31.4958 76.7465 33.0839 75.1584 33.0839 73.1994C33.0839 71.2404 31.4958 69.6523 29.5368 69.6523C27.5778 69.6523 25.9897 71.2404 25.9897 73.1994C25.9897 75.1584 27.5778 76.7465 29.5368 76.7465Z" fill="#E7EBF6"/>
<g filter="url(#filter0_d)">
<path d="M97.2949 89.7378L51.1585 90.0688C48.4955 90.0807 46.3239 87.9338 46.2883 85.2882L45.9307 41.1471C45.9158 38.4835 48.0599 36.3141 50.705 36.2814L96.8415 35.9504C99.5045 35.9385 101.676 38.0853 101.712 40.731L102.069 84.8721C102.084 87.5356 99.9401 89.7051 97.2949 89.7378Z" fill="url(#paint0_linear)"/>
</g>
<path d="M94.6975 83.1458L54.1399 83.4527C52.9926 83.4629 52.0692 82.5573 52.0577 81.4098L51.75 44.9293C51.7385 43.7818 52.643 42.8593 53.7902 42.8491L94.3479 42.5422C95.4952 42.532 96.4186 43.4376 96.43 44.585L96.7377 81.0656C96.7492 82.213 95.8448 83.1356 94.6975 83.1458Z" fill="#DBE5FF"/>
<path d="M75.0836 69.4558L60.2883 69.5586L67.6226 61.1168L75.0836 69.4558Z" fill="#3B3CCE"/>
<path d="M87.3524 69.3544L66.0244 69.506L76.5871 57.3835L87.3524 69.3544Z" fill="url(#paint1_linear)"/>
<path d="M67.6078 57.4036C68.7776 56.3976 68.9093 54.6326 67.9021 53.4615C66.8949 52.2904 65.1301 52.1566 63.9603 53.1627C62.7906 54.1688 62.6588 55.9337 63.666 57.1048C64.6732 58.2759 66.438 58.4097 67.6078 57.4036Z" fill="url(#paint2_linear)"/>
<path d="M84.2724 88.1367C84.0608 89.0356 83.7436 89.9874 83.3734 90.7806C82.3687 92.7371 80.7824 94.2706 78.8259 95.2753C76.8165 96.28 74.4369 96.703 72.0574 96.1742C66.4523 95.0109 62.8565 89.5115 64.0199 83.9064C65.1832 78.3012 70.6297 74.6526 76.2348 75.8688C78.2442 76.2919 79.9892 77.2965 81.4698 78.6714C83.9551 81.1567 85.0127 84.7524 84.2724 88.1367Z" fill="url(#paint3_linear)"/>
<path d="M77.451 85.1242H75.0715V82.7446C75.0715 82.2687 74.7013 81.8457 74.1725 81.8457C73.6966 81.8457 73.2736 82.2159 73.2736 82.7446V85.1242H70.8941C70.4181 85.1242 69.9951 85.4943 69.9951 86.0231C69.9951 86.5519 70.3653 86.922 70.8941 86.922H73.2736V89.3016C73.2736 89.7775 73.6437 90.2005 74.1725 90.2005C74.6484 90.2005 75.0715 89.8304 75.0715 89.3016V86.922H77.451C77.9269 86.922 78.3499 86.5519 78.3499 86.0231C78.3499 85.4943 77.9269 85.1242 77.451 85.1242Z" fill="white"/>
<defs>
<filter id="filter0_d" x="0.349609" y="0.367188" width="147.301" height="147.283" filterUnits="userSpaceOnUse" color-interpolation-filters="sRGB">
<feFlood flood-opacity="0" result="BackgroundImageFix"/>
<feColorMatrix in="SourceAlpha" type="matrix" values="0 0 0 0 0 0 0 0 0 0 0 0 0 0 0 0 0 0 127 0" result="hardAlpha"/>
<feOffset dy="11"/>
<feGaussianBlur stdDeviation="11"/>
<feColorMatrix type="matrix" values="0 0 0 0 0.397708 0 0 0 0 0.47749 0 0 0 0 0.575 0 0 0 0.27 0"/>
<feBlend mode="normal" in2="BackgroundImageFix" result="effect1_dropShadow"/>
<feBlend mode="normal" in="SourceGraphic" in2="effect1_dropShadow" result="shape"/>
</filter>
<linearGradient id="paint0_linear" x1="49.0247" y1="34.0073" x2="98.3498" y2="91.358" gradientUnits="userSpaceOnUse">
<stop stop-color="#FDFEFF"/>
<stop offset="0.9964" stop-color="#ECF0F5"/>
</linearGradient>
<linearGradient id="paint1_linear" x1="70.6897" y1="62.4555" x2="81.1851" y2="74.6586" gradientUnits="userSpaceOnUse">
<stop stop-color="#AA80F9"/>
<stop offset="1" stop-color="#756CE0"/>
</linearGradient>
<linearGradient id="paint2_linear" x1="63.6781" y1="57.0636" x2="67.8943" y2="53.4374" gradientUnits="userSpaceOnUse">
<stop stop-color="#FF66A9"/>
<stop offset="1" stop-color="#F53689"/>
</linearGradient>
<linearGradient id="paint3_linear" x1="70.5309" y1="76.0461" x2="77.5961" y2="95.3752" gradientUnits="userSpaceOnUse">
<stop stop-color="#83A6FF"/>
<stop offset="1" stop-color="#5A78FF"/>
</linearGradient>
</defs>
</svg>
