<svg width="120" height="122" viewBox="0 0 120 122" fill="none" xmlns="http://www.w3.org/2000/svg">
<g clip-path="url(#clip0_2448_39983)">
<path d="M64.4063 117.602C96.3848 117.602 113.167 103.872 113.167 83.2754C113.167 49.6266 89.7796 57.4879 76.6 46.6873C66.6687 38.5512 64.4049 15.2959 42.2064 15.2959C19.0024 15.2959 5.06166 30.3596 6.50462 58.675C7.94758 86.9905 32.4279 117.602 64.4049 117.602H64.4063Z" fill="#EAEEF9"/>
<path d="M60.2006 10.9959C61.3961 12.7776 63.7713 13.2289 65.5059 12.0035C67.2405 10.7782 67.6775 8.34043 66.4821 6.55866C65.2868 4.77689 62.9115 4.32567 61.1769 5.55093C59.4423 6.77635 59.0052 9.21398 60.2006 10.9959Z" fill="#EAEEF9"/>
<path d="M80.6441 12.4136C81.457 13.6253 83.0721 13.9321 84.2517 13.0988C85.4312 12.2657 85.7284 10.6081 84.9155 9.39641C84.1026 8.18476 82.4875 7.87786 81.308 8.71113C80.1284 9.54429 79.8312 11.2019 80.6441 12.4136Z" fill="#FC569E"/>
<path d="M106.754 38.0318C109.498 39.7282 113.061 38.8209 114.71 36.0054C116.36 33.1898 115.472 29.5322 112.728 27.8359C109.983 26.1396 106.421 27.0469 104.771 29.8625C103.122 32.678 104.009 36.3355 106.754 38.0318Z" fill="#EAEEF9"/>
<g opacity="0.2" filter="url(#filter0_f_2448_39983)">
<path d="M74.4776 54.0873L92.0547 81.5962C94.3765 85.2308 93.3855 90.1069 89.8381 92.4877C88.6007 93.3176 87.1559 93.7637 85.6775 93.7726L50.7232 93.9796C46.4844 94.0029 43.0283 90.503 43.0044 86.1575C42.9946 84.6345 43.4179 83.1415 44.2223 81.861L61.5974 54.1451C63.8899 50.4894 68.6378 49.4303 72.2057 51.7788C73.1121 52.3762 73.886 53.1628 74.4776 54.0873Z" fill="#210112"/>
</g>
<g opacity="0.2" filter="url(#filter1_f_2448_39983)">
<path d="M82.7323 60.2091L100.309 87.718C102.632 91.3537 101.64 96.2287 98.0939 98.6106C96.8565 99.4405 95.4117 99.8866 93.9322 99.8944L58.9789 100.102C54.7423 100.128 51.284 96.6259 51.2612 92.2815C51.2514 90.7585 51.6748 89.2655 52.478 87.9839L69.8543 60.2692C72.1479 56.6123 76.8946 55.5543 80.4615 57.9017C81.3689 58.5003 82.1429 59.2868 82.7334 60.2102L82.7323 60.2091Z" fill="#210112"/>
</g>
<path d="M81.8115 24.5744L118.798 82.0258C121.013 85.4667 120.08 90.0938 116.713 92.3594C115.522 93.1618 114.128 93.5866 112.702 93.5866H39.7977C35.7665 93.5882 32.4999 90.2496 32.4999 86.1275C32.4999 84.7036 32.899 83.3097 33.6481 82.1092L69.5677 24.6578C71.7383 21.187 76.2499 20.1707 79.6471 22.3906C80.5098 22.9554 81.2481 23.6996 81.8115 24.5744Z" fill="url(#paint0_linear_2448_39983)"/>
<path d="M75.6819 36.9482C72.2227 36.9482 69.5321 39.9684 69.7884 43.5138L71.7102 64.7862C71.8383 66.8872 73.632 68.5943 75.6819 68.5943C77.7318 68.5943 79.5255 66.8872 79.6536 64.7862L81.5754 43.5138C81.8317 39.8371 79.1412 36.9482 75.6819 36.9482Z" fill="white"/>
<path d="M75.6818 72.5342C73.1194 72.5342 71.0695 74.6352 71.0695 77.2614C71.0695 79.8876 73.1194 81.9886 75.6818 81.9886C78.2442 81.9886 80.2941 79.8876 80.2941 77.2614C80.2941 74.6352 78.2442 72.5342 75.6818 72.5342Z" fill="white"/>
</g>
<defs>
<filter id="filter0_f_2448_39983" x="23.0043" y="30.5293" width="90.3055" height="83.4502" filterUnits="userSpaceOnUse" color-interpolation-filters="sRGB">
<feFlood flood-opacity="0" result="BackgroundImageFix"/>
<feBlend mode="normal" in="SourceGraphic" in2="BackgroundImageFix" result="shape"/>
<feGaussianBlur stdDeviation="10" result="effect1_foregroundBlur_2448_39983"/>
</filter>
<filter id="filter1_f_2448_39983" x="31.2611" y="36.6533" width="90.3038" height="83.4492" filterUnits="userSpaceOnUse" color-interpolation-filters="sRGB">
<feFlood flood-opacity="0" result="BackgroundImageFix"/>
<feBlend mode="normal" in="SourceGraphic" in2="BackgroundImageFix" result="shape"/>
<feGaussianBlur stdDeviation="10" result="effect1_foregroundBlur_2448_39983"/>
</filter>
<linearGradient id="paint0_linear_2448_39983" x1="76.2499" y1="21.2148" x2="76.2499" y2="93.5866" gradientUnits="userSpaceOnUse">
<stop stop-color="#AA80F9"/>
<stop offset="1" stop-color="#756CE0"/>
</linearGradient>
<clipPath id="clip0_2448_39983">
<rect width="120" height="121.171" fill="white"/>
</clipPath>
</defs>
</svg>
