<svg width="130" height="122" viewBox="0 0 130 122" fill="none" xmlns="http://www.w3.org/2000/svg">
<path d="M56.9002 101.6C84.9002 101.6 107.6 78.9 107.6 50.8C107.6 22.7 84.9002 0 56.9002 0C28.9002 0 6.2002 22.7 6.2002 50.8C6.2002 78.9 28.9002 101.6 56.9002 101.6Z" fill="#EAEEF9"/>
<path d="M113.4 29.8992C115.664 29.8992 117.5 28.0636 117.5 25.7992C117.5 23.5348 115.664 21.6992 113.4 21.6992C111.135 21.6992 109.3 23.5348 109.3 25.7992C109.3 28.0636 111.135 29.8992 113.4 29.8992Z" fill="#EAEEF9"/>
<path d="M119.4 13.7992C120.946 13.7992 122.2 12.5456 122.2 10.9992C122.2 9.45282 120.946 8.19922 119.4 8.19922C117.854 8.19922 116.6 9.45282 116.6 10.9992C116.6 12.5456 117.854 13.7992 119.4 13.7992Z" fill="#EAEEF9"/>
<path d="M2.8 32.7992C4.3464 32.7992 5.6 31.5456 5.6 29.9992C5.6 28.4528 4.3464 27.1992 2.8 27.1992C1.2536 27.1992 0 28.4528 0 29.9992C0 31.5456 1.2536 32.7992 2.8 32.7992Z" fill="#EAEEF9"/>
<path d="M7.9998 93.7008C10.8717 93.7008 13.1998 91.3727 13.1998 88.5008C13.1998 85.6289 10.8717 83.3008 7.9998 83.3008C5.12792 83.3008 2.7998 85.6289 2.7998 88.5008C2.7998 91.3727 5.12792 93.7008 7.9998 93.7008Z" fill="#EAEEF9"/>
<path d="M88.3001 21.2016V62.9016C88.3001 65.4016 86.2001 67.5016 83.7001 67.5016H14.7001C12.2001 67.5016 10.1001 65.5016 10.1001 62.9016V21.2016C10.1001 18.7016 12.2001 16.6016 14.7001 16.6016H83.7001C86.2001 16.6016 88.3001 18.7016 88.3001 21.2016Z" fill="#FEFEFE"/>
<path opacity="0.3" d="M88.2999 35.1016V62.9016C88.2999 65.4016 86.1999 67.5016 83.6999 67.5016H25.8999V39.7016C25.8999 37.2016 27.8999 35.1016 30.4999 35.1016H88.2999Z" fill="#989FB0"/>
<g filter="url(#filter0_d_561_7438)">
<path d="M100.6 88.5016H36.5C32.6 88.5016 29.5 85.4016 29.5 81.5016V44.6016C29.5 40.7016 32.6 37.6016 36.5 37.6016H100.6C104.5 37.6016 107.6 40.7016 107.6 44.6016V81.5016C107.6 85.4016 104.5 88.5016 100.6 88.5016Z" fill="url(#paint0_linear_561_7438)"/>
</g>
<path d="M49.3 77.0008H39.1C38.2 77.0008 37.5 76.3008 37.5 75.4008C37.5 74.5008 38.2 73.8008 39.1 73.8008H49.3C50.2 73.8008 50.9 74.5008 50.9 75.4008C50.9 76.3008 50.2 77.0008 49.3 77.0008Z" fill="#F4ECF0"/>
<path d="M65.8 77.0008H55.6C54.7 77.0008 54 76.3008 54 75.4008C54 74.5008 54.7 73.8008 55.6 73.8008H65.8C66.7 73.8008 67.4 74.5008 67.4 75.4008C67.4 76.3008 66.7 77.0008 65.8 77.0008Z" fill="#F4ECF0"/>
<path d="M82.3 77.0008H72.1C71.2 77.0008 70.5 76.3008 70.5 75.4008C70.5 74.5008 71.2 73.8008 72.1 73.8008H82.3C83.2 73.8008 83.9 74.5008 83.9 75.4008C83.9 76.3008 83.2 77.0008 82.3 77.0008Z" fill="#F4ECF0"/>
<path d="M98.8 77.0008H88.6C87.7 77.0008 87 76.3008 87 75.4008C87 74.5008 87.7 73.8008 88.6 73.8008H98.8C99.7 73.8008 100.4 74.5008 100.4 75.4008C100.4 76.3008 99.7 77.0008 98.8 77.0008Z" fill="#F4ECF0"/>
<path d="M95.1001 57.8008C98.4138 57.8008 101.1 55.1145 101.1 51.8008C101.1 48.4871 98.4138 45.8008 95.1001 45.8008C91.7864 45.8008 89.1001 48.4871 89.1001 51.8008C89.1001 55.1145 91.7864 57.8008 95.1001 57.8008Z" fill="#ED438F"/>
<path d="M87.2002 57.8008C90.5139 57.8008 93.2002 55.1145 93.2002 51.8008C93.2002 48.4871 90.5139 45.8008 87.2002 45.8008C83.8865 45.8008 81.2002 48.4871 81.2002 51.8008C81.2002 55.1145 83.8865 57.8008 87.2002 57.8008Z" fill="#FFBF1C"/>
<path d="M88.3002 25.1016H10.2002V34.9016H88.3002V25.1016Z" fill="#D1D1D1"/>
<path d="M50.2 59.7H39C38.2 59.7 37.5 59 37.5 58.2V51C37.5 50.2 38.2 49.5 39 49.5H50.1C50.9 49.5 51.6 50.2 51.6 51V58.2C51.7 59 51 59.7 50.2 59.7Z" fill="#F4ECF0"/>
<defs>
<filter id="filter0_d_561_7438" x="7.5" y="26.6016" width="122.1" height="94.8984" filterUnits="userSpaceOnUse" color-interpolation-filters="sRGB">
<feFlood flood-opacity="0" result="BackgroundImageFix"/>
<feColorMatrix in="SourceAlpha" type="matrix" values="0 0 0 0 0 0 0 0 0 0 0 0 0 0 0 0 0 0 127 0" result="hardAlpha"/>
<feOffset dy="11"/>
<feGaussianBlur stdDeviation="11"/>
<feColorMatrix type="matrix" values="0 0 0 0 0.397708 0 0 0 0 0.47749 0 0 0 0 0.575 0 0 0 0.27 0"/>
<feBlend mode="normal" in2="BackgroundImageFix" result="effect1_dropShadow_561_7438"/>
<feBlend mode="normal" in="SourceGraphic" in2="effect1_dropShadow_561_7438" result="shape"/>
</filter>
<linearGradient id="paint0_linear_561_7438" x1="68.5245" y1="36.4242" x2="68.5245" y2="89.0503" gradientUnits="userSpaceOnUse">
<stop stop-color="#9A48EC" stop-opacity="0.54"/>
<stop offset="0.9964" stop-color="#612BA5"/>
</linearGradient>
</defs>
</svg>
