<svg width="120" height="120" viewBox="0 0 120 120" fill="none" xmlns="http://www.w3.org/2000/svg">
<g clip-path="url(#clip0_3086_29712)">
<path d="M111.084 62.212C111.084 74.0119 107.129 85.0185 100.507 93.7444C96.8492 98.504 92.4998 102.669 87.4584 105.94C79.3527 111.295 69.5664 114.369 59.0883 114.369C30.4216 114.369 7.09277 91.0672 7.09277 62.212C7.09277 33.456 30.3227 10.0547 59.0883 10.0547C69.5664 10.0547 79.2538 13.1286 87.4584 18.4832C92.4998 21.7554 96.8492 25.92 100.507 30.6796C107.129 39.4056 111.084 50.3131 111.084 62.212Z" fill="#EAEEF9"/>
<path d="M40.6643 26.3549C40.2876 26.5409 39.7878 26.4753 39.5095 26.0662L37.0095 21.7571C36.8248 21.3799 36.8911 20.8787 37.2998 20.599C37.6765 20.4131 38.1763 20.4786 38.4545 20.8878L40.9545 25.1968C41.1393 25.574 41.0409 26.169 40.6643 26.3549Z" fill="url(#paint0_linear_3086_29712)"/>
<path d="M37.5258 31.8819C37.3683 32.0377 37.0237 32.1298 36.7429 32.0341L32.1582 30.4716C31.6903 30.3122 31.5375 29.8412 31.6655 29.4657C31.8254 28.9964 32.2957 28.8424 32.6699 28.9699L37.2547 30.5324C37.7225 30.6918 37.8753 31.163 37.7474 31.5383C37.7154 31.6322 37.6834 31.7261 37.5258 31.8819Z" fill="url(#paint1_linear_3086_29712)"/>
<path d="M46.4157 26.6369C46.2901 26.6989 46.103 26.6351 46.0094 26.6032C45.5416 26.4438 45.3569 26.0666 45.4232 25.5654L46.8969 20.9345C47.0249 20.559 47.4336 20.2793 47.9014 20.4387C48.3692 20.5981 48.554 20.9754 48.4876 21.4766L47.0138 26.1075C46.9179 26.389 46.6668 26.513 46.4157 26.6369Z" fill="url(#paint2_linear_3086_29712)"/>
<path d="M4.43498 37.0871C5.73295 36.6639 6.44316 35.2653 6.02128 33.9633C5.59939 32.6614 4.20517 31.9489 2.90721 32.3721C1.60924 32.7953 0.899032 34.1937 1.32091 35.4958C1.7428 36.7978 3.13701 37.5102 4.43498 37.0871Z" fill="#EAEEF9"/>
<path d="M10.61 30.5665C11.4926 30.2787 11.9755 29.3277 11.6887 28.4424C11.4017 27.557 10.4537 27.0726 9.5711 27.3603C8.68849 27.6481 8.20554 28.5991 8.49242 29.4845C8.77929 30.3698 9.72735 30.8542 10.61 30.5665Z" fill="#EAEEF9"/>
<path d="M1.68046 56.5354C2.60855 56.5354 3.36092 55.7808 3.36092 54.8498C3.36092 53.9188 2.60855 53.1641 1.68046 53.1641C0.752368 53.1641 0 53.9188 0 54.8498C0 55.7808 0.752368 56.5354 1.68046 56.5354Z" fill="url(#paint3_linear_3086_29712)"/>
<path d="M118.778 39.7723C120.309 38.3685 120.416 35.9851 119.017 34.4489C117.618 32.9126 115.242 32.8053 113.71 34.2092C112.179 35.6131 112.071 37.9965 113.47 39.5327C114.871 41.0689 117.247 41.1762 118.778 39.7723Z" fill="#EAEEF9"/>
<path d="M18.8448 102.382C20.4859 104.023 22.9772 104.465 25.0827 103.488L82.2244 78.8869C85.0213 77.59 85.6749 73.906 83.4951 71.726L49.6239 37.8549C47.444 35.6749 43.7599 36.3285 42.4631 39.1255L17.738 96.1438C16.7617 98.2492 17.2036 100.741 18.8448 102.382Z" fill="url(#paint4_linear_3086_29712)"/>
<path d="M66.4452 73.4975L24.4407 91.5818C22.9561 92.2702 21.2124 91.9972 20.0078 90.9095L17.738 96.1437C16.7617 98.2494 17.2036 100.741 18.8448 102.382C20.4859 104.023 22.9772 104.465 25.0827 103.488L81.6764 79.1228C80.3727 78.6002 66.6572 73.3992 66.4452 73.4975Z" fill="url(#paint5_linear_3086_29712)"/>
<path d="M83.8911 76.5737C87.7956 72.6691 82.1187 60.6617 71.2114 49.7544C60.3041 38.847 48.2966 33.1702 44.3921 37.0747C40.4875 40.9793 46.1644 52.9867 57.0718 63.894C67.9791 74.8014 79.9865 80.4782 83.8911 76.5737Z" fill="url(#paint6_linear_3086_29712)"/>
<path d="M73.9953 71.5417C76.5566 68.9804 72.4079 60.6789 64.7288 52.9999C57.0498 45.3208 48.7483 41.1721 46.187 43.7334C43.6257 46.2947 47.7744 54.5962 55.4535 62.2752C63.1325 69.9543 71.434 74.103 73.9953 71.5417Z" fill="#5C42FF"/>
<path d="M58.6607 48.4847C58.184 48.008 57.8161 47.409 57.6118 46.7168L55.7336 40.3594C55.0242 37.9587 55.6644 35.3865 57.404 33.6468L60.8183 30.2325C62.5582 28.4927 65.1304 27.8527 67.5311 28.5621L74.3699 30.4923L72.0633 22.2633C71.4097 20.0512 72.6733 17.7282 74.8854 17.0746C77.0974 16.421 79.4204 17.6845 80.0742 19.8966L81.9524 26.254C82.6616 28.655 82.0217 31.2272 80.282 32.9666L76.8677 36.3809C75.1281 38.1205 72.5559 38.7605 70.1551 38.0513L63.2465 35.7984L65.6227 44.3501C66.2763 46.5622 65.0128 48.8852 62.8007 49.5388C61.2804 49.9879 59.7077 49.5317 58.6607 48.4847Z" fill="url(#paint7_linear_3086_29712)"/>
<path d="M74.3698 30.4956L67.5311 28.5655C65.4675 27.9557 63.278 28.3437 61.5986 29.5691C62.0688 31.4492 62.667 33.9504 63.2463 35.8015L70.1549 38.0544C72.3164 38.693 74.6162 38.2374 76.3229 36.8709C75.7185 34.9787 74.945 32.3968 74.3698 30.4956Z" fill="#EF8BBD"/>
<path d="M85.1107 45.5135C85.5874 45.9902 86.1866 46.3581 86.8786 46.5624L93.236 48.4405C95.6365 49.1498 98.2089 48.5098 99.9486 46.7702L103.363 43.3559C105.103 41.616 105.743 39.0438 105.033 36.6431L103.103 29.8043L111.332 32.1107C113.544 32.7643 115.867 31.5007 116.521 29.2886C117.175 27.0766 115.911 24.7536 113.699 24.1L107.342 22.2218C104.941 21.5125 102.368 22.1527 100.629 23.8922L97.2147 27.3065C95.4751 29.0461 94.8351 31.6183 95.5443 34.0191L97.797 40.9277L89.2453 38.5515C87.0332 37.8979 84.7102 39.1614 84.0566 41.3735C83.6073 42.8938 84.0637 44.4665 85.1107 45.5135Z" fill="url(#paint8_linear_3086_29712)"/>
<path d="M105.033 36.6443L103.103 29.8056C101.113 29.3768 98.3297 28.8282 96.3439 28.3828C95.2806 30.0189 94.9695 32.0758 95.5441 34.0206L97.7968 40.9292C99.8565 41.4378 102.036 41.7885 104.014 42.5983C105.252 40.9162 105.645 38.7167 105.033 36.6443Z" fill="#EF8BBD"/>
<path d="M94.9521 11.7891C93.6279 13.1133 91.4806 13.1133 90.1563 11.7891C88.832 10.4648 88.832 8.31749 90.1563 6.99321C91.4806 5.66893 93.6279 5.66893 94.9521 6.99321C96.2764 8.3177 96.2764 10.4648 94.9521 11.7891Z" fill="#EAEEF9"/>
<path d="M99.9517 67.5088C101.825 67.5088 103.343 65.9906 103.343 64.1177C103.343 62.2448 101.825 60.7266 99.9517 60.7266C98.0788 60.7266 96.5605 62.2448 96.5605 64.1177C96.5605 65.9906 98.0788 67.5088 99.9517 67.5088Z" fill="url(#paint9_linear_3086_29712)"/>
<path d="M35.6883 77.073C35.4204 77.073 35.1478 77.0195 34.8862 76.9068C33.8558 76.4632 33.3801 75.2685 33.8239 74.2381L36.3961 68.2638C36.8397 67.2337 38.0348 66.7572 39.0648 67.2016C40.0951 67.6452 40.5708 68.8399 40.127 69.8702L37.5548 75.8445C37.224 76.6129 36.4751 77.073 35.6883 77.073Z" fill="#EAEEF9"/>
<path d="M41.1389 64.4119C40.871 64.4119 40.5987 64.3585 40.3367 64.2458C39.3065 63.8022 38.8308 62.6075 39.2746 61.5769L40.0586 59.7558C40.5022 58.7259 41.6965 58.2494 42.7275 58.6938C43.7576 59.1374 44.2333 60.3321 43.7897 61.3626L43.0057 63.1837C42.6747 63.9519 41.9256 64.4119 41.1389 64.4119Z" fill="#EAEEF9"/>
<path d="M113.599 47.6577L114.837 51.1376C114.89 51.2867 114.995 51.4047 115.127 51.4644L118.219 52.8573C118.656 53.0542 118.656 53.75 118.219 53.9468L115.127 55.3398C114.995 55.3995 114.89 55.5175 114.837 55.6666L113.599 59.1465C113.424 59.6382 112.806 59.6382 112.631 59.1465L111.394 55.6666C111.341 55.5175 111.236 55.3995 111.103 55.3398L108.012 53.9468C107.575 53.75 107.575 53.0542 108.012 52.8573L111.103 51.4644C111.236 51.4047 111.341 51.2867 111.394 51.1376L112.631 47.6577C112.806 47.1662 113.424 47.1662 113.599 47.6577Z" fill="url(#paint10_linear_3086_29712)"/>
<path d="M90.5881 21.4515C91.456 21.4515 92.1595 20.748 92.1595 19.8801C92.1595 19.0122 91.456 18.3086 90.5881 18.3086C89.7202 18.3086 89.0166 19.0122 89.0166 19.8801C89.0166 20.748 89.7202 21.4515 90.5881 21.4515Z" fill="url(#paint11_linear_3086_29712)"/>
<path d="M114.381 10.1555C114.577 8.56458 113.446 7.11648 111.855 6.92101C110.264 6.72554 108.815 7.85673 108.62 9.4476C108.425 11.0385 109.556 12.4866 111.147 12.6821C112.738 12.8775 114.186 11.7463 114.381 10.1555Z" fill="#8BB6EF"/>
</g>
<defs>
<linearGradient id="paint0_linear_3086_29712" x1="38.2602" y1="23.8509" x2="39.681" y2="23.0419" gradientUnits="userSpaceOnUse">
<stop stop-color="#FF66A9"/>
<stop offset="1" stop-color="#F53689"/>
</linearGradient>
<linearGradient id="paint1_linear_3086_29712" x1="34.4904" y1="31.2157" x2="35.009" y2="29.6621" gradientUnits="userSpaceOnUse">
<stop stop-color="#FF66A9"/>
<stop offset="1" stop-color="#F53689"/>
</linearGradient>
<linearGradient id="paint2_linear_3086_29712" x1="47.7817" y1="23.7591" x2="46.2208" y2="23.2796" gradientUnits="userSpaceOnUse">
<stop stop-color="#FF66A9"/>
<stop offset="1" stop-color="#F53689"/>
</linearGradient>
<linearGradient id="paint3_linear_3086_29712" x1="0" y1="54.8091" x2="3.26741" y2="54.8091" gradientUnits="userSpaceOnUse">
<stop stop-color="#83A6FF"/>
<stop offset="1" stop-color="#5A78FF"/>
</linearGradient>
<linearGradient id="paint4_linear_3086_29712" x1="51.0099" y1="36.5547" x2="51.0099" y2="104.002" gradientUnits="userSpaceOnUse">
<stop stop-color="#AA80F9"/>
<stop offset="1" stop-color="#756CE0"/>
</linearGradient>
<linearGradient id="paint5_linear_3086_29712" x1="53.1443" y1="91.5508" x2="49.8029" y2="85.1247" gradientUnits="userSpaceOnUse">
<stop stop-color="#B24FFF"/>
<stop offset="1" stop-color="#9665FF" stop-opacity="0"/>
</linearGradient>
<linearGradient id="paint6_linear_3086_29712" x1="70.5934" y1="50.336" x2="56.5956" y2="64.3338" gradientUnits="userSpaceOnUse">
<stop stop-color="#C183FF"/>
<stop offset="1" stop-color="#5A61FF"/>
</linearGradient>
<linearGradient id="paint7_linear_3086_29712" x1="55.4506" y1="33.294" x2="82.2353" y2="33.294" gradientUnits="userSpaceOnUse">
<stop stop-color="#FF66A9"/>
<stop offset="1" stop-color="#F53689"/>
</linearGradient>
<linearGradient id="paint8_linear_3086_29712" x1="83.886" y1="35.3208" x2="116.692" y2="35.3208" gradientUnits="userSpaceOnUse">
<stop stop-color="#FF66A9"/>
<stop offset="1" stop-color="#F53689"/>
</linearGradient>
<linearGradient id="paint9_linear_3086_29712" x1="96.5605" y1="64.036" x2="103.154" y2="64.036" gradientUnits="userSpaceOnUse">
<stop stop-color="#83A6FF"/>
<stop offset="1" stop-color="#5A78FF"/>
</linearGradient>
<linearGradient id="paint10_linear_3086_29712" x1="107.754" y1="53.351" x2="118.566" y2="53.351" gradientUnits="userSpaceOnUse">
<stop stop-color="#FF66A9"/>
<stop offset="1" stop-color="#F53689"/>
</linearGradient>
<linearGradient id="paint11_linear_3086_29712" x1="89.0166" y1="19.8422" x2="92.0721" y2="19.8422" gradientUnits="userSpaceOnUse">
<stop stop-color="#83A6FF"/>
<stop offset="1" stop-color="#5A78FF"/>
</linearGradient>
<clipPath id="clip0_3086_29712">
<rect width="120" height="120" fill="white"/>
</clipPath>
</defs>
</svg>
