<svg width="32" height="32" viewBox="0 0 32 32" fill="none" xmlns="http://www.w3.org/2000/svg">
<path d="M25.3332 6.66797H6.6665C5.60564 6.66797 4.58822 7.0894 3.83808 7.83954C3.08793 8.58969 2.6665 9.6071 2.6665 10.668V21.3346C2.6665 22.3955 3.08793 23.4129 3.83808 24.1631C4.58822 24.9132 5.60564 25.3346 6.6665 25.3346H25.3332C26.394 25.3346 27.4115 24.9132 28.1616 24.1631C28.9117 23.4129 29.3332 22.3955 29.3332 21.3346V10.668C29.3332 9.6071 28.9117 8.58969 28.1616 7.83954C27.4115 7.0894 26.394 6.66797 25.3332 6.66797ZM5.33317 10.668C5.33317 10.3143 5.47365 9.97521 5.7237 9.72516C5.97374 9.47511 6.31288 9.33464 6.6665 9.33464H25.3332C25.6868 9.33464 26.0259 9.47511 26.276 9.72516C26.526 9.97521 26.6665 10.3143 26.6665 10.668V12.0013H5.33317V10.668ZM26.6665 21.3346C26.6665 21.6883 26.526 22.0274 26.276 22.2774C26.0259 22.5275 25.6868 22.668 25.3332 22.668H6.6665C6.31288 22.668 5.97374 22.5275 5.7237 22.2774C5.47365 22.0274 5.33317 21.6883 5.33317 21.3346V14.668H26.6665V21.3346Z" fill="url(#paint0_linear_568_7297)"/>
<circle cx="20" cy="19" r="2" fill="url(#paint1_linear_568_7297)"/>
<circle cx="23" cy="19" r="2" fill="url(#paint2_linear_568_7297)"/>
<defs>
<linearGradient id="paint0_linear_568_7297" x1="15.9998" y1="6.66797" x2="15.9998" y2="25.3346" gradientUnits="userSpaceOnUse">
<stop stop-color="#AA80F9"/>
<stop offset="1" stop-color="#756CE0"/>
</linearGradient>
<linearGradient id="paint1_linear_568_7297" x1="20" y1="17" x2="20" y2="21" gradientUnits="userSpaceOnUse">
<stop stop-color="#AA80F9"/>
<stop offset="1" stop-color="#756CE0"/>
</linearGradient>
<linearGradient id="paint2_linear_568_7297" x1="23" y1="17" x2="23" y2="21" gradientUnits="userSpaceOnUse">
<stop stop-color="#AA80F9"/>
<stop offset="1" stop-color="#756CE0"/>
</linearGradient>
</defs>
</svg>
