<svg width="32" height="32" viewBox="0 0 32 32" fill="none" xmlns="http://www.w3.org/2000/svg">
<path d="M25.3332 6.66797H6.6665C5.60564 6.66797 4.58822 7.0894 3.83808 7.83954C3.08793 8.58969 2.6665 9.6071 2.6665 10.668V21.3346C2.6665 22.3955 3.08793 23.4129 3.83808 24.1631C4.58822 24.9132 5.60564 25.3346 6.6665 25.3346H25.3332C26.394 25.3346 27.4115 24.9132 28.1616 24.1631C28.9117 23.4129 29.3332 22.3955 29.3332 21.3346V10.668C29.3332 9.6071 28.9117 8.58969 28.1616 7.83954C27.4115 7.0894 26.394 6.66797 25.3332 6.66797ZM5.33317 10.668C5.33317 10.3143 5.47365 9.97521 5.7237 9.72516C5.97374 9.47511 6.31288 9.33464 6.6665 9.33464H25.3332C25.6868 9.33464 26.0259 9.47511 26.276 9.72516C26.526 9.97521 26.6665 10.3143 26.6665 10.668V12.0013H5.33317V10.668ZM26.6665 21.3346C26.6665 21.6883 26.526 22.0274 26.276 22.2774C26.0259 22.5275 25.6868 22.668 25.3332 22.668H6.6665C6.31288 22.668 5.97374 22.5275 5.7237 22.2774C5.47365 22.0274 5.33317 21.6883 5.33317 21.3346V14.668H26.6665V21.3346Z" fill="url(#paint0_linear_553_8115)"/>
<path d="M9.33333 20.0026H14.6667C15.0203 20.0026 15.3594 19.8621 15.6095 19.6121C15.8595 19.362 16 19.0229 16 18.6693C16 18.3156 15.8595 17.9765 15.6095 17.7265C15.3594 17.4764 15.0203 17.3359 14.6667 17.3359H9.33333C8.97971 17.3359 8.64057 17.4764 8.39052 17.7265C8.14048 17.9765 8 18.3156 8 18.6693C8 19.0229 8.14048 19.362 8.39052 19.6121C8.64057 19.8621 8.97971 20.0026 9.33333 20.0026ZM20 20.0026H22.6667C23.0203 20.0026 23.3594 19.8621 23.6095 19.6121C23.8595 19.362 24 19.0229 24 18.6693C24 18.3156 23.8595 17.9765 23.6095 17.7265C23.3594 17.4764 23.0203 17.3359 22.6667 17.3359H20C19.6464 17.3359 19.3072 17.4764 19.0572 17.7265C18.8071 17.9765 18.6667 18.3156 18.6667 18.6693C18.6667 19.0229 18.8071 19.362 19.0572 19.6121C19.3072 19.8621 19.6464 20.0026 20 20.0026Z" fill="url(#paint1_linear_553_8115)"/>
<defs>
<linearGradient id="paint0_linear_553_8115" x1="15.9998" y1="6.66797" x2="15.9998" y2="25.3346" gradientUnits="userSpaceOnUse">
<stop stop-color="#AA80F9"/>
<stop offset="1" stop-color="#756CE0"/>
</linearGradient>
<linearGradient id="paint1_linear_553_8115" x1="16" y1="17.3359" x2="16" y2="20.0026" gradientUnits="userSpaceOnUse">
<stop stop-color="#AA80F9"/>
<stop offset="1" stop-color="#756CE0"/>
</linearGradient>
</defs>
</svg>
