<svg  viewBox="0 0 173 48" fill="none" xmlns="http://www.w3.org/2000/svg">
<path d="M133.964 42.7647C133.964 43.1603 133.837 43.4636 133.583 43.6746C133.337 43.8768 133.057 43.9779 132.742 43.9779C132.426 43.9779 132.142 43.8768 131.887 43.6746C131.642 43.4636 131.52 43.1603 131.52 42.7647C131.52 42.3691 131.642 42.0702 131.887 41.868C132.142 41.657 132.426 41.5515 132.742 41.5515C133.057 41.5515 133.337 41.657 133.583 41.868C133.837 42.0702 133.964 42.3691 133.964 42.7647Z" fill="white"/>
<path d="M134.553 40.3383C134.553 39.8372 134.632 39.3669 134.789 38.9273C134.956 38.479 135.192 38.0921 135.499 37.7669C135.806 37.4328 136.178 37.1691 136.616 36.9757C137.054 36.7823 137.553 36.6855 138.114 36.6855C138.482 36.6855 138.819 36.7207 139.126 36.791C139.433 36.8526 139.73 36.9449 140.02 37.068L139.612 38.6372C139.428 38.5669 139.227 38.5053 139.008 38.4526C138.789 38.3998 138.543 38.3735 138.272 38.3735C137.694 38.3735 137.26 38.5537 136.971 38.9141C136.69 39.2746 136.55 39.7493 136.55 40.3383C136.55 40.9625 136.682 41.446 136.945 41.7889C137.216 42.1317 137.685 42.3032 138.351 42.3032C138.587 42.3032 138.841 42.2812 139.113 42.2372C139.384 42.1933 139.634 42.1229 139.862 42.0262L140.138 43.635C139.91 43.7317 139.625 43.8153 139.284 43.8856C138.942 43.9559 138.565 43.9911 138.154 43.9911C137.523 43.9911 136.98 43.8988 136.524 43.7142C136.068 43.5207 135.692 43.2614 135.394 42.9361C135.105 42.6109 134.89 42.2284 134.75 41.7889C134.619 41.3405 134.553 40.857 134.553 40.3383Z" fill="white"/>
<path d="M147.584 40.3251C147.584 40.8702 147.505 41.3713 147.347 41.8284C147.19 42.2768 146.962 42.6636 146.664 42.9889C146.366 43.3054 146.007 43.5515 145.586 43.7273C145.175 43.9032 144.71 43.9911 144.193 43.9911C143.685 43.9911 143.221 43.9032 142.8 43.7273C142.389 43.5515 142.034 43.3054 141.736 42.9889C141.438 42.6636 141.206 42.2768 141.039 41.8284C140.873 41.3713 140.79 40.8702 140.79 40.3251C140.79 39.7801 140.873 39.2834 141.039 38.835C141.215 38.3867 141.451 38.0042 141.749 37.6877C142.056 37.3713 142.415 37.1251 142.827 36.9493C143.247 36.7735 143.703 36.6855 144.193 36.6855C144.693 36.6855 145.148 36.7735 145.56 36.9493C145.981 37.1251 146.34 37.3713 146.638 37.6877C146.936 38.0042 147.168 38.3867 147.334 38.835C147.501 39.2834 147.584 39.7801 147.584 40.3251ZM145.586 40.3251C145.586 39.7185 145.464 39.2438 145.218 38.9009C144.982 38.5493 144.64 38.3735 144.193 38.3735C143.747 38.3735 143.401 38.5493 143.155 38.9009C142.91 39.2438 142.787 39.7185 142.787 40.3251C142.787 40.9317 142.91 41.4152 143.155 41.7757C143.401 42.1273 143.747 42.3032 144.193 42.3032C144.64 42.3032 144.982 42.1273 145.218 41.7757C145.464 41.4152 145.586 40.9317 145.586 40.3251Z" fill="white"/>
<path d="M152.898 40.1273C152.898 39.4944 152.815 39.046 152.649 38.7823C152.491 38.5185 152.215 38.3867 151.821 38.3867C151.698 38.3867 151.571 38.3954 151.44 38.413C151.308 38.4218 151.181 38.435 151.059 38.4526V43.8065H149.101V37.1075C149.267 37.0636 149.46 37.0196 149.679 36.9757C149.907 36.9229 150.143 36.879 150.388 36.8438C150.643 36.7998 150.901 36.7691 151.164 36.7515C151.427 36.7251 151.685 36.7119 151.939 36.7119C152.439 36.7119 152.842 36.7779 153.148 36.9097C153.464 37.0328 153.722 37.1823 153.924 37.3581C154.204 37.1559 154.524 36.9976 154.883 36.8834C155.251 36.7691 155.588 36.7119 155.895 36.7119C156.447 36.7119 156.898 36.791 157.248 36.9493C157.607 37.0987 157.892 37.3141 158.102 37.5954C158.313 37.8768 158.457 38.2108 158.536 38.5976C158.615 38.9845 158.654 39.4152 158.654 39.89V43.8065H156.696V40.1273C156.696 39.4944 156.613 39.046 156.447 38.7823C156.289 38.5185 156.013 38.3867 155.619 38.3867C155.514 38.3867 155.365 38.413 155.172 38.4658C154.988 38.5185 154.835 38.5845 154.712 38.6636C154.773 38.8658 154.813 39.0812 154.83 39.3097C154.848 39.5295 154.857 39.7669 154.857 40.0218V43.8065H152.898V40.1273Z" fill="white"/>
<path fill-rule="evenodd" clip-rule="evenodd" d="M134.684 29.0933V33.2408H128.416V26.5169C129.188 27.1301 130.207 28.1661 130.207 28.1661C130.207 28.1661 129.696 25.7847 128.895 23.9466C128.481 22.9967 128.011 22.0942 127.664 21.4636C127.105 20.4325 126.471 19.4152 125.79 18.5757C123.956 16.3154 122.022 15.1202 121.168 14.6631C121.023 14.5851 121.044 14.3532 121.205 14.3141C122.347 14.036 124.003 13.7841 125.968 14.5172C128.517 15.468 130.18 17.3188 131.148 19.1059C133.95 13.8575 144.406 10.0453 150.062 8.60049C150.257 8.55066 150.373 8.83728 150.203 8.94468C148.297 10.1464 144.078 13.0689 139.908 17.7181C135.338 22.8144 134.746 27.5101 134.684 29.0933ZM81.0167 33.2084L89.1785 17.6249C89.4594 17.0699 89.9768 16.6998 90.7306 16.5148C90.9499 16.4599 91.2206 16.4325 91.5427 16.4325C91.8648 16.4325 92.2143 16.5251 92.5912 16.7101C92.975 16.8883 93.2765 17.1726 93.4958 17.5633L102.254 33.2084H93.9172L93.2697 31.5843H88.829L88.2739 33.2084H81.0167ZM89.3327 28.3257H92.6529L91.0802 23.885L89.3327 28.3257ZM67.0162 16.7923H82.5586V22.117H77.9843V33.2084H71.5905V22.117H67.0162V16.7923ZM105.481 16.7923H103.816V33.2084H109.583V27.565L118.022 33.2084H120.232V16.7923H114.445V23.1861L105.481 16.7923ZM137.416 33.2084L145.578 17.6249C145.859 17.0699 146.377 16.6998 147.13 16.5148C147.35 16.4599 147.62 16.4325 147.943 16.4325C148.265 16.4325 148.614 16.5251 148.991 16.7101C149.375 16.8883 149.676 17.1726 149.896 17.5633L158.654 33.2084H150.317L149.669 31.5843H145.229L144.674 33.2084H137.416ZM145.732 28.3257H149.053L147.48 23.885L145.732 28.3257ZM34.5654 16.7926V21.8397L38.523 16.7926H45.1942L39.8901 23.7105L46.0166 33.2086H38.523L35.0897 27.4008L34.7093 28.069V33.2086H28.0586V16.7926H34.5654ZM56.1623 33.6095C50.7142 33.6095 47.9902 31.2933 47.9902 26.6607V16.7926H54.4765V26.4757C54.4765 27.4488 54.802 28.0827 55.453 28.3774C55.6792 28.4802 55.9498 28.5316 56.2651 28.5316C57.156 28.5316 57.7179 28.1067 57.9509 27.2569C58.0194 27.0034 58.0537 26.7292 58.0537 26.4346V16.7926H63.7381V26.6607C63.7381 31.2933 61.2129 33.6095 56.1623 33.6095Z" fill="white"/>
<path fill-rule="evenodd" clip-rule="evenodd" d="M45.6628 13.6222C42.7791 10.2521 38.4948 8.11619 33.7116 8.11619C25.0282 8.11619 17.989 15.1554 17.989 23.8388C17.989 25.6265 18.2863 27.3392 18.832 28.9335C19.2239 30.0784 19.2008 31.4128 18.5897 32.6115L15.5529 38.5681L23.461 37.2781C24.5219 37.105 25.5539 37.3177 26.4139 37.7694C28.5919 38.9131 31.0721 39.5614 33.7116 39.5614C37.0291 39.5614 40.1067 38.5338 42.6433 36.7797H50.3963C46.5335 41.7529 40.4962 44.9529 33.7116 44.9529C30.2516 44.9529 26.979 44.1187 24.091 42.6382L14.8958 44.1382C11.169 44.7461 8.33255 40.8601 10.0477 37.496L13.6484 30.4333C12.9657 28.3551 12.5974 26.1374 12.5974 23.8388C12.5974 12.1777 22.0505 2.72461 33.7116 2.72461C41.6665 2.72461 48.594 7.12388 52.1938 13.6222H45.6628Z" fill="white"/>
</svg>
