<svg width="138" height="38" viewBox="0 0 138 38" fill="none" xmlns="http://www.w3.org/2000/svg">
<path d="M106.772 34.0855C106.772 34.4008 106.671 34.6425 106.469 34.8107C106.273 34.9719 106.05 35.0524 105.798 35.0524C105.547 35.0524 105.32 34.9719 105.117 34.8107C104.922 34.6425 104.824 34.4008 104.824 34.0855C104.824 33.7702 104.922 33.5319 105.117 33.3708C105.32 33.2026 105.547 33.1185 105.798 33.1185C106.05 33.1185 106.273 33.2026 106.469 33.3708C106.671 33.5319 106.772 33.7702 106.772 34.0855Z" fill="white"/>
<path d="M107.242 32.1516C107.242 31.7522 107.305 31.3773 107.43 31.027C107.563 30.6696 107.752 30.3613 107.996 30.1021C108.24 29.8358 108.537 29.6256 108.886 29.4715C109.235 29.3173 109.633 29.2402 110.08 29.2402C110.374 29.2402 110.642 29.2683 110.887 29.3243C111.131 29.3734 111.369 29.4469 111.599 29.545L111.274 30.7958C111.128 30.7397 110.967 30.6907 110.793 30.6486C110.618 30.6066 110.422 30.5856 110.206 30.5856C109.745 30.5856 109.399 30.7292 109.169 31.0165C108.946 31.3038 108.834 31.6821 108.834 32.1516C108.834 32.6491 108.939 33.0345 109.148 33.3077C109.365 33.581 109.738 33.7176 110.269 33.7176C110.457 33.7176 110.66 33.7001 110.876 33.6651C111.093 33.63 111.292 33.574 111.473 33.4969L111.693 34.7792C111.512 34.8562 111.285 34.9228 111.012 34.9789C110.74 35.0349 110.44 35.0629 110.112 35.0629C109.609 35.0629 109.176 34.9894 108.813 34.8422C108.45 34.6881 108.15 34.4814 107.912 34.2221C107.682 33.9629 107.511 33.6581 107.399 33.3077C107.294 32.9504 107.242 32.565 107.242 32.1516Z" fill="white"/>
<path d="M117.628 32.1411C117.628 32.5755 117.565 32.9749 117.439 33.3393C117.314 33.6966 117.132 34.0049 116.895 34.2642C116.657 34.5164 116.371 34.7126 116.036 34.8527C115.708 34.9929 115.338 35.0629 114.926 35.0629C114.521 35.0629 114.151 34.9929 113.815 34.8527C113.487 34.7126 113.204 34.5164 112.967 34.2642C112.73 34.0049 112.545 33.6966 112.412 33.3393C112.279 32.9749 112.213 32.5755 112.213 32.1411C112.213 31.7067 112.279 31.3108 112.412 30.9534C112.552 30.5961 112.74 30.2913 112.977 30.039C113.222 29.7868 113.508 29.5906 113.836 29.4504C114.172 29.3103 114.535 29.2402 114.926 29.2402C115.324 29.2402 115.687 29.3103 116.015 29.4504C116.35 29.5906 116.636 29.7868 116.874 30.039C117.111 30.2913 117.296 30.5961 117.429 30.9534C117.562 31.3108 117.628 31.7067 117.628 32.1411ZM116.036 32.1411C116.036 31.6576 115.938 31.2792 115.743 31.006C115.554 30.7257 115.282 30.5856 114.926 30.5856C114.57 30.5856 114.294 30.7257 114.098 31.006C113.903 31.2792 113.805 31.6576 113.805 32.1411C113.805 32.6246 113.903 33.0099 114.098 33.2972C114.294 33.5775 114.57 33.7176 114.926 33.7176C115.282 33.7176 115.554 33.5775 115.743 33.2972C115.938 33.0099 116.036 32.6246 116.036 32.1411Z" fill="white"/>
<path d="M121.864 31.9834C121.864 31.4789 121.797 31.1216 121.665 30.9114C121.539 30.7012 121.319 30.5961 121.005 30.5961C120.907 30.5961 120.806 30.6031 120.701 30.6171C120.596 30.6241 120.495 30.6346 120.397 30.6486V34.9158H118.837V29.5766C118.97 29.5415 119.123 29.5065 119.298 29.4715C119.479 29.4294 119.668 29.3944 119.863 29.3664C120.066 29.3313 120.272 29.3068 120.481 29.2928C120.691 29.2718 120.897 29.2613 121.099 29.2613C121.497 29.2613 121.818 29.3138 122.063 29.4189C122.314 29.517 122.52 29.6361 122.681 29.7763C122.904 29.6151 123.159 29.489 123.445 29.3979C123.739 29.3068 124.007 29.2613 124.252 29.2613C124.692 29.2613 125.051 29.3243 125.331 29.4504C125.617 29.5696 125.844 29.7412 126.012 29.9654C126.179 30.1897 126.294 30.4559 126.357 30.7642C126.42 31.0725 126.451 31.4159 126.451 31.7942V34.9158H124.891V31.9834C124.891 31.4789 124.824 31.1216 124.692 30.9114C124.566 30.7012 124.346 30.5961 124.032 30.5961C123.948 30.5961 123.829 30.6171 123.676 30.6591C123.529 30.7012 123.407 30.7537 123.309 30.8168C123.358 30.9779 123.39 31.1496 123.403 31.3318C123.417 31.507 123.424 31.6961 123.424 31.8993V34.9158H121.864V31.9834Z" fill="white"/>
<path fill-rule="evenodd" clip-rule="evenodd" d="M107.347 23.1885V26.4942H102.351V21.1351C102.966 21.6238 103.778 22.4495 103.778 22.4495C103.778 22.4495 103.371 20.5515 102.733 19.0865C102.403 18.3294 102.028 17.61 101.752 17.1075C101.306 16.2856 100.801 15.4748 100.258 14.8057C98.7962 13.0042 97.255 12.0515 96.5744 11.6872C96.4583 11.6251 96.4753 11.4402 96.6032 11.4091C97.5135 11.1875 98.8333 10.9867 100.4 11.571C102.431 12.3288 103.757 13.8039 104.528 15.2283C106.761 11.0452 115.095 8.00676 119.603 6.85518C119.759 6.81546 119.851 7.04391 119.715 7.12951C118.197 8.08733 114.834 10.4166 111.511 14.1222C107.868 18.1841 107.396 21.9267 107.347 23.1885ZM64.5723 26.4684L71.0775 14.0479C71.3014 13.6055 71.7138 13.3106 72.3146 13.1631C72.4894 13.1194 72.7051 13.0975 72.9619 13.0975C73.2186 13.0975 73.4971 13.1713 73.7975 13.3187C74.1034 13.4608 74.3437 13.6874 74.5185 13.9988L81.4989 26.4684H74.8544L74.3383 25.1739H70.7989L70.3565 26.4684H64.5723ZM71.2004 22.5767H73.8467L72.5932 19.0374L71.2004 22.5767ZM53.4136 13.3843H65.8013V17.6282H62.1554V26.4684H57.0594V17.6282H53.4136V13.3843ZM84.0714 13.3843H82.7442V26.4684H87.3404V21.9705L94.0668 26.4684H95.8283V13.3843H91.2157V18.4803L84.0714 13.3843ZM109.524 26.4684L116.03 14.0479C116.254 13.6055 116.666 13.3106 117.267 13.1631C117.442 13.1194 117.657 13.0975 117.914 13.0975C118.171 13.0975 118.449 13.1713 118.75 13.3187C119.056 13.4608 119.296 13.6874 119.471 13.9988L126.451 26.4684H119.807L119.29 25.1739H115.751L115.309 26.4684H109.524ZM116.153 22.5767H118.799L117.545 19.0374L116.153 22.5767ZM27.5494 13.3845V17.4072L30.7037 13.3845H36.0209L31.7933 18.8983L36.6763 26.4686H30.7037L27.9672 21.8396L27.6641 22.3721V26.4686H22.3633V13.3845H27.5494ZM44.7627 26.7881C40.4204 26.7881 38.2493 24.9419 38.2493 21.2497V13.3845H43.419V21.1022C43.419 21.8778 43.6785 22.383 44.1974 22.6179C44.3776 22.6998 44.5934 22.7408 44.8446 22.7408C45.5547 22.7408 46.0025 22.4021 46.1882 21.7249C46.2429 21.5228 46.2702 21.3043 46.2702 21.0694V13.3845H50.8009V21.2497C50.8009 24.9419 48.7881 26.7881 44.7627 26.7881Z" fill="white"/>
<path fill-rule="evenodd" clip-rule="evenodd" d="M36.3943 10.8576C34.0959 8.17152 30.6812 6.46912 26.8689 6.46912C19.948 6.46912 14.3375 12.0796 14.3375 19.0004C14.3375 20.4253 14.5745 21.7904 15.0094 23.061C15.3218 23.9736 15.3034 25.0371 14.8164 25.9925L12.3959 30.7401L18.6989 29.7119C19.5445 29.574 20.367 29.7436 21.0524 30.1035C22.7884 31.0151 24.7651 31.5318 26.8689 31.5318C29.513 31.5318 31.9659 30.7128 33.9877 29.3147H40.1671C37.0883 33.2785 32.2764 35.829 26.8689 35.829C24.1112 35.829 21.5028 35.1641 19.201 33.9841L11.8722 35.1796C8.9018 35.6642 6.6411 32.5669 8.00809 29.8856L10.878 24.2564C10.3338 22.6001 10.0403 20.8325 10.0403 19.0004C10.0403 9.70628 17.5747 2.17188 26.8689 2.17188C33.2092 2.17188 38.7306 5.67821 41.5997 10.8576H36.3943Z" fill="#9A4BFF"/>
</svg>
