<svg width="35" height="35" viewBox="0 0 35 35" fill="none" xmlns="http://www.w3.org/2000/svg">
<circle cx="17.5" cy="17.5" r="17.5" fill="url(#paint0_linear_1162:8608)"/>
<path d="M15.9998 24.9999C15.7662 25.0004 15.5397 24.919 15.3598 24.7699C15.2585 24.686 15.1748 24.5829 15.1135 24.4665C15.0521 24.3502 15.0143 24.2229 15.0023 24.0919C14.9902 23.9609 15.0041 23.8289 15.0431 23.7033C15.0822 23.5777 15.1456 23.461 15.2298 23.3599L19.7098 17.9999L15.3898 12.6299C15.3067 12.5277 15.2447 12.41 15.2073 12.2836C15.1698 12.1573 15.1578 12.0248 15.1717 11.8938C15.1856 11.7627 15.2253 11.6357 15.2885 11.5201C15.3517 11.4045 15.4371 11.3025 15.5398 11.2199C15.6433 11.1289 15.7644 11.0602 15.8957 11.0182C16.027 10.9763 16.1655 10.9619 16.3026 10.9759C16.4397 10.99 16.5724 11.0323 16.6924 11.1001C16.8123 11.1679 16.917 11.2598 16.9998 11.3699L21.8298 17.3699C21.9769 17.5489 22.0573 17.7733 22.0573 18.0049C22.0573 18.2366 21.9769 18.461 21.8298 18.6399L16.8298 24.6399C16.7295 24.761 16.6021 24.8566 16.4578 24.9192C16.3136 24.9817 16.1567 25.0094 15.9998 24.9999Z" fill="white"/>
<defs>
<linearGradient id="paint0_linear_1162:8608" x1="17.5" y1="0" x2="17.5" y2="35" gradientUnits="userSpaceOnUse">
<stop stop-color="#AA80F9"/>
<stop offset="1" stop-color="#756CE0"/>
</linearGradient>
</defs>
</svg>
