<svg width="160" height="101" viewBox="0 0 160 101" fill="none" xmlns="http://www.w3.org/2000/svg">
<path d="M132.876 70.6681C132.876 71.0897 132.741 71.4129 132.47 71.6377C132.209 71.8532 131.91 71.9609 131.574 71.9609C131.238 71.9609 130.934 71.8532 130.664 71.6377C130.402 71.4129 130.271 71.0897 130.271 70.6681C130.271 70.2465 130.402 69.928 130.664 69.7125C130.934 69.4877 131.238 69.3753 131.574 69.3753C131.91 69.3753 132.209 69.4877 132.47 69.7125C132.741 69.928 132.876 70.2465 132.876 70.6681Z" fill="#1D0070"/>
<path d="M133.504 68.0825C133.504 67.5485 133.588 67.0473 133.756 66.5789C133.933 66.1011 134.185 65.6889 134.512 65.3422C134.839 64.9862 135.236 64.7052 135.702 64.4991C136.169 64.293 136.701 64.1899 137.299 64.1899C137.691 64.1899 138.05 64.2274 138.377 64.3024C138.704 64.3679 139.021 64.4663 139.329 64.5975L138.895 66.2697C138.699 66.1948 138.485 66.1292 138.251 66.073C138.018 66.0168 137.756 65.9887 137.467 65.9887C136.851 65.9887 136.389 66.1807 136.081 66.5648C135.782 66.9489 135.632 67.4548 135.632 68.0825C135.632 68.7476 135.772 69.2629 136.053 69.6282C136.342 69.9936 136.841 70.1763 137.551 70.1763C137.803 70.1763 138.074 70.1529 138.363 70.106C138.653 70.0592 138.919 69.9842 139.161 69.8812L139.455 71.5956C139.213 71.6986 138.909 71.7876 138.545 71.8626C138.181 71.9375 137.78 71.975 137.341 71.975C136.669 71.975 136.09 71.8766 135.604 71.6799C135.119 71.4738 134.718 71.1974 134.4 70.8508C134.092 70.5042 133.863 70.0966 133.714 69.6282C133.574 69.1504 133.504 68.6352 133.504 68.0825Z" fill="#1D0070"/>
<path d="M147.39 68.0684C147.39 68.6492 147.306 69.1832 147.138 69.6704C146.97 70.1482 146.727 70.5604 146.41 70.907C146.093 71.2443 145.71 71.5066 145.262 71.6939C144.823 71.8813 144.328 71.975 143.777 71.975C143.236 71.975 142.741 71.8813 142.293 71.6939C141.854 71.5066 141.476 71.2443 141.158 70.907C140.841 70.5604 140.594 70.1482 140.416 69.6704C140.239 69.1832 140.15 68.6492 140.15 68.0684C140.15 67.4876 140.239 66.9583 140.416 66.4805C140.603 66.0027 140.855 65.5952 141.172 65.2579C141.499 64.9207 141.882 64.6584 142.321 64.471C142.769 64.2836 143.254 64.1899 143.777 64.1899C144.309 64.1899 144.795 64.2836 145.234 64.471C145.682 64.6584 146.065 64.9207 146.382 65.2579C146.699 65.5952 146.947 66.0027 147.124 66.4805C147.302 66.9583 147.39 67.4876 147.39 68.0684ZM145.262 68.0684C145.262 67.422 145.131 66.9161 144.87 66.5507C144.617 66.176 144.253 65.9887 143.777 65.9887C143.301 65.9887 142.932 66.176 142.671 66.5507C142.409 66.9161 142.279 67.422 142.279 68.0684C142.279 68.7148 142.409 69.2301 142.671 69.6142C142.932 69.9889 143.301 70.1763 143.777 70.1763C144.253 70.1763 144.617 69.9889 144.87 69.6142C145.131 69.2301 145.262 68.7148 145.262 68.0684Z" fill="#1D0070"/>
<path d="M153.054 67.8576C153.054 67.1831 152.965 66.7053 152.788 66.4243C152.62 66.1432 152.325 66.0027 151.905 66.0027C151.775 66.0027 151.639 66.0121 151.499 66.0308C151.359 66.0402 151.224 66.0542 151.093 66.073V71.7782H149.007V64.6396C149.184 64.5928 149.389 64.5459 149.623 64.4991C149.865 64.4429 150.118 64.396 150.379 64.3586C150.65 64.3117 150.925 64.2789 151.205 64.2602C151.485 64.2321 151.761 64.218 152.031 64.218C152.564 64.218 152.993 64.2883 153.32 64.4288C153.656 64.56 153.931 64.7192 154.146 64.9066C154.445 64.6911 154.785 64.5225 155.168 64.4007C155.56 64.2789 155.92 64.218 156.247 64.218C156.835 64.218 157.315 64.3024 157.689 64.471C158.072 64.6303 158.375 64.8598 158.599 65.1596C158.823 65.4593 158.977 65.8153 159.061 66.2275C159.145 66.6397 159.187 67.0988 159.187 67.6047V71.7782H157.101V67.8576C157.101 67.1831 157.012 66.7053 156.835 66.4243C156.667 66.1432 156.373 66.0027 155.952 66.0027C155.84 66.0027 155.682 66.0308 155.476 66.087C155.28 66.1432 155.117 66.2135 154.986 66.2978C155.052 66.5133 155.094 66.7428 155.112 66.9864C155.131 67.2206 155.14 67.4735 155.14 67.7452V71.7782H153.054V67.8576Z" fill="#1D0070"/>
<path fill-rule="evenodd" clip-rule="evenodd" d="M133.646 56.0989V60.5187H126.966V53.3535C127.789 54.0068 128.874 55.1108 128.874 55.1108C128.874 55.1108 128.331 52.5732 127.477 50.6144C127.035 49.6022 126.534 48.6404 126.165 47.9685C125.569 46.8696 124.894 45.7855 124.168 44.891C122.213 42.4823 120.153 41.2086 119.243 40.7215C119.088 40.6385 119.11 40.3913 119.281 40.3496C120.498 40.0533 122.263 39.7849 124.357 40.5661C127.073 41.5793 128.846 43.5516 129.877 45.456C132.863 39.8631 144.005 35.8007 150.033 34.261C150.241 34.2079 150.364 34.5134 150.183 34.6278C148.152 35.9084 143.656 39.0227 139.213 43.9771C134.342 49.4079 133.711 54.4118 133.646 56.0989ZM76.4556 60.4841L85.1531 43.8778C85.4525 43.2863 86.0038 42.8919 86.8071 42.6948C87.0408 42.6364 87.3293 42.6071 87.6725 42.6071C88.0157 42.6071 88.3881 42.7057 88.7898 42.9029C89.1987 43.0928 89.5201 43.3958 89.7538 43.8121L99.0866 60.4841H90.2029L89.5128 58.7534H84.7806L84.1891 60.4841H76.4556ZM85.3174 55.281H88.8555L87.1796 50.5488L85.3174 55.281ZM61.5362 42.9905H78.0987V48.6647H73.2241V60.4841H66.4107V48.6647H61.5362V42.9905ZM102.526 42.9905H100.752V60.4841H106.897V54.4704L115.89 60.4841H118.245V42.9905H112.078V49.8039L102.526 42.9905ZM136.557 60.4841L145.255 43.8778C145.554 43.2863 146.105 42.8919 146.909 42.6948C147.142 42.6364 147.431 42.6071 147.774 42.6071C148.117 42.6071 148.49 42.7057 148.891 42.9029C149.3 43.0928 149.622 43.3958 149.855 43.8121L159.188 60.4841H150.305L149.614 58.7534H144.882L144.291 60.4841H136.557ZM145.419 55.281H148.957L147.281 50.5488L145.419 55.281ZM26.9554 42.9908V48.3692L31.1727 42.9908H38.2818L32.6296 50.3629L39.1582 60.4844H31.1727L27.514 54.2954L27.1087 55.0074V60.4844H20.0215V42.9908H26.9554ZM49.9698 60.9116C44.1642 60.9116 41.2613 58.4433 41.2613 53.5067V42.9908H48.1733V53.3095C48.1733 54.3465 48.5202 55.022 49.214 55.336C49.455 55.4455 49.7434 55.5003 50.0793 55.5003C51.0287 55.5003 51.6275 55.0475 51.8758 54.142C51.9488 53.8718 51.9853 53.5797 51.9853 53.2657V42.9908H58.0429V53.5067C58.0429 58.4433 55.3519 60.9116 49.9698 60.9116Z" fill="#1D0070"/>
<path fill-rule="evenodd" clip-rule="evenodd" d="M38.7802 39.6129C35.7072 36.0216 31.1417 33.7455 26.0445 33.7455C16.7912 33.7455 9.28995 41.2467 9.28995 50.5C9.28995 52.4051 9.60677 54.2302 10.1883 55.9291C10.6059 57.1492 10.5814 58.5712 9.93013 59.8486L6.69397 66.1962L15.1212 64.8214C16.2517 64.637 17.3514 64.8637 18.2679 65.345C20.5888 66.5638 23.2318 67.2546 26.0445 67.2546C29.5798 67.2546 32.8593 66.1596 35.5625 64.2904H43.8244C39.708 69.5899 33.2745 73.0001 26.0445 73.0001C22.3575 73.0001 18.87 72.111 15.7925 70.5333L5.99374 72.1318C2.02229 72.7797 -1.00029 68.6386 0.82739 65.0536L4.66445 57.5274C3.93693 55.3128 3.54447 52.9495 3.54447 50.5C3.54447 38.0736 13.6181 28 26.0445 28C34.5216 28 41.9038 32.688 45.7399 39.6129H38.7802Z" fill="#9A4BFF"/>
</svg>
