<svg width="91" height="70" viewBox="0 0 91 70" fill="none" xmlns="http://www.w3.org/2000/svg">
<path d="M7.93307 29.4045C8.09707 29.3499 8.20642 29.1859 8.20642 28.9665L8.09706 28.5285C8.0424 28.3638 7.87843 28.2545 7.71511 28.3091L3.5659 29.4045C3.4019 29.4599 3.29256 29.6239 3.34723 29.7886L3.45654 30.2266C3.51121 30.3906 3.67522 30.5006 3.83854 30.4459C4.00254 31.0479 4.43917 31.5413 4.98516 31.87L5.69514 32.2533C5.80379 32.308 5.8038 32.4173 5.74982 32.4727L5.25851 33.1301C4.87584 33.6227 4.76719 34.2801 4.87584 34.8828C4.71253 34.9375 4.60321 35.1015 4.65788 35.2661L4.76719 35.7042C4.82118 35.9782 5.03983 36.0875 5.20383 36.0329L9.35237 34.9375C9.51637 34.8828 9.62571 34.7181 9.57104 34.5541L9.46169 34.1154C9.40702 33.9514 9.24369 33.8421 9.07969 33.8967C8.91569 33.2941 8.47905 32.8014 7.93307 32.5274L7.16912 32.144C7.05979 32.0886 7.05977 31.9793 7.11444 31.9247L7.60575 31.2673C7.93307 30.6646 8.04241 30.0619 7.93307 29.4045ZM6.95045 30.7746L6.40446 31.5413C6.34979 31.6506 6.18648 31.6507 6.13182 31.596L5.31248 31.158C4.98516 30.9933 4.7672 30.7746 4.6032 30.4459C4.54854 30.3359 4.60318 30.2266 4.71252 30.1719C4.71252 30.1719 4.71253 30.1719 4.76719 30.1719L7.05976 29.5692C7.1691 29.5692 7.27777 29.6239 7.27777 29.7332C7.27777 29.7332 7.27777 29.7332 7.27777 29.7886C7.22378 30.1719 7.16911 30.5006 6.95045 30.7746Z" fill="url(#paint0_linear_1632:18162)"/>
<path d="M41.3983 58.7657C56.3831 58.7657 68.5307 46.5764 68.5307 31.5411C68.5307 16.505 56.3831 4.31641 41.3983 4.31641C26.4142 4.31641 14.2666 16.505 14.2666 31.5411C14.2666 46.5764 26.4142 58.7657 41.3983 58.7657Z" fill="#EAEEF9"/>
<path d="M72.4389 18.1752C73.2848 17.3996 73.3436 16.0829 72.5708 15.2342C71.7979 14.3855 70.4859 14.326 69.6399 15.1016C68.794 15.8772 68.7352 17.1939 69.5081 18.0426C70.2809 18.8913 71.5929 18.9508 72.4389 18.1752Z" fill="#EAEEF9"/>
<path d="M25.7178 6.65273C26.4346 6.41903 26.8269 5.64618 26.5939 4.92732C26.3609 4.20777 25.5907 3.81416 24.8739 4.04786C24.1571 4.28156 23.7649 5.05442 23.9979 5.77329C24.2309 6.49284 25.001 6.88643 25.7178 6.65273Z" fill="#EAEEF9"/>
<path d="M28.6973 2.18629C29.1852 2.02708 29.4517 1.50227 29.2932 1.013C29.1346 0.523738 28.6112 0.255872 28.124 0.415088C27.6368 0.574305 27.3696 1.09979 27.5281 1.58838C27.6867 2.07764 28.2101 2.34551 28.6973 2.18629Z" fill="#EAEEF9"/>
<path d="M72.5952 8.84366C72.9519 8.51702 72.9765 7.96285 72.6512 7.60547C72.3253 7.24809 71.7731 7.22349 71.4171 7.54944C71.0611 7.87607 71.0358 8.43092 71.3618 8.78762C71.687 9.14501 72.2392 9.17029 72.5952 8.84366Z" fill="#EAEEF9"/>
<path d="M51.0456 2.30894C51.2903 2.08481 51.3074 1.70351 51.0839 1.45751C50.8605 1.21219 50.4805 1.19511 50.2352 1.41924C49.9906 1.64406 49.9735 2.02536 50.1976 2.27067C50.4211 2.51667 50.801 2.53376 51.0456 2.30894Z" fill="#EAEEF9"/>
<path d="M44.824 3.06831C44.66 2.90431 44.4414 2.73962 44.2234 2.57563V2.52095C44.2234 2.52095 44.278 2.4656 44.3327 2.4656C44.496 2.35627 44.66 2.19227 44.7147 2.02759C44.7694 1.69891 44.496 1.58957 44.3327 1.47956C44.3327 1.47956 44.278 1.47957 44.278 1.4249L44.3327 1.37022C44.496 1.26089 44.66 1.04154 44.66 0.822187C44.66 0.712854 44.5507 0.603516 44.4414 0.603516C44.3327 0.603516 44.2234 0.712854 44.2234 0.822187C44.2234 0.877537 44.114 0.98688 44.0594 1.04155C43.95 1.15088 43.7867 1.31555 43.7867 1.5349C43.8414 1.6989 43.95 1.80825 44.114 1.8636C44.1687 1.8636 44.2234 1.91826 44.2234 1.91826C44.2234 1.97292 44.114 2.02758 44.0594 2.08225C43.95 2.13692 43.8954 2.24694 43.7867 2.30161C43.7867 2.30161 43.732 2.3016 43.732 2.24693C43.6227 2.19226 43.5134 2.13692 43.4041 2.08225C43.3501 2.08225 43.2954 2.02759 43.2407 2.02759C42.8587 1.91826 42.5854 1.97292 42.3675 2.19227C42.3128 2.24694 42.2581 2.30161 42.2581 2.41094L40.7295 6.79315C40.6748 6.95784 40.7295 7.12184 40.8928 7.1765C40.9475 7.1765 41.0568 7.1765 41.1115 7.1765L45.3153 5.58844H45.37C45.424 5.53377 45.4787 5.53376 45.5333 5.47841C45.6973 5.31441 45.752 5.09508 45.752 4.87641C45.6973 4.43771 45.588 4.05435 45.3153 3.72566C45.206 3.50631 45.042 3.28766 44.824 3.06831ZM45.2607 5.20508C45.0967 5.36908 44.3327 5.20508 43.5134 4.38303C42.7494 3.56167 42.5854 2.79428 42.7494 2.63028C42.8588 2.52095 43.1861 2.57563 43.6227 2.7943L43.5134 2.95898C43.4587 3.06831 43.4587 3.17764 43.5681 3.28765C43.6227 3.28765 43.6227 3.34233 43.6774 3.34233C43.7321 3.34233 43.8414 3.28766 43.8414 3.23299L43.95 3.06831C44.114 3.17765 44.278 3.34232 44.4414 3.50632C45.2607 4.21904 45.424 5.0404 45.2607 5.20508Z" fill="url(#paint1_linear_1632:18162)"/>
<path d="M47.7727 3.56081C47.718 3.61548 47.554 3.50546 47.4447 3.45079C47.2813 3.34146 47.008 3.23213 46.8447 3.39613C46.6807 3.56082 46.7354 3.72482 46.7354 3.94417C46.7354 3.99883 46.7354 4.05349 46.7354 4.10816C46.626 4.05349 46.5714 3.99883 46.462 3.94417C46.2987 3.83415 46.0254 3.67014 45.8074 3.88949C45.7527 3.99882 45.7527 4.10817 45.8621 4.21818C45.916 4.27285 46.0254 4.27285 46.08 4.21818C46.1347 4.21818 46.1894 4.27285 46.2441 4.32752C46.4074 4.43685 46.5713 4.54686 46.79 4.54686C46.8447 4.54686 46.8447 4.54686 46.8987 4.54686C47.2267 4.43684 47.172 4.05349 47.172 3.88949C47.172 3.88949 47.172 3.83415 47.172 3.77949C47.2267 3.77949 47.2267 3.83414 47.2814 3.83414C47.4993 3.94416 47.7727 4.0535 47.9906 3.94417C48.1 3.8895 48.1547 3.77948 48.1 3.67015C48.0453 3.56082 47.882 3.50546 47.7727 3.56081Z" fill="url(#paint2_linear_1632:18162)"/>
<path d="M45.3161 2.79199C45.37 2.79199 45.4247 2.73731 45.4794 2.73731C45.5341 2.73731 45.5887 2.73731 45.5887 2.73731C45.8074 2.79198 46.0254 2.79199 46.1894 2.68265C46.4074 2.51865 46.462 2.2993 46.4073 2.02528C46.4073 1.97062 46.4073 1.86129 46.4073 1.86129C46.462 1.86129 46.5167 1.86129 46.5714 1.86129C46.79 1.91596 47.0627 1.86127 47.2267 1.69659C47.336 1.64192 47.336 1.47725 47.2814 1.36791C47.2267 1.25858 47.0627 1.25859 46.9533 1.31326C46.8447 1.36792 46.6807 1.42258 46.5714 1.36791C46.3534 1.31325 46.1894 1.36791 46.0254 1.53259C45.916 1.69659 45.916 1.86128 45.916 2.02528C45.916 2.18997 45.916 2.24462 45.8621 2.24462C45.8074 2.29929 45.698 2.24462 45.5887 2.24462C45.4247 2.18995 45.2068 2.13461 45.0428 2.35396C44.9881 2.46329 44.9881 2.57331 45.0974 2.62797C45.2067 2.79197 45.2614 2.79199 45.3161 2.79199Z" fill="url(#paint3_linear_1632:18162)"/>
<path d="M45.752 0.821363C45.752 0.876713 45.7519 0.87672 45.8066 0.931387H45.8613L46.1339 0.821363C46.1886 0.766696 46.2432 0.766696 46.2979 0.821363L46.5706 0.931387C46.6253 0.931387 46.6252 0.931375 46.6799 0.876709V0.821363L46.5706 0.548034C46.5159 0.492684 46.5159 0.438019 46.5706 0.383353L46.6799 0.109336C46.6799 0.0546691 46.6799 0.0546666 46.6252 0H46.5706L46.2979 0.109336C46.2432 0.164002 46.1886 0.164002 46.1339 0.109336L45.8613 0C45.8066 0 45.8066 -9.17439e-06 45.752 0.0546574V0.109336L45.8613 0.383353C45.9153 0.438019 45.9153 0.492684 45.8613 0.548034L45.752 0.821363Z" fill="url(#paint4_linear_1632:18162)"/>
<path d="M49.0813 2.63007C49.0813 2.5754 49.0813 2.52073 49.0813 2.46538L49.1906 2.19206C49.1906 2.13671 49.1906 2.1367 49.136 2.08203H49.0813L48.8087 2.19206C48.754 2.19206 48.6993 2.19206 48.6447 2.19206L48.372 2.08203C48.3173 2.08203 48.3174 2.08204 48.2627 2.13671V2.19206L48.372 2.46538C48.372 2.52073 48.372 2.5754 48.372 2.63007L48.2627 2.90408C48.2627 2.95875 48.2627 2.95875 48.3173 3.01342H48.372L48.6447 2.90408C48.6993 2.90408 48.754 2.90408 48.8087 2.90408L49.0813 3.01342C49.136 3.01342 49.136 3.01343 49.1906 2.95876V2.90408L49.0813 2.63007Z" fill="url(#paint5_linear_1632:18162)"/>
<path d="M42.4758 1.589L42.6945 1.47898C42.7492 1.47898 42.8038 1.47898 42.8585 1.47898L43.0765 1.589H43.1311V1.53432L43.0218 1.31498C43.0218 1.26032 43.0218 1.20565 43.0218 1.1503L43.1311 0.931631V0.876953H43.0765L42.8585 0.986289C42.8038 0.986289 42.7492 0.986289 42.6945 0.986289L42.4758 0.876953H42.4211V0.931631L42.5305 1.1503C42.5305 1.20565 42.5305 1.26032 42.5305 1.31498L42.4211 1.53432C42.3672 1.58899 42.3672 1.589 42.4758 1.589C42.4212 1.589 42.4212 1.589 42.4758 1.589Z" fill="url(#paint6_linear_1632:18162)"/>
<path d="M56.5736 53.9458H7.27734L16.285 12.3691H65.636L56.5736 53.9458Z" fill="white"/>
<path d="M56.5736 53.9458H7.27734L16.285 12.3691H65.636L56.5736 53.9458Z" fill="#D5DAE8"/>
<path d="M28.1323 53.9458H17.9233C16.0674 53.9458 14.5388 52.3571 14.6481 50.4943L16.286 12.3691H18.7426L28.1323 53.9458Z" fill="url(#paint7_linear_1632:18162)"/>
<path d="M76.4467 53.9458H27.1498L18.7967 22.0096L18.7427 21.7909L16.2861 12.3691H65.6371L67.7663 20.5309L68.0937 21.7909L68.1483 22.0096L76.4467 53.9458Z" fill="white"/>
<path d="M68.0937 21.7909H18.7427L16.2861 12.3691H65.6371L67.7663 20.5309L68.0937 21.7909Z" fill="#F3F5FA"/>
<path opacity="0.3" d="M29.2795 19.1078C30.2443 19.1078 31.0261 18.3226 31.0261 17.355C31.0261 16.3867 30.2443 15.6016 29.2795 15.6016C28.3146 15.6016 27.5322 16.3867 27.5322 17.355C27.5322 18.3226 28.3146 19.1078 29.2795 19.1078Z" fill="#172D45"/>
<path opacity="0.3" d="M58.103 19.1078C59.0679 19.1078 59.8503 18.3226 59.8503 17.355C59.8503 16.3867 59.0679 15.6016 58.103 15.6016C57.1382 15.6016 56.3564 16.3867 56.3564 17.355C56.3564 18.3226 57.1382 19.1078 58.103 19.1078Z" fill="#172D45"/>
<path d="M28.8418 18.0672C28.5144 18.0672 28.2418 17.7932 28.2418 17.4645C28.2418 17.1358 28.5144 16.8618 28.8418 16.8618C30.043 16.8618 31.299 15.1637 31.299 12.5889C31.299 12.5342 31.299 12.4249 31.299 12.3702C31.2444 9.85011 29.9884 8.31673 28.8418 8.31673C27.7505 8.31673 26.5491 9.79545 26.3851 12.0962H25.1299C25.2939 9.24741 26.8765 7.11133 28.7877 7.11133C30.8077 7.11133 32.3903 9.46677 32.4996 12.4796C32.4996 12.5342 32.4996 12.5889 32.4996 12.6443C32.5543 15.6564 30.9163 18.0672 28.8418 18.0672Z" fill="#1C3754"/>
<path d="M57.5029 18.0672C57.1756 18.0672 56.9022 17.7932 56.9022 17.4645C56.9022 17.1358 57.1756 16.8618 57.5029 16.8618C58.7042 16.8618 59.9594 15.1637 59.9594 12.5889C59.9594 12.5342 59.9594 12.4249 59.9594 12.3702C59.9048 9.85011 58.6495 8.31673 57.5029 8.31673C56.4109 8.31673 55.2103 9.79545 55.0463 12.0962H53.791C53.9543 9.24741 55.5376 7.11133 57.4482 7.11133C59.4681 7.11133 61.0514 9.46677 61.1607 12.4796C61.1607 12.5342 61.1607 12.5889 61.1607 12.6443C61.2154 15.6564 59.5775 18.0672 57.5029 18.0672Z" fill="#1C3754"/>
<path d="M1 53.8906H80.432" stroke="#EAEEF9" stroke-width="2" stroke-miterlimit="10" stroke-linecap="round" stroke-linejoin="round"/>
<path d="M58.377 34.1156C58.049 34.1156 57.8311 33.8416 57.8311 33.5676C57.8311 33.2389 58.049 33.0195 58.377 33.0195H60.069C60.397 33.0195 60.615 33.2935 60.615 33.5676C60.615 33.8962 60.3423 34.1156 60.069 34.1156H58.377Z" fill="#D5DAE8"/>
<path d="M35.1202 49.5631C34.9015 49.5631 34.6836 49.3985 34.5742 49.1791L33.7009 45.9476H29.3878C29.0604 45.9476 28.8418 45.6736 28.8418 45.3996C28.8418 45.0709 29.1151 44.8523 29.3878 44.8523H33.3729L32.0083 40.0313H27.8591C27.5318 40.0313 27.3131 39.7573 27.3131 39.484C27.3131 39.1553 27.5318 38.9359 27.8591 38.9359H31.681L30.3157 34.1157H26.3852C26.0578 34.1157 25.8392 33.8417 25.8392 33.5677C25.8392 33.239 26.0578 33.0197 26.3852 33.0197H30.0431L28.6784 28.1994H24.9112C24.5839 28.1994 24.3652 27.9254 24.3652 27.6514C24.3652 27.3227 24.5839 27.104 24.9112 27.104H28.3505L27.8045 25.1319C27.7505 24.8579 27.9138 24.5292 28.1871 24.4746C28.2418 24.4746 28.2965 24.4746 28.3505 24.4746C28.5691 24.4746 28.7878 24.6386 28.8964 24.8579L29.5517 27.104H33.9189C34.2469 27.104 34.4649 27.3227 34.4649 27.6514C34.4649 27.9801 34.2469 28.1994 33.9189 28.1994H29.8791L31.2444 33.0197H38.1228L35.9388 25.1319C35.8842 24.8579 36.0482 24.5292 36.3215 24.4746C36.3755 24.4746 36.4302 24.4746 36.4848 24.4746C36.7035 24.4746 36.9215 24.6386 37.0308 24.8579L37.6861 27.104H40.0334C40.3607 27.104 40.5794 27.3227 40.5794 27.6514C40.5794 27.9801 40.3067 28.1994 40.0334 28.1994H38.0135L39.3781 33.0197H44.0186C44.3466 33.0197 44.5645 33.2937 44.5645 33.5677C44.5645 33.8964 44.3466 34.1157 44.0186 34.1157H39.7061L41.0707 38.9359H48.0038L45.0012 28.1994H43.5272C43.1999 28.1994 42.9813 27.9254 42.9813 27.6514C42.9813 27.3227 43.2546 27.104 43.5272 27.104H44.6739L44.1279 25.1319C44.0732 24.9673 44.1279 24.8579 44.1825 24.6933C44.2372 24.5839 44.3465 24.4746 44.5099 24.4199C44.5645 24.4199 44.6192 24.4199 44.6739 24.4199C44.8919 24.4199 45.1105 24.5839 45.2199 24.8033L45.8745 27.0487H47.0211C47.3491 27.0487 47.5671 27.268 47.5671 27.5967C47.5671 27.9254 47.3491 28.1448 47.0211 28.1448H46.2025L47.5671 32.965H54.5002L53.1356 28.1448H49.5871C49.2597 28.1448 49.0411 27.8707 49.0411 27.5967C49.0411 27.268 49.3144 27.0487 49.5871 27.0487H52.6443L52.0983 25.0773C52.0436 24.8033 52.2076 24.4746 52.4803 24.4199C52.5349 24.4199 52.5896 24.4199 52.6443 24.4199C52.863 24.4199 53.0809 24.5839 53.1902 24.8033L53.8456 27.0487H60.7787L60.2327 25.0773C60.178 24.8033 60.342 24.4746 60.6147 24.4199C60.6694 24.4199 60.724 24.4199 60.7787 24.4199C60.9967 24.4199 61.2153 24.5839 61.3247 24.8033L61.9793 27.0487H66.2378C66.5651 27.0487 66.7838 27.268 66.7838 27.5967C66.7838 27.9254 66.5651 28.1448 66.2378 28.1448H62.1433L63.5079 32.965H67.6024C67.9297 32.965 68.1484 33.239 68.1484 33.513C68.1484 33.8417 67.9297 34.0604 67.6024 34.0604H63.8359L65.2005 38.8813H69.131C69.4583 38.8813 69.677 39.1553 69.677 39.4286C69.677 39.7573 69.4583 39.9767 69.131 39.9767H65.5279L66.8931 44.7969H70.605C70.9323 44.7969 71.151 45.0709 71.151 45.3449C71.151 45.6736 70.8783 45.893 70.605 45.893H67.1658L67.9844 48.7958C68.0391 49.0698 67.8757 49.3985 67.6024 49.4531C67.5477 49.4531 67.4931 49.4531 67.4384 49.4531C67.2204 49.4531 67.0018 49.2891 66.8931 49.0698L66.0192 45.893H59.0861L59.9047 48.7411C59.9594 48.9058 59.9047 49.0151 59.8507 49.1791C59.796 49.2891 59.6867 49.3985 59.5227 49.4531C59.468 49.4531 59.4134 49.4531 59.3594 49.4531C59.1407 49.4531 58.922 49.2891 58.8134 49.0698L57.9394 45.9476H51.0063L51.8257 48.7958C51.8796 49.0698 51.7163 49.3985 51.443 49.4531C51.3883 49.4531 51.3343 49.4531 51.2797 49.4531C51.061 49.4531 50.843 49.2891 50.7337 49.0698L49.8604 45.9476H42.9266L43.7459 48.7958C43.8006 49.0698 43.6366 49.3985 43.3632 49.4531C43.3093 49.4531 43.2546 49.4531 43.1999 49.4531C42.9813 49.4531 42.7633 49.2891 42.6539 49.0698L41.7807 45.9476H34.8469L35.6662 48.8504C35.7209 49.0151 35.6662 49.1244 35.6115 49.2891C35.5569 49.3985 35.4475 49.5078 35.2842 49.5631C35.2295 49.5631 35.1749 49.5631 35.1202 49.5631ZM50.679 44.8523H65.6918L64.3272 40.0313H57.3934L57.8854 41.7841C57.9394 41.9488 57.8854 42.0581 57.8308 42.2228C57.7761 42.3321 57.6668 42.4415 57.5028 42.4961C57.4481 42.4961 57.3934 42.4961 57.3395 42.4961C57.1208 42.4961 56.9021 42.3321 56.7935 42.1128L56.2475 40.086H54.1729C53.8456 40.086 53.6269 39.8127 53.6269 39.5387C53.6269 39.21 53.8456 38.9906 54.1729 38.9906H55.9195L54.5549 34.1704H47.6765L49.0411 38.9906H50.7337C51.061 38.9906 51.2797 39.2646 51.2797 39.5387C51.2797 39.8673 51.061 40.086 50.7337 40.086H49.3144L50.679 44.8523ZM42.5993 44.8523H49.5324L48.1678 40.0313H41.2347L42.5993 44.8523ZM34.5195 44.8523H41.4526L40.0881 40.0313H38.0681C37.7408 40.0313 37.5221 39.7573 37.5221 39.484C37.5221 39.1553 37.7954 38.9359 38.0681 38.9359H39.8154L38.4501 34.1157H31.517L32.8816 38.9359H34.6836C35.0109 38.9359 35.2295 39.21 35.2295 39.484C35.2295 39.812 34.9562 40.0313 34.6836 40.0313H33.2096L34.5195 44.8523ZM57.1208 38.9359H64.0539L61.0513 28.1994H54.0636L57.1208 38.9359Z" fill="#D5DAE8"/>
<path d="M39.2145 30.9386C38.5046 32.034 38.1772 33.3487 38.2866 34.6634C38.3412 35.9235 38.8325 37.1835 39.5965 38.2243C40.3612 39.2103 41.4524 40.0317 42.6537 40.3604C43.855 40.7437 45.165 40.689 46.3663 40.3604C47.5123 39.977 48.5495 39.2103 49.0955 38.1696C49.6415 37.1282 49.6962 35.8688 49.1502 34.8828C48.6589 33.8421 47.6216 33.0747 46.475 32.6367C45.329 32.144 44.0184 31.9246 42.7084 31.87C42.2171 31.87 41.8891 31.4319 41.8891 30.9932C41.8891 30.5006 42.3264 30.1719 42.7631 30.1719C44.237 30.2812 45.711 30.5006 47.0756 31.1033C48.4402 31.7053 49.8055 32.6913 50.5148 34.2254C50.8428 34.9374 51.0608 35.8142 51.0061 36.6355C50.9515 37.4569 50.7335 38.2789 50.3515 38.9363C49.5868 40.3604 48.2222 41.3464 46.7483 41.7844C45.2743 42.2231 43.6911 42.1685 42.2718 41.6751C40.8525 41.1824 39.5965 40.1964 38.7232 38.991C37.8499 37.7856 37.3586 36.3068 37.3039 34.8281C37.2493 33.3487 37.7406 31.8153 38.5592 30.6099C38.6686 30.4459 38.9412 30.3905 39.1599 30.5005C39.2692 30.5005 39.3239 30.7746 39.2145 30.9386Z" fill="url(#paint8_linear_1632:18162)"/>
<g filter="url(#filter0_d_1632:18162)">
<path d="M82.7864 48.6385C82.7318 48.8025 82.7318 49.0219 82.6771 49.1866C82.5138 49.7886 82.3498 50.3366 82.0772 50.8293C80.8212 53.6234 78.4193 55.7049 75.526 56.5262C75.362 56.5816 75.198 56.6362 75.0887 56.6362C73.6147 57.0196 72.0321 57.0743 70.4489 56.7456C64.8257 55.5955 61.1679 50.0079 62.3692 44.3656C63.5158 38.724 69.0836 35.0532 74.7067 36.2586C76.7267 36.6966 78.5286 37.6827 79.9479 39.1074C82.4045 41.5722 83.4964 45.1877 82.7864 48.6385Z" fill="url(#paint9_linear_1632:18162)"/>
</g>
<path d="M82.0689 50.8227C80.8136 53.6168 78.4117 55.6983 75.5178 56.5196L70.6593 51.6447L70.2773 49.3986L74.0438 48.9606L74.4265 43.209L82.0689 50.8227Z" fill="url(#paint10_linear_1632:18162)"/>
<path d="M68.3438 49.0467C68.3438 48.444 68.9991 48.718 69.3811 47.4033C69.8177 45.8145 69.1624 44.2811 70.855 42.9664C70.9644 42.8564 71.1277 42.8017 71.2917 42.6924C71.3463 42.6377 71.401 42.583 71.401 42.5277C71.3463 41.9257 71.783 41.3776 72.3836 41.323C72.9843 41.2683 73.5303 41.7063 73.5849 42.309C73.5849 42.3637 73.5849 42.4183 73.5849 42.4183C73.5849 42.5277 73.6389 42.583 73.6936 42.6377C74.8949 43.2404 75.3862 44.2811 75.4409 45.5959C75.6589 48.5533 76.3142 48.1153 76.6961 48.6087C77.0241 49.1014 76.5328 49.6494 75.8775 49.6494C69.3264 49.868 68.3438 49.9227 68.3438 49.0467Z" fill="url(#paint11_linear_1632:18162)"/>
<path d="M72.1117 51.6213C71.5657 51.4027 71.2924 50.8 71.511 50.3073C71.511 50.2519 71.5657 50.1973 71.6744 50.1973C72.275 50.1973 72.821 50.1973 73.4216 50.1973C73.4763 50.1973 73.5857 50.2519 73.5857 50.3073C73.749 50.6906 73.5856 51.1833 73.3123 51.4573C72.9303 51.6767 72.4937 51.786 72.1117 51.6213Z" fill="url(#paint12_linear_1632:18162)"/>
<defs>
<filter id="filter0_d_1632:18162" x="54.1406" y="33.0293" width="36.8594" height="36.9316" filterUnits="userSpaceOnUse" color-interpolation-filters="sRGB">
<feFlood flood-opacity="0" result="BackgroundImageFix"/>
<feColorMatrix in="SourceAlpha" type="matrix" values="0 0 0 0 0 0 0 0 0 0 0 0 0 0 0 0 0 0 127 0" result="hardAlpha"/>
<feOffset dy="5"/>
<feGaussianBlur stdDeviation="4"/>
<feColorMatrix type="matrix" values="0 0 0 0 0.1125 0 0 0 0 0.295916 0 0 0 0 1 0 0 0 0.22 0"/>
<feBlend mode="normal" in2="BackgroundImageFix" result="effect1_dropShadow_1632:18162"/>
<feBlend mode="normal" in="SourceGraphic" in2="effect1_dropShadow_1632:18162" result="shape"/>
</filter>
<linearGradient id="paint0_linear_1632:18162" x1="3.24814" y1="32.1898" x2="9.59838" y2="32.1898" gradientUnits="userSpaceOnUse">
<stop stop-color="#83A6FF"/>
<stop offset="1" stop-color="#5A78FF"/>
</linearGradient>
<linearGradient id="paint1_linear_1632:18162" x1="40.7274" y1="3.93887" x2="45.8128" y2="3.93887" gradientUnits="userSpaceOnUse">
<stop stop-color="#FF66A9"/>
<stop offset="1" stop-color="#F53689"/>
</linearGradient>
<linearGradient id="paint2_linear_1632:18162" x1="45.8108" y1="3.90658" x2="48.0932" y2="3.90658" gradientUnits="userSpaceOnUse">
<stop stop-color="#FF66A9"/>
<stop offset="1" stop-color="#F53689"/>
</linearGradient>
<linearGradient id="paint3_linear_1632:18162" x1="45.1015" y1="2.06902" x2="47.3811" y2="2.06902" gradientUnits="userSpaceOnUse">
<stop stop-color="#FF66A9"/>
<stop offset="1" stop-color="#F53689"/>
</linearGradient>
<linearGradient id="paint4_linear_1632:18162" x1="45.7588" y1="0.414102" x2="46.7134" y2="0.414102" gradientUnits="userSpaceOnUse">
<stop stop-color="#FF66A9"/>
<stop offset="1" stop-color="#F53689"/>
</linearGradient>
<linearGradient id="paint5_linear_1632:18162" x1="48.2736" y1="2.56173" x2="49.2064" y2="2.56173" gradientUnits="userSpaceOnUse">
<stop stop-color="#FF66A9"/>
<stop offset="1" stop-color="#F53689"/>
</linearGradient>
<linearGradient id="paint6_linear_1632:18162" x1="42.3843" y1="1.25211" x2="43.097" y2="1.25211" gradientUnits="userSpaceOnUse">
<stop stop-color="#FF66A9"/>
<stop offset="1" stop-color="#F53689"/>
</linearGradient>
<linearGradient id="paint7_linear_1632:18162" x1="14.6379" y1="33.1513" x2="28.1521" y2="33.1513" gradientUnits="userSpaceOnUse">
<stop stop-color="#D5DAE8"/>
<stop offset="1" stop-color="#9AA3BA"/>
</linearGradient>
<linearGradient id="paint8_linear_1632:18162" x1="42.9722" y1="41.9983" x2="45.0194" y2="30.3673" gradientUnits="userSpaceOnUse">
<stop stop-color="#FF66A9"/>
<stop offset="1" stop-color="#F53689"/>
</linearGradient>
<linearGradient id="paint9_linear_1632:18162" x1="62.1109" y1="46.5113" x2="82.9942" y2="46.5113" gradientUnits="userSpaceOnUse">
<stop stop-color="#83A6FF"/>
<stop offset="1" stop-color="#5A78FF"/>
</linearGradient>
<linearGradient id="paint10_linear_1632:18162" x1="73.187" y1="48.0579" x2="77.6546" y2="52.5105" gradientUnits="userSpaceOnUse">
<stop stop-color="#4F6AFF"/>
<stop offset="1" stop-color="#657EFF" stop-opacity="0"/>
</linearGradient>
<linearGradient id="paint11_linear_1632:18162" x1="75.8556" y1="50.5787" x2="69.9168" y2="44.6604" gradientUnits="userSpaceOnUse">
<stop offset="0.0113208" stop-color="#C2D1FF"/>
<stop offset="1" stop-color="white"/>
</linearGradient>
<linearGradient id="paint12_linear_1632:18162" x1="74.1432" y1="52.2985" x2="68.2044" y2="46.3801" gradientUnits="userSpaceOnUse">
<stop offset="0.0113208" stop-color="#C2D1FF"/>
<stop offset="1" stop-color="white"/>
</linearGradient>
</defs>
</svg>
