<svg width="84" height="100" viewBox="0 0 84 100" fill="none" xmlns="http://www.w3.org/2000/svg">
<path d="M13.143 16.8534C14.0028 16.5759 14.4729 15.6581 14.1938 14.8038C13.9146 13.9496 12.9911 13.4822 12.1313 13.7597C11.2715 14.0372 10.8013 14.9551 11.0805 15.8094C11.3602 16.6636 12.2837 17.1309 13.143 16.8534Z" fill="#EAEEF9"/>
<path d="M16.7161 11.5452C17.3007 11.3559 17.6206 10.7322 17.4302 10.151C17.2404 9.57034 16.6128 9.25209 16.0277 9.44137C15.4431 9.63008 15.1237 10.2537 15.3136 10.835C15.5034 11.4156 16.1315 11.7339 16.7161 11.5452Z" fill="#EAEEF9"/>
<path d="M66.6354 10.5152C66.9826 10.1998 67.0067 9.66489 66.6895 9.31984C66.3724 8.97535 65.8341 8.95136 65.4869 9.26625C65.1401 9.58115 65.1156 10.1166 65.4327 10.4611C65.7498 10.8061 66.2886 10.8301 66.6354 10.5152Z" fill="#EAEEF9"/>
<path d="M17.347 64.8079C17.7741 64.4198 17.8037 63.761 17.4135 63.3367C17.0232 62.9123 16.361 62.8828 15.9339 63.2708C15.5068 63.6583 15.4766 64.3171 15.8669 64.7415C16.2572 65.1658 16.9199 65.1954 17.347 64.8079Z" fill="#EAEEF9"/>
<path d="M72.5501 26.235V50.7648C72.5501 51.155 72.5501 51.48 72.4848 51.8708C72.157 54.6686 70.5205 57.1409 68.0326 58.5725L46.6887 70.8045C44.6592 71.9758 42.2365 72.3008 40.0104 71.7151C39.1595 71.5202 38.374 71.1947 37.6538 70.8045L16.2445 58.5072C14.6074 57.5965 13.3635 56.2297 12.5779 54.6033C11.9889 53.4319 11.6611 52.0657 11.6611 50.6994V26.235C11.6611 24.9341 11.923 23.6979 12.4467 22.5266C13.2328 20.8348 14.4768 19.4033 16.1786 18.4273L37.5884 6.19533C39.6833 5.02394 42.04 4.69901 44.332 5.2847C45.1175 5.47955 45.9031 5.80505 46.6887 6.19533L68.0326 18.4273C69.9309 19.5333 71.3061 21.2251 72.0264 23.2423C72.3536 24.153 72.5501 25.1943 72.5501 26.235Z" fill="#EAEEF9"/>
<path d="M42.1709 17.3204L47.278 6.71484" stroke="url(#paint0_linear_1632:18013)" stroke-width="2" stroke-miterlimit="10" stroke-linecap="round" stroke-linejoin="round"/>
<g filter="url(#filter0_d_1632:18013)">
<path d="M61.877 13.6766V63.9064C61.877 65.338 60.6984 66.5094 59.2584 66.5094H24.9512C23.5107 66.5094 22.332 65.338 22.332 63.9064V13.6766C22.332 12.2456 23.5107 11.0742 24.9512 11.0742H59.2584C60.6984 11.0742 61.877 12.2456 61.877 13.6766Z" fill="white"/>
</g>
<path d="M24.7547 34.3672H23.5107V35.6034H24.7547V34.3672Z" fill="#EAEEF9"/>
<path d="M24.7547 31.8965H23.5107V33.1326H24.7547V31.8965Z" fill="#EAEEF9"/>
<path d="M24.7547 29.4238H23.5107V30.66H24.7547V29.4238Z" fill="#EAEEF9"/>
<path d="M24.7547 27.0156H23.5107V28.2518H24.7547V27.0156Z" fill="url(#paint1_linear_1632:18013)"/>
<path d="M24.7547 22.0703H23.5107V23.3065H24.7547V22.0703Z" fill="#F3F5FA"/>
<path d="M27.3084 36.7754H26.0645V38.0115H27.3084V36.7754Z" fill="#EAEEF9"/>
<path d="M27.3084 34.3672H26.0645V35.6034H27.3084V34.3672Z" fill="#EAEEF9"/>
<path d="M27.3084 27.0156H26.0645V28.2518H27.3084V27.0156Z" fill="#EAEEF9"/>
<path d="M27.3084 17.1914H26.0645V18.4276H27.3084V17.1914Z" fill="url(#paint2_linear_1632:18013)"/>
<path d="M29.8621 36.7754H28.6182V38.0115H29.8621V36.7754Z" fill="#EAEEF9"/>
<path d="M29.8621 31.8965H28.6182V33.1326H29.8621V31.8965Z" fill="#EAEEF9"/>
<path d="M29.8621 29.4238H28.6182V30.66H29.8621V29.4238Z" fill="#EAEEF9"/>
<path d="M29.8621 27.0156H28.6182V28.2518H29.8621V27.0156Z" fill="url(#paint3_linear_1632:18013)"/>
<path d="M29.8621 24.543H28.6182V25.7791H29.8621V24.543Z" fill="#F3F5FA"/>
<path d="M29.8621 22.0703H28.6182V23.3065H29.8621V22.0703Z" fill="#EAEEF9"/>
<path d="M29.8621 17.1914H28.6182V18.4276H29.8621V17.1914Z" fill="#EAEEF9"/>
<path d="M29.8621 14.7188H28.6182V15.9549H29.8621V14.7188Z" fill="#F3F5FA"/>
<path d="M32.4158 34.3672H31.1719V35.6034H32.4158V34.3672Z" fill="#EAEEF9"/>
<path d="M32.4158 31.8965H31.1719V33.1326H32.4158V31.8965Z" fill="#EAEEF9"/>
<path d="M32.4158 24.543H31.1719V25.7791H32.4158V24.543Z" fill="#F3F5FA"/>
<path d="M32.4158 19.6641H31.1719V20.9002H32.4158V19.6641Z" fill="#EAEEF9"/>
<path d="M35.034 36.7754H33.79V38.0115H35.034V36.7754Z" fill="#EAEEF9"/>
<path d="M35.034 34.3672H33.79V35.6034H35.034V34.3672Z" fill="#EAEEF9"/>
<path d="M35.034 27.0156H33.79V28.2518H35.034V27.0156Z" fill="#EAEEF9"/>
<path d="M35.034 24.543H33.79V25.7791H35.034V24.543Z" fill="url(#paint4_linear_1632:18013)"/>
<path d="M35.034 22.0703H33.79V23.3065H35.034V22.0703Z" fill="#F3F5FA"/>
<path d="M37.5877 36.7754H36.3438V38.0115H37.5877V36.7754Z" fill="#EAEEF9"/>
<path d="M37.5877 34.3672H36.3438V35.6034H37.5877V34.3672Z" fill="#EAEEF9"/>
<path d="M37.5877 31.8965H36.3438V33.1326H37.5877V31.8965Z" fill="#EAEEF9"/>
<path d="M37.5877 29.4238H36.3438V30.66H37.5877V29.4238Z" fill="#EAEEF9"/>
<path d="M37.5877 27.0156H36.3438V28.2518H37.5877V27.0156Z" fill="#EAEEF9"/>
<path d="M37.5877 24.543H36.3438V25.7791H37.5877V24.543Z" fill="#EAEEF9"/>
<path d="M37.5877 17.1914H36.3438V18.4276H37.5877V17.1914Z" fill="#EAEEF9"/>
<path d="M40.1414 36.7754H38.8975V38.0115H40.1414V36.7754Z" fill="#EAEEF9"/>
<path d="M40.1414 34.3672H38.8975V35.6034H40.1414V34.3672Z" fill="#EAEEF9"/>
<path d="M40.1414 31.8965H38.8975V33.1326H40.1414V31.8965Z" fill="#EAEEF9"/>
<path d="M40.1414 27.0156H38.8975V28.2518H40.1414V27.0156Z" fill="#EAEEF9"/>
<path d="M40.1414 24.543H38.8975V25.7791H40.1414V24.543Z" fill="#F3F5FA"/>
<path d="M42.6942 36.7754H41.4502V38.0115H42.6942V36.7754Z" fill="url(#paint5_linear_1632:18013)"/>
<path d="M42.6942 34.3672H41.4502V35.6034H42.6942V34.3672Z" fill="#EAEEF9"/>
<path d="M42.6942 31.8965H41.4502V33.1326H42.6942V31.8965Z" fill="#EAEEF9"/>
<path d="M42.6942 29.4238H41.4502V30.66H42.6942V29.4238Z" fill="#F3F5FA"/>
<path d="M42.6942 27.0156H41.4502V28.2518H42.6942V27.0156Z" fill="#EAEEF9"/>
<path d="M42.6942 22.0703H41.4502V23.3065H42.6942V22.0703Z" fill="#EAEEF9"/>
<path d="M45.2479 36.7754H44.0039V38.0115H45.2479V36.7754Z" fill="#EAEEF9"/>
<path d="M45.2479 34.3672H44.0039V35.6034H45.2479V34.3672Z" fill="#EAEEF9"/>
<path d="M45.2479 31.8965H44.0039V33.1326H45.2479V31.8965Z" fill="url(#paint6_linear_1632:18013)"/>
<path d="M45.2479 29.4238H44.0039V30.66H45.2479V29.4238Z" fill="#EAEEF9"/>
<path d="M45.2479 27.0156H44.0039V28.2518H45.2479V27.0156Z" fill="#EAEEF9"/>
<path d="M45.2479 24.543H44.0039V25.7791H45.2479V24.543Z" fill="#EAEEF9"/>
<path d="M47.8016 36.7754H46.5576V38.0115H47.8016V36.7754Z" fill="#EAEEF9"/>
<path d="M47.8016 34.3672H46.5576V35.6034H47.8016V34.3672Z" fill="#EAEEF9"/>
<path d="M47.8016 31.8965H46.5576V33.1326H47.8016V31.8965Z" fill="#EAEEF9"/>
<path d="M47.8016 27.0156H46.5576V28.2518H47.8016V27.0156Z" fill="#F3F5FA"/>
<path d="M47.8016 22.0703H46.5576V23.3065H47.8016V22.0703Z" fill="#EAEEF9"/>
<path d="M47.8016 14.7188H46.5576V15.9549H47.8016V14.7188Z" fill="#F3F5FA"/>
<path d="M50.3543 34.3672H49.1104V35.6034H50.3543V34.3672Z" fill="#EAEEF9"/>
<path d="M50.3543 31.8965H49.1104V33.1326H50.3543V31.8965Z" fill="#F3F5FA"/>
<path d="M50.3543 29.4238H49.1104V30.66H50.3543V29.4238Z" fill="#EAEEF9"/>
<path d="M50.3543 19.6641H49.1104V20.9002H50.3543V19.6641Z" fill="#EAEEF9"/>
<path d="M52.908 36.7754H51.6641V38.0115H52.908V36.7754Z" fill="#EAEEF9"/>
<path d="M52.908 31.8965H51.6641V33.1326H52.908V31.8965Z" fill="#EAEEF9"/>
<path d="M52.908 29.4238H51.6641V30.66H52.908V29.4238Z" fill="url(#paint7_linear_1632:18013)"/>
<path d="M52.908 27.0156H51.6641V28.2518H52.908V27.0156Z" fill="#EAEEF9"/>
<path d="M52.908 24.543H51.6641V25.7791H52.908V24.543Z" fill="#F3F5FA"/>
<path d="M52.908 22.0703H51.6641V23.3065H52.908V22.0703Z" fill="url(#paint8_linear_1632:18013)"/>
<path d="M55.5272 36.7754H54.2832V38.0115H55.5272V36.7754Z" fill="#EAEEF9"/>
<path d="M55.5272 29.4238H54.2832V30.66H55.5272V29.4238Z" fill="#F3F5FA"/>
<path d="M55.5272 24.543H54.2832V25.7791H55.5272V24.543Z" fill="#EAEEF9"/>
<path d="M58.0809 36.7754H56.8369V38.0115H58.0809V36.7754Z" fill="#EAEEF9"/>
<path d="M58.0809 34.3672H56.8369V35.6034H58.0809V34.3672Z" fill="#EAEEF9"/>
<path d="M58.0809 31.8965H56.8369V33.1326H58.0809V31.8965Z" fill="#EAEEF9"/>
<path d="M58.0809 29.4238H56.8369V30.66H58.0809V29.4238Z" fill="#EAEEF9"/>
<path d="M58.0809 27.0156H56.8369V28.2518H58.0809V27.0156Z" fill="#F3F5FA"/>
<path d="M58.0809 19.6641H56.8369V20.9002H58.0809V19.6641Z" fill="#EAEEF9"/>
<path d="M60.6336 36.7754H59.3896V38.0115H60.6336V36.7754Z" fill="#EAEEF9"/>
<path d="M60.6336 31.8965H59.3896V33.1326H60.6336V31.8965Z" fill="#EAEEF9"/>
<path d="M60.6336 29.4238H59.3896V30.66H60.6336V29.4238Z" fill="#F3F5FA"/>
<path d="M59.3691 45.4139H60.6131V44.1777H59.3691V45.4139Z" fill="#EAEEF9"/>
<path d="M59.3691 42.9217H60.6131V41.6855H59.3691V42.9217Z" fill="#EAEEF9"/>
<path d="M59.3691 40.4959H60.6131V39.2598H59.3691V40.4959Z" fill="#EAEEF9"/>
<path d="M56.7998 47.8416H58.0438V46.6055H56.7998V47.8416Z" fill="#EAEEF9"/>
<path d="M56.7998 45.4139H58.0438V44.1777H56.7998V45.4139Z" fill="#EAEEF9"/>
<path d="M56.7998 40.4959H58.0438V39.2598H56.7998V40.4959Z" fill="#EAEEF9"/>
<path d="M54.2305 47.8416H55.4744V46.6055H54.2305V47.8416Z" fill="#EAEEF9"/>
<path d="M54.2305 45.4139H55.4744V44.1777H54.2305V45.4139Z" fill="#EAEEF9"/>
<path d="M54.2305 42.9217H55.4744V41.6855H54.2305V42.9217Z" fill="#EAEEF9"/>
<path d="M54.2305 40.4959H55.4744V39.2598H54.2305V40.4959Z" fill="#EAEEF9"/>
<path d="M51.7266 47.8416H52.9705V46.6055H51.7266V47.8416Z" fill="#EAEEF9"/>
<path d="M51.7266 45.4139H52.9705V44.1777H51.7266V45.4139Z" fill="#EAEEF9"/>
<path d="M51.7266 42.9217H52.9705V41.6855H51.7266V42.9217Z" fill="#EAEEF9"/>
<path d="M51.7266 40.4959H52.9705V39.2598H51.7266V40.4959Z" fill="#EAEEF9"/>
<path d="M49.1572 47.8416H50.4012V46.6055H49.1572V47.8416Z" fill="#EAEEF9"/>
<path d="M49.1572 45.4139H50.4012V44.1777H49.1572V45.4139Z" fill="#EAEEF9"/>
<path d="M49.1572 42.9217H50.4012V41.6855H49.1572V42.9217Z" fill="#EAEEF9"/>
<path d="M46.5879 47.8416H47.8318V46.6055H46.5879V47.8416Z" fill="#EAEEF9"/>
<path d="M46.5879 45.4139H47.8318V44.1777H46.5879V45.4139Z" fill="#EAEEF9"/>
<path d="M46.5879 42.9217H47.8318V41.6855H46.5879V42.9217Z" fill="#EAEEF9"/>
<path d="M46.5879 40.4959H47.8318V39.2598H46.5879V40.4959Z" fill="#EAEEF9"/>
<path d="M44.0195 47.8416H45.2635V46.6055H44.0195V47.8416Z" fill="#EAEEF9"/>
<path d="M44.0195 45.4139H45.2635V44.1777H44.0195V45.4139Z" fill="#EAEEF9"/>
<path d="M44.0195 42.9217H45.2635V41.6855H44.0195V42.9217Z" fill="#EAEEF9"/>
<path d="M41.4502 47.8363H42.6942V46.5996H41.4502V47.8363Z" fill="url(#paint9_linear_1632:18013)"/>
<path d="M41.4502 45.4139H42.6941V44.1777H41.4502V45.4139Z" fill="#EAEEF9"/>
<path d="M41.4502 42.9217H42.6941V41.6855H41.4502V42.9217Z" fill="#EAEEF9"/>
<path d="M41.4502 40.4959H42.6941V39.2598H41.4502V40.4959Z" fill="#F3F5FA"/>
<path d="M38.8809 47.8416H40.1248V46.6055H38.8809V47.8416Z" fill="#EAEEF9"/>
<path d="M38.8809 45.4139H40.1248V44.1777H38.8809V45.4139Z" fill="#EAEEF9"/>
<path d="M38.8975 42.9574H40.1414V41.7207H38.8975V42.9574Z" fill="url(#paint10_linear_1632:18013)"/>
<path d="M38.8809 40.4959H40.1248V39.2598H38.8809V40.4959Z" fill="#EAEEF9"/>
<path d="M36.3125 47.8416H37.5565V46.6055H36.3125V47.8416Z" fill="#EAEEF9"/>
<path d="M36.3125 45.4139H37.5565V44.1777H36.3125V45.4139Z" fill="#EAEEF9"/>
<path d="M36.3125 42.9217H37.5565V41.6855H36.3125V42.9217Z" fill="#EAEEF9"/>
<path d="M33.7432 45.4139H34.9871V44.1777H33.7432V45.4139Z" fill="#EAEEF9"/>
<path d="M33.7432 42.9217H34.9871V41.6855H33.7432V42.9217Z" fill="#F3F5FA"/>
<path d="M33.7432 40.4959H34.9871V39.2598H33.7432V40.4959Z" fill="#EAEEF9"/>
<path d="M31.2393 47.8416H32.4832V46.6055H31.2393V47.8416Z" fill="#EAEEF9"/>
<path d="M31.2393 42.9217H32.4832V41.6855H31.2393V42.9217Z" fill="#EAEEF9"/>
<path d="M31.1719 40.4842H32.4811V39.248H31.1719V40.4842Z" fill="url(#paint11_linear_1632:18013)"/>
<path d="M28.6699 47.8416H29.9139V46.6055H28.6699V47.8416Z" fill="#EAEEF9"/>
<path d="M28.6699 40.4959H29.9139V39.2598H28.6699V40.4959Z" fill="#F3F5FA"/>
<path d="M26.1016 47.8416H27.3455V46.6055H26.1016V47.8416Z" fill="#EAEEF9"/>
<path d="M26.1016 45.4139H27.3455V44.1777H26.1016V45.4139Z" fill="#EAEEF9"/>
<path d="M26.1016 42.9217H27.3455V41.6855H26.1016V42.9217Z" fill="#EAEEF9"/>
<path d="M23.5322 47.8416H24.7762V46.6055H23.5322V47.8416Z" fill="#EAEEF9"/>
<path d="M23.5322 42.9217H24.7762V41.6855H23.5322V42.9217Z" fill="#EAEEF9"/>
<path d="M23.5322 40.4959H24.7762V39.2598H23.5322V40.4959Z" fill="#F3F5FA"/>
<path d="M42.1053 19.8581C43.6239 19.8581 44.8551 18.6348 44.8551 17.1256C44.8551 15.6164 43.6239 14.3926 42.1053 14.3926C40.5866 14.3926 39.3555 15.6164 39.3555 17.1256C39.3555 18.6348 40.5866 19.8581 42.1053 19.8581Z" fill="#EAEEF9"/>
<path d="M42.039 17.3204L36.8672 6.71484" stroke="url(#paint12_linear_1632:18013)" stroke-width="2" stroke-miterlimit="10" stroke-linecap="round" stroke-linejoin="round"/>
<path d="M53.8903 45.7554C53.6285 46.0156 53.4319 46.2758 53.1701 46.4707C50.2237 49.2037 46.2959 50.8301 41.9091 50.8301C38.439 50.8301 35.1655 49.7894 32.4811 47.9022C31.6955 47.3818 30.9752 46.7314 30.3203 46.0804C30.6481 45.6248 31.3024 45.2998 32.6123 44.7794L33.136 44.584C34.1181 44.1938 35.4927 43.6728 37.2604 42.9576C37.5222 42.827 37.7841 42.6969 37.9153 42.4367C37.9806 42.3066 38.1119 42.1765 38.1119 42.0464C38.2425 41.851 38.2425 41.5908 38.2425 41.3306V38.0125C38.1772 37.9471 38.1772 37.8824 38.1119 37.8171C37.85 37.362 37.6535 36.9064 37.5881 36.3861L37.3263 36.2559C36.4748 36.4508 36.5401 35.5402 36.3442 33.7831C36.2783 33.0673 36.3442 32.9372 36.6713 32.8071L36.9332 32.4169C36.2783 30.9853 36.0164 29.8145 36.0164 28.7732C36.0164 27.1468 36.7367 26.0407 37.7188 25.5203C37.2604 24.4791 37.1951 24.0234 37.1951 24.0234C37.1951 24.0234 40.6651 24.6091 41.8438 24.3489C43.3496 24.0234 45.7063 24.4137 46.5578 26.431C46.7537 26.4963 46.8849 26.5611 47.0815 26.6264C48.1942 27.2115 48.5873 27.9926 48.7179 28.8385C48.9145 30.4002 48.0636 32.0913 47.867 32.8071C47.867 32.8071 47.867 32.8724 47.9324 32.8724C48.1942 33.0025 48.2601 33.198 48.1289 33.8484C47.9324 35.5402 47.9977 36.5161 47.1468 36.3207L46.3612 37.6222C46.3612 37.7523 46.2959 37.817 46.2959 37.9471C46.2959 38.2079 46.2959 38.6629 46.2959 41.396C46.2959 41.4607 46.2959 41.5908 46.2959 41.6561C46.2959 41.9163 46.4265 42.1118 46.5578 42.3066C46.6231 42.3719 46.6884 42.4367 46.7537 42.502C46.9502 42.6969 47.1468 42.827 47.4086 42.9576C49.3729 43.8029 50.8134 44.3239 51.8608 44.7141C52.8429 45.1698 53.4978 45.4947 53.8903 45.7554Z" fill="#EAEEF9"/>
<path d="M48.1937 33.8471C47.9972 35.5388 48.0631 36.5148 47.2116 36.3193L46.426 37.6208C46.426 37.7509 46.3607 37.8157 46.3607 37.9463C46.3607 38.2065 46.3607 38.6615 46.3607 41.3946C46.3607 41.4593 46.3607 41.5894 46.3607 41.6548H42.5635V26.625H47.1463C48.259 27.2101 48.6521 27.9913 48.7833 28.8371C48.9793 30.3988 48.1284 32.09 47.9318 32.8057C47.9318 32.8057 47.9318 32.8711 47.9972 32.8711C48.1937 33.0012 48.259 33.1966 48.1937 33.8471Z" fill="#E3E7F5"/>
<path d="M55.4625 50.6352C52.5162 53.3677 46.2964 50.8954 41.9095 50.8954C38.4395 50.8954 31.1722 53.6278 28.4878 51.806C27.9641 51.4157 28.619 49.9194 28.815 49.4638C29.1427 48.5526 29.4699 47.642 29.9283 46.7961C30.9104 44.9095 35.4279 43.9983 37.2609 43.0223C37.5886 42.8275 37.7846 42.6968 37.9158 42.502C40.0766 45.4946 44.5287 45.4946 46.6889 42.5667C46.8854 42.7622 47.0819 42.8922 47.3438 43.0223C47.4091 43.0223 47.4744 43.0877 47.5403 43.0877C53.6289 45.5599 54.022 45.2344 54.8076 47.5119C54.9382 47.9022 55.7244 50.3745 55.4625 50.6352Z" fill="white"/>
<path d="M55.4625 50.6344C52.5162 53.3668 46.2964 50.8945 41.9095 50.8945C38.4395 50.8945 31.1722 53.627 28.4878 51.8052C27.9641 51.4149 28.619 49.9186 28.815 49.463C29.1427 48.5518 29.4699 47.6411 29.9283 46.7952C30.9104 44.9086 35.4279 43.9974 37.2609 43.0215C37.2609 43.0215 37.2609 43.0215 37.3268 43.0215C39.8147 46.4697 44.9865 46.4697 47.4745 43.0868H47.5403C53.6289 45.5591 54.022 45.2336 54.8076 47.511C54.9382 47.9013 55.7244 50.3736 55.4625 50.6344Z" fill="url(#paint13_linear_1632:18013)"/>
<path d="M47.867 32.8071C47.9323 32.4168 47.7358 31.8965 47.6051 31.5062C47.6051 31.4409 47.5398 31.3761 47.5398 31.3108C46.8849 30.0093 45.379 29.4242 44.0039 29.3589C40.4032 29.1635 40.076 29.8792 38.8974 28.8385C39.2245 29.3589 39.2899 30.2048 38.7662 31.246C38.3737 31.9613 37.6534 32.2868 36.9985 32.4822C35.362 28.7732 36.1476 26.431 37.784 25.5851C37.2603 24.479 37.195 24.0234 37.195 24.0234C37.195 24.0234 40.6651 24.6091 41.8437 24.3489C43.3495 24.0234 45.7063 24.4137 46.5577 26.431C47.9976 27.0167 48.5872 27.9273 48.7179 28.9033C48.9797 30.4649 48.0635 32.1567 47.867 32.8071Z" fill="#1C3754"/>
<path d="M38.3089 41.4604V38.1422C38.2431 38.0775 38.1777 38.0122 38.1777 37.9474V37.752C38.3743 38.0775 38.5708 38.3376 38.898 38.5325L41.5166 40.3543C42.1062 40.8753 43.0224 40.8753 43.612 40.3543L46.0346 38.1422C46.0999 38.0775 46.2306 38.0122 46.2965 37.8821C46.2965 38.1422 46.2965 38.5978 46.2965 41.3303C46.2965 41.5257 46.2964 41.6558 46.3617 41.7859H38.2431C38.3089 41.7859 38.3089 41.5905 38.3089 41.4604Z" fill="url(#paint14_linear_1632:18013)"/>
<path d="M61.877 47.9668V63.9072C61.877 65.3387 60.6984 66.5102 59.2584 66.5102H24.9512C23.5107 66.5102 22.332 65.3387 22.332 63.9072V47.9668H61.877Z" fill="white"/>
<path d="M47.2118 54.0836H36.9983C36.4745 54.0836 36.082 53.6933 36.082 53.1724C36.082 52.652 36.4745 52.2617 36.9983 52.2617H47.2118C47.7356 52.2617 48.1286 52.652 48.1286 53.1724C48.1286 53.6933 47.7356 54.0836 47.2118 54.0836Z" fill="url(#paint15_linear_1632:18013)"/>
<path d="M51.4021 58.1168H32.8738C32.3496 58.1168 31.957 57.7265 31.957 57.2056C31.957 56.6852 32.3496 56.2949 32.8738 56.2949H51.4021C51.9258 56.2949 52.3189 56.6852 52.3189 57.2056C52.3189 57.7265 51.8605 58.1168 51.4021 58.1168Z" fill="#E3EAF2"/>
<path d="M45.7719 62.2164H38.5041C38.1769 62.2164 37.915 61.9556 37.915 61.6307V60.9797C37.915 60.6547 38.1769 60.3945 38.5041 60.3945H45.7719C46.0991 60.3945 46.3609 60.6547 46.3609 60.9797V61.6307C46.3609 61.9556 46.0991 62.2164 45.7719 62.2164Z" fill="#E3EAF2"/>
<defs>
<filter id="filter0_d_1632:18013" x="0.332031" y="0.0742188" width="83.5449" height="99.4355" filterUnits="userSpaceOnUse" color-interpolation-filters="sRGB">
<feFlood flood-opacity="0" result="BackgroundImageFix"/>
<feColorMatrix in="SourceAlpha" type="matrix" values="0 0 0 0 0 0 0 0 0 0 0 0 0 0 0 0 0 0 127 0" result="hardAlpha"/>
<feOffset dy="11"/>
<feGaussianBlur stdDeviation="11"/>
<feColorMatrix type="matrix" values="0 0 0 0 0.397708 0 0 0 0 0.47749 0 0 0 0 0.575 0 0 0 0.18 0"/>
<feBlend mode="normal" in2="BackgroundImageFix" result="effect1_dropShadow_1632:18013"/>
<feBlend mode="normal" in="SourceGraphic" in2="effect1_dropShadow_1632:18013" result="shape"/>
</filter>
<linearGradient id="paint0_linear_1632:18013" x1="44.7158" y1="17.9881" x2="44.7158" y2="6.05713" gradientUnits="userSpaceOnUse">
<stop offset="0.00289017" stop-color="#83A6FF"/>
<stop offset="1" stop-color="#5A78FF"/>
</linearGradient>
<linearGradient id="paint1_linear_1632:18013" x1="23.5174" y1="27.6209" x2="24.7737" y2="27.6209" gradientUnits="userSpaceOnUse">
<stop stop-color="#FF66A9"/>
<stop offset="1" stop-color="#F53689"/>
</linearGradient>
<linearGradient id="paint2_linear_1632:18013" x1="26.079" y1="17.8246" x2="27.3358" y2="17.8246" gradientUnits="userSpaceOnUse">
<stop stop-color="#FF66A9"/>
<stop offset="1" stop-color="#F53689"/>
</linearGradient>
<linearGradient id="paint3_linear_1632:18013" x1="28.6405" y1="27.6209" x2="29.8967" y2="27.6209" gradientUnits="userSpaceOnUse">
<stop stop-color="#83A6FF"/>
<stop offset="1" stop-color="#5A78FF"/>
</linearGradient>
<linearGradient id="paint4_linear_1632:18013" x1="33.7627" y1="25.1711" x2="35.0195" y2="25.1711" gradientUnits="userSpaceOnUse">
<stop stop-color="#FF66A9"/>
<stop offset="1" stop-color="#F53689"/>
</linearGradient>
<linearGradient id="paint5_linear_1632:18013" x1="41.4468" y1="37.418" x2="42.7031" y2="37.418" gradientUnits="userSpaceOnUse">
<stop stop-color="#83A6FF"/>
<stop offset="1" stop-color="#5A78FF"/>
</linearGradient>
<linearGradient id="paint6_linear_1632:18013" x1="44.0078" y1="32.5201" x2="45.264" y2="32.5201" gradientUnits="userSpaceOnUse">
<stop stop-color="#FF66A9"/>
<stop offset="1" stop-color="#F53689"/>
</linearGradient>
<linearGradient id="paint7_linear_1632:18013" x1="51.692" y1="30.0704" x2="52.9482" y2="30.0704" gradientUnits="userSpaceOnUse">
<stop stop-color="#FF66A9"/>
<stop offset="1" stop-color="#F53689"/>
</linearGradient>
<linearGradient id="paint8_linear_1632:18013" x1="51.692" y1="22.7219" x2="52.9482" y2="22.7219" gradientUnits="userSpaceOnUse">
<stop stop-color="#83A6FF"/>
<stop offset="1" stop-color="#5A78FF"/>
</linearGradient>
<linearGradient id="paint9_linear_1632:18013" x1="42.7003" y1="47.2199" x2="41.4441" y2="47.2199" gradientUnits="userSpaceOnUse">
<stop stop-color="#83A6FF"/>
<stop offset="1" stop-color="#5A78FF"/>
</linearGradient>
<linearGradient id="paint10_linear_1632:18013" x1="40.1398" y1="42.322" x2="38.8829" y2="42.322" gradientUnits="userSpaceOnUse">
<stop stop-color="#FF66A9"/>
<stop offset="1" stop-color="#F53689"/>
</linearGradient>
<linearGradient id="paint11_linear_1632:18013" x1="32.456" y1="39.8723" x2="31.1992" y2="39.8723" gradientUnits="userSpaceOnUse">
<stop stop-color="#FF66A9"/>
<stop offset="1" stop-color="#F53689"/>
</linearGradient>
<linearGradient id="paint12_linear_1632:18013" x1="39.4528" y1="17.9881" x2="39.4528" y2="6.05713" gradientUnits="userSpaceOnUse">
<stop offset="0.00289017" stop-color="#83A6FF"/>
<stop offset="1" stop-color="#5A78FF"/>
</linearGradient>
<linearGradient id="paint13_linear_1632:18013" x1="28.3136" y1="47.7159" x2="55.5077" y2="47.7159" gradientUnits="userSpaceOnUse">
<stop stop-color="#83A6FF"/>
<stop offset="1" stop-color="#5A78FF"/>
</linearGradient>
<linearGradient id="paint14_linear_1632:18013" x1="42.282" y1="41.9367" x2="42.282" y2="39.6185" gradientUnits="userSpaceOnUse">
<stop stop-color="#EAEEF9"/>
<stop offset="0.9913" stop-color="#CED5E6"/>
</linearGradient>
<linearGradient id="paint15_linear_1632:18013" x1="37.4539" y1="53.1752" x2="47.6306" y2="53.1752" gradientUnits="userSpaceOnUse">
<stop stop-color="#FF66A9"/>
<stop offset="1" stop-color="#F53689"/>
</linearGradient>
</defs>
</svg>
