<svg width="176" height="124" viewBox="0 0 176 124" fill="none" xmlns="http://www.w3.org/2000/svg">
<path d="M87.6275 111.5C117.328 111.5 141.528 87.4 141.528 57.8C141.428 28.1 117.328 4 87.6275 4C57.8275 4 33.7275 28.1 33.7275 57.7C33.7275 87.4 57.8275 111.5 87.6275 111.5Z" fill="#EAEEF9"/>
<g filter="url(#filter0_ddwhuw2)">
<path d="M145.128 64.5998C145.128 76.0998 135.828 85.3998 124.228 85.3998C124.028 85.3998 122.328 85.3998 109.828 85.3998C101.128 85.3998 87.2277 85.3998 65.0277 85.3998H54.4277C40.5277 85.6998 29.4277 74.5998 29.4277 61.1998C29.4277 47.6998 40.6277 36.4998 54.7277 37.1998C66.8277 -0.600161 122.228 4.69984 126.928 43.7998C137.328 45.0998 145.128 53.8998 145.128 64.5998Z" fill="url(#paint0_linear_duhwqd)"/>
</g>
<path d="M124.228 85.3998C135.728 85.3998 145.128 76.0998 145.128 64.5998C145.128 53.0998 135.728 43.7998 124.228 43.7998C112.728 43.7998 103.328 53.0998 103.328 64.5998C103.328 76.0998 112.728 85.3998 124.228 85.3998Z" fill="url(#paint1_linear_duhqxx)"/>
<path d="M90.1277 85.6004C110.628 85.6004 127.328 69.0004 127.328 48.5004C127.328 28.0004 110.628 11.4004 90.1277 11.4004C69.6277 11.4004 52.9277 28.0004 52.9277 48.5004C52.9277 69.0004 69.5277 85.6004 90.1277 85.6004Z" fill="url(#paint2_linear_xwyu2q)"/>
<path d="M76.369 58.0192C77.9436 58.0192 79.276 56.6868 79.276 55.1121C79.276 53.5375 77.9436 52.2051 76.369 52.2051C74.7943 52.2051 73.4619 53.5375 73.4619 55.1121C73.4619 56.6868 74.7943 58.0192 76.369 58.0192Z" fill="#989FB0"/>
<path d="M98.6561 58.0192C100.231 58.0192 101.563 56.6868 101.563 55.1121C101.563 53.5375 100.231 52.2051 98.6561 52.2051C97.0814 52.2051 95.749 53.5375 95.749 55.1121C95.749 56.8079 97.0814 58.0192 98.6561 58.0192Z" fill="#989FB0"/>
<path d="M76.2551 45.4945L69.8604 48.9473L70.7236 50.546L77.1183 47.0931L76.2551 45.4945Z" fill="#989FB0"/>
<path d="M98.2605 45.448L97.3975 47.0469L103.793 50.499L104.656 48.9001L98.2605 45.448Z" fill="#989FB0"/>
<path d="M87.5122 64.8022C89.3853 64.8022 90.9037 63.6633 90.9037 62.2585C90.9037 60.8537 89.3853 59.7148 87.5122 59.7148C85.6391 59.7148 84.1206 60.8537 84.1206 62.2585C84.1206 63.6633 85.6391 64.8022 87.5122 64.8022Z" fill="#989FB0"/>
<path d="M17.8823 18.3555C17.8823 18.3555 3.90378 21.9046 8.1397 24.7439C12.3756 27.4412 22.4006 32.126 31.8609 29.0028C41.3211 25.8796 31.8609 21.4787 32.0021 21.4787C32.1433 21.4787 17.8823 18.3555 17.8823 18.3555Z" fill="#CED7E2"/>
<path d="M0.797363 17.2194C5.88047 18.781 21.5534 16.2257 31.5784 9.69531C39.4855 19.4908 42.4506 22.0462 45.2746 22.3301C40.8974 26.731 26.3541 33.8292 18.1646 24.6015C8.56322 30.706 0.797363 17.2194 0.797363 17.2194Z" fill="#E9EDF9"/>
<path d="M130.866 52.7162C136.232 53.0001 150.775 46.4697 158.682 37.668C168.848 45.1921 172.237 46.8956 175.202 46.4697C171.955 51.8644 162.071 63.6474 148.092 64.4992C137.926 58.5367 130.866 52.7162 130.866 52.7162Z" fill="#E9EDF9"/>
<path d="M88.0358 119.307C86.9742 114.04 77.027 101.582 66.5331 96.1166C71.2877 84.3966 72.0934 80.6903 70.9424 77.9247C76.9759 79.7261 90.8495 86.3633 95.1565 99.689C91.9143 111.02 88.0358 119.307 88.0358 119.307Z" fill="white"/>
<defs>
<filter id="filter0_ddwhuw2" x="7.42773" y="0.490234" width="159.7" height="117.916" filterUnits="userSpaceOnUse" color-interpolation-filters="sRGB">
<feFlood flood-opacity="0" result="BackgroundImageFix"/>
<feColorMatrix in="SourceAlpha" type="matrix" values="0 0 0 0 0 0 0 0 0 0 0 0 0 0 0 0 0 0 127 0" result="hardAlpha"/>
<feOffset dy="11"/>
<feGaussianBlur stdDeviation="11"/>
<feColorMatrix type="matrix" values="0 0 0 0 0.397708 0 0 0 0 0.47749 0 0 0 0 0.575 0 0 0 0.27 0"/>
<feBlend mode="normal" in2="BackgroundImageFix" result="effect1_dropShadow"/>
<feBlend mode="normal" in="SourceGraphic" in2="effect1_dropShadow" result="shape"/>
</filter>
<linearGradient id="paint0_linear_duhwqd" x1="87.2777" y1="42.035" x2="87.24" y2="86.2026" gradientUnits="userSpaceOnUse">
<stop stop-color="white"/>
<stop offset="0.9964" stop-color="#ECF0F5"/>
</linearGradient>
<linearGradient id="paint1_linear_duhqxx" x1="101.104" y1="39.3216" x2="119.631" y2="59.5853" gradientUnits="userSpaceOnUse">
<stop stop-color="#BCCBE1"/>
<stop offset="0.9942" stop-color="white" stop-opacity="0"/>
</linearGradient>
<linearGradient id="paint2_linear_xwyu2q" x1="49.4443" y1="31.4762" x2="78.6456" y2="42.9035" gradientUnits="userSpaceOnUse">
<stop stop-color="#E2E8F0"/>
<stop offset="0.9942" stop-color="white" stop-opacity="0"/>
</linearGradient>
</defs>
</svg>
