<svg width="137" height="117" viewBox="0 0 137 117" fill="none" xmlns="http://www.w3.org/2000/svg">
<g clip-path="url(#clip0_1658:32970)">
<path d="M114.59 59.4779C114.59 69.1266 111.363 78.0068 106.012 85.1793C103.04 89.0217 99.4731 92.4372 95.3967 95.0842C88.7725 99.4389 80.8744 102 72.3818 102C49.0273 102 30.1738 82.9593 30.1738 59.5633C30.1738 36.0819 49.1122 17.126 72.3818 17.126C80.8744 17.126 88.7725 19.6876 95.3967 23.9569C99.4731 26.6039 103.04 30.0194 106.012 33.8618C111.448 40.9489 114.59 49.8292 114.59 59.4779Z" fill="#EAEEF9"/>
<path d="M33.7799 32.7971C34.895 32.4327 35.5052 31.2284 35.1428 30.1072C34.7803 28.986 33.5825 28.3725 32.4674 28.7369C31.3522 29.1014 30.7421 30.3057 31.1045 31.4269C31.467 32.5481 32.6648 33.1615 33.7799 32.7971Z" fill="#EAEEF9"/>
<path d="M38.4138 25.8324C39.1721 25.5846 39.587 24.7657 39.3405 24.0033C39.094 23.2409 38.2795 22.8237 37.5212 23.0715C36.763 23.3193 36.348 24.1382 36.5945 24.9006C36.841 25.663 37.6555 26.0802 38.4138 25.8324Z" fill="#EAEEF9"/>
<path d="M114.135 31.4222C115.451 30.2133 115.542 28.161 114.34 26.8381C113.138 25.5153 111.096 25.4229 109.781 26.6318C108.465 27.8406 108.373 29.893 109.575 31.2158C110.778 32.5387 112.819 32.6311 114.135 31.4222Z" fill="#EAEEF9"/>
<path d="M114.436 16.9382C114.99 16.4292 115.029 15.565 114.522 15.0081C114.016 14.4511 113.157 14.4122 112.603 14.9212C112.049 15.4302 112.01 16.2943 112.516 16.8513C113.023 17.4083 113.882 17.4472 114.436 16.9382Z" fill="#EAEEF9"/>
<path d="M30.9375 97.1328H118.411" stroke="#EBF0F6" stroke-width="2" stroke-miterlimit="10" stroke-linecap="round" stroke-linejoin="round"/>
<path d="M99.1335 21.3096C100.407 21.3096 101.512 22.3342 101.512 23.7004V94.4861C101.512 95.7669 100.492 96.8769 99.1335 96.8769H46.9892C45.7153 96.8769 44.6113 95.8522 44.6113 94.4861V23.7004C44.6113 22.4196 45.6304 21.3096 46.9892 21.3096H99.1335Z" fill="#CED7E2"/>
<path d="M101.511 28.7383V94.4008C101.511 95.6816 100.492 96.7916 99.1328 96.7916H51.4895L47.3281 92.6077L94.6317 27.5429L98.7081 26.0059L101.511 28.7383Z" fill="#BCC4CF"/>
<path d="M99.3038 27.2012H47.7539V92.9491C47.7539 93.4614 48.1785 93.803 48.6031 93.803H99.3038V27.2012Z" fill="#A6AFBA"/>
<path d="M98.878 26.7744C98.878 26.3475 98.5383 26.0059 98.1137 26.0059H48.0924C47.6678 26.0059 47.3281 26.3475 47.3281 26.7744V91.7538C47.3281 92.1807 47.6678 92.5223 48.0924 92.5223H98.0287C98.4534 92.5223 98.7931 92.1807 98.7931 91.7538V26.7744H98.878Z" fill="#DFE7F0"/>
<g filter="url(#filter0_d_1658:32970)">
<path d="M98.8791 26.7744C98.8791 26.3475 98.5394 26.0059 98.1148 26.0059H48.0935C47.6689 26.0059 47.2443 26.3475 47.3292 26.7744C47.9237 52.6466 48.1784 81.9343 45.291 89.5337L93.1891 88.8506C96.1615 75.7011 98.3695 52.0489 98.8791 26.7744Z" fill="#EDF4FA"/>
</g>
<g filter="url(#filter1_d_1658:32970)">
<path d="M98.7949 26.0908C98.7949 26.0908 98.7099 30.0186 97.521 54.8661C97.521 55.0369 97.521 55.2077 97.521 55.3785C96.0772 79.7991 74.4212 84.9223 71.7885 85.1785C70.5995 85.2638 68.3065 85.4346 64.1452 85.52C59.0496 85.6908 51.2365 85.7762 39.0921 85.9469C38.6675 85.9469 38.4127 85.52 38.5825 85.1785C47.0751 68.1865 47.16 26.1762 47.16 26.1762H98.7949V26.0908Z" fill="white"/>
</g>
<path d="M86.9047 69.9795H62.1913C62.0215 69.9795 61.8516 69.7234 61.8516 69.2964C61.8516 68.9549 62.0215 68.6133 62.1913 68.6133H86.9896C87.1595 68.6133 87.3293 68.8695 87.3293 69.2964C87.3293 69.638 87.1595 69.9795 86.9047 69.9795Z" fill="#CED7E2"/>
<path d="M74.2506 73.8222H62.0213C61.8515 73.8222 61.6816 73.5661 61.6816 73.1391C61.6816 72.7976 61.8515 72.4561 62.0213 72.4561H74.2506C74.4205 72.4561 74.5903 72.7122 74.5903 73.1391C74.5903 73.4807 74.4205 73.8222 74.2506 73.8222Z" fill="#E3EAF2"/>
<path d="M90.8958 38.7284H66.0975C65.9276 38.7284 65.7578 38.4723 65.7578 38.0454C65.7578 37.7038 65.9276 37.3623 66.0975 37.3623H90.8958C91.0656 37.3623 91.2355 37.6184 91.2355 38.0454C91.2355 38.4723 91.0656 38.7284 90.8958 38.7284Z" fill="#CED7E2"/>
<path d="M90.7263 42.5713H80.8749C80.7051 42.5713 80.5352 42.3151 80.5352 41.8882C80.5352 41.5466 80.7051 41.2051 80.8749 41.2051H90.7263C90.8961 41.2051 91.066 41.4612 91.066 41.8882C91.066 42.3151 90.8961 42.5713 90.7263 42.5713Z" fill="#CED7E2"/>
<path d="M78.1569 42.5713H65.9276C65.7577 42.5713 65.5879 42.3151 65.5879 41.8882C65.5879 41.5466 65.7577 41.2051 65.9276 41.2051H78.1569C78.3267 41.2051 78.4966 41.4612 78.4966 41.8882C78.4966 42.3151 78.3267 42.5713 78.1569 42.5713Z" fill="#E3EAF2"/>
<path d="M97.4344 55.293C95.9907 79.7137 74.3347 84.8369 71.702 85.093C70.513 85.1784 68.22 85.3492 64.0586 85.4346C74.8442 80.3968 80.6192 71.4311 80.5342 64.4294C85.7996 64.8564 94.8017 64.4294 97.4344 55.293Z" fill="#EAEEF9"/>
<path d="M55.9057 42.8271C55.7359 42.8271 55.566 42.7417 55.3962 42.5709L52.9333 40.1801C52.6785 39.9239 52.6785 39.4116 52.9333 39.1554C53.1881 38.8993 53.6977 38.8993 53.9524 39.1554L55.9057 41.1193L59.8972 37.1061C60.152 36.85 60.6616 36.85 60.9163 37.1061C61.1711 37.3623 61.1711 37.8746 60.9163 38.1308L56.4153 42.6563C56.2454 42.7417 56.0756 42.8271 55.9057 42.8271Z" fill="url(#paint0_linear_1658:32970)"/>
<path d="M89.7923 54.0127H64.994C64.8242 54.0127 64.6543 53.7565 64.6543 53.3296C64.6543 52.988 64.8242 52.6465 64.994 52.6465H89.7923C89.9622 52.6465 90.132 52.9026 90.132 53.3296C90.132 53.6711 89.9622 54.0127 89.7923 54.0127Z" fill="#CED7E2"/>
<path d="M77.0534 57.8555H64.8241C64.6543 57.8555 64.4844 57.5993 64.4844 57.1724C64.4844 56.8308 64.6543 56.4893 64.8241 56.4893H77.0534C77.2233 56.4893 77.3931 56.7454 77.3931 57.1724C77.4781 57.5139 77.3082 57.8555 77.0534 57.8555Z" fill="#E3EAF2"/>
<path d="M54.8031 58.1113C54.6333 58.1113 54.4634 58.0259 54.2936 57.8551L51.9157 55.4643C51.6609 55.2081 51.6609 54.6958 51.9157 54.4396C52.1704 54.1835 52.68 54.1835 52.9348 54.4396L54.8881 56.4035L58.8796 52.3903C59.1343 52.1342 59.6439 52.1342 59.8987 52.3903C60.1535 52.6465 60.1535 53.1588 59.8987 53.415L55.3127 57.8551C55.2278 58.0259 55.0579 58.1113 54.8031 58.1113Z" fill="url(#paint1_linear_1658:32970)"/>
<path d="M55.0382 73.0985C56.1639 73.0985 57.0764 72.181 57.0764 71.0493C57.0764 69.9175 56.1639 69 55.0382 69C53.9125 69 53 69.9175 53 71.0493C53 72.181 53.9125 73.0985 55.0382 73.0985Z" fill="url(#paint2_linear_1658:32970)"/>
<path d="M85.206 21.4797C85.206 21.3943 85.206 21.3943 85.206 21.4797L84.6965 20.9674C84.6965 20.9674 84.4417 21.0527 84.2718 21.2235H76.5436C76.5436 21.0527 76.5436 20.882 76.5436 20.7112C76.5436 19.0888 75.1848 17.7227 73.5712 17.7227C71.9576 17.7227 70.5988 19.0888 70.5988 20.7112C70.5988 20.882 70.5988 21.0527 70.6837 21.1381H62.5309C62.1062 21.1381 61.6816 21.4797 61.6816 21.992V24.639C61.6816 26.6029 63.0404 27.7983 64.9937 27.7983H81.6392C83.5924 27.7983 85.3759 26.6029 85.3759 24.639V21.992C85.4608 21.8212 85.3759 21.6505 85.206 21.4797Z" fill="#1C3754"/>
<path d="M84.952 21.4803V24.1273C84.952 24.298 84.952 24.4688 84.952 24.6396C84.6973 26.3473 83.2535 27.7135 81.4701 27.7135H64.7397C62.9563 27.7135 61.5125 26.3473 61.2578 24.6396C61.2578 24.4688 61.2578 24.298 61.2578 24.1273V21.4803C61.2578 21.0533 61.5975 20.6264 62.107 20.6264H70.2599C70.2599 20.4556 70.2599 20.3702 70.2599 20.1995C70.2599 18.5771 71.6187 17.2109 73.2323 17.2109C74.8459 17.2109 76.2047 18.5771 76.2047 20.1995C76.2047 20.3702 76.2047 20.4556 76.2047 20.6264H84.3575C84.6123 20.7118 84.952 21.0533 84.952 21.4803Z" fill="#2D5887"/>
<path d="M73.0619 21.5654C73.8123 21.5654 74.4207 20.9537 74.4207 20.1992C74.4207 19.4447 73.8123 18.833 73.0619 18.833C72.3114 18.833 71.7031 19.4447 71.7031 20.1992C71.7031 20.9537 72.3114 21.5654 73.0619 21.5654Z" fill="#EAEEF9"/>
<path d="M84.8671 24.6396C84.6123 26.3474 83.1686 27.7136 81.3851 27.7136H64.7397C62.9563 27.7136 61.5125 26.3474 61.2578 24.6396H84.8671Z" fill="#316094"/>
<path opacity="0.5" d="M78.4123 23.4437H67.5418C67.2871 23.4437 67.1172 23.2729 67.1172 23.0168C67.1172 22.7606 67.2871 22.5898 67.5418 22.5898H78.4123C78.6671 22.5898 78.8369 22.7606 78.8369 23.0168C78.8369 23.2729 78.6671 23.4437 78.4123 23.4437Z" fill="#1C3754"/>
<path d="M22.2762 50.2559C22.2762 50.2559 13.8686 52.3906 16.4163 54.0983C18.9641 55.7207 24.9938 58.5384 30.6838 56.6599C36.3739 54.7814 30.6838 52.1344 30.7688 52.1344C30.8537 52.1344 22.2762 50.2559 22.2762 50.2559Z" fill="#CED7E2"/>
<path d="M12 49.5724C15.0573 50.5117 24.4841 48.9747 30.5138 45.0469C35.2696 50.9386 37.0531 52.4756 38.7516 52.6463C36.1189 55.2933 27.3716 59.5627 22.4459 54.0125C16.6709 57.6842 12 49.5724 12 49.5724Z" fill="#DFE7F0"/>
<path d="M105.334 79.1164C108.561 79.2872 117.309 75.3594 122.065 70.0654C128.179 74.5909 130.217 75.6155 132.001 75.3594C130.048 78.6041 124.103 85.6912 115.695 86.2035C109.58 82.6173 105.334 79.1164 105.334 79.1164Z" fill="#DFE7F0"/>
<path d="M99.8984 49.1452C99.9922 49.1452 100.068 49.0687 100.068 48.9744C100.068 48.8801 99.9922 48.8037 99.8984 48.8037C99.8046 48.8037 99.7285 48.8801 99.7285 48.9744C99.7285 49.0687 99.8046 49.1452 99.8984 49.1452Z" fill="#1C3754"/>
<g filter="url(#filter2_d_1658:32970)">
<path d="M49.959 83.565C49.959 84.5416 49.8287 85.5181 49.6338 86.4296C49.504 87.0155 49.3091 87.5363 49.1142 88.0572C47.8789 91.3124 45.2792 93.9164 42.0293 95.1534C41.7693 95.2186 41.5743 95.3489 41.3143 95.4141C40.0794 95.8045 38.8444 96 37.4795 96C30.5898 96 25 90.4009 25 83.4999C25 76.5989 30.5898 71 37.4795 71C44.3692 71.0651 49.959 76.664 49.959 83.565Z" fill="url(#paint3_linear_1658:32970)"/>
</g>
<path d="M49.6343 86.7546C49.504 87.2754 49.3091 87.7962 49.1141 88.317C47.8795 91.442 45.4095 93.9158 42.2896 95.1528L35.2699 88.1217L34.2949 87.1452L41.1846 80.9603L43.4597 79.6582L49.5691 85.778L49.6343 86.7546Z" fill="url(#paint4_linear_1658:32970)"/>
<path d="M36.1804 88.4472C35.7903 88.4472 35.4004 88.317 35.1404 87.9915L32.2805 85.1269C31.6956 84.541 31.6956 83.6296 32.2805 83.0436C32.8655 82.4576 33.7754 82.4576 34.3604 83.0436L36.1804 84.8665L41.3801 79.6582C41.9651 79.0723 42.8753 79.0723 43.4601 79.6582C44.0448 80.2441 44.0448 81.1556 43.4601 81.7415L37.2203 87.9915C36.9603 88.317 36.5703 88.4472 36.1804 88.4472Z" fill="url(#paint5_linear_1658:32970)"/>
<g filter="url(#filter3_d_1658:32970)">
<path d="M105.133 25.5463C105.133 28.5991 103.829 31.3744 101.781 33.2247C99.9193 34.9824 97.4057 36 94.6128 36C92.3785 36 90.3305 35.3524 88.5617 34.1498C85.7688 32.2996 84 29.0617 84 25.5463C84 19.7181 88.7478 15 94.5197 15C100.292 15 105.133 19.7181 105.133 25.5463Z" fill="#D7DCEB"/>
</g>
<path d="M102.154 32.7617C101.967 32.9467 101.874 33.0392 101.688 33.2242C99.8263 34.9819 97.3127 35.9995 94.5198 35.9995C92.2855 35.9995 90.2375 35.352 88.4687 34.1493C88.0032 33.7793 87.5377 33.4092 87.0723 33.0392C87.2584 32.7617 87.7239 32.5766 88.5618 32.2066L88.9341 32.1141C89.5858 31.8365 90.4237 31.559 91.5408 31.0964C91.727 31.0039 91.8201 30.9114 92.0063 30.8189C92.0994 30.7264 92.0994 30.6339 92.1924 30.5414C92.2855 30.4489 92.2855 30.2639 92.2855 30.0789V27.9511L92.1924 27.8586C92.0063 27.581 91.9132 27.3035 91.8201 26.9335L91.6339 26.8409C91.0753 26.9335 91.1684 26.3784 90.9822 25.2683C90.8891 24.8057 90.9822 24.7132 91.1684 24.6207L91.3546 24.3432C90.9822 23.4181 90.796 22.678 90.796 22.0304C90.796 21.0127 91.2615 20.2727 91.9132 19.9952C91.5408 19.2551 91.5408 18.9775 91.5408 18.9775C91.5408 18.9775 93.7751 19.3476 94.5198 19.1626C95.4508 18.9775 96.9403 19.1626 97.4989 20.4577C98.4299 20.8278 98.8022 21.3828 98.8953 22.0304C98.9884 23.048 98.4299 24.1582 98.3368 24.5282C98.3368 24.5282 98.3368 24.5282 98.3368 24.6207C98.523 24.7132 98.523 24.8057 98.523 25.1758C98.4299 26.1934 98.4299 26.9335 97.8713 26.7484L97.4058 27.581C97.4058 27.6735 97.4058 27.7661 97.4058 27.7661C97.4058 27.9511 97.4058 28.2286 97.4058 29.9864C97.4058 30.1714 97.4989 30.3564 97.592 30.5414C97.592 30.6339 97.6851 30.6339 97.6851 30.7264C97.7782 30.8189 97.9643 30.9114 98.0574 31.0039C99.3608 31.559 100.199 31.8365 100.943 32.1141C101.502 32.3916 101.967 32.5766 102.154 32.7617Z" fill="white"/>
<path d="M102.154 32.762C101.967 32.9471 101.874 33.0396 101.688 33.2246C99.8263 34.9823 97.3127 35.9999 94.5198 35.9999C92.2855 35.9999 90.2375 35.3524 88.4687 34.1497C88.0032 33.7797 87.5377 33.4096 87.0723 33.0396C87.2584 32.762 87.7239 32.577 88.5618 32.207L88.9341 32.1144C89.5858 31.8369 90.4237 31.5594 91.5408 31.0969C91.727 31.0044 91.8201 30.9118 92.0063 30.8193C92.658 31.6519 93.682 32.2995 94.7991 32.2995C95.9163 32.2995 96.9403 31.7445 97.592 30.9118C97.6851 31.0044 97.8713 31.0969 97.9643 31.1894C99.2677 31.7444 100.106 32.0219 100.85 32.2995C101.502 32.392 101.967 32.577 102.154 32.762Z" fill="#A0B0C4"/>
<path d="M98.3375 24.5289C98.3375 24.2514 98.2444 23.9738 98.1513 23.6963C98.1513 23.6963 98.1513 23.6038 98.0582 23.6038C97.6858 22.6787 96.7549 22.3087 95.8239 22.3087C93.4966 22.2162 93.3103 22.5862 92.5656 21.9386C92.7518 22.3087 92.8448 22.7712 92.4725 23.4188C92.1932 23.8813 91.7277 24.0664 91.3554 24.2514C90.3313 21.8461 90.7968 20.3659 91.9139 19.9034C91.5415 19.1633 91.5415 18.8857 91.5415 18.8857C91.5415 18.8857 93.7758 19.2558 94.5206 19.0708C95.4515 18.8857 96.9411 19.0708 97.4996 20.3659C98.4306 20.736 98.8029 21.2911 98.896 21.9386C98.9891 22.9562 98.4306 24.0664 98.3375 24.5289Z" fill="#1C3754"/>
<path d="M92.2845 29.9866V27.8589L92.1914 27.7663V27.6738C92.2845 27.8589 92.4707 28.0439 92.6569 28.2289L94.3326 29.4315C94.705 29.8015 95.2636 29.8015 95.729 29.4315L97.3116 28.0439C97.4047 28.0439 97.4047 27.9514 97.4978 27.8589C97.4978 28.0439 97.4978 28.3214 97.4978 30.0791C97.4978 30.1716 97.4978 30.2641 97.4978 30.3566H92.2845C92.1914 30.1716 92.2845 30.0791 92.2845 29.9866Z" fill="url(#paint6_linear_1658:32970)"/>
<path d="M105.133 25.5463C105.133 28.5991 103.829 31.3744 101.781 33.2247C99.9193 34.9824 97.4057 36 94.6128 36C92.3785 36 90.3305 35.3524 88.5617 34.1498C85.7688 32.2996 84 29.0617 84 25.5463C84 19.7181 88.7478 15 94.5197 15C100.292 15 105.133 19.7181 105.133 25.5463Z" stroke="white" stroke-width="1.3062" stroke-miterlimit="10" stroke-linecap="round" stroke-linejoin="round"/>
<g filter="url(#filter4_d_1658:32970)">
<path d="M115.308 71.9406C115.308 76.3279 113.399 80.2409 110.416 82.9681C109.581 83.6796 108.746 84.3911 107.672 84.984C105.404 86.2883 102.899 86.9997 100.154 86.9997C97.4097 86.9997 94.7846 86.2883 92.6367 84.984C92.2788 84.7468 91.9208 84.6282 91.5628 84.3911C87.6251 81.6638 85 77.1579 85 72.0592C85 63.7589 91.8014 57 100.154 57C108.507 57 115.308 63.6403 115.308 71.9406Z" fill="#D7DCEB"/>
</g>
<path d="M110.298 82.4941C109.702 81.3084 108.747 80.1226 107.434 79.4111C106.838 79.0554 106.122 78.9368 105.287 78.8183H104.69C103.377 78.8183 103.258 78.5811 103.258 78.5811V76.4467C103.974 75.8538 104.571 75.261 105.048 74.5495C105.525 73.8381 105.883 73.1266 106.122 72.2966C106.957 72.0594 107.554 71.348 107.434 70.518C107.434 70.1622 107.196 69.8065 107.196 69.4508C107.196 69.2136 107.196 69.0951 107.196 68.8579C107.196 68.7393 107.196 68.6207 107.196 68.5022C107.196 68.3835 107.196 68.265 107.196 68.1464C107.076 67.5535 106.957 66.8421 106.48 66.1307C105.406 64.1149 103.258 62.8105 100.872 62.8105C100.394 62.8105 99.917 62.9291 99.4397 62.9291C98.6044 63.1662 97.7691 63.522 97.0532 63.9962C96.9339 64.1149 96.8145 64.2334 96.6952 64.352C96.6952 64.352 96.5759 64.352 96.5759 64.4706C95.8599 65.182 95.2633 66.0121 94.9054 67.0792C94.5474 68.0279 94.5474 69.0951 94.6667 70.0436C94.6667 70.0436 94.6667 70.0436 94.6667 70.1622C94.6667 70.1622 94.6667 70.1622 94.6667 70.2808C94.6667 70.518 94.786 70.3994 94.6667 70.6365C94.6667 70.7551 94.5474 70.7551 94.5474 70.8736C94.428 71.1108 94.3087 71.5852 94.428 72.0594C94.786 73.0081 95.3826 72.8895 95.9792 73.3637C95.9792 73.3637 95.9792 73.3637 95.8599 73.4824L95.144 73.7195C92.1609 74.6681 92.3996 76.6839 93.5928 78.2254C94.0701 78.8183 94.6667 78.8182 95.8599 79.0554C95.5019 79.0554 94.1894 80.2412 94.0701 80.3597C92.7575 81.4269 91.9222 82.9685 91.6836 84.3913C91.6836 84.5099 91.6836 84.5099 91.6836 84.6285C92.0415 84.8657 92.3995 85.1028 92.7575 85.2214H107.912C108.866 84.6285 109.821 84.0356 110.656 83.2056C110.418 82.8498 110.298 82.6127 110.298 82.4941ZM98.843 78.2254C98.6044 77.9883 98.485 77.9883 98.3657 77.8696C98.1271 77.7511 98.0078 77.6325 97.7692 77.5139C97.6498 77.5139 97.6498 77.3954 97.5305 77.3954C96.9339 77.0396 96.3372 76.6839 96.3372 76.2096C96.3372 75.9724 96.5759 75.6167 96.9339 75.3796C97.0532 75.6167 97.2918 75.8538 97.5305 76.091C97.7691 76.2096 97.8884 76.4467 98.1271 76.5653C98.2464 76.6839 98.3657 76.8025 98.485 76.8025H98.6044C98.6044 76.8025 98.7237 76.8025 98.7237 76.9211V78.2254H98.843Z" fill="white"/>
<path d="M110.416 82.9679C107.671 85.458 104.092 86.9995 100.154 86.9995C96.9322 86.9995 93.949 86.0509 91.5625 84.3908C91.5625 84.2722 91.5625 84.2722 91.5625 84.1537C91.8012 82.6122 92.6365 81.0707 93.949 80.0035C94.1877 79.8849 95.93 78.756 96.1687 78.756C95.0947 78.5188 94.0684 78.462 93.5911 77.8691L95.8582 78.3435C96.8128 79.7664 98.4833 80.5964 100.393 80.5964C101.944 80.5964 103.376 80.0035 104.33 78.9363C104.45 78.9363 104.569 78.9363 104.688 78.9363C104.808 78.9363 105.046 78.9363 105.285 78.9363C106.12 78.9363 106.836 79.1735 107.433 79.4106C108.745 80.0035 109.7 81.1892 110.297 82.4936C110.297 82.6122 110.416 82.8493 110.416 82.9679Z" fill="url(#paint7_linear_1658:32970)"/>
<path d="M107.074 68.5021C105.881 68.8578 104.687 69.095 103.494 68.9764C101.585 68.8578 99.6758 68.0278 98.2439 66.7234C97.7666 68.1463 96.5734 69.2135 95.1414 69.8064C94.9028 69.925 94.7835 69.925 94.5448 70.0435C94.5448 70.0435 94.5448 70.0435 94.5448 69.925C94.4255 68.8578 94.5448 67.9092 94.7834 66.842C95.1414 65.8934 95.7381 64.9448 96.4541 64.2333C96.4541 64.2333 96.5734 64.2333 96.5734 64.1148C96.6927 63.9962 96.8121 63.8777 96.9314 63.759C97.6473 63.2848 98.4826 62.929 99.3179 62.6919C99.7951 62.5732 100.272 62.5732 100.75 62.5732C103.136 62.5732 105.284 63.8777 106.358 65.8934C106.716 66.7234 106.955 67.3163 107.074 67.9092C107.074 68.2649 107.074 68.3835 107.074 68.5021Z" fill="#1C3754"/>
<path d="M99.6779 82.1381C99.2006 82.731 98.246 82.8496 97.4108 82.731C98.246 81.901 97.7687 79.1737 94.7856 79.5295C90.6093 78.6995 91.0865 74.5493 95.1436 73.2449L95.8595 73.0078L95.9788 73.1264C96.3368 73.9564 96.6948 74.6678 97.1721 75.2607C95.5016 76.6837 97.7687 77.0394 98.9619 78.1066C99.7972 78.6995 100.633 81.0709 99.6779 82.1381Z" fill="#1C3754"/>
<path d="M115.308 71.9406C115.308 76.3279 113.399 80.2409 110.416 82.9681C107.672 85.4582 104.092 86.9997 100.154 86.9997C96.9324 86.9997 93.9493 86.0511 91.5628 84.3911C87.6251 81.6638 85 77.1579 85 72.0592C85 63.7589 91.8014 57 100.154 57C108.507 57 115.308 63.6403 115.308 71.9406Z" stroke="white" stroke-width="1.492" stroke-miterlimit="10" stroke-linecap="round" stroke-linejoin="round"/>
<g filter="url(#filter5_d_1658:32970)">
<path d="M54.7722 24.8522C54.7722 30.0199 52.566 34.7179 49.0991 37.8498C45.9473 40.8252 41.6925 42.5478 36.9649 42.5478C33.1828 42.5478 29.7159 41.4516 26.7217 39.4158C21.9941 36.2838 19 30.8029 19 24.8522C19 14.9865 27.0369 7 36.8073 7C46.5777 7 54.7722 14.9865 54.7722 24.8522Z" fill="#D7DCEB"/>
</g>
<path d="M49.7303 37.0665C49.4152 37.3797 49.2576 37.5363 48.9424 37.8495C45.7906 40.8249 41.5358 42.5475 36.8082 42.5475C33.0261 42.5475 29.5592 41.4513 26.565 39.4155C25.7771 38.7891 24.9892 38.1627 24.2012 37.5363C24.5164 37.0665 25.3043 36.7533 26.7226 36.1269L27.353 35.9703C28.4561 35.5005 29.8744 35.0307 31.7654 34.2478C32.0806 34.0912 32.2382 33.9346 32.5533 33.778C32.7109 33.6214 32.7109 33.4648 32.8685 33.3082C33.0261 33.1516 33.0261 32.8384 33.0261 32.5252V28.9234L32.8685 28.7668C32.5533 28.297 32.3958 27.8272 32.2382 27.2008L31.923 27.0442C30.9775 27.2008 31.1351 26.2613 30.8199 24.3821C30.6623 23.5991 30.8199 23.4425 31.1351 23.2859L31.4502 22.8161C30.8199 21.2501 30.5047 19.9973 30.5047 18.9011C30.5047 17.1786 31.2926 15.9258 32.3958 15.456C31.7654 14.2032 31.7654 13.7334 31.7654 13.7334C31.7654 13.7334 35.5475 14.3598 36.8082 14.0466C38.3841 13.7334 40.9055 14.0466 41.851 16.239C43.4268 16.8654 44.0572 17.805 44.2148 18.9011C44.3724 20.6237 43.4268 22.5029 43.2693 23.1293C43.2693 23.1293 43.2693 23.1293 43.2693 23.2859C43.5844 23.2859 43.5844 23.4425 43.5844 24.2255C43.4268 25.9481 43.4268 27.2008 42.4813 26.8876L41.6934 28.297C41.6934 28.4536 41.6934 28.6102 41.6934 28.6102C41.6934 28.9234 41.6934 29.3932 41.6934 32.3686C41.6934 32.6818 41.851 32.995 42.0086 33.3082C42.0086 33.4648 42.1661 33.4648 42.1661 33.6214C42.3237 33.778 42.6389 33.9346 42.7965 34.0912C45.0027 35.0307 46.421 35.5005 47.6817 35.9703C48.6272 36.4401 49.2576 36.7533 49.7303 37.0665Z" fill="white"/>
<path d="M49.7303 37.0668C49.4151 37.38 49.2576 37.5366 48.9424 37.8498C45.7906 40.8252 41.5358 42.5478 36.8082 42.5478C33.0261 42.5478 29.5592 41.4516 26.565 39.4158C25.7771 38.7894 24.9892 38.163 24.2012 37.5366C24.5164 37.0668 25.3043 36.7536 26.7226 36.1272L27.353 35.9706C28.4561 35.5008 29.8744 35.031 31.7654 34.2481C32.0806 34.0915 32.2382 33.9349 32.5533 33.7783C33.6564 35.1876 35.3899 36.2838 37.2809 36.2838C39.172 36.2838 40.9054 35.3442 42.0086 33.9349C42.1661 34.0915 42.4813 34.2481 42.6389 34.4047C44.8451 35.3442 46.2634 35.814 47.5241 36.2838C48.6272 36.4404 49.2576 36.7536 49.7303 37.0668Z" fill="url(#paint8_linear_1658:32970)"/>
<path d="M43.2692 23.1293C43.2692 22.6595 43.1116 22.1897 42.954 21.7199C42.954 21.7199 42.954 21.5633 42.7964 21.5633C42.0085 20.1539 40.4326 19.5275 39.0143 19.5275C35.0747 19.3709 34.7595 19.9973 33.4988 18.9011C33.814 19.5275 33.9716 20.3105 33.3412 21.4067C32.8684 22.1897 32.0805 22.5029 31.4502 22.8161C29.7167 18.7445 30.5046 16.239 32.3957 15.456C31.7653 14.2032 31.7653 13.7334 31.7653 13.7334C31.7653 13.7334 35.5474 14.3598 36.8081 14.0466C38.384 13.7334 40.9054 14.0466 41.8509 16.239C43.4268 16.8654 44.0571 17.805 44.2147 18.9011C44.3723 20.4671 43.4268 22.3463 43.2692 23.1293Z" fill="#1C3754"/>
<path d="M32.8685 32.3691V28.7673L32.7109 28.6107V28.4541C32.8685 28.7673 33.1836 29.0805 33.4988 29.3937L36.3354 31.4295C36.9657 32.0559 37.9112 32.0559 38.6992 31.4295L41.3782 29.0805C41.5357 29.0805 41.5357 28.9239 41.6933 28.7673C41.6933 29.0805 41.6933 29.5503 41.6933 32.5257C41.6933 32.6823 41.6933 32.8389 41.6933 32.9955H32.8685C32.8685 32.6823 32.8685 32.5257 32.8685 32.3691Z" fill="url(#paint9_linear_1658:32970)"/>
<path d="M54.7722 24.8522C54.7722 30.0199 52.566 34.7179 49.0991 37.8498C45.9473 40.8252 41.6925 42.5478 36.9649 42.5478C33.1828 42.5478 29.7159 41.4516 26.7217 39.4158C21.9941 36.2838 19 30.8029 19 24.8522C19 14.9865 27.0369 7 36.8073 7C46.5777 7 54.7722 14.9865 54.7722 24.8522Z" stroke="white" stroke-width="1.3062" stroke-miterlimit="10" stroke-linecap="round" stroke-linejoin="round"/>
<path d="M8.87972 64.3316C9.87486 64.3316 10.7594 63.5556 10.7594 62.447C10.7594 61.4493 9.98543 60.5625 8.87972 60.5625C7.774 60.6733 7 61.4493 7 62.5579C7 63.5556 7.774 64.3316 8.87972 64.3316Z" fill="url(#paint10_linear_1658:32970)"/>
<path d="M20.0477 105.238C21.0429 105.238 21.9275 104.462 21.9275 103.353C21.9275 102.355 21.1535 101.469 20.0477 101.469C19.0526 101.469 18.168 102.245 18.168 103.353C18.2786 104.462 19.0526 105.238 20.0477 105.238Z" fill="url(#paint11_linear_1658:32970)"/>
<path d="M121.5 52C122.824 52 124 50.9706 124 49.5C124 48.1765 122.971 47 121.5 47C120.176 47 119 48.0294 119 49.5C119.147 50.9706 120.176 52 121.5 52Z" fill="url(#paint12_linear_1658:32970)"/>
<path d="M106.589 12.5455C107.584 12.5455 108.358 11.7695 108.358 10.7718C108.358 9.77404 107.584 8.99805 106.589 8.99805C105.594 8.99805 104.82 9.77404 104.82 10.7718C104.82 11.7695 105.594 12.5455 106.589 12.5455Z" fill="url(#paint13_linear_1658:32970)"/>
</g>
<defs>
<filter id="filter0_d_1658:32970" x="42.291" y="26.0059" width="59.5879" height="69.5273" filterUnits="userSpaceOnUse" color-interpolation-filters="sRGB">
<feFlood flood-opacity="0" result="BackgroundImageFix"/>
<feColorMatrix in="SourceAlpha" type="matrix" values="0 0 0 0 0 0 0 0 0 0 0 0 0 0 0 0 0 0 127 0" result="hardAlpha"/>
<feOffset dy="3"/>
<feGaussianBlur stdDeviation="1.5"/>
<feColorMatrix type="matrix" values="0 0 0 0 0.397708 0 0 0 0 0.47749 0 0 0 0 0.575 0 0 0 0.18 0"/>
<feBlend mode="normal" in2="BackgroundImageFix" result="effect1_dropShadow_1658:32970"/>
<feBlend mode="normal" in="SourceGraphic" in2="effect1_dropShadow_1658:32970" result="shape"/>
</filter>
<filter id="filter1_d_1658:32970" x="34.5293" y="26.0908" width="68.2656" height="68.8564" filterUnits="userSpaceOnUse" color-interpolation-filters="sRGB">
<feFlood flood-opacity="0" result="BackgroundImageFix"/>
<feColorMatrix in="SourceAlpha" type="matrix" values="0 0 0 0 0 0 0 0 0 0 0 0 0 0 0 0 0 0 127 0" result="hardAlpha"/>
<feOffset dy="5"/>
<feGaussianBlur stdDeviation="2"/>
<feColorMatrix type="matrix" values="0 0 0 0 0.397708 0 0 0 0 0.47749 0 0 0 0 0.575 0 0 0 0.18 0"/>
<feBlend mode="normal" in2="BackgroundImageFix" result="effect1_dropShadow_1658:32970"/>
<feBlend mode="normal" in="SourceGraphic" in2="effect1_dropShadow_1658:32970" result="shape"/>
</filter>
<filter id="filter2_d_1658:32970" x="17" y="68" width="40.959" height="41" filterUnits="userSpaceOnUse" color-interpolation-filters="sRGB">
<feFlood flood-opacity="0" result="BackgroundImageFix"/>
<feColorMatrix in="SourceAlpha" type="matrix" values="0 0 0 0 0 0 0 0 0 0 0 0 0 0 0 0 0 0 127 0" result="hardAlpha"/>
<feOffset dy="5"/>
<feGaussianBlur stdDeviation="4"/>
<feColorMatrix type="matrix" values="0 0 0 0 0.1125 0 0 0 0 0.295916 0 0 0 0 1 0 0 0 0.22 0"/>
<feBlend mode="normal" in2="BackgroundImageFix" result="effect1_dropShadow_1658:32970"/>
<feBlend mode="normal" in="SourceGraphic" in2="effect1_dropShadow_1658:32970" result="shape"/>
</filter>
<filter id="filter3_d_1658:32970" x="62" y="4" width="65.1328" height="65" filterUnits="userSpaceOnUse" color-interpolation-filters="sRGB">
<feFlood flood-opacity="0" result="BackgroundImageFix"/>
<feColorMatrix in="SourceAlpha" type="matrix" values="0 0 0 0 0 0 0 0 0 0 0 0 0 0 0 0 0 0 127 0" result="hardAlpha"/>
<feOffset dy="11"/>
<feGaussianBlur stdDeviation="11"/>
<feColorMatrix type="matrix" values="0 0 0 0 0.397708 0 0 0 0 0.47749 0 0 0 0 0.575 0 0 0 0.18 0"/>
<feBlend mode="normal" in2="BackgroundImageFix" result="effect1_dropShadow_1658:32970"/>
<feBlend mode="normal" in="SourceGraphic" in2="effect1_dropShadow_1658:32970" result="shape"/>
</filter>
<filter id="filter4_d_1658:32970" x="63" y="46" width="74.3086" height="74" filterUnits="userSpaceOnUse" color-interpolation-filters="sRGB">
<feFlood flood-opacity="0" result="BackgroundImageFix"/>
<feColorMatrix in="SourceAlpha" type="matrix" values="0 0 0 0 0 0 0 0 0 0 0 0 0 0 0 0 0 0 127 0" result="hardAlpha"/>
<feOffset dy="11"/>
<feGaussianBlur stdDeviation="11"/>
<feColorMatrix type="matrix" values="0 0 0 0 0.397708 0 0 0 0 0.47749 0 0 0 0 0.575 0 0 0 0.18 0"/>
<feBlend mode="normal" in2="BackgroundImageFix" result="effect1_dropShadow_1658:32970"/>
<feBlend mode="normal" in="SourceGraphic" in2="effect1_dropShadow_1658:32970" result="shape"/>
</filter>
<filter id="filter5_d_1658:32970" x="-3" y="-4" width="79.7715" height="79.5479" filterUnits="userSpaceOnUse" color-interpolation-filters="sRGB">
<feFlood flood-opacity="0" result="BackgroundImageFix"/>
<feColorMatrix in="SourceAlpha" type="matrix" values="0 0 0 0 0 0 0 0 0 0 0 0 0 0 0 0 0 0 127 0" result="hardAlpha"/>
<feOffset dy="11"/>
<feGaussianBlur stdDeviation="11"/>
<feColorMatrix type="matrix" values="0 0 0 0 0.397708 0 0 0 0 0.47749 0 0 0 0 0.575 0 0 0 0.18 0"/>
<feBlend mode="normal" in2="BackgroundImageFix" result="effect1_dropShadow_1658:32970"/>
<feBlend mode="normal" in="SourceGraphic" in2="effect1_dropShadow_1658:32970" result="shape"/>
</filter>
<linearGradient id="paint0_linear_1658:32970" x1="52.7326" y1="39.8469" x2="61.1373" y2="39.8469" gradientUnits="userSpaceOnUse">
<stop stop-color="#83A6FF"/>
<stop offset="1" stop-color="#5A78FF"/>
</linearGradient>
<linearGradient id="paint1_linear_1658:32970" x1="51.6628" y1="55.0866" x2="60.0674" y2="55.0866" gradientUnits="userSpaceOnUse">
<stop stop-color="#83A6FF"/>
<stop offset="1" stop-color="#5A78FF"/>
</linearGradient>
<linearGradient id="paint2_linear_1658:32970" x1="53.0076" y1="71.0197" x2="57.1119" y2="71.0197" gradientUnits="userSpaceOnUse">
<stop stop-color="#FF66A9"/>
<stop offset="1" stop-color="#F53689"/>
</linearGradient>
<linearGradient id="paint3_linear_1658:32970" x1="30.7746" y1="73.3091" x2="44.5424" y2="94.2422" gradientUnits="userSpaceOnUse">
<stop stop-color="#83A6FF"/>
<stop offset="1" stop-color="#5A78FF"/>
</linearGradient>
<linearGradient id="paint4_linear_1658:32970" x1="38.679" y1="83.184" x2="43.9282" y2="88.4245" gradientUnits="userSpaceOnUse">
<stop stop-color="#4F6AFF"/>
<stop offset="1" stop-color="#657EFF" stop-opacity="0"/>
</linearGradient>
<linearGradient id="paint5_linear_1658:32970" x1="41.0585" y1="85.5687" x2="35.8954" y2="80.4139" gradientUnits="userSpaceOnUse">
<stop offset="0.0113208" stop-color="#C2D1FF"/>
<stop offset="1" stop-color="white"/>
</linearGradient>
<linearGradient id="paint6_linear_1658:32970" x1="94.7627" y1="30.318" x2="94.7627" y2="28.837" gradientUnits="userSpaceOnUse">
<stop stop-color="white"/>
<stop offset="0.9913" stop-color="#E6EDF7"/>
</linearGradient>
<linearGradient id="paint7_linear_1658:32970" x1="91.5814" y1="82.6629" x2="110.449" y2="82.6629" gradientUnits="userSpaceOnUse">
<stop stop-color="#FF66A9"/>
<stop offset="1" stop-color="#F53689"/>
</linearGradient>
<linearGradient id="paint8_linear_1658:32970" x1="24.2676" y1="38.093" x2="49.7715" y2="38.093" gradientUnits="userSpaceOnUse">
<stop stop-color="#83A6FF"/>
<stop offset="1" stop-color="#5A78FF"/>
</linearGradient>
<linearGradient id="paint9_linear_1658:32970" x1="37.1971" y1="32.9471" x2="37.1971" y2="30.4401" gradientUnits="userSpaceOnUse">
<stop stop-color="white"/>
<stop offset="0.9913" stop-color="#E6EDF7"/>
</linearGradient>
<linearGradient id="paint10_linear_1658:32970" x1="7" y1="62.5203" x2="10.5743" y2="62.5203" gradientUnits="userSpaceOnUse">
<stop stop-color="#83A6FF"/>
<stop offset="1" stop-color="#5A78FF"/>
</linearGradient>
<linearGradient id="paint11_linear_1658:32970" x1="18.2448" y1="103.404" x2="21.8191" y2="103.404" gradientUnits="userSpaceOnUse">
<stop stop-color="#FF66A9"/>
<stop offset="1" stop-color="#F53689"/>
</linearGradient>
<linearGradient id="paint12_linear_1658:32970" x1="119.102" y1="49.5679" x2="123.856" y2="49.5679" gradientUnits="userSpaceOnUse">
<stop stop-color="#FF66A9"/>
<stop offset="1" stop-color="#F53689"/>
</linearGradient>
<linearGradient id="paint13_linear_1658:32970" x1="104.863" y1="10.777" x2="108.22" y2="10.777" gradientUnits="userSpaceOnUse">
<stop stop-color="#83A6FF"/>
<stop offset="1" stop-color="#5A78FF"/>
</linearGradient>
<clipPath id="clip0_1658:32970">
<rect width="137" height="117" fill="white"/>
</clipPath>
</defs>
</svg>
