<svg width="24" height="24" viewBox="0 0 24 24" fill="none" xmlns="http://www.w3.org/2000/svg">
<path d="M1.43789 12.997L1.08789 12.601L1.34289 12.139C3.84989 7.577 7.35389 5.25 11.7829 5.25C16.2069 5.25 19.7899 7.57 22.4729 12.119L22.7569 12.601L22.3759 13.011C18.8339 16.817 15.3039 18.75 11.7839 18.75C8.25689 18.75 4.80789 16.81 1.43789 12.997ZM11.7839 17.25C14.7089 17.25 17.7439 15.651 20.8879 12.4C18.5049 8.607 15.4879 6.75 11.7839 6.75C8.08089 6.75 5.14589 8.606 2.91889 12.4C5.90689 15.652 8.85989 17.25 11.7839 17.25Z" fill="#7B6EE3"/>
<path d="M11.9997 8C13.0497 8 14.0057 8.405 14.7197 9.066C14.4823 9.02133 14.2412 8.99923 13.9997 9C12.8947 9 11.9997 9.448 11.9997 10C11.9997 10.552 12.8947 11 13.9997 11C14.7277 11 15.3657 10.805 15.7157 10.514C16.0337 11.3087 16.0884 12.1845 15.8717 13.0126C15.655 13.8407 15.1784 14.5774 14.5119 15.1145C13.8454 15.6516 13.0241 15.9608 12.1689 15.9965C11.3137 16.0322 10.4695 15.7927 9.76057 15.313C9.0516 14.8334 8.51519 14.139 8.23019 13.3318C7.94518 12.5247 7.92662 11.6474 8.17722 10.8289C8.42782 10.0105 8.93437 9.29397 9.62241 8.78476C10.3105 8.27555 11.1437 8.00049 11.9997 8Z" fill="#7B6EE3"/>
</svg>
