<svg width="24" height="24" viewBox="0 0 24 24" fill="none" xmlns="http://www.w3.org/2000/svg">
<path d="M1.0025 23.9925C0.7425 23.9925 0.4925 23.8925 0.2925 23.7025C-0.0975 23.3125 -0.0975 22.6825 0.2925 22.2925L22.2925 0.2925C22.6825 -0.0975 23.3125 -0.0975 23.7025 0.2925C24.0925 0.6825 24.0925 1.3125 23.7025 1.7025L1.7025 23.7025C1.5125 23.8925 1.2625 23.9925 1.0025 23.9925Z" fill="#CCCDCE"/>
<path d="M4.49238 15.9423L7.85238 12.5823C7.82238 12.3923 7.79238 12.1923 7.79238 11.9923C7.79238 9.66234 9.68238 7.78234 12.0024 7.78234C12.2024 7.78234 12.4024 7.81234 12.5924 7.84234L14.8724 5.56234C13.9824 5.31234 13.0224 5.15234 12.0024 5.15234C6.24238 5.15234 2.51238 9.79234 1.37238 11.4323C1.13238 11.7723 1.13238 12.2223 1.37238 12.5623C1.89238 13.3023 2.95238 14.6723 4.49238 15.9423Z" fill="#CCCDCE"/>
<path d="M17.4025 6.59277L14.9825 9.01277C15.8925 9.92277 16.3825 11.2328 16.1625 12.6528C15.8925 14.4228 14.4425 15.8728 12.6625 16.1528C11.2425 16.3728 9.92254 15.8728 9.01254 14.9728L6.60254 17.3828C8.12254 18.2228 9.92254 18.8328 12.0025 18.8328C17.7625 18.8328 21.4925 14.1928 22.6325 12.5528C22.8725 12.2128 22.8725 11.7628 22.6325 11.4228C21.9025 10.3828 20.1025 8.10277 17.4025 6.59277Z" fill="#CCCDCE"/>
</svg>
