<svg width="148" height="136" viewBox="0 0 148 136" fill="none" xmlns="http://www.w3.org/2000/svg">
<path d="M87.1806 107.137C111.084 107.137 130.461 87.604 130.461 63.5089C130.461 39.4138 111.084 19.8809 87.1806 19.8809C63.2776 19.8809 43.9004 39.4138 43.9004 63.5089C43.9004 87.604 63.2776 107.137 87.1806 107.137Z" fill="#EAEEF9"/>
<path d="M143.001 49.8157V52.8003H64.3652V49.8157C64.3652 48.5868 65.3231 47.6211 66.5422 47.6211H140.737C141.956 47.6211 143.001 48.5868 143.001 49.8157Z" fill="url(#paint0_linear)"/>
<path opacity="0.8" d="M66.9779 50.9572C67.3627 50.9572 67.6746 50.6428 67.6746 50.255C67.6746 49.8671 67.3627 49.5527 66.9779 49.5527C66.5932 49.5527 66.2812 49.8671 66.2812 50.255C66.2812 50.6428 66.5932 50.9572 66.9779 50.9572Z" fill="white"/>
<path opacity="0.5" d="M68.9799 50.9572C69.3646 50.9572 69.6765 50.6428 69.6765 50.255C69.6765 49.8671 69.3646 49.5527 68.9799 49.5527C68.5951 49.5527 68.2832 49.8671 68.2832 50.255C68.2832 50.6428 68.5951 50.9572 68.9799 50.9572Z" fill="white"/>
<path opacity="0.2" d="M70.9838 50.9572C71.3686 50.9572 71.6805 50.6428 71.6805 50.255C71.6805 49.8671 71.3686 49.5527 70.9838 49.5527C70.5991 49.5527 70.2871 49.8671 70.2871 50.255C70.2871 50.6428 70.5991 50.9572 70.9838 50.9572Z" fill="white"/>
<path d="M59.0282 23.9755C60.1717 23.6009 60.7973 22.3628 60.4257 21.2101C60.054 20.0575 58.8258 19.4268 57.6824 19.8014C56.5389 20.1761 55.9133 21.4142 56.2849 22.5668C56.6566 23.7194 57.8848 24.3501 59.0282 23.9755Z" fill="#EAEEF9"/>
<path d="M72.7245 16.9846C73.5421 16.9846 74.2049 16.3165 74.2049 15.4923C74.2049 14.6681 73.5421 14 72.7245 14C71.9069 14 71.2441 14.6681 71.2441 15.4923C71.2441 16.3165 71.9069 16.9846 72.7245 16.9846Z" fill="url(#paint1_linear)"/>
<path d="M108.603 111C109.421 111 110.084 110.332 110.084 109.508C110.084 108.684 109.421 108.016 108.603 108.016C107.786 108.016 107.123 108.684 107.123 109.508C107.123 110.332 107.786 111 108.603 111Z" fill="url(#paint2_linear)"/>
<path d="M135.198 41.8217C136.547 40.5789 136.641 38.4689 135.408 37.1089C134.175 35.749 132.082 35.654 130.733 36.8968C129.384 38.1396 129.29 40.2496 130.523 41.6096C131.755 42.9695 133.849 43.0645 135.198 41.8217Z" fill="#EAEEF9"/>
<path d="M135.442 26.9921C136.01 26.4688 136.05 25.5804 135.531 25.0078C135.012 24.4352 134.13 24.3952 133.562 24.9185C132.994 25.4418 132.955 26.3302 133.474 26.9028C133.993 27.4754 134.874 27.5154 135.442 26.9921Z" fill="#EAEEF9"/>
<g filter="url(#filter0_d)">
<path d="M123.786 59C124.788 59 125.576 59.7938 125.576 60.8041V100.857C125.576 101.868 124.788 102.661 123.786 102.661H62.7898C61.7875 102.661 61 101.868 61 100.857V60.8041C61 59.7938 61.7875 59 62.7898 59H123.786Z" fill="white"/>
<path d="M114 92H96V95H114V92Z" fill="url(#paint3_linear)"/>
<path opacity="0.3" d="M96 92H74V95H96V92Z" fill="url(#paint4_linear)"/>
<path d="M114 82H90V85H114V82Z" fill="url(#paint5_linear)"/>
<path opacity="0.3" d="M90.5 82H74V85H90.5V82Z" fill="url(#paint6_linear)"/>
<path d="M114 71H90V74H114V71Z" fill="url(#paint7_linear)"/>
<path opacity="0.3" d="M90.5 71H74V74H90.5V71Z" fill="url(#paint8_linear)"/>
</g>
<path d="M125.576 60.8041V63.2579H61V60.8041C61 59.7938 61.7875 59 62.7898 59H123.786C124.788 59 125.576 59.7938 125.576 60.8041Z" fill="url(#paint9_linear)"/>
<path opacity="0.8" d="M63.1469 61.8148C63.4633 61.8148 63.7197 61.5563 63.7197 61.2375C63.7197 60.9186 63.4633 60.6602 63.1469 60.6602C62.8306 60.6602 62.5742 60.9186 62.5742 61.2375C62.5742 61.5563 62.8306 61.8148 63.1469 61.8148Z" fill="white"/>
<path opacity="0.5" d="M64.7935 61.8148C65.1097 61.8148 65.3662 61.5563 65.3662 61.2375C65.3662 60.9186 65.1097 60.6602 64.7935 60.6602C64.4771 60.6602 64.2207 60.9186 64.2207 61.2375C64.2207 61.5563 64.4771 61.8148 64.7935 61.8148Z" fill="white"/>
<path opacity="0.2" d="M66.4419 61.8148C66.7582 61.8148 67.0147 61.5563 67.0147 61.2375C67.0147 60.9186 66.7582 60.6602 66.4419 60.6602C66.1256 60.6602 65.8691 60.9186 65.8691 61.2375C65.8691 61.5563 66.1256 61.8148 66.4419 61.8148Z" fill="white"/>
<g filter="url(#filter1_d)">
<path d="M98.81 31C100.036 31 101 31.9818 101 33.2313V82.7686C101 84.0182 100.036 85 98.81 85H24.1896C22.9634 85 22 84.0182 22 82.7686V33.2313C22 31.9818 22.9634 31 24.1896 31H98.81Z" fill="white"/>
</g>
<path d="M100.549 33.1945V36.1792H22V33.1945C22 31.9656 22.9579 31 24.1771 31H98.3715C99.5907 31 100.549 31.9656 100.549 33.1945Z" fill="url(#paint10_linear)"/>
<path opacity="0.8" d="M24.6126 34.424C24.9974 34.424 25.3093 34.1096 25.3093 33.7218C25.3093 33.3339 24.9974 33.0195 24.6126 33.0195C24.2279 33.0195 23.916 33.3339 23.916 33.7218C23.916 34.1096 24.2279 34.424 24.6126 34.424Z" fill="white"/>
<path opacity="0.5" d="M26.6147 34.424C26.9994 34.424 27.3113 34.1096 27.3113 33.7218C27.3113 33.3339 26.9994 33.0195 26.6147 33.0195C26.2299 33.0195 25.918 33.3339 25.918 33.7218C25.918 34.1096 26.2299 34.424 26.6147 34.424Z" fill="white"/>
<path opacity="0.2" d="M28.6186 34.424C29.0033 34.424 29.3153 34.1096 29.3153 33.7218C29.3153 33.3339 29.0033 33.0195 28.6186 33.0195C28.2338 33.0195 27.9219 33.3339 27.9219 33.7218C27.9219 34.1096 28.2338 34.424 28.6186 34.424Z" fill="white"/>
<g filter="url(#filter2_d)">
<path d="M135.089 42.7185C132.917 53.3325 122.384 60.2645 111.744 57.9895C101.103 55.8235 94.1534 45.3185 96.4336 34.7039C98.7138 24.0898 109.137 17.158 119.778 19.4325C123.579 20.1906 127.053 22.0319 129.768 24.8479C134.437 29.5051 136.392 36.2201 135.089 42.7185Z" fill="url(#paint11_linear)"/>
</g>
<path d="M133.118 38.2678C133.118 39.0258 133.118 39.7838 133.009 40.5418C132.901 41.0838 132.901 41.7328 132.684 42.2748C131.381 49.3148 125.734 54.5138 119.111 55.5968C117.808 55.8128 116.505 55.9218 115.202 55.8128L108.5 46.5L114.442 39.6758L115.202 30.5L123.5 31.5L133.118 38.2678Z" fill="url(#paint12_linear)"/>
<path d="M124.229 39.1531H115.848V30.7718C115.848 30.6687 115.763 30.5843 115.66 30.5843H115.051C113.821 30.5831 112.603 30.8246 111.467 31.2952C110.331 31.7658 109.298 32.4561 108.43 33.3265C107.574 34.1792 106.893 35.1902 106.423 36.3031C105.936 37.4585 105.688 38.6843 105.688 39.9499C105.688 41.2156 105.936 42.439 106.423 43.5945C106.895 44.7077 107.57 45.7109 108.43 46.571C109.29 47.4312 110.291 48.1062 111.406 48.5773C112.56 49.0666 113.8 49.3177 115.053 49.3156C116.283 49.3168 117.501 49.0752 118.637 48.6047C119.773 48.1341 120.805 47.4438 121.674 46.5734C122.534 45.7132 123.209 44.7124 123.68 43.5968C124.17 42.4434 124.421 41.2029 124.419 39.9499V39.3406C124.416 39.2374 124.332 39.1531 124.229 39.1531ZM126.289 37.8523L126.228 37.1913C126.029 35.0351 125.073 33.0007 123.53 31.4656C121.99 29.9261 119.959 28.9735 117.791 28.7726L117.127 28.7116C117.017 28.7023 116.923 28.7866 116.923 28.8968V37.8898C116.923 37.9929 117.008 38.0773 117.111 38.0773L126.102 38.0538C126.212 38.0515 126.298 37.9601 126.289 37.8523Z" fill="url(#paint13_linear)"/>
<circle cx="45" cy="60" r="12" stroke="#D4DCE6" stroke-width="6" stroke-linejoin="round"/>
<path d="M33 60C33 61.6355 33.3272 63.1946 33.9197 64.6154C35.7281 68.9519 40.0081 72 45 72C51.6274 72 57 66.6274 57 60C57 53.3726 51.6274 48 45 48" stroke="url(#paint14_linear)" stroke-width="6" stroke-linecap="round" stroke-linejoin="round"/>
<path d="M45 72C51.6274 72 57 66.6274 57 60C57 53.3726 51.6274 48 45 48" stroke="#E664FF" stroke-width="6" stroke-linecap="round" stroke-linejoin="round"/>
<circle cx="80.3848" cy="60" r="12" stroke="#D4DCE6" stroke-width="6" stroke-linejoin="round"/>
<path d="M80.3848 72C87.0122 72 92.3848 66.6274 92.3848 60C92.3848 53.3726 87.0122 48 80.3848 48" stroke="url(#paint15_linear)" stroke-width="6" stroke-linecap="round" stroke-linejoin="round"/>
<path d="M80.3848 72C87.0122 72 92.3848 66.6274 92.3848 60C92.3848 53.3726 87.0122 48 80.3848 48" stroke="#B3BFCD" stroke-width="6" stroke-linecap="round" stroke-linejoin="round"/>
<defs>
<filter id="filter0_d" x="39" y="48" width="108.576" height="87.6613" filterUnits="userSpaceOnUse" color-interpolation-filters="sRGB">
<feFlood flood-opacity="0" result="BackgroundImageFix"/>
<feColorMatrix in="SourceAlpha" type="matrix" values="0 0 0 0 0 0 0 0 0 0 0 0 0 0 0 0 0 0 127 0" result="hardAlpha"/>
<feOffset dy="11"/>
<feGaussianBlur stdDeviation="11"/>
<feColorMatrix type="matrix" values="0 0 0 0 0.397708 0 0 0 0 0.47749 0 0 0 0 0.575 0 0 0 0.18 0"/>
<feBlend mode="normal" in2="BackgroundImageFix" result="effect1_dropShadow"/>
<feBlend mode="normal" in="SourceGraphic" in2="effect1_dropShadow" result="shape"/>
</filter>
<filter id="filter1_d" x="0" y="20" width="123" height="98" filterUnits="userSpaceOnUse" color-interpolation-filters="sRGB">
<feFlood flood-opacity="0" result="BackgroundImageFix"/>
<feColorMatrix in="SourceAlpha" type="matrix" values="0 0 0 0 0 0 0 0 0 0 0 0 0 0 0 0 0 0 127 0" result="hardAlpha"/>
<feOffset dy="11"/>
<feGaussianBlur stdDeviation="11"/>
<feColorMatrix type="matrix" values="0 0 0 0 0.397708 0 0 0 0 0.47749 0 0 0 0 0.575 0 0 0 0.18 0"/>
<feBlend mode="normal" in2="BackgroundImageFix" result="effect1_dropShadow"/>
<feBlend mode="normal" in="SourceGraphic" in2="effect1_dropShadow" result="shape"/>
</filter>
<filter id="filter2_d" x="88" y="16" width="55.4841" height="55.4221" filterUnits="userSpaceOnUse" color-interpolation-filters="sRGB">
<feFlood flood-opacity="0" result="BackgroundImageFix"/>
<feColorMatrix in="SourceAlpha" type="matrix" values="0 0 0 0 0 0 0 0 0 0 0 0 0 0 0 0 0 0 127 0" result="hardAlpha"/>
<feOffset dy="5"/>
<feGaussianBlur stdDeviation="4"/>
<feColorMatrix type="matrix" values="0 0 0 0 0.1125 0 0 0 0 0.295916 0 0 0 0 1 0 0 0 0.22 0"/>
<feBlend mode="normal" in2="BackgroundImageFix" result="effect1_dropShadow"/>
<feBlend mode="normal" in="SourceGraphic" in2="effect1_dropShadow" result="shape"/>
</filter>
<linearGradient id="paint0_linear" x1="86.4068" y1="50.208" x2="146.357" y2="50.208" gradientUnits="userSpaceOnUse">
<stop stop-color="#CED7E2"/>
<stop offset="1" stop-color="white"/>
</linearGradient>
<linearGradient id="paint1_linear" x1="71.2854" y1="15.4508" x2="74.1638" y2="15.4508" gradientUnits="userSpaceOnUse">
<stop stop-color="#83A6FF"/>
<stop offset="1" stop-color="#5A78FF"/>
</linearGradient>
<linearGradient id="paint2_linear" x1="107.186" y1="109.542" x2="110.065" y2="109.542" gradientUnits="userSpaceOnUse">
<stop stop-color="#FF66A9"/>
<stop offset="1" stop-color="#F53689"/>
</linearGradient>
<linearGradient id="paint3_linear" x1="96.0578" y1="93.5236" x2="114.115" y2="93.5236" gradientUnits="userSpaceOnUse">
<stop stop-color="#EA66FF"/>
<stop offset="1" stop-color="#8A36F5"/>
</linearGradient>
<linearGradient id="paint4_linear" x1="74.0707" y1="93.5236" x2="96.1412" y2="93.5236" gradientUnits="userSpaceOnUse">
<stop stop-color="#EA66FF"/>
<stop offset="1" stop-color="#8A36F5"/>
</linearGradient>
<linearGradient id="paint5_linear" x1="90.0771" y1="83.5236" x2="114.154" y2="83.5236" gradientUnits="userSpaceOnUse">
<stop stop-color="#EA66FF"/>
<stop offset="1" stop-color="#8A36F5"/>
</linearGradient>
<linearGradient id="paint6_linear" x1="74.053" y1="83.5236" x2="90.6059" y2="83.5236" gradientUnits="userSpaceOnUse">
<stop stop-color="#EA66FF"/>
<stop offset="1" stop-color="#8A36F5"/>
</linearGradient>
<linearGradient id="paint7_linear" x1="90.0771" y1="72.5236" x2="114.154" y2="72.5236" gradientUnits="userSpaceOnUse">
<stop stop-color="#EA66FF"/>
<stop offset="1" stop-color="#8A36F5"/>
</linearGradient>
<linearGradient id="paint8_linear" x1="74.053" y1="72.5236" x2="90.6059" y2="72.5236" gradientUnits="userSpaceOnUse">
<stop stop-color="#EA66FF"/>
<stop offset="1" stop-color="#8A36F5"/>
</linearGradient>
<linearGradient id="paint9_linear" x1="79.1137" y1="61.1532" x2="128.399" y2="61.1532" gradientUnits="userSpaceOnUse">
<stop stop-color="#CED7E2"/>
<stop offset="1" stop-color="white"/>
</linearGradient>
<linearGradient id="paint10_linear" x1="44.0331" y1="33.6191" x2="103.983" y2="33.6191" gradientUnits="userSpaceOnUse">
<stop stop-color="#CED7E2"/>
<stop offset="1" stop-color="white"/>
</linearGradient>
<linearGradient id="paint11_linear" x1="95.9169" y1="38.7135" x2="135.474" y2="38.7135" gradientUnits="userSpaceOnUse">
<stop stop-color="#FF8D8B"/>
<stop offset="1" stop-color="#D187E3"/>
</linearGradient>
<linearGradient id="paint12_linear" x1="115.795" y1="38.7088" x2="123.909" y2="46.8438" gradientUnits="userSpaceOnUse">
<stop stop-color="#BC4FFF"/>
<stop offset="1" stop-color="#C465FF" stop-opacity="0"/>
</linearGradient>
<linearGradient id="paint13_linear" x1="117.111" y1="40.9942" x2="110.27" y2="31.5028" gradientUnits="userSpaceOnUse">
<stop offset="0.0113208" stop-color="#DDC2FF"/>
<stop offset="1" stop-color="white"/>
</linearGradient>
<linearGradient id="paint14_linear" x1="45" y1="48" x2="45" y2="72" gradientUnits="userSpaceOnUse">
<stop stop-color="#AA80F9"/>
<stop offset="1" stop-color="#756CE0"/>
</linearGradient>
<linearGradient id="paint15_linear" x1="86.3848" y1="48" x2="86.3848" y2="72" gradientUnits="userSpaceOnUse">
<stop stop-color="#AA80F9"/>
<stop offset="1" stop-color="#756CE0"/>
</linearGradient>
</defs>
</svg>
