<svg width="141" height="126" viewBox="0 0 141 126" fill="none" xmlns="http://www.w3.org/2000/svg">
<path d="M70.1786 106.137C94.0816 106.137 113.459 86.604 113.459 62.5089C113.459 38.4138 94.0816 18.8809 70.1786 18.8809C46.2756 18.8809 26.8984 38.4138 26.8984 62.5089C26.8984 86.604 46.2756 106.137 70.1786 106.137Z" fill="#EAEEF9"/>
<path d="M125.999 48.8157V51.8003H47.3633V48.8157C47.3633 47.5868 48.3212 46.6211 49.5403 46.6211H123.735C124.954 46.6211 125.999 47.5868 125.999 48.8157Z" fill="url(#paint0_linear)"/>
<path opacity="0.8" d="M49.9779 49.9572C50.3627 49.9572 50.6746 49.6428 50.6746 49.255C50.6746 48.8671 50.3627 48.5527 49.9779 48.5527C49.5932 48.5527 49.2812 48.8671 49.2812 49.255C49.2812 49.6428 49.5932 49.9572 49.9779 49.9572Z" fill="white"/>
<path opacity="0.5" d="M51.9799 49.9572C52.3646 49.9572 52.6765 49.6428 52.6765 49.255C52.6765 48.8671 52.3646 48.5527 51.9799 48.5527C51.5951 48.5527 51.2832 48.8671 51.2832 49.255C51.2832 49.6428 51.5951 49.9572 51.9799 49.9572Z" fill="white"/>
<path opacity="0.2" d="M53.9819 49.9572C54.3667 49.9572 54.6786 49.6428 54.6786 49.255C54.6786 48.8671 54.3667 48.5527 53.9819 48.5527C53.5972 48.5527 53.2852 48.8671 53.2852 49.255C53.2852 49.6428 53.5972 49.9572 53.9819 49.9572Z" fill="white"/>
<path d="M42.0282 22.9755C43.1717 22.6009 43.7973 21.3628 43.4257 20.2101C43.054 19.0575 41.8258 18.4268 40.6824 18.8014C39.5389 19.1761 38.9133 20.4142 39.2849 21.5668C39.6566 22.7194 40.8848 23.3501 42.0282 22.9755Z" fill="#EAEEF9"/>
<path d="M55.7245 15.9846C56.5421 15.9846 57.2049 15.3165 57.2049 14.4923C57.2049 13.6681 56.5421 13 55.7245 13C54.9069 13 54.2441 13.6681 54.2441 14.4923C54.2441 15.3165 54.9069 15.9846 55.7245 15.9846Z" fill="url(#paint1_linear)"/>
<path d="M91.6011 110C92.4191 110 93.0821 109.332 93.0821 108.508C93.0821 107.684 92.4191 107.016 91.6011 107.016C90.7841 107.016 90.1211 107.684 90.1211 108.508C90.1211 109.332 90.7841 110 91.6011 110Z" fill="url(#paint2_linear)"/>
<path d="M118.198 40.8217C119.547 39.5789 119.641 37.4689 118.408 36.1089C117.175 34.749 115.082 34.654 113.733 35.8968C112.384 37.1396 112.29 39.2496 113.523 40.6096C114.755 41.9695 116.849 42.0645 118.198 40.8217Z" fill="#EAEEF9"/>
<path d="M118.442 25.9921C119.01 25.4688 119.05 24.5804 118.531 24.0078C118.012 23.4352 117.13 23.3952 116.562 23.9185C115.994 24.4418 115.955 25.3302 116.474 25.9028C116.993 26.4754 117.874 26.5154 118.442 25.9921Z" fill="#EAEEF9"/>
<g filter="url(#filter0_d)">
<path d="M116.311 23C117.817 23 119 24.2727 119 25.8925V90.1074C119 91.7273 117.817 93 116.311 93H24.6885C23.1829 93 22 91.7273 22 90.1074V25.8925C22 24.2727 23.1829 23 24.6885 23H116.311Z" fill="white"/>
<path d="M110 79H92V82H110V79Z" fill="url(#paint3_linear)"/>
<path opacity="0.3" d="M92 79H70V82H92V79Z" fill="url(#paint4_linear)"/>
</g>
<path d="M119 25.966V30H22V25.966C22 24.3051 23.1829 23 24.6885 23H116.311C117.817 23 119 24.3051 119 25.966Z" fill="url(#paint5_linear)"/>
<path opacity="0.8" d="M18.465 27.5427C18.9755 27.5427 19.3892 27.1257 19.3892 26.6113C19.3892 26.0967 18.9755 25.6797 18.465 25.6797C17.9547 25.6797 17.541 26.0967 17.541 26.6113C17.541 27.1257 17.9547 27.5427 18.465 27.5427Z" fill="white"/>
<path opacity="0.5" d="M21.1214 27.5427C21.6317 27.5427 22.0454 27.1257 22.0454 26.6113C22.0454 26.0967 21.6317 25.6797 21.1214 25.6797C20.611 25.6797 20.1973 26.0967 20.1973 26.6113C20.1973 27.1257 20.611 27.5427 21.1214 27.5427Z" fill="white"/>
<path opacity="0.2" d="M23.7796 27.5427C24.2899 27.5427 24.7038 27.1257 24.7038 26.6113C24.7038 26.0967 24.2899 25.6797 23.7796 25.6797C23.2692 25.6797 22.8555 26.0967 22.8555 26.6113C22.8555 27.1257 23.2692 27.5427 23.7796 27.5427Z" fill="white"/>
<path d="M85.2349 67.5959H48.6172C47.6931 67.5959 47 66.8972 47 65.9656V40.5814C47 39.6498 47.6931 38.9512 48.6172 38.9512H85.3504C86.2746 38.9512 86.9676 39.6498 86.9676 40.5814V66.0821C86.8521 66.8972 86.159 67.5959 85.2349 67.5959Z" fill="#E6ECF5"/>
<path d="M67.6766 61.4281H54.3926L60.9768 53.8594L67.6766 61.4281Z" fill="#CED7E2"/>
<path d="M78.5362 61.4267H59.4766L69.0641 50.5977L78.5362 61.4267Z" fill="white"/>
<path d="M59.3596 51.1781C60.7632 51.1781 61.901 50.0312 61.901 48.6164C61.901 47.2016 60.7632 46.0547 59.3596 46.0547C57.9562 46.0547 56.8184 47.2016 56.8184 48.6164C56.8184 50.0312 57.9562 51.1781 59.3596 51.1781Z" fill="#CED7E2"/>
<g filter="url(#filter1_d)">
<path d="M47.0888 40.7185C44.9168 51.3325 34.3845 58.2645 23.7436 55.9895C13.1026 53.8235 6.15337 43.3185 8.43357 32.7039C10.7138 22.0898 21.1375 15.158 31.7784 17.4325C35.5788 18.1906 39.0528 20.0319 41.7678 22.8479C46.4368 27.5051 48.3918 34.2201 47.0888 40.7185Z" fill="url(#paint6_linear)"/>
</g>
<path d="M45 39.3684C45 40.2558 45 41.1431 44.8702 42.0304C44.7415 42.6649 44.7415 43.4247 44.483 44.0591C42.9309 52.3003 37.934 54.4293 30.0446 55.697C28.4925 55.9499 26.9404 56.0775 25.3883 55.9499L18 40.9509L24.4829 37.0595L36.4638 35.6825V31L45 39.3684Z" fill="url(#paint7_linear)"/>
<path d="M36.4062 30.9379C36.5637 30.9379 36.7147 30.9972 36.8261 31.1026C36.9374 31.2081 37 31.3512 37 31.5004V40.5004C37 40.6496 36.9374 40.7927 36.8261 40.8981C36.7147 41.0036 36.5637 41.0629 36.4062 41.0629C36.2488 41.0629 36.0978 41.0036 35.9864 40.8981C35.8751 40.7927 35.8125 40.6496 35.8125 40.5004V36.8475L28.3704 40.938C27.7292 41.2901 26.9062 40.8638 26.9062 40.1539V36.8464L19.4642 40.9369C18.8229 41.2913 18 40.8649 18 40.155V31.8469C18 31.1381 18.8229 30.7106 19.4642 31.0639L26.9062 35.1544V31.8469C26.9062 31.1381 27.7292 30.7106 28.3704 31.0639L35.8125 35.1544V31.5004C35.8125 31.3512 35.8751 31.2081 35.9864 31.1026C36.0978 30.9972 36.2488 30.9379 36.4062 30.9379Z" fill="url(#paint8_linear)"/>
<defs>
<filter id="filter0_d" x="0" y="12" width="141" height="114" filterUnits="userSpaceOnUse" color-interpolation-filters="sRGB">
<feFlood flood-opacity="0" result="BackgroundImageFix"/>
<feColorMatrix in="SourceAlpha" type="matrix" values="0 0 0 0 0 0 0 0 0 0 0 0 0 0 0 0 0 0 127 0" result="hardAlpha"/>
<feOffset dy="11"/>
<feGaussianBlur stdDeviation="11"/>
<feColorMatrix type="matrix" values="0 0 0 0 0.397708 0 0 0 0 0.47749 0 0 0 0 0.575 0 0 0 0.18 0"/>
<feBlend mode="normal" in2="BackgroundImageFix" result="effect1_dropShadow"/>
<feBlend mode="normal" in="SourceGraphic" in2="effect1_dropShadow" result="shape"/>
</filter>
<filter id="filter1_d" x="0" y="14" width="55.4841" height="55.4221" filterUnits="userSpaceOnUse" color-interpolation-filters="sRGB">
<feFlood flood-opacity="0" result="BackgroundImageFix"/>
<feColorMatrix in="SourceAlpha" type="matrix" values="0 0 0 0 0 0 0 0 0 0 0 0 0 0 0 0 0 0 127 0" result="hardAlpha"/>
<feOffset dy="5"/>
<feGaussianBlur stdDeviation="4"/>
<feColorMatrix type="matrix" values="0 0 0 0 0.1125 0 0 0 0 0.295916 0 0 0 0 1 0 0 0 0.22 0"/>
<feBlend mode="normal" in2="BackgroundImageFix" result="effect1_dropShadow"/>
<feBlend mode="normal" in="SourceGraphic" in2="effect1_dropShadow" result="shape"/>
</filter>
<linearGradient id="paint0_linear" x1="69.4049" y1="49.208" x2="129.355" y2="49.208" gradientUnits="userSpaceOnUse">
<stop stop-color="#CED7E2"/>
<stop offset="1" stop-color="white"/>
</linearGradient>
<linearGradient id="paint1_linear" x1="54.2854" y1="14.4508" x2="57.1638" y2="14.4508" gradientUnits="userSpaceOnUse">
<stop stop-color="#83A6FF"/>
<stop offset="1" stop-color="#5A78FF"/>
</linearGradient>
<linearGradient id="paint2_linear" x1="90.1841" y1="108.542" x2="93.0631" y2="108.542" gradientUnits="userSpaceOnUse">
<stop stop-color="#FF66A9"/>
<stop offset="1" stop-color="#F53689"/>
</linearGradient>
<linearGradient id="paint3_linear" x1="92.0578" y1="80.5236" x2="110.115" y2="80.5236" gradientUnits="userSpaceOnUse">
<stop stop-color="#EA66FF"/>
<stop offset="1" stop-color="#8A36F5"/>
</linearGradient>
<linearGradient id="paint4_linear" x1="70.0707" y1="80.5236" x2="92.1412" y2="80.5236" gradientUnits="userSpaceOnUse">
<stop stop-color="#EA66FF"/>
<stop offset="1" stop-color="#8A36F5"/>
</linearGradient>
<linearGradient id="paint5_linear" x1="49.2086" y1="26.5399" x2="123.241" y2="26.5399" gradientUnits="userSpaceOnUse">
<stop stop-color="#CED7E2"/>
<stop offset="1" stop-color="white"/>
</linearGradient>
<linearGradient id="paint6_linear" x1="7.91687" y1="36.7135" x2="47.4738" y2="36.7135" gradientUnits="userSpaceOnUse">
<stop stop-color="#FF8D8B"/>
<stop offset="1" stop-color="#D187E3"/>
</linearGradient>
<linearGradient id="paint7_linear" x1="26.0948" y1="35.927" x2="35.5911" y2="45.6156" gradientUnits="userSpaceOnUse">
<stop stop-color="#BC4FFF"/>
<stop offset="1" stop-color="#C465FF" stop-opacity="0"/>
</linearGradient>
<linearGradient id="paint8_linear" x1="28.5355" y1="36.9744" x2="26.1627" y2="30.7974" gradientUnits="userSpaceOnUse">
<stop offset="0.0113208" stop-color="#DDC2FF"/>
<stop offset="1" stop-color="white"/>
</linearGradient>
</defs>
</svg>
