<svg width="157" height="128" viewBox="0 0 157 128" fill="none" xmlns="http://www.w3.org/2000/svg">
<path d="M79.1806 106.137C103.084 106.137 122.461 86.604 122.461 62.5089C122.461 38.4138 103.084 18.8809 79.1806 18.8809C55.2776 18.8809 35.9004 38.4138 35.9004 62.5089C35.9004 86.604 55.2776 106.137 79.1806 106.137Z" fill="#EAEEF9"/>
<path d="M135.001 48.8157V51.8003H56.3652V48.8157C56.3652 47.5868 57.3231 46.6211 58.5422 46.6211H132.737C133.956 46.6211 135.001 47.5868 135.001 48.8157Z" fill="url(#paint0_linear)"/>
<path opacity="0.8" d="M58.9779 49.9572C59.3627 49.9572 59.6746 49.6428 59.6746 49.255C59.6746 48.8671 59.3627 48.5527 58.9779 48.5527C58.5932 48.5527 58.2812 48.8671 58.2812 49.255C58.2812 49.6428 58.5932 49.9572 58.9779 49.9572Z" fill="white"/>
<path opacity="0.5" d="M60.9799 49.9572C61.3646 49.9572 61.6765 49.6428 61.6765 49.255C61.6765 48.8671 61.3646 48.5527 60.9799 48.5527C60.5951 48.5527 60.2832 48.8671 60.2832 49.255C60.2832 49.6428 60.5951 49.9572 60.9799 49.9572Z" fill="white"/>
<path opacity="0.2" d="M62.9838 49.9572C63.3686 49.9572 63.6805 49.6428 63.6805 49.255C63.6805 48.8671 63.3686 48.5527 62.9838 48.5527C62.5991 48.5527 62.2871 48.8671 62.2871 49.255C62.2871 49.6428 62.5991 49.9572 62.9838 49.9572Z" fill="white"/>
<path d="M51.0282 22.9755C52.1717 22.6009 52.7973 21.3628 52.4257 20.2101C52.054 19.0575 50.8258 18.4268 49.6824 18.8014C48.5389 19.1761 47.9133 20.4142 48.2849 21.5668C48.6566 22.7194 49.8848 23.3501 51.0282 22.9755Z" fill="#EAEEF9"/>
<path d="M64.7245 15.9846C65.5421 15.9846 66.2049 15.3165 66.2049 14.4923C66.2049 13.6681 65.5421 13 64.7245 13C63.9069 13 63.2441 13.6681 63.2441 14.4923C63.2441 15.3165 63.9069 15.9846 64.7245 15.9846Z" fill="url(#paint1_linear)"/>
<path d="M100.603 110C101.421 110 102.084 109.332 102.084 108.508C102.084 107.684 101.421 107.016 100.603 107.016C99.786 107.016 99.123 107.684 99.123 108.508C99.123 109.332 99.786 110 100.603 110Z" fill="url(#paint2_linear)"/>
<path d="M127.198 40.8217C128.547 39.5789 128.641 37.4689 127.408 36.1089C126.175 34.749 124.082 34.654 122.733 35.8968C121.384 37.1396 121.29 39.2496 122.523 40.6096C123.755 41.9695 125.849 42.0645 127.198 40.8217Z" fill="#EAEEF9"/>
<path d="M127.442 25.9921C128.01 25.4688 128.05 24.5804 127.531 24.0078C127.012 23.4352 126.13 23.3952 125.562 23.9185C124.994 24.4418 124.955 25.3302 125.474 25.9028C125.993 26.4754 126.874 26.5154 127.442 25.9921Z" fill="#EAEEF9"/>
<g filter="url(#filter0_d)">
<path d="M84.7861 18C85.7884 18 86.5762 18.7938 86.5762 19.8041V59.8571C86.5762 60.8675 85.7884 61.6613 84.7861 61.6613H23.7898C22.7875 61.6613 22 60.8675 22 59.8571V19.8041C22 18.7938 22.7875 18 23.7898 18H84.7861Z" fill="white"/>
</g>
<path d="M86.5762 19.8041V22.2579H22V19.8041C22 18.7938 22.7875 18 23.7898 18H84.7861C85.7884 18 86.5762 18.7938 86.5762 19.8041Z" fill="url(#paint3_linear)"/>
<path opacity="0.8" d="M24.1469 20.8148C24.4633 20.8148 24.7197 20.5563 24.7197 20.2375C24.7197 19.9186 24.4633 19.6602 24.1469 19.6602C23.8306 19.6602 23.5742 19.9186 23.5742 20.2375C23.5742 20.5563 23.8306 20.8148 24.1469 20.8148Z" fill="white"/>
<path opacity="0.5" d="M25.7935 20.8148C26.1097 20.8148 26.3662 20.5563 26.3662 20.2375C26.3662 19.9186 26.1097 19.6602 25.7935 19.6602C25.4771 19.6602 25.2207 19.9186 25.2207 20.2375C25.2207 20.5563 25.4771 20.8148 25.7935 20.8148Z" fill="white"/>
<path opacity="0.2" d="M27.4419 20.8148C27.7582 20.8148 28.0147 20.5563 28.0147 20.2375C28.0147 19.9186 27.7582 19.6602 27.4419 19.6602C27.1256 19.6602 26.8691 19.9186 26.8691 20.2375C26.8691 20.5563 27.1256 20.8148 27.4419 20.8148Z" fill="white"/>
<path d="M65.4274 45.6399H42.7328C42.16 45.6399 41.7305 45.2069 41.7305 44.6296V28.8971C41.7305 28.3197 42.16 27.8867 42.7328 27.8867H65.499C66.0718 27.8867 66.5013 28.3197 66.5013 28.8971V44.7017C66.4297 45.2069 66.0002 45.6399 65.4274 45.6399Z" fill="#E6ECF5"/>
<path d="M54.5475 41.8159H46.3145L50.3952 37.125L54.5475 41.8159Z" fill="#CED7E2"/>
<path d="M61.2755 41.8151H49.4629L55.405 35.1035L61.2755 41.8151Z" fill="white"/>
<path d="M49.3914 35.4644C50.2613 35.4644 50.9665 34.7536 50.9665 33.8767C50.9665 32.9999 50.2613 32.2891 49.3914 32.2891C48.5216 32.2891 47.8164 32.9999 47.8164 33.8767C47.8164 34.7536 48.5216 35.4644 49.3914 35.4644Z" fill="#CED7E2"/>
<path d="M76.2597 48.7871H54.8848V51.2535H76.2597V48.7871Z" fill="url(#paint4_linear)"/>
<path opacity="0.3" d="M54.8838 48.7871H28.5762V51.2535H54.8838V48.7871Z" fill="url(#paint5_linear)"/>
<g filter="url(#filter1_d)">
<path d="M132.371 41C133.591 41 134.549 41.9656 134.549 43.1945V91.914C134.549 93.143 133.591 94.1086 132.371 94.1086H58.1771C56.9579 94.1086 56 93.143 56 91.914V43.1945C56 41.9656 56.9579 41 58.1771 41H132.371Z" fill="white"/>
</g>
<path d="M134.549 43.1945V46.1792H56V43.1945C56 41.9656 56.9579 41 58.1771 41H132.371C133.591 41 134.549 41.9656 134.549 43.1945Z" fill="url(#paint6_linear)"/>
<path opacity="0.8" d="M58.6126 44.424C58.9974 44.424 59.3093 44.1096 59.3093 43.7218C59.3093 43.3339 58.9974 43.0195 58.6126 43.0195C58.2279 43.0195 57.916 43.3339 57.916 43.7218C57.916 44.1096 58.2279 44.424 58.6126 44.424Z" fill="white"/>
<path opacity="0.5" d="M60.6147 44.424C60.9994 44.424 61.3113 44.1096 61.3113 43.7218C61.3113 43.3339 60.9994 43.0195 60.6147 43.0195C60.2299 43.0195 59.918 43.3339 59.918 43.7218C59.918 44.1096 60.2299 44.424 60.6147 44.424Z" fill="white"/>
<path opacity="0.2" d="M62.6186 44.424C63.0033 44.424 63.3153 44.1096 63.3153 43.7218C63.3153 43.3339 63.0033 43.0195 62.6186 43.0195C62.2338 43.0195 61.9219 43.3339 61.9219 43.7218C61.9219 44.1096 62.2338 44.424 62.6186 44.424Z" fill="white"/>
<path d="M108.824 74.62H81.2192C80.5225 74.62 80 74.0933 80 73.391V54.2544C80 53.5521 80.5225 53.0254 81.2192 53.0254H108.912C109.608 53.0254 110.131 53.5521 110.131 54.2544V73.4788C110.044 74.0933 109.521 74.62 108.824 74.62Z" fill="#E6ECF5"/>
<path d="M95.5887 69.9696H85.5742L90.5379 64.2637L95.5887 69.9696Z" fill="#CED7E2"/>
<path d="M103.775 69.9685H89.4062L96.6341 61.8047L103.775 69.9685Z" fill="white"/>
<path d="M89.3181 62.2433C90.3762 62.2433 91.234 61.3787 91.234 60.3121C91.234 59.2455 90.3762 58.3809 89.3181 58.3809C88.2601 58.3809 87.4023 59.2455 87.4023 60.3121C87.4023 61.3787 88.2601 62.2433 89.3181 62.2433Z" fill="#CED7E2"/>
<path d="M122 78.4473H96V81.4473H122V78.4473Z" fill="url(#paint7_linear)"/>
<path opacity="0.3" d="M96 78.4473H64V81.4473H96V78.4473Z" fill="url(#paint8_linear)"/>
<g filter="url(#filter2_d)">
<path d="M72.0888 95.7185C69.9168 106.332 59.3845 113.264 48.7436 110.989C38.1026 108.823 31.1534 98.3185 33.4336 87.7039C35.7138 77.0898 46.1375 70.158 56.7784 72.4325C60.5788 73.1906 64.0528 75.0319 66.7678 77.8479C71.4368 82.5051 73.3918 89.2201 72.0888 95.7185Z" fill="url(#paint9_linear)"/>
</g>
<path d="M70.1182 91.2678C70.1182 92.0258 70.1182 92.7838 70.0092 93.5418C69.9012 94.0838 69.9012 94.7328 69.6842 95.2748C68.3812 102.315 62.7342 107.514 56.1112 108.597C54.8082 108.813 53.5053 108.922 52.2023 108.813L45.1445 101.773L51.4422 92.6758L58.1742 87.5849L62.9522 84.1191L70.1182 91.2678Z" fill="url(#paint10_linear)"/>
<path d="M62.5175 83.9018C59.4773 83.0354 56.3284 83.1437 53.3967 84.2268C53.1796 84.3351 52.9624 84.4434 52.8538 84.66C52.3109 85.2015 51.8766 85.7431 51.4423 86.3929C51.4423 86.068 51.4423 85.7431 51.4423 85.4181C51.4423 85.3098 51.3337 85.3098 51.3337 85.3098C51.3337 85.3098 51.3337 85.3098 51.2251 85.3098C50.1393 85.8514 49.2707 86.6095 48.402 87.476C48.1849 87.6926 48.0763 87.9092 48.0763 88.1258C47.8591 88.6674 47.7505 89.2089 47.642 89.6421C47.5334 89.4255 47.5334 89.2089 47.4248 88.9923C47.4248 88.884 47.3162 88.884 47.3162 88.884C47.3162 88.884 47.3162 88.884 47.2076 88.884C46.1218 90.6171 45.3618 92.5661 45.1446 94.6241C45.1446 95.0571 45.1446 95.5991 45.1446 96.0321L45.2532 96.7901C45.2532 96.8991 45.2532 96.8991 45.3618 96.8991C45.4703 96.8991 45.4703 96.8991 45.4703 96.7901C48.0763 91.9161 51.2251 87.6926 56.8713 85.6348C57.1971 85.5264 57.5228 85.6348 57.6314 85.9597C57.74 86.2846 57.6314 86.6095 57.3056 86.7178C50.6822 89.1006 47.642 94.8411 44.9274 100.798C44.8189 101.123 44.9274 101.448 45.2532 101.556C45.5789 101.664 45.9047 101.556 46.0132 101.231C46.4476 100.256 46.8819 99.2811 47.3162 98.4151C47.5334 97.9821 47.9677 97.5481 48.5106 97.4401C52.4195 96.6821 55.8941 94.6241 58.2829 91.3751C58.6086 90.9421 58.9344 90.5081 59.2601 89.967C59.3687 89.8587 59.2601 89.6421 59.1515 89.6421C59.1515 89.6421 59.1515 89.6421 59.0429 89.6421L56.9799 89.2089C59.1515 88.5591 59.6944 88.884 60.5631 87.476C61.2146 86.3929 61.9746 85.3098 62.6262 84.3351C63.0602 84.1185 63.0602 84.0101 62.5175 83.9018Z" fill="url(#paint11_linear)"/>
<defs>
<filter id="filter0_d" x="0" y="7" width="108.576" height="87.6613" filterUnits="userSpaceOnUse" color-interpolation-filters="sRGB">
<feFlood flood-opacity="0" result="BackgroundImageFix"/>
<feColorMatrix in="SourceAlpha" type="matrix" values="0 0 0 0 0 0 0 0 0 0 0 0 0 0 0 0 0 0 127 0" result="hardAlpha"/>
<feOffset dy="11"/>
<feGaussianBlur stdDeviation="11"/>
<feColorMatrix type="matrix" values="0 0 0 0 0.397708 0 0 0 0 0.47749 0 0 0 0 0.575 0 0 0 0.18 0"/>
<feBlend mode="normal" in2="BackgroundImageFix" result="effect1_dropShadow"/>
<feBlend mode="normal" in="SourceGraphic" in2="effect1_dropShadow" result="shape"/>
</filter>
<filter id="filter1_d" x="34" y="30" width="122.549" height="97.1086" filterUnits="userSpaceOnUse" color-interpolation-filters="sRGB">
<feFlood flood-opacity="0" result="BackgroundImageFix"/>
<feColorMatrix in="SourceAlpha" type="matrix" values="0 0 0 0 0 0 0 0 0 0 0 0 0 0 0 0 0 0 127 0" result="hardAlpha"/>
<feOffset dy="11"/>
<feGaussianBlur stdDeviation="11"/>
<feColorMatrix type="matrix" values="0 0 0 0 0.397708 0 0 0 0 0.47749 0 0 0 0 0.575 0 0 0 0.18 0"/>
<feBlend mode="normal" in2="BackgroundImageFix" result="effect1_dropShadow"/>
<feBlend mode="normal" in="SourceGraphic" in2="effect1_dropShadow" result="shape"/>
</filter>
<filter id="filter2_d" x="25" y="69" width="55.4841" height="55.4221" filterUnits="userSpaceOnUse" color-interpolation-filters="sRGB">
<feFlood flood-opacity="0" result="BackgroundImageFix"/>
<feColorMatrix in="SourceAlpha" type="matrix" values="0 0 0 0 0 0 0 0 0 0 0 0 0 0 0 0 0 0 127 0" result="hardAlpha"/>
<feOffset dy="5"/>
<feGaussianBlur stdDeviation="4"/>
<feColorMatrix type="matrix" values="0 0 0 0 0.1125 0 0 0 0 0.295916 0 0 0 0 1 0 0 0 0.22 0"/>
<feBlend mode="normal" in2="BackgroundImageFix" result="effect1_dropShadow"/>
<feBlend mode="normal" in="SourceGraphic" in2="effect1_dropShadow" result="shape"/>
</filter>
<linearGradient id="paint0_linear" x1="78.4068" y1="49.208" x2="138.357" y2="49.208" gradientUnits="userSpaceOnUse">
<stop stop-color="#CED7E2"/>
<stop offset="1" stop-color="white"/>
</linearGradient>
<linearGradient id="paint1_linear" x1="63.2854" y1="14.4508" x2="66.1638" y2="14.4508" gradientUnits="userSpaceOnUse">
<stop stop-color="#83A6FF"/>
<stop offset="1" stop-color="#5A78FF"/>
</linearGradient>
<linearGradient id="paint2_linear" x1="99.186" y1="108.542" x2="102.065" y2="108.542" gradientUnits="userSpaceOnUse">
<stop stop-color="#FF66A9"/>
<stop offset="1" stop-color="#F53689"/>
</linearGradient>
<linearGradient id="paint3_linear" x1="40.1137" y1="20.1532" x2="89.3994" y2="20.1532" gradientUnits="userSpaceOnUse">
<stop stop-color="#CED7E2"/>
<stop offset="1" stop-color="white"/>
</linearGradient>
<linearGradient id="paint4_linear" x1="54.9534" y1="50.0397" x2="76.3969" y2="50.0397" gradientUnits="userSpaceOnUse">
<stop stop-color="#EA66FF"/>
<stop offset="1" stop-color="#8A36F5"/>
</linearGradient>
<linearGradient id="paint5_linear" x1="28.6607" y1="50.0397" x2="55.0526" y2="50.0397" gradientUnits="userSpaceOnUse">
<stop stop-color="#EA66FF"/>
<stop offset="1" stop-color="#8A36F5"/>
</linearGradient>
<linearGradient id="paint6_linear" x1="78.0331" y1="43.6191" x2="137.983" y2="43.6191" gradientUnits="userSpaceOnUse">
<stop stop-color="#CED7E2"/>
<stop offset="1" stop-color="white"/>
</linearGradient>
<linearGradient id="paint7_linear" x1="96.0835" y1="79.9709" x2="122.167" y2="79.9709" gradientUnits="userSpaceOnUse">
<stop stop-color="#EA66FF"/>
<stop offset="1" stop-color="#8A36F5"/>
</linearGradient>
<linearGradient id="paint8_linear" x1="64.1028" y1="79.9709" x2="96.2053" y2="79.9709" gradientUnits="userSpaceOnUse">
<stop stop-color="#EA66FF"/>
<stop offset="1" stop-color="#8A36F5"/>
</linearGradient>
<linearGradient id="paint9_linear" x1="32.9169" y1="91.7135" x2="72.4738" y2="91.7135" gradientUnits="userSpaceOnUse">
<stop stop-color="#FF8D8B"/>
<stop offset="1" stop-color="#D187E3"/>
</linearGradient>
<linearGradient id="paint10_linear" x1="52.7954" y1="91.7088" x2="60.9092" y2="99.8438" gradientUnits="userSpaceOnUse">
<stop stop-color="#BC4FFF"/>
<stop offset="1" stop-color="#C465FF" stop-opacity="0"/>
</linearGradient>
<linearGradient id="paint11_linear" x1="54.8968" y1="94.2171" x2="48.807" y2="85.8693" gradientUnits="userSpaceOnUse">
<stop offset="0.0113208" stop-color="#DDC2FF"/>
<stop offset="1" stop-color="white"/>
</linearGradient>
</defs>
</svg>
