<svg width="677" height="493" viewBox="0 0 677 493" fill="none" xmlns="http://www.w3.org/2000/svg">
<circle opacity="0.3" cx="430.09" cy="246.5" r="246.5" fill="url(#paint0_linear)"/>
<path d="M92.619 153.031L58.1204 374.349C57.4651 378.617 60.5097 382.47 64.3929 382.289L237.059 374.14L92.619 153.031Z" fill="url(#paint1_linear)"/>
<path d="M130.234 357.861C135.686 341.246 141.235 315.881 134.739 287.72C127.279 255.384 110.754 248.913 95.917 214.348C74.7369 165.007 98.7081 129.266 76.7827 114.185C66.0902 106.83 49.2768 106.825 38.9111 114.208C9.33605 135.273 17.4443 227.026 64.3678 262.832C85.5895 279.025 104.109 277.104 120.033 298.059C134.105 316.575 133.002 341.001 130.234 357.861Z" fill="url(#paint2_linear)"/>
<g opacity="0.7">
<path opacity="0.7" d="M133.53 316.062C131.752 309.079 129.363 302.215 126.427 295.66C119.681 280.601 112.233 272.318 102.806 261.829C96.6519 254.981 89.6742 247.221 81.6126 236.094C66.5267 215.272 61.8448 207.957 57.6498 196.164C49.3482 172.83 50.6237 151.907 52.121 141.513C54.2485 126.767 59.1955 112.733 66.8268 99.8047L67.3537 100.116C59.764 112.977 54.8421 126.934 52.7279 141.601C51.2373 151.94 49.9685 172.75 58.2267 195.961C62.3967 207.682 67.0636 214.972 82.1078 235.737C90.151 246.838 97.1171 254.586 103.261 261.422C112.725 271.949 120.2 280.266 126.986 295.412C129.937 302 132.338 308.897 134.123 315.913L133.53 316.062Z" fill="white"/>
<path opacity="0.7" d="M53.6734 179.74L53.2316 179.5C53.1432 179.453 44.378 174.633 36.59 164.829C29.3988 155.777 21.5857 140.498 25.1988 119.121L25.8024 119.223C22.2276 140.376 29.9573 155.492 37.0702 164.447C43.7878 172.906 51.2241 177.606 53.0848 178.708C53.5984 161.665 64.531 150.617 73.6646 144.331C83.6369 137.467 93.6742 134.652 93.7742 134.624L93.9376 135.214C93.8376 135.241 83.887 138.035 73.9981 144.845C64.8978 151.11 53.9868 162.163 53.6851 179.235L53.6734 179.74Z" fill="white"/>
<path opacity="0.7" d="M56.1313 234.596C47.2645 234.596 36.8487 232.418 27.2266 224.929L27.6017 224.445C49.0819 241.165 74.5936 231.075 77.3047 229.924C72.958 213.079 76.8128 200.651 80.8261 193.178C85.1995 185.033 90.7133 180.845 90.7683 180.805L91.1352 181.293C90.9184 181.457 69.5483 197.938 77.9633 230.024L78.0283 230.273L77.7949 230.379C77.6348 230.451 68.3578 234.596 56.1313 234.596Z" fill="white"/>
<path opacity="0.7" d="M75.8923 266.733C69.2447 266.733 61.2882 265.526 52.0312 262.145L52.2413 261.57C82.3866 272.584 98.5663 260.346 100.349 258.878C92.9891 241.603 103.372 213.706 103.478 213.424L104.05 213.641C103.943 213.921 93.5643 241.812 100.999 258.843L101.087 259.044L100.926 259.192C100.809 259.297 92.3839 266.733 75.8923 266.733Z" fill="white"/>
</g>
<path d="M184.052 371.623C185.898 360.462 186.958 343.032 177.873 327.442C162.024 300.247 133.136 309.269 105.483 280.132C83.1808 256.633 90.2085 238.369 65.4954 222.751C61.3588 220.137 39.5018 205.753 23.2487 214.416C14.0901 219.298 10.7705 229.322 10.1486 231.203C0.733181 259.641 29.6996 304.165 67.4546 324.53C89.1465 336.229 96.1442 332.406 134.318 346.051C156.75 354.073 173.591 364.397 184.052 371.623Z" fill="url(#paint3_linear)"/>
<g opacity="0.7">
<path opacity="0.7" d="M187.216 385.068C181.694 358.539 171.241 340.731 156.152 332.134C148.793 327.941 142.909 327.275 136.681 326.57C129.872 325.8 122.831 325.003 113.514 319.369C104.447 313.887 101.207 308.623 97.1022 301.957C93.4591 296.04 88.9256 288.677 78.7516 278.871C69.833 270.276 63.3355 266.251 57.6032 262.7C51.3257 258.812 46.3654 255.739 40.6082 248.194C31.2278 235.904 26.3258 220.156 26.0391 201.389L26.651 201.379C26.9378 220.013 31.7963 235.639 41.095 247.822C46.7839 255.279 51.7009 258.325 57.9267 262.18C63.6856 265.748 70.2132 269.791 79.1784 278.431C89.4075 288.29 93.9643 295.69 97.6257 301.637C101.686 308.231 104.892 313.44 113.832 318.845C123.034 324.409 130.007 325.198 136.751 325.962C143.044 326.673 148.986 327.347 156.456 331.602C171.703 340.289 182.254 358.234 187.815 384.943L187.216 385.068Z" fill="white"/>
<path opacity="0.7" d="M57.9362 264.343C20.0763 264.343 0.200079 236.112 0 235.822L0.503536 235.475C0.701947 235.764 20.4147 263.732 57.9362 263.732C58.5715 263.732 59.2084 263.723 59.8537 263.706C58.5998 259.667 48.5525 225.556 61.6227 210.891L62.0795 211.297C48.4775 226.56 60.4356 263.535 60.5573 263.905L60.6857 264.293L60.2772 264.305C59.4918 264.332 58.7082 264.343 57.9362 264.343Z" fill="white"/>
<path opacity="0.7" d="M56.4573 295.893C44.0474 295.893 28.2211 293.339 12.3398 283.818L12.655 283.293C32.3911 295.124 52.0472 296.118 65.0624 294.869C77.9375 293.632 87.0277 290.019 88.595 289.362C83.3429 269.959 88.0264 242.617 88.0748 242.342L88.6767 242.447C88.6283 242.722 83.9281 270.173 89.2553 289.457L89.3253 289.711L89.0852 289.817C88.9902 289.861 79.3497 294.107 65.1441 295.474C62.5013 295.73 59.5869 295.893 56.4573 295.893Z" fill="white"/>
<path opacity="0.7" d="M73.2802 340.938C72.3332 340.938 71.3811 340.928 70.4141 340.907L70.4274 340.295C90.2686 340.725 105.55 336.597 114.87 333.059C123.718 329.701 129.004 326.232 130.204 325.404C115.655 307.3 121.358 277.775 121.418 277.477L122.018 277.597C121.958 277.893 116.261 307.417 130.886 325.272L131.09 325.521L130.83 325.712C130.616 325.869 109.69 340.938 73.2802 340.938Z" fill="white"/>
</g>
<path d="M145.452 412.427L56.8457 382.644L184.296 374.139L145.452 412.427Z" fill="#D8DEE8"/>
<path d="M408.444 157.644L99.2504 148.08C94.7403 147.94 91.7841 151.393 92.6594 155.793L142.814 407.685C143.69 412.085 147.993 415.391 152.411 415.071L455.343 393.18C458.771 392.932 460.918 389.604 460.15 385.746L416.162 164.825C415.392 160.967 411.942 157.752 408.444 157.644Z" fill="url(#paint4_linear)"/>
<path d="M410.112 157.642L100.918 148.078C96.4082 147.938 93.452 151.391 94.3274 155.791L144.482 407.683C145.358 412.083 149.661 415.389 154.079 415.069L457.011 393.179C460.439 392.93 462.586 389.602 461.818 385.744L417.83 164.823C417.062 160.965 413.61 157.75 410.112 157.642Z" fill="url(#paint5_linear)"/>
<g opacity="0.3">
<path opacity="0.3" d="M329.422 291.113C268.565 258.047 210.894 283.75 169.369 241.337C143.801 215.22 139.107 178.242 139.874 149.282L100.92 148.076C96.4102 147.936 93.454 151.389 94.3293 155.789L144.484 407.681C145.36 412.079 149.663 415.387 154.081 415.067L416.922 396.073C388.191 333.716 355.801 305.447 329.422 291.113Z" fill="url(#paint6_linear)"/>
</g>
<path d="M446.665 384.787L159.705 404.373C154.936 404.698 150.291 401.105 149.344 396.347L104.663 171.945C103.716 167.186 106.897 163.428 111.754 163.55L404.076 170.898C407.894 170.994 411.658 174.476 412.495 178.676L451.927 376.719C452.764 380.921 450.413 384.532 446.665 384.787Z" fill="#D8DEE8"/>
<path d="M447.952 384.702L161.337 404.265C156.575 404.59 151.935 400.999 150.988 396.243L106.335 171.985C105.388 167.229 108.566 163.473 113.416 163.595L405.388 170.934C409.201 171.029 412.961 174.511 413.797 178.707L453.207 376.639C454.042 380.837 451.695 384.445 447.952 384.702Z" fill="url(#paint7_linear)"/>
<path d="M258.863 244.516L227.577 244.709C226.638 244.714 225.723 243.941 225.531 242.98L220.356 216.989C220.164 216.028 220.772 215.253 221.713 215.258L253.072 215.433C253.989 215.438 254.884 216.21 255.073 217.159L260.176 242.79C260.365 243.737 259.778 244.509 258.863 244.516ZM228.582 241.225L256.522 241.091L252.095 218.861L224.105 218.743L228.582 241.225Z" fill="#D8DEE8"/>
<path d="M298.4 244.273L268.115 244.459C267.206 244.464 266.318 243.704 266.129 242.759L261.037 217.189C260.849 216.243 261.434 215.481 262.344 215.486L292.701 215.656C293.588 215.661 294.459 216.422 294.644 217.354L299.666 242.575C299.853 243.507 299.286 244.268 298.4 244.273ZM269.077 241.031L296.123 240.901L291.768 219.028L264.674 218.914L269.077 241.031Z" fill="#D8DEE8"/>
<path d="M336.691 244.037L307.36 244.218C306.481 244.223 305.617 243.475 305.432 242.544L300.422 217.383C300.237 216.452 300.802 215.702 301.682 215.707L331.082 215.872C331.943 215.877 332.786 216.624 332.97 217.543L337.912 242.366C338.095 243.283 337.548 244.032 336.691 244.037ZM308.28 240.844L334.474 240.719L330.187 219.19L303.947 219.08L308.28 240.844Z" fill="#D8DEE8"/>
<path d="M373.792 243.805L345.369 243.98C344.517 243.985 343.678 243.249 343.497 242.331L338.566 217.565C338.385 216.65 338.928 215.911 339.783 215.916L368.273 216.074C369.107 216.079 369.927 216.815 370.107 217.718L374.972 242.156C375.151 243.063 374.622 243.8 373.792 243.805ZM346.251 240.661L371.633 240.539L367.413 219.346L341.986 219.239L346.251 240.661Z" fill="#D8DEE8"/>
<path d="M409.756 243.584L382.202 243.754C381.376 243.759 380.561 243.032 380.381 242.132L375.526 217.749C375.345 216.847 375.872 216.12 376.699 216.125L404.319 216.28C405.126 216.285 405.924 217.009 406.101 217.899L410.893 241.964C411.071 242.854 410.563 243.579 409.756 243.584ZM383.047 240.485L407.653 240.366L403.498 219.496L378.847 219.393L383.047 240.485Z" fill="#D8DEE8"/>
<path d="M182.849 280.459L149.498 281.131C148.498 281.151 147.525 280.362 147.327 279.368L141.975 252.489C141.777 251.496 142.43 250.684 143.434 250.675L176.864 250.399C177.841 250.39 178.789 251.177 178.985 252.157L184.26 278.651C184.455 279.63 183.825 280.439 182.849 280.459ZM150.593 277.501L180.377 276.942L175.802 253.963L145.965 254.252L150.593 277.501Z" fill="#D8DEE8"/>
<path d="M224.954 279.612L192.706 280.262C191.739 280.282 190.796 279.505 190.602 278.528L185.34 252.099C185.145 251.122 185.775 250.324 186.744 250.315L219.068 250.047C220.014 250.039 220.934 250.814 221.126 251.778L226.315 277.835C226.505 278.797 225.896 279.592 224.954 279.612ZM193.752 276.692L222.55 276.152L218.05 253.553L189.2 253.833L193.752 276.692Z" fill="#D8DEE8"/>
<path d="M265.689 278.792L234.49 279.421C233.554 279.439 232.639 278.675 232.449 277.715L227.274 251.723C227.082 250.763 227.689 249.978 228.626 249.969L259.9 249.709C260.814 249.701 261.707 250.463 261.896 251.411L266.999 277.043C267.188 277.99 266.601 278.774 265.689 278.792ZM235.49 275.911L263.353 275.389L258.926 253.159L231.013 253.429L235.49 275.911Z" fill="#D8DEE8"/>
<path d="M305.115 277.997L274.913 278.606C274.007 278.624 273.12 277.872 272.932 276.926L267.84 251.356C267.652 250.411 268.235 249.639 269.144 249.631L299.416 249.379C300.301 249.372 301.168 250.121 301.353 251.055L306.375 276.276C306.564 277.21 305.998 277.98 305.115 277.997ZM275.872 275.154L302.842 274.649L298.487 252.775L271.468 253.037L275.872 275.154Z" fill="#D8DEE8"/>
<path d="M343.3 277.229L314.05 277.817C313.173 277.836 312.311 277.095 312.126 276.165L307.115 251.003C306.93 250.073 307.494 249.313 308.372 249.306L337.692 249.063C338.549 249.056 339.391 249.793 339.575 250.712L344.517 275.535C344.7 276.453 344.155 277.212 343.3 277.229ZM314.967 274.423L341.089 273.932L336.802 252.404L310.633 252.657L314.967 274.423Z" fill="#D8DEE8"/>
<path d="M380.296 276.483L351.953 277.053C351.103 277.07 350.266 276.342 350.084 275.426L345.152 250.66C344.971 249.744 345.512 248.996 346.364 248.989L374.774 248.754C375.604 248.747 376.423 249.474 376.603 250.378L381.468 274.816C381.65 275.721 381.125 276.467 380.296 276.483ZM352.83 273.712L378.142 273.239L373.922 252.045L348.565 252.29L352.83 273.712Z" fill="#D8DEE8"/>
<path d="M416.162 275.761L388.685 276.315C387.861 276.331 387.047 275.614 386.867 274.712L382.012 250.329C381.832 249.427 382.357 248.692 383.182 248.686L410.725 248.457C411.53 248.45 412.327 249.166 412.504 250.056L417.296 274.121C417.473 275.011 416.966 275.745 416.162 275.761ZM389.523 273.025L414.061 272.565L409.906 251.695L385.323 251.933L389.523 273.025Z" fill="#D8DEE8"/>
<path d="M189.905 315.885L156.647 317.022C155.649 317.055 154.68 316.278 154.481 315.285L149.129 288.406C148.931 287.412 149.583 286.588 150.583 286.567L183.92 285.825C184.893 285.803 185.84 286.58 186.036 287.559L191.311 314.052C191.506 315.031 190.877 315.852 189.905 315.885ZM157.736 313.367L187.436 312.393L182.861 289.414L153.108 290.118L157.736 313.367Z" fill="#D8DEE8"/>
<path d="M231.892 314.454L199.733 315.553C198.767 315.587 197.827 314.821 197.634 313.844L192.372 287.415C192.176 286.438 192.803 285.628 193.77 285.608L226.005 284.891C226.947 284.869 227.866 285.635 228.057 286.597L233.246 312.654C233.438 313.616 232.831 314.423 231.892 314.454ZM200.775 311.96L229.493 311.02L224.993 288.421L196.223 289.101L200.775 311.96Z" fill="#D8DEE8"/>
<path d="M272.513 313.066L241.399 314.13C240.465 314.162 239.553 313.408 239.361 312.448L234.186 286.456C233.994 285.495 234.598 284.698 235.533 284.678L266.72 283.985C267.632 283.965 268.523 284.717 268.711 285.664L273.815 311.296C274.007 312.243 273.423 313.036 272.513 313.066ZM242.396 310.597L270.18 309.687L265.753 287.456L237.919 288.115L242.396 310.597Z" fill="#D8DEE8"/>
<path d="M311.831 311.722L281.713 312.751C280.809 312.783 279.924 312.041 279.737 311.095L274.645 285.525C274.456 284.58 275.038 283.798 275.944 283.778L306.132 283.106C307.014 283.086 307.88 283.826 308.066 284.758L313.088 309.98C313.273 310.912 312.712 311.692 311.831 311.722ZM282.666 309.276L309.562 308.396L305.207 286.522L278.263 287.159L282.666 309.276Z" fill="#D8DEE8"/>
<path d="M349.908 310.421L320.738 311.418C319.863 311.448 319.004 310.717 318.819 309.787L313.809 284.626C313.624 283.695 314.184 282.925 315.061 282.906L344.299 282.256C345.154 282.238 345.995 282.966 346.178 283.884L351.12 308.707C351.304 309.625 350.762 310.392 349.908 310.421ZM321.65 308L347.699 307.146L343.412 285.618L317.317 286.234L321.65 308Z" fill="#D8DEE8"/>
<path d="M386.803 309.157L358.538 310.123C357.691 310.151 356.856 309.432 356.674 308.517L351.742 283.751C351.56 282.835 352.101 282.078 352.951 282.058L381.282 281.428C382.111 281.41 382.928 282.127 383.108 283.03L387.973 307.468C388.153 308.374 387.63 309.129 386.803 309.157ZM359.41 306.76L384.652 305.933L380.432 284.739L355.145 285.338L359.41 306.76Z" fill="#D8DEE8"/>
<path d="M422.568 307.937L395.166 308.874C394.344 308.903 393.534 308.194 393.354 307.294L388.498 282.911C388.318 282.009 388.842 281.263 389.664 281.245L417.13 280.633C417.933 280.615 418.727 281.322 418.905 282.212L423.697 306.277C423.876 307.167 423.37 307.911 422.568 307.937ZM396.003 305.563L420.473 304.761L416.318 283.891L391.803 284.471L396.003 305.563Z" fill="#D8DEE8"/>
<path d="M196.959 351.315L163.793 352.916C162.797 352.964 161.83 352.197 161.632 351.203L156.28 324.324C156.081 323.331 156.732 322.495 157.729 322.46L190.973 321.253C191.944 321.218 192.889 321.983 193.084 322.962L198.36 349.456C198.555 350.436 197.928 351.268 196.959 351.315ZM164.876 349.236L194.495 347.849L189.92 324.87L160.248 325.988L164.876 349.236Z" fill="#D8DEE8"/>
<path d="M238.83 349.295L206.761 350.844C205.799 350.89 204.86 350.135 204.667 349.158L199.405 322.729C199.21 321.752 199.835 320.932 200.799 320.897L232.945 319.73C233.883 319.696 234.8 320.448 234.992 321.412L240.181 347.469C240.371 348.433 239.767 349.25 238.83 349.295ZM207.798 347.225L236.436 345.883L231.936 323.284L203.245 324.366L207.798 347.225Z" fill="#D8DEE8"/>
<path d="M279.337 347.338L248.31 348.835C247.379 348.88 246.469 348.138 246.277 347.176L241.102 321.184C240.91 320.224 241.512 319.417 242.446 319.384L273.546 318.255C274.455 318.222 275.346 318.964 275.534 319.911L280.638 345.542C280.826 346.491 280.244 347.295 279.337 347.338ZM249.302 345.281L277.01 343.982L272.583 321.751L244.825 322.798L249.302 345.281Z" fill="#D8DEE8"/>
<path d="M318.546 345.444L288.512 346.894C287.612 346.938 286.728 346.207 286.54 345.262L281.448 319.692C281.259 318.747 281.839 317.955 282.741 317.921L312.847 316.829C313.727 316.797 314.591 317.528 314.776 318.46L319.798 343.681C319.985 344.612 319.423 345.402 318.546 345.444ZM289.459 343.396L316.28 342.139L311.925 320.265L285.056 321.279L289.459 343.396Z" fill="#D8DEE8"/>
<path d="M356.516 343.612L327.428 345.016C326.556 345.058 325.699 344.337 325.514 343.409L320.502 318.245C320.317 317.315 320.876 316.535 321.751 316.503L350.908 315.444C351.76 315.413 352.598 316.133 352.782 317.05L357.724 341.873C357.907 342.794 357.367 343.57 356.516 343.612ZM328.335 341.575L354.312 340.358L350.026 318.829L324.002 319.811L328.335 341.575Z" fill="#D8DEE8"/>
<path d="M393.309 341.836L365.123 343.196C364.278 343.236 363.446 342.528 363.262 341.612L358.332 316.846C358.15 315.93 358.689 315.163 359.536 315.132L387.789 314.106C388.616 314.076 389.429 314.785 389.61 315.689L394.475 340.127C394.657 341.032 394.133 341.796 393.309 341.836ZM365.992 339.812L391.163 338.633L386.943 317.439L361.727 318.39L365.992 339.812Z" fill="#D8DEE8"/>
<path d="M428.975 340.114L401.649 341.432C400.83 341.472 400.02 340.774 399.84 339.872L394.985 315.489C394.805 314.587 395.325 313.833 396.147 313.803L423.538 312.809C424.34 312.781 425.132 313.478 425.309 314.368L430.1 338.433C430.277 339.322 429.774 340.074 428.975 340.114ZM402.481 338.101L426.884 336.957L422.729 316.087L398.283 317.009L402.481 338.101Z" fill="#D8DEE8"/>
<path d="M204.011 386.742L170.938 388.808C169.946 388.869 168.981 388.114 168.782 387.12L163.43 360.241C163.232 359.248 163.879 358.401 164.874 358.351L198.026 356.68C198.994 356.632 199.936 357.385 200.132 358.366L205.407 384.861C205.602 385.84 204.978 386.682 204.011 386.742ZM172.019 385.103L201.554 383.3L196.979 360.321L167.39 361.855L172.019 385.103Z" fill="#D8DEE8"/>
<path d="M245.766 384.133L213.787 386.131C212.828 386.191 211.891 385.447 211.696 384.47L206.434 358.042C206.239 357.064 206.863 356.232 207.823 356.184L239.879 354.568C240.816 354.522 241.73 355.264 241.922 356.227L247.11 382.284C247.302 383.246 246.7 384.075 245.766 384.133ZM214.819 382.49L243.379 380.747L238.879 358.148L210.267 359.63L214.819 382.49Z" fill="#D8DEE8"/>
<path d="M286.162 381.611L255.221 383.543C254.292 383.601 253.385 382.869 253.193 381.907L248.018 355.915C247.826 354.955 248.427 354.138 249.357 354.091L280.371 352.527C281.278 352.482 282.165 353.213 282.353 354.16L287.457 379.791C287.645 380.74 287.065 381.554 286.162 381.611ZM256.208 379.963L283.839 378.278L279.412 356.047L251.731 357.483L256.208 379.963Z" fill="#D8DEE8"/>
<path d="M325.26 379.169L295.31 381.04C294.411 381.096 293.531 380.374 293.342 379.429L288.25 353.859C288.062 352.913 288.641 352.11 289.541 352.065L319.563 350.551C320.44 350.506 321.302 351.226 321.487 352.16L326.509 377.381C326.694 378.313 326.135 379.114 325.26 379.169ZM296.254 377.52L322.999 375.888L318.644 354.014L291.848 355.403L296.254 377.52Z" fill="#D8DEE8"/>
<path d="M167.575 210.614L133.59 210.367L132.141 203.086L166.144 203.429L167.575 210.614Z" fill="url(#paint8_linear)"/>
<path d="M210.462 210.929L177.615 210.689L176.191 203.533L209.056 203.865L210.462 210.929Z" fill="url(#paint9_linear)"/>
<path d="M251.934 211.229L220.17 210.997L218.768 203.961L250.552 204.281L251.934 211.229Z" fill="url(#paint10_linear)"/>
<path d="M292.062 211.521L261.326 211.298L259.947 204.377L290.701 204.687L292.062 211.521Z" fill="url(#paint11_linear)"/>
<path d="M330.909 211.805L301.152 211.589L299.797 204.779L329.57 205.079L330.909 211.805Z" fill="url(#paint12_linear)"/>
<path d="M368.534 212.077L339.711 211.867L338.377 205.166L367.217 205.458L368.534 212.077Z" fill="url(#paint13_linear)"/>
<path d="M404.997 212.346L377.062 212.143L375.75 205.547L403.698 205.829L404.997 212.346Z" fill="url(#paint14_linear)"/>
<path d="M401.935 196.969L130.171 193.194L127.432 179.434L399.481 184.651L401.935 196.969Z" fill="#D8DEE8"/>
<g opacity="0.3">
<path opacity="0.3" d="M329.422 291.114C268.565 258.048 210.893 283.752 169.369 241.338C148.074 219.586 141.246 190.228 140.015 164.264L113.248 163.591C108.49 163.471 105.372 167.156 106.3 171.819L151.018 396.406C151.947 401.071 156.499 404.593 161.17 404.274L412.65 387.109C385.027 330.979 354.505 304.743 329.422 291.114Z" fill="#D8DEE8"/>
</g>
<path d="M221.93 237.538C221.226 235.935 218.833 234.887 217.358 236.256C213.131 240.177 212.286 246.688 210.117 251.908C208.461 255.893 206.619 259.795 204.834 263.721C201.021 258.294 197.76 252.459 193.825 247.115C192.46 245.261 189.205 246.958 190.235 249.132C194.309 257.726 197.016 266.658 202.437 274.607C204.336 277.394 208.438 276.533 209.798 273.772C212.943 267.396 216.149 261.04 218.877 254.471C221.008 249.346 224.322 242.99 221.93 237.538Z" fill="url(#paint15_linear)"/>
<path d="M262.693 237.538C261.99 235.935 259.597 234.887 258.121 236.256C253.895 240.177 253.049 246.688 250.88 251.908C249.225 255.893 247.382 259.795 245.598 263.721C241.785 258.294 238.524 252.459 234.589 247.115C233.223 245.261 229.969 246.958 230.999 249.132C235.072 257.726 237.78 266.658 243.201 274.607C245.1 277.394 249.201 276.533 250.562 273.772C253.706 267.396 256.913 261.04 259.64 254.471C261.77 249.346 265.086 242.99 262.693 237.538Z" fill="url(#paint16_linear)"/>
<path d="M302.642 237.538C301.939 235.935 299.546 234.887 298.071 236.256C293.844 240.177 292.999 246.688 290.829 251.908C289.174 255.893 287.331 259.795 285.547 263.721C281.734 258.294 278.473 252.459 274.538 247.115C273.172 245.261 269.918 246.958 270.948 249.132C275.022 257.726 277.729 266.658 283.15 274.607C285.049 277.394 289.15 276.533 290.511 273.772C293.656 267.396 296.862 261.04 299.59 254.471C301.719 249.346 305.035 242.99 302.642 237.538Z" fill="url(#paint17_linear)"/>
<path d="M338.307 237.538C337.603 235.935 335.21 234.887 333.735 236.256C329.508 240.177 328.663 246.688 326.494 251.908C324.838 255.893 322.995 259.795 321.211 263.721C317.398 258.294 314.137 252.459 310.202 247.115C308.837 245.261 305.582 246.958 306.612 249.132C310.686 257.726 313.393 266.658 318.814 274.607C320.713 277.394 324.815 276.533 326.175 273.772C329.32 267.396 332.526 261.04 335.254 254.471C337.383 249.346 340.699 242.99 338.307 237.538Z" fill="url(#paint18_linear)"/>
<path d="M376.445 237.538C375.742 235.935 373.349 234.887 371.873 236.256C367.647 240.177 366.801 246.688 364.632 251.908C362.977 255.893 361.134 259.795 359.35 263.721C355.537 258.294 352.276 252.459 348.341 247.115C346.975 245.261 343.721 246.958 344.751 249.132C348.824 257.726 351.532 266.658 356.953 274.607C358.852 277.394 362.953 276.533 364.314 273.772C367.458 267.396 370.665 261.04 373.392 254.471C375.522 249.346 378.838 242.99 376.445 237.538Z" fill="url(#paint19_linear)"/>
<path d="M31.5469 338.292L132.555 333.9L248.933 337.979L134.122 363.074L31.5469 338.292Z" fill="url(#paint20_linear)"/>
<path d="M112.93 435.623L31.1132 413.602C22.8732 411.385 16.4707 403.22 16.4707 395.303V395.217C16.4707 387.299 22.8732 381.988 31.1132 383.44L118.868 397.801L112.93 435.623Z" fill="url(#paint21_linear)"/>
<path d="M249.071 419.088L116.871 433.852C108.591 434.777 101.783 429.002 101.783 420.942V415.473C101.783 407.413 108.591 400.335 116.871 399.677L249.071 389.154C243.222 400.045 241.872 410.233 249.071 419.088Z" fill="url(#paint22_linear)"/>
<path d="M250.224 420.553L117.98 435.547C107.179 436.771 98.2305 429.206 98.2305 418.662V418.545C98.2305 408 107.181 398.723 117.98 397.881L250.224 387.566C251.019 387.505 251.664 388.167 251.664 389.045C251.664 389.924 251.021 390.689 250.224 390.754L117.98 401.52C109.292 402.227 102.117 409.702 102.117 418.172V418.287C102.117 426.757 109.292 432.859 117.98 431.902L250.224 417.36C251.019 417.273 251.664 417.915 251.664 418.794C251.664 419.678 251.019 420.463 250.224 420.553Z" fill="url(#paint23_linear)"/>
<path d="M116.369 397.891L31.1132 383.442C22.8732 381.988 16.4707 371.187 16.4707 359.299V359.169C16.4707 347.281 22.8732 337.847 31.1132 338.154L121.552 341.513L116.369 397.891Z" fill="url(#paint24_linear)"/>
<path d="M249.075 385.263L124.284 394.675C111.976 395.604 101.787 386.56 101.787 374.457V366.247C101.787 354.144 111.976 344.055 124.284 343.72L249.075 340.318C243.206 356.635 241.894 371.916 249.075 385.263Z" fill="url(#paint25_linear)"/>
<path d="M250.226 387.569L117.982 397.883C107.181 398.725 98.2324 386.542 98.2324 370.708V370.534C98.2324 354.7 107.183 341.596 117.982 341.328L250.226 338.041C251.021 338.021 251.666 339.075 251.666 340.396C251.666 341.716 251.023 342.805 250.226 342.83L117.982 346.796C109.293 347.057 102.119 357.619 102.119 370.336V370.509C102.119 383.226 109.293 393.05 117.982 392.418L250.226 382.782C251.021 382.724 251.666 383.748 251.666 385.068C251.666 386.385 251.021 387.506 250.226 387.569Z" fill="url(#paint26_linear)"/>
<path opacity="0.5" d="M89.931 385.98L71.7072 382.795C67.4521 371.18 67.7723 360.51 71.7072 347.758L89.931 349.053C86.1962 362.472 86.7614 374.628 89.931 385.98Z" fill="white"/>
<path d="M129.698 71.8595C130.968 71.2276 131.787 69.9421 131.803 68.5232C131.822 66.9725 131.702 65.1868 131.07 64.9701C129.929 64.5783 122.84 68.9333 120.032 70.9691C117.223 73.0049 111.884 77.8519 111.832 79.4041C111.79 80.6546 124.661 74.3671 129.698 71.8595Z" fill="url(#paint27_linear)"/>
<path d="M131.785 79.7971L130.543 72.6009C130.339 71.4188 129.112 70.7102 127.987 71.1254C127.363 71.3555 126.901 71.8907 126.768 72.5426L124.844 81.9296L131.785 79.7971Z" fill="url(#paint28_linear)"/>
<path d="M160.711 81.4221L160.477 74.0542L156.866 72.9688L155.012 80.9986L160.711 81.4221Z" fill="url(#paint29_linear)"/>
<path d="M161.227 77.5047C159.059 79.9357 150.843 73.9516 147.298 71.584C144.99 70.0434 144.08 67.7325 144.377 66.1135C144.673 64.4946 148.211 65.3316 151.478 67.4191C153.297 68.5812 158.054 70.3569 160.4 72.4527C162.267 74.12 162.34 76.2542 161.227 77.5047Z" fill="url(#paint30_linear)"/>
<path d="M189.84 137.288C194.699 132.918 199.933 125.538 197.967 122.7C194.894 118.264 178.211 130.684 168.752 125.15C163.307 121.965 158.701 111.92 164.499 80.152C161.099 79.8935 157.699 79.6334 154.3 79.375C150.862 86.2344 146.193 97.7273 145.416 112.483C145.403 112.723 145.384 113.087 145.363 113.555C145.053 120.495 144.439 136.541 152.444 143.602C161.599 151.677 179.971 146.168 189.84 137.288Z" fill="url(#paint31_linear)"/>
<path d="M206.097 117.348C204.163 116.304 202.466 115.829 200.717 116.077C196.086 116.733 194.669 121.941 190.184 126.426C184.565 132.045 177.347 133.316 175.256 133.683C162.465 135.932 151.926 128.526 150.07 127.157C149.888 127.023 149.746 126.917 149.65 126.843C129.215 111.479 134.277 79.116 134.55 77.5137C130.891 77.9038 127.229 78.294 123.569 78.6841C121.852 81.6887 109.134 104.808 119.649 128.932C121.112 132.287 126.097 143.323 137.855 150.744C149.915 158.356 158.71 155.606 189.325 156.245C225.265 156.993 233.481 161.207 236.742 155.786C242.978 145.424 214.424 121.84 206.097 117.348Z" fill="url(#paint32_linear)"/>
<path d="M278.777 116.807C283.706 112.772 286.444 106.17 286.444 106.17C288.514 102.035 289.737 99.5956 289.305 96.5093C288.513 90.8388 282.58 86.1069 276.908 85.3433C271.503 84.6163 269.777 87.9543 263.531 89.0381C253.246 90.8221 244.097 84.1695 242.313 82.8706C230.872 74.549 235.223 65.0953 224.943 54.0092C224.232 53.2439 211.146 39.5601 194.341 42.3829C180.05 44.7839 167.715 58.3442 167.232 73.2285C166.688 89.9818 181.275 104.676 193.657 107.01C198.474 107.919 204.626 107.27 211.452 111.767C215.602 114.501 217.118 117.238 219.105 119.435C230.825 132.407 262.251 130.338 278.777 116.807Z" fill="#363677"/>
<path d="M279.524 119.246C281.88 119.992 281.521 123.191 286.42 130.417C288.996 134.217 291.086 137.302 294.163 139.523C303.777 146.465 314.943 139.153 320.485 145.747C321.974 147.517 323.519 150.844 322.379 153.235C320.3 157.595 310.876 155.541 278.473 152.128C265.318 150.742 262.113 150.579 260.454 147.754C255.271 138.932 272.756 117.107 279.524 119.246Z" fill="url(#paint33_linear)"/>
<path d="M316.564 151.942L264.557 151.043C263.841 151.032 263.164 151.37 262.748 151.952L261.162 154.159C260.372 155.258 261.132 156.794 262.486 156.831L317.536 158.363L316.564 151.942Z" fill="url(#paint34_linear)"/>
<path d="M372.388 126.63L318.762 124.134C317.175 124.06 315.667 124.827 314.794 126.153L294.094 157.559L350.806 159.038C352.363 159.078 353.836 158.331 354.721 157.05L373.799 129.478C374.611 128.305 373.814 126.696 372.388 126.63Z" fill="url(#paint35_linear)"/>
<path opacity="0.3" d="M314.792 126.155C315.666 124.827 317.175 124.06 318.762 124.134L319.937 124.189C319.999 125.929 320.424 127.545 321.398 128.892C324.437 133.097 330.086 131 333.898 135.488C338.084 140.419 333.569 145.661 337.302 150.239C341.231 155.058 348.31 151.813 355.978 155.236L354.721 157.052C353.836 158.332 352.363 159.079 350.806 159.039L294.094 157.56L314.792 126.155Z" fill="url(#paint36_linear)"/>
<path d="M270.224 109.023C274.402 110.7 278.799 112.409 281.136 116.509C285.505 124.172 281.57 138.124 274.832 145.942C270.119 151.413 263.755 152.859 251.22 155.528C234.975 158.986 226.995 160.45 220.821 156.108C214.052 151.35 217.241 145.119 207.424 130.35C200.086 119.312 193.495 115.557 194.712 111.999C196.068 108.039 205.543 108.868 209.155 109.185C223.362 110.428 224.344 116.951 233.494 116.549C244.233 116.076 245.991 106.952 259.124 106.899C264.433 106.875 268.543 108.348 270.224 109.023Z" fill="url(#paint37_linear)"/>
<path d="M270.224 109.023C274.402 110.7 278.799 112.409 281.136 116.509C285.505 124.172 281.57 138.124 274.832 145.942C270.119 151.413 263.755 152.859 251.22 155.528C234.975 158.986 226.995 160.45 220.821 156.108C214.052 151.35 217.241 145.119 207.424 130.35C200.086 119.312 193.495 115.557 194.712 111.999C196.068 108.039 205.543 108.868 209.155 109.185C223.362 110.428 224.344 116.951 233.494 116.549C244.233 116.076 245.991 106.952 259.124 106.899C264.433 106.875 268.543 108.348 270.224 109.023Z" fill="url(#paint38_linear)"/>
<path opacity="0.3" d="M219.512 134.332C225.116 137.915 229.071 133.412 241.364 133.387C258.222 133.352 263.671 141.795 273.582 138.199C275.996 137.323 278.951 135.621 281.903 132.083C280.549 137.198 278.012 142.253 274.832 145.943C270.119 151.414 263.755 152.859 251.22 155.529C234.975 158.987 226.995 160.451 220.821 156.109C214.052 151.35 217.243 145.12 207.424 130.35C200.086 119.313 193.495 115.558 194.712 112C194.981 111.216 195.576 110.624 196.373 110.176C202.782 111.398 206.904 113.964 209.613 116.963C215.455 123.429 213.421 130.437 219.512 134.332Z" fill="url(#paint39_linear)"/>
<path d="M274.04 111.319C275.219 112.012 277.2 113.221 277.87 114.775C279.091 117.601 276.435 122.716 273.422 123.138C270.931 123.487 269.997 120.372 263.986 115.352C258.514 110.782 254.814 109.63 255.148 108.281C255.361 107.417 257.207 106.562 264.933 106.88C266.16 105.37 269.352 102.872 270.579 101.361C272.255 101.741 271.968 103.109 273.643 103.489C270.714 106.99 270.579 108.649 271.042 109.515C271.444 110.267 272.195 110.235 274.04 111.319Z" fill="url(#paint40_linear)"/>
<path d="M270.044 101.517C270.044 101.517 269.737 105.992 273.215 107.685C276.329 109.2 281.023 101.964 279.919 99.4413C279.551 98.5993 278.35 97.5622 277.141 97.2604C276.291 97.0487 272.723 96.7919 271.528 99.5296C271.286 98.6226 270.724 98.009 270.105 97.9607C270.007 97.9523 269.72 97.9757 269.483 98.1224C268.625 98.6543 268.768 100.037 270.044 101.517Z" fill="url(#paint41_linear)"/>
<path d="M286.209 151.736C286.923 150.996 284.995 146.633 281.284 144.929C277.357 143.126 273.334 145.17 272.684 145.514L272.927 148.547C274.734 148.52 277.379 148.672 280.373 149.607C284.02 150.744 285.697 152.268 286.209 151.736Z" fill="url(#paint42_linear)"/>
<path d="M272.999 144.603C271.112 143.906 268.064 142.906 264.2 142.232C256.869 140.952 254.093 142.149 250.74 140.045C247.731 138.155 245.078 134.121 245.091 130.026C245.115 123.036 252.896 120.033 252.913 111.24C252.916 109.361 252.563 108.866 252.291 108.612C249.36 105.884 235.539 112.317 228.843 123.183C227.291 125.701 220.513 137.562 225.822 147.858C231.866 159.579 249.698 161.751 261.431 156.903C266.958 154.619 270.631 150.982 272.742 148.471C272.827 147.182 272.912 145.894 272.999 144.603Z" fill="url(#paint43_linear)"/>
<path d="M360.827 95.2751C360.123 94.1084 357.73 93.3447 356.254 94.3415C352.027 97.197 351.181 101.938 349.012 105.739C347.356 108.641 345.513 111.482 343.728 114.341C339.914 110.389 334.729 109.185 334.729 109.185C334.729 109.185 330.108 109.07 331.138 110.654C335.212 116.911 335.909 116.479 341.33 122.268C343.23 124.297 347.332 123.67 348.693 121.66C351.838 117.017 355.045 112.389 357.773 107.605C359.903 103.873 363.22 99.2452 360.827 95.2751Z" fill="url(#paint44_linear)"/>
<path d="M360.827 93.5993C360.123 92.4326 357.73 91.6689 356.254 92.6657C352.027 95.5212 351.181 100.262 349.012 104.064C347.356 106.965 345.513 109.806 343.728 112.665C339.914 108.713 334.729 107.509 334.729 107.509C334.729 107.509 330.108 107.395 331.138 108.978C335.212 115.235 335.909 114.803 341.33 120.592C343.23 122.621 347.332 121.994 348.693 119.984C351.838 115.341 355.045 110.713 357.773 105.93C359.903 102.197 363.22 97.5694 360.827 93.5993Z" fill="url(#paint45_linear)"/>
<path d="M242.557 390C242.624 388.021 246.672 385.851 249.008 386.862C249.485 387.069 249.875 387.449 250.654 388.209C252.201 389.72 253.108 391.12 253.238 391.319C255.946 395.462 262.185 399.368 261.457 400.799C260.931 401.829 256.951 401.266 253.897 399.719C251.441 398.475 251.463 397.549 247.418 394.318C243.84 391.462 242.519 391.145 242.557 390Z" fill="url(#paint46_linear)"/>
<path d="M241.812 383.947L244.775 388.822C245.394 389.841 246.609 390.331 247.762 390.027C248.298 389.886 248.737 389.499 248.942 388.982C249.147 388.467 249.095 387.883 248.802 387.411L244.437 380.389L241.812 383.947Z" fill="white"/>
<path d="M130.013 310.611C120.764 314.66 129.284 340.245 155.561 341.154C187.404 342.254 223.443 357.715 242.052 386.081C243.918 385.248 248.165 384.359 247.044 382.17C231.648 352.081 214.833 332.28 198.57 323.243C173.982 309.583 156.348 299.087 130.013 310.611Z" fill="url(#paint47_linear)"/>
<g opacity="0.3">
<path opacity="0.3" d="M212.12 346.216C215.582 350.029 218.076 345.3 221.311 342.694C213.741 333.946 206.096 327.426 198.568 323.245C173.982 309.583 156.347 299.087 130.013 310.611C120.764 314.66 129.284 340.245 155.56 341.154C165.064 341.482 174.936 343.118 184.613 345.967C193.887 343.554 203.749 334.403 212.12 346.216Z" fill="url(#paint48_linear)"/>
</g>
<path d="M118.873 330.922L116.929 330.22C116.929 330.22 110.472 318.899 109.491 316.042C108.296 312.558 134.113 312.821 144.739 305.832C155.905 298.485 142.704 318.108 142.704 318.108L118.873 330.922Z" fill="url(#paint49_linear)"/>
<path d="M138.373 239.125C138.373 239.125 146.536 242.998 150.635 262.556C153.716 277.26 165.716 292.434 165.716 292.434L164.173 302.747L150.791 300.956L147.203 296.533L143.173 266.294L138.373 239.125Z" fill="url(#paint50_linear)"/>
<path d="M122.165 232.821C122.165 232.821 100.308 228.749 92.1869 252.809C84.6922 275.013 90.0077 286.22 103.88 311.11C105.275 313.613 108.498 314.635 108.652 314.98C109.477 316.836 110.301 318.758 111.116 320.754C134.195 309.38 155.972 309.951 155.972 309.951C155.972 309.951 149.616 265.924 145.518 250.7C141.293 235.003 127.976 233.234 122.165 232.821Z" fill="url(#paint51_linear)"/>
<g opacity="0.3">
<path opacity="0.3" d="M139.218 300.272C128.834 302.209 116.419 297.684 113.655 290.338C111.572 284.806 111.531 282.977 109.491 274.68C107.851 268.006 106.474 266.582 100.508 259.509C98.257 256.84 95.8778 253.255 93.967 248.406C93.3201 249.76 92.7198 251.221 92.183 252.81C84.6883 275.013 90.0038 286.221 103.876 311.111C105.271 313.614 108.494 314.636 108.648 314.981C109.473 316.837 110.297 318.759 111.112 320.755C134.191 309.38 155.968 309.952 155.968 309.952C155.968 309.952 154.808 302.976 153.427 293.247C148.927 297.247 145.881 299.03 139.218 300.272Z" fill="url(#paint52_linear)"/>
</g>
<path d="M124.49 296.386C124.49 296.386 128.418 297.833 131.611 297.59C134.804 297.346 134.654 297.011 138.044 297.63C141.339 298.232 148.175 298.328 145.66 293.997C142.861 289.175 135.805 288.041 133.115 289.802C130.523 291.499 126.828 291.926 126.828 291.926L124.49 296.386Z" fill="url(#paint53_linear)"/>
<path d="M103.204 240.089C103.204 240.089 91.0906 237.746 85.9869 277.527C83.3392 298.158 101.686 300.949 125.344 299.575C127.72 297.039 127.888 290.123 127.888 290.123C127.888 290.123 98.2434 292.626 102.563 276.64C107.405 258.714 110.612 240.38 103.204 240.089Z" fill="url(#paint54_linear)"/>
<path d="M127.241 242.914C127.078 242.914 126.911 242.909 126.739 242.899C120.674 242.522 115.565 235.574 115.35 235.279C115.253 235.147 115.283 234.962 115.415 234.865C115.545 234.769 115.732 234.799 115.828 234.93C115.878 235 120.99 241.948 126.776 242.307C128.362 242.407 129.59 242.008 130.434 241.126C132.045 239.441 131.751 236.506 131.748 236.478C131.73 236.314 131.848 236.169 132.01 236.151C132.166 236.129 132.318 236.251 132.337 236.413C132.352 236.544 132.667 239.646 130.864 241.531C129.989 242.45 128.772 242.914 127.241 242.914Z" fill="url(#paint55_linear)"/>
<path d="M109.902 314.616C109.791 314.616 109.682 314.551 109.632 314.443C109.564 314.294 109.631 314.118 109.779 314.051C110.021 313.941 134.227 303.036 152.556 304.274C152.719 304.285 152.843 304.425 152.831 304.589C152.819 304.752 152.673 304.859 152.516 304.864C134.317 303.642 110.264 314.479 110.024 314.588C109.984 314.608 109.942 314.616 109.902 314.616Z" fill="url(#paint56_linear)"/>
<path d="M122.644 222.314C122.644 222.314 122.06 231.346 121.103 232.929C120.146 234.511 122.007 237.149 126.242 238.701C130.477 240.253 128.506 229.951 128.506 229.951L122.644 222.314Z" fill="url(#paint57_linear)"/>
<path d="M135.181 224.65C140.363 222.769 142.129 210.506 139.565 209.161C138.092 208.389 136.752 212.047 131.293 213.451C127.041 214.544 124.335 213.23 122.523 215.356C121.671 216.355 121.161 217.942 121.174 219.346C121.181 220.07 121.359 221.032 121.848 222.923C122.281 224.602 122.236 224.533 122.376 225.027C122.715 226.212 123.452 228.27 125.194 230.982C125.581 230.352 126.104 229.585 126.801 228.795C127.07 228.491 128.133 227.309 129.441 226.466C131.822 224.933 133.694 225.189 135.181 224.65Z" fill="#26264F"/>
<path d="M122.769 228.055C122.769 228.055 123.892 232.712 128.718 233.923C133.038 235.006 136.706 225.714 134.648 222.832C133.963 221.869 132.246 221.011 130.645 220.951C129.7 220.916 129.289 221.181 127.745 221.094C126.322 221.012 125.996 220.747 125.493 220.954C124.863 221.213 124.171 222.12 124.107 225.161C123.562 224.084 122.693 223.458 121.903 223.562C121.776 223.578 121.423 223.684 121.163 223.93C120.228 224.824 120.773 226.526 122.769 228.055Z" fill="url(#paint58_linear)"/>
<path d="M125.689 302.33C125.489 302.296 125.269 302.38 125.162 302.546C125.147 302.571 124.919 303.548 124.907 303.575C124.819 303.79 124.889 304.039 125.079 304.175L141.123 315.653L178.697 313.155L162.43 309.337L125.689 302.33Z" fill="#26264F"/>
<path d="M125.722 302.2C125.492 302.162 125.265 302.289 125.177 302.504C125.088 302.719 125.158 302.967 125.348 303.104L141.393 314.582L178.968 312.084L162.701 308.266L125.722 302.2Z" fill="#444B8C"/>
<path d="M140.686 314.069L154.399 280.045C154.619 279.5 155.185 279.178 155.767 279.266L197.781 285.686C198.158 285.742 198.488 285.967 198.682 286.294C198.875 286.623 198.91 287.02 198.78 287.376L186.979 319.399C186.775 319.951 186.217 320.291 185.633 320.218L141.609 314.739L140.686 314.069Z" fill="url(#paint59_linear)"/>
<path d="M141.123 315.654L155.164 280.889C155.384 280.344 155.949 280.022 156.531 280.11L198.546 286.529C198.923 286.586 199.253 286.811 199.446 287.138C199.639 287.466 199.676 287.863 199.544 288.22L187.741 320.248C187.538 320.798 186.984 321.138 186.403 321.068L141.123 315.654Z" fill="#26264F"/>
<path d="M141.123 315.654L186.401 321.068C186.983 321.138 187.538 320.798 187.74 320.248L191.3 310.589C176.289 313.782 160.054 309.649 144.279 307.838L141.123 315.654Z" fill="#1F1F44"/>
<path d="M215.77 331.268C215.829 329.055 215.248 326.406 220.372 326.232C224.092 326.106 230.019 327.565 235.385 328.967C242.903 330.931 243.201 335.896 231.498 335.286C223.833 334.886 215.687 334.414 215.77 331.268Z" fill="url(#paint60_linear)"/>
<path d="M222.519 329.991C222.229 331.149 221.226 331.809 220.238 331.646C217.951 331.265 218.718 330.268 219.008 329.111C219.298 327.954 218.663 326.887 221.289 327.457C222.266 327.671 222.808 328.834 222.519 329.991Z" fill="white"/>
<path d="M202.127 316.35L204.396 316.693C204.396 316.693 208.479 318.42 219.065 325.293C221.418 326.492 222.506 334.812 215.14 332.791C207.774 330.77 197.203 333.381 197.203 333.381L202.127 316.35Z" fill="url(#paint61_linear)"/>
<path d="M178.294 315.982C163.749 317.768 143.059 314.915 138.84 314.265C133.438 313.431 116.09 321.216 115.901 326.128C115.901 326.128 114.311 333.681 130.692 339.708L170.952 342.63C185.009 339.275 206.342 331.48 208.043 325.705C211.571 313.715 195.528 313.866 178.294 315.982Z" fill="url(#paint62_linear)"/>
<g opacity="0.3">
<path opacity="0.3" d="M148.247 323.412C158.696 325.588 163.269 319.045 176.531 320.936C185.124 322.162 187.242 325.486 192.286 324.017C196.267 322.859 199.16 319.554 201.286 315.644C195.554 314.348 187.087 314.905 178.293 315.984C164.166 317.718 144.243 315.077 139.243 314.328C139.095 314.307 136.267 312.154 136.267 312.154C136.267 312.154 133.462 312.76 131.42 313.29C136.927 318.95 144.43 322.617 148.247 323.412Z" fill="url(#paint63_linear)"/>
</g>
<path d="M472.261 237.748C473.352 238.16 489.987 244.776 493.406 262.138C493.683 263.54 496.356 278.457 486.239 288.995C474.896 300.811 453.054 300.518 444.384 290.641C442.361 288.336 441.296 285.784 440.697 283.638L442.981 277.569C445.769 274.204 449.564 273.407 451.592 272.907C456.589 271.675 460.362 273.901 463.223 271.491C464.807 270.158 465.12 268.24 465.402 266.526C466.359 260.689 463.064 257.094 462.824 253.494C462.644 250.803 461.702 244.906 465.215 241.061C467.439 238.625 470.521 237.961 472.261 237.748Z" fill="url(#paint64_linear)"/>
<path d="M478.743 431.243C478.936 430.174 482.389 429.207 484.098 430.638C484.947 431.348 485.531 432.79 485.041 433.441C484.862 433.677 485.594 434.094 484.892 434.103C482.566 434.129 478.55 432.305 478.743 431.243Z" fill="url(#paint65_linear)"/>
<path d="M482.362 431.632L485.912 431.13C484.268 429.15 484.572 422.844 484.572 422.844L480.797 423.686C480.797 423.686 481.227 425.416 481.959 427.969C482.209 428.844 482.321 430.213 482.362 431.632Z" fill="url(#paint66_linear)"/>
<path d="M482.046 431.196C482.046 431.196 486.319 430.211 486.783 431.06C487.245 431.907 487.605 434.177 484.892 434.104C482.179 434.031 481.804 431.915 482.046 431.196Z" fill="url(#paint67_linear)"/>
<path d="M430.035 435.25C430.377 434.22 433.93 433.745 435.423 435.4C436.163 436.222 436.54 437.731 435.963 438.307C435.753 438.517 436.418 439.03 435.724 438.94C433.417 438.643 429.695 436.276 430.035 435.25Z" fill="url(#paint68_linear)"/>
<path d="M368.586 254.357L365.341 252.803C364.837 252.4 364.066 251.686 363.482 250.589C362.52 248.785 362.535 246.832 362.548 246.831C362.557 246.829 362.4 244.205 363.514 243.76C363.66 243.701 363.829 243.683 364.022 243.715L365.176 246.754C365.176 246.754 365.361 248.076 367.445 249.449C369.513 251.249 370.345 252.895 370.345 252.895L368.586 254.357Z" fill="url(#paint69_linear)"/>
<path d="M433.562 436.142H437.146C435.796 433.951 436.98 427.75 436.98 427.75L433.123 428.057C433.123 428.057 433.306 429.831 433.673 432.462C433.8 433.361 433.72 434.731 433.562 436.142Z" fill="url(#paint70_linear)"/>
<path d="M424.272 300.567C422.611 306.05 420.238 314.902 418.713 326.008C414.358 357.686 423.613 358.696 421.886 393.798C421.334 405.003 431.593 430.84 432.496 431.41C432.935 431.452 433.408 431.482 433.915 431.465C434.807 431.438 436.066 431.302 437.528 430.863C439.154 430.583 445.013 414.713 443.654 405.278C442.692 398.6 442.972 391.433 443.529 377.099C443.619 374.776 449.562 331.912 449.562 331.912C451.369 347.779 453.448 361.259 455.25 371.711C461.041 405.291 479.867 425.616 480.849 425.943C481.042 426.021 482.81 426.663 484.254 425.711C484.895 425.288 485.116 424.741 485.116 424.741C485.619 424.347 484.967 391.214 479.225 366.279C470.89 330.087 474.52 321.618 471.879 305.454C469.593 291.465 424.272 300.567 424.272 300.567Z" fill="url(#paint71_linear)"/>
<path d="M457.937 234.923C452.403 234.76 441.686 232.954 434.68 239.257C434.558 239.367 433.991 239.987 433.284 240.814C432.627 241.583 430.378 244.274 428.337 247.912C426.86 250.546 425.526 253.617 424.18 258.194C421.808 266.266 421.126 273.14 420.899 276.135C419.619 292.976 420.889 300.746 422.041 306.03C427.045 308.599 439.937 313.198 455.298 310.913C462.312 309.87 467.928 307.535 471.878 305.451C467.891 293.383 471.019 286.924 472.495 280.973C474.599 272.485 474.632 273.127 476.364 266.386C479.222 255.261 479.691 243.893 477.728 241.568C472.433 235.297 462.892 235.07 457.937 234.923Z" fill="url(#paint72_linear)"/>
<path d="M433.314 435.664C433.314 435.664 437.684 435.287 438.023 436.191C438.361 437.094 438.399 439.392 435.725 438.94C433.051 438.488 432.976 436.342 433.314 435.664Z" fill="url(#paint73_linear)"/>
<path d="M443.294 236.945C437.242 233.007 421.416 245.345 416.624 248.748C398.045 261.943 400.272 270.173 391.834 266.065C386.128 263.287 385.355 254.912 375.603 251.762C373.879 251.205 372.396 250.98 371.441 250.877C371.428 250.884 368.221 252.589 368.206 252.594C367.068 252.963 365.929 253.331 364.973 254.312C364.035 256.259 363.176 258.63 362.744 261.395C362.836 262.377 363.029 264.006 363.471 265.971C363.838 267.599 368.121 285.407 383.01 290.891C385.747 291.898 388.019 292.188 389.166 292.327C394.06 292.92 398.493 292.195 406.076 289.582C418.918 285.157 428.724 281.006 437.392 270.86C437.805 270.376 438.139 269.903 438.472 269.391C444.92 259.505 449.138 240.745 443.294 236.945Z" fill="url(#paint74_linear)"/>
<path d="M442.366 228.581C440.652 225.683 441.415 222.372 441.587 221.657C442.307 218.662 442.576 218.207 443.133 217.574L443.918 216.743C443.918 216.743 443.966 216.707 444.018 216.672C444.565 216.296 446.606 215.685 447.046 215.663C448.453 215.593 451.318 220.64 452.958 228.416C453.092 228.695 453.223 228.975 453.353 229.258C454.167 231.022 454.864 232.758 455.464 234.45C464.976 235.254 466.295 236.371 466.339 237.015C466.427 238.372 461.008 239.939 456.933 240.536C448.045 241.838 438.908 239.494 438.949 237.835C438.968 237.113 440.735 236.173 448.27 235.186C448.093 233.938 447.918 232.691 447.741 231.444C447.128 231.309 443.628 230.717 442.366 228.581Z" fill="url(#paint75_linear)"/>
<path d="M440.579 215.299C441.22 217.673 443.016 219.912 443.695 220.167C443.783 220.2 444.285 220.417 444.807 220.877C444.879 220.941 444.947 221.017 445.017 221.122C445.937 222.481 444.025 224.877 444.664 225.426C445.127 225.823 446.571 224.742 446.876 225.111C447.163 225.458 446.036 226.635 446.368 227.053C446.618 227.368 447.358 226.821 448.027 227.23C448.36 227.433 448.34 227.67 448.839 228.43C449.12 228.861 449.475 229.317 449.721 229.561C450.914 230.736 453.375 230.626 453.674 229.949C453.757 229.761 453.615 229.658 453.604 229.102C453.604 229.102 453.592 228.587 453.78 227.937C454.049 227.01 455.058 226.128 456.005 224.972C457.759 222.831 457.992 221.343 458.05 220.844C458.07 220.667 458.077 220.536 458.082 220.441C458.179 218.538 457.497 215.965 456.286 214.593C454.261 212.294 451.621 214.346 448.485 212.369C444.867 210.088 445.437 205.501 443.79 205.45C441.974 205.395 439.391 210.91 440.579 215.299Z" fill="#26264F"/>
<path d="M445.369 224.639C445.737 223.684 446.961 224.162 447.243 225.196C447.525 226.23 446.81 227.574 445.781 227.629C444.754 227.685 444.872 225.926 445.369 224.639Z" fill="url(#paint76_linear)"/>
<path d="M445.378 222.781L444.496 224.899C444.496 224.899 443.614 227.44 442.448 226.488C441.496 225.709 441.323 225.779 441.291 225.831C441.284 225.841 441.286 225.852 441.284 225.852C441.271 225.852 441.258 225.346 441.249 224.899C441.028 225.511 440.756 226.481 440.756 227.688C440.756 228.86 440.756 230.116 441.673 231.076C441.726 231.131 442.725 232.148 444.074 232.1C444.074 232.1 444.604 232.08 446.615 231.146C446.615 231.146 443.862 230.087 443.72 229.699C443.337 228.644 444.681 227.658 445.203 225.146C445.403 224.177 445.408 223.345 445.378 222.781Z" fill="#26264F"/>
<path d="M359.465 224.117C359.075 224.222 358.746 224.479 358.553 224.827C358.36 225.175 358.318 225.587 358.44 225.967L366.916 252.541C367.158 253.302 367.973 253.73 368.75 253.508L388.437 247.854C389.22 247.629 389.674 246.822 389.45 246.049L381.819 219.603C381.596 218.831 380.784 218.379 379.998 218.591L359.465 224.117Z" fill="#26264F"/>
<path d="M361.03 225.411C360.684 225.504 360.389 225.733 360.217 226.044C360.043 226.356 360.008 226.723 360.115 227.062L367.675 250.759C367.892 251.436 368.618 251.82 369.31 251.621L386.866 246.579C387.564 246.379 387.968 245.659 387.769 244.969L380.963 221.386C380.765 220.697 380.04 220.296 379.339 220.484L361.03 225.411Z" fill="white"/>
<path d="M376.055 225.457L367.081 227.792L366.508 225.947L375.495 223.658L376.055 225.457Z" fill="#D8DEE8"/>
<path d="M381.491 228.734C381.513 228.804 381.484 228.874 381.428 228.889L373.883 230.923C373.825 230.94 373.758 230.893 373.736 230.821L373.251 229.263C373.23 229.191 373.26 229.121 373.318 229.104L380.874 227.108C380.931 227.093 380.994 227.138 381.016 227.208L381.491 228.734Z" fill="#D8DEE8"/>
<path d="M382.037 230.492C382.059 230.562 382.031 230.632 381.974 230.647L374.439 232.718C374.381 232.734 374.314 232.689 374.293 232.617L374.158 232.184C374.136 232.112 374.164 232.041 374.224 232.026L381.762 229.97C381.819 229.955 381.882 229.998 381.904 230.068L382.037 230.492Z" fill="#D8DEE8"/>
<path d="M382.539 232.102C382.561 232.172 382.533 232.242 382.476 232.257L374.953 234.362C374.895 234.378 374.828 234.333 374.806 234.262L374.671 233.828C374.65 233.756 374.678 233.685 374.738 233.668L382.266 231.577C382.323 231.562 382.386 231.606 382.408 231.676L382.539 232.102Z" fill="#D8DEE8"/>
<path d="M383.039 233.715C383.061 233.785 383.033 233.855 382.978 233.871L375.465 236.009C375.406 236.025 375.34 235.98 375.318 235.909L375.183 235.475C375.161 235.404 375.19 235.332 375.25 235.315L382.768 233.191C382.824 233.174 382.888 233.219 382.909 233.289L383.039 233.715Z" fill="#D8DEE8"/>
<path d="M383.541 235.324C383.563 235.394 383.535 235.465 383.479 235.481L375.977 237.654C375.918 237.67 375.851 237.627 375.83 237.555L375.695 237.122C375.673 237.05 375.701 236.978 375.761 236.962L383.268 234.804C383.324 234.788 383.388 234.833 383.409 234.903L383.541 235.324Z" fill="#D8DEE8"/>
<path d="M373.361 238.48L367.334 240.225C367.111 240.29 366.862 240.127 366.781 239.86L364.316 231.942C364.233 231.675 364.348 231.412 364.573 231.352L370.645 229.749C370.862 229.693 371.104 229.858 371.186 230.12L373.605 237.893C373.687 238.154 373.578 238.416 373.361 238.48Z" fill="#D8DEE8"/>
<path d="M364.626 231.572L364.635 231.571L370.707 229.97C370.827 229.938 370.96 230.032 371.007 230.179L373.426 237.95C373.47 238.092 373.413 238.233 373.298 238.267L367.271 240.014C367.146 240.051 367.005 239.959 366.96 239.809L364.496 231.889C364.449 231.747 364.508 231.609 364.626 231.572ZM364.56 231.359C364.344 231.426 364.234 231.684 364.316 231.944L366.78 239.862C366.864 240.129 367.112 240.292 367.334 240.227L373.361 238.482H373.363C373.576 238.418 373.685 238.157 373.603 237.897L371.184 230.123C371.102 229.862 370.86 229.697 370.644 229.753L364.571 231.356C364.568 231.356 364.565 231.357 364.56 231.359Z" fill="#D8DEE8"/>
<path d="M372.134 243.14L368.306 244.26C368.281 244.267 368.253 244.249 368.243 244.219L368.054 243.615C368.044 243.585 368.057 243.553 368.082 243.547L371.912 242.433C371.937 242.426 371.966 242.445 371.974 242.475L372.159 243.072C372.172 243.102 372.159 243.133 372.134 243.14Z" fill="#D8DEE8"/>
<path d="M375.304 243.78L368.763 245.724C368.738 245.732 368.71 245.712 368.7 245.682L368.511 245.079C368.501 245.049 368.515 245.017 368.54 245.01L375.084 243.079C375.109 243.073 375.135 243.091 375.145 243.12L375.331 243.711C375.341 243.741 375.329 243.771 375.304 243.78Z" fill="#D8DEE8"/>
<path d="M375.751 245.213L369.218 247.182C369.193 247.191 369.165 247.172 369.155 247.141L368.966 246.537C368.956 246.507 368.97 246.475 368.995 246.469L375.532 244.511C375.557 244.504 375.584 244.523 375.594 244.551L375.779 245.143C375.787 245.176 375.774 245.206 375.751 245.213Z" fill="#D8DEE8"/>
<path d="M376.195 246.649L369.671 248.645C369.646 248.653 369.618 248.635 369.608 248.603L369.419 248C369.409 247.97 369.423 247.938 369.448 247.931L375.977 245.949C376.002 245.942 376.029 245.959 376.039 245.989L376.224 246.581C376.232 246.611 376.219 246.641 376.195 246.649Z" fill="#D8DEE8"/>
<path d="M382.936 239.978L377.161 241.668C377.136 241.675 377.109 241.657 377.101 241.628L376.917 241.04C376.907 241.01 376.921 240.98 376.944 240.973L382.723 239.292C382.746 239.286 382.773 239.304 382.781 239.332L382.961 239.911C382.971 239.941 382.96 239.969 382.936 239.978Z" fill="#D8DEE8"/>
<path d="M385.111 240.863L377.604 243.094C377.579 243.101 377.553 243.082 377.544 243.054L377.361 242.466C377.351 242.436 377.364 242.406 377.387 242.399L384.899 240.183C384.922 240.176 384.949 240.195 384.957 240.223L385.137 240.8C385.146 240.828 385.134 240.857 385.111 240.863Z" fill="#D8DEE8"/>
<path d="M385.546 242.261L378.05 244.521C378.025 244.527 377.998 244.511 377.99 244.481L377.806 243.892C377.796 243.862 377.809 243.832 377.833 243.825L385.334 241.579C385.357 241.573 385.384 241.591 385.392 241.62L385.573 242.196C385.581 242.225 385.569 242.255 385.546 242.261Z" fill="#D8DEE8"/>
<path d="M385.981 243.656L378.493 245.945C378.47 245.952 378.441 245.935 378.433 245.905L378.249 245.317C378.239 245.287 378.253 245.257 378.276 245.25L385.769 242.974C385.792 242.967 385.819 242.984 385.827 243.014L386.008 243.591C386.014 243.619 386.003 243.649 385.981 243.656Z" fill="#D8DEE8"/>
<defs>
<linearGradient id="paint0_linear" x1="205.09" y1="247" x2="629.59" y2="267" gradientUnits="userSpaceOnUse">
<stop stop-color="#FE8696"/>
<stop offset="1" stop-color="white" stop-opacity="0"/>
<stop offset="1" stop-color="#716BDF"/>
</linearGradient>
<linearGradient id="paint1_linear" x1="5.28299" y1="345.219" x2="69.323" y2="312.454" gradientUnits="userSpaceOnUse">
<stop stop-color="#AA80F9"/>
<stop offset="0.9964" stop-color="#6165D7"/>
</linearGradient>
<linearGradient id="paint2_linear" x1="39.2539" y1="110.706" x2="109.966" y2="335.698" gradientUnits="userSpaceOnUse">
<stop stop-color="#FF9085"/>
<stop offset="1" stop-color="#FB6FBB"/>
</linearGradient>
<linearGradient id="paint3_linear" x1="-24.9787" y1="150.177" x2="254.599" y2="496.61" gradientUnits="userSpaceOnUse">
<stop offset="0.00359712" stop-color="#E38DDD"/>
<stop offset="1" stop-color="#9571F6"/>
</linearGradient>
<linearGradient id="paint4_linear" x1="92.5058" y1="281.585" x2="460.304" y2="281.585" gradientUnits="userSpaceOnUse">
<stop offset="0.00359712" stop-color="#EBEFF2"/>
<stop offset="1" stop-color="white"/>
</linearGradient>
<linearGradient id="paint5_linear" x1="202.919" y1="183.901" x2="460.143" y2="600.777" gradientUnits="userSpaceOnUse">
<stop stop-color="#AA80F9"/>
<stop offset="0.9964" stop-color="#6165D7"/>
</linearGradient>
<linearGradient id="paint6_linear" x1="146.373" y1="220.314" x2="407.508" y2="643.527" gradientUnits="userSpaceOnUse">
<stop stop-color="#FF9085"/>
<stop offset="1" stop-color="#FB6FBB"/>
</linearGradient>
<linearGradient id="paint7_linear" x1="292.507" y1="427.934" x2="333.015" y2="127.296" gradientUnits="userSpaceOnUse">
<stop offset="0.00359712" stop-color="#EBEFF2"/>
<stop offset="1" stop-color="white"/>
</linearGradient>
<linearGradient id="paint8_linear" x1="141.665" y1="178.981" x2="153.782" y2="344.591" gradientUnits="userSpaceOnUse">
<stop offset="0.00359712" stop-color="#E38DDD"/>
<stop offset="1" stop-color="#9571F6"/>
</linearGradient>
<linearGradient id="paint9_linear" x1="184.396" y1="176.851" x2="196.254" y2="338.911" gradientUnits="userSpaceOnUse">
<stop offset="0.00359712" stop-color="#E38DDD"/>
<stop offset="1" stop-color="#9571F6"/>
</linearGradient>
<linearGradient id="paint10_linear" x1="225.716" y1="174.811" x2="237.324" y2="333.464" gradientUnits="userSpaceOnUse">
<stop offset="0.00359712" stop-color="#E38DDD"/>
<stop offset="1" stop-color="#9571F6"/>
</linearGradient>
<linearGradient id="paint11_linear" x1="265.693" y1="172.863" x2="277.061" y2="328.242" gradientUnits="userSpaceOnUse">
<stop offset="0.00359712" stop-color="#E38DDD"/>
<stop offset="1" stop-color="#9571F6"/>
</linearGradient>
<linearGradient id="paint12_linear" x1="304.392" y1="170.998" x2="315.53" y2="323.229" gradientUnits="userSpaceOnUse">
<stop offset="0.00359712" stop-color="#E38DDD"/>
<stop offset="1" stop-color="#9571F6"/>
</linearGradient>
<linearGradient id="paint13_linear" x1="341.872" y1="169.209" x2="352.789" y2="318.412" gradientUnits="userSpaceOnUse">
<stop offset="0.00359712" stop-color="#E38DDD"/>
<stop offset="1" stop-color="#9571F6"/>
</linearGradient>
<linearGradient id="paint14_linear" x1="378.191" y1="167.497" x2="388.895" y2="313.788" gradientUnits="userSpaceOnUse">
<stop offset="0.00359712" stop-color="#E38DDD"/>
<stop offset="1" stop-color="#9571F6"/>
</linearGradient>
<linearGradient id="paint15_linear" x1="159.979" y1="251.315" x2="667.688" y2="296.486" gradientUnits="userSpaceOnUse">
<stop stop-color="#AB316D"/>
<stop offset="1" stop-color="#792D3D"/>
</linearGradient>
<linearGradient id="paint16_linear" x1="160.298" y1="247.717" x2="668.007" y2="292.888" gradientUnits="userSpaceOnUse">
<stop stop-color="#AB316D"/>
<stop offset="1" stop-color="#792D3D"/>
</linearGradient>
<linearGradient id="paint17_linear" x1="160.614" y1="244.19" x2="668.323" y2="289.362" gradientUnits="userSpaceOnUse">
<stop stop-color="#AB316D"/>
<stop offset="1" stop-color="#792D3D"/>
</linearGradient>
<linearGradient id="paint18_linear" x1="160.892" y1="241.042" x2="668.601" y2="286.214" gradientUnits="userSpaceOnUse">
<stop stop-color="#AB316D"/>
<stop offset="1" stop-color="#792D3D"/>
</linearGradient>
<linearGradient id="paint19_linear" x1="161.192" y1="237.675" x2="668.901" y2="282.847" gradientUnits="userSpaceOnUse">
<stop stop-color="#AB316D"/>
<stop offset="1" stop-color="#792D3D"/>
</linearGradient>
<linearGradient id="paint20_linear" x1="31.5466" y1="348.487" x2="248.933" y2="348.487" gradientUnits="userSpaceOnUse">
<stop stop-color="#FFC444"/>
<stop offset="0.9964" stop-color="#F36F56"/>
</linearGradient>
<linearGradient id="paint21_linear" x1="55.6169" y1="434.669" x2="73.3375" y2="394.364" gradientUnits="userSpaceOnUse">
<stop stop-color="#AA80F9"/>
<stop offset="0.9964" stop-color="#6165D7"/>
</linearGradient>
<linearGradient id="paint22_linear" x1="101.783" y1="411.552" x2="249.072" y2="411.552" gradientUnits="userSpaceOnUse">
<stop stop-color="#FF9085"/>
<stop offset="1" stop-color="#FB6FBB"/>
</linearGradient>
<linearGradient id="paint23_linear" x1="98.2307" y1="411.621" x2="251.664" y2="411.621" gradientUnits="userSpaceOnUse">
<stop stop-color="#AA80F9"/>
<stop offset="0.9964" stop-color="#6165D7"/>
</linearGradient>
<linearGradient id="paint24_linear" x1="81.3434" y1="325.991" x2="50.2766" y2="430.637" gradientUnits="userSpaceOnUse">
<stop stop-color="#FFC444"/>
<stop offset="0.9964" stop-color="#F36F56"/>
</linearGradient>
<linearGradient id="paint25_linear" x1="101.787" y1="367.528" x2="249.075" y2="367.528" gradientUnits="userSpaceOnUse">
<stop stop-color="#FF9085"/>
<stop offset="1" stop-color="#FB6FBB"/>
</linearGradient>
<linearGradient id="paint26_linear" x1="98.2327" y1="367.981" x2="251.666" y2="367.981" gradientUnits="userSpaceOnUse">
<stop stop-color="#FFC444"/>
<stop offset="0.9964" stop-color="#F36F56"/>
</linearGradient>
<linearGradient id="paint27_linear" x1="131.518" y1="72.9177" x2="112.343" y2="71.6513" gradientUnits="userSpaceOnUse">
<stop stop-color="#AB316D"/>
<stop offset="1" stop-color="#792D3D"/>
</linearGradient>
<linearGradient id="paint28_linear" x1="130.306" y1="67.2125" x2="113.738" y2="180.756" gradientUnits="userSpaceOnUse">
<stop stop-color="#FFC444"/>
<stop offset="0.9964" stop-color="#F36F56"/>
</linearGradient>
<linearGradient id="paint29_linear" x1="156.905" y1="67.4591" x2="166.455" y2="181.996" gradientUnits="userSpaceOnUse">
<stop stop-color="#FFC444"/>
<stop offset="0.9964" stop-color="#F36F56"/>
</linearGradient>
<linearGradient id="paint30_linear" x1="161.143" y1="70.2992" x2="145.275" y2="72.8945" gradientUnits="userSpaceOnUse">
<stop stop-color="#AB316D"/>
<stop offset="1" stop-color="#792D3D"/>
</linearGradient>
<linearGradient id="paint31_linear" x1="149.152" y1="66.8382" x2="174.701" y2="134.369" gradientUnits="userSpaceOnUse">
<stop stop-color="#AB316D"/>
<stop offset="1" stop-color="#792D3D"/>
</linearGradient>
<linearGradient id="paint32_linear" x1="178.437" y1="120.738" x2="149.26" y2="182.288" gradientUnits="userSpaceOnUse">
<stop stop-color="#AB316D"/>
<stop offset="1" stop-color="#792D3D"/>
</linearGradient>
<linearGradient id="paint33_linear" x1="323.585" y1="139.222" x2="260.067" y2="135.026" gradientUnits="userSpaceOnUse">
<stop stop-color="#FF9085"/>
<stop offset="1" stop-color="#FB6FBB"/>
</linearGradient>
<linearGradient id="paint34_linear" x1="317.673" y1="156.247" x2="261.01" y2="152.505" gradientUnits="userSpaceOnUse">
<stop stop-color="#40447E"/>
<stop offset="0.9964" stop-color="#3C3B6B"/>
</linearGradient>
<linearGradient id="paint35_linear" x1="356.27" y1="122.892" x2="316.685" y2="157.292" gradientUnits="userSpaceOnUse">
<stop stop-color="#40447E"/>
<stop offset="0.9964" stop-color="#3C3B6B"/>
</linearGradient>
<linearGradient id="paint36_linear" x1="356.271" y1="122.893" x2="316.685" y2="157.293" gradientUnits="userSpaceOnUse">
<stop stop-color="#40447E"/>
<stop offset="0.9964" stop-color="#3C3B6B"/>
</linearGradient>
<linearGradient id="paint37_linear" x1="253.248" y1="95.8982" x2="211.64" y2="171.801" gradientUnits="userSpaceOnUse">
<stop stop-color="#AA80F9"/>
<stop offset="0.9964" stop-color="#6165D7"/>
</linearGradient>
<linearGradient id="paint38_linear" x1="253.248" y1="95.8982" x2="211.64" y2="171.801" gradientUnits="userSpaceOnUse">
<stop stop-color="#FF9085"/>
<stop offset="1" stop-color="#FB6FBB"/>
</linearGradient>
<linearGradient id="paint39_linear" x1="253.249" y1="95.8964" x2="211.64" y2="171.801" gradientUnits="userSpaceOnUse">
<stop stop-color="#FF9085"/>
<stop offset="1" stop-color="#FB6FBB"/>
</linearGradient>
<linearGradient id="paint40_linear" x1="260.81" y1="142.409" x2="274.735" y2="71.4959" gradientUnits="userSpaceOnUse">
<stop stop-color="#FFC444"/>
<stop offset="0.9964" stop-color="#F36F56"/>
</linearGradient>
<linearGradient id="paint41_linear" x1="279.52" y1="112.619" x2="263.088" y2="72.127" gradientUnits="userSpaceOnUse">
<stop stop-color="#FFC444"/>
<stop offset="0.7864" stop-color="#F68152"/>
<stop offset="0.9964" stop-color="#F36F56"/>
</linearGradient>
<linearGradient id="paint42_linear" x1="282.499" y1="134.596" x2="272.895" y2="179.225" gradientUnits="userSpaceOnUse">
<stop stop-color="#FFC444"/>
<stop offset="0.9964" stop-color="#F36F56"/>
</linearGradient>
<linearGradient id="paint43_linear" x1="263.602" y1="137.455" x2="220.256" y2="127.13" gradientUnits="userSpaceOnUse">
<stop stop-color="#FF9085"/>
<stop offset="1" stop-color="#FB6FBB"/>
</linearGradient>
<linearGradient id="paint44_linear" x1="347.511" y1="76.9326" x2="316.697" y2="174.083" gradientUnits="userSpaceOnUse">
<stop stop-color="#444B8C"/>
<stop offset="0.9964" stop-color="#26264F"/>
</linearGradient>
<linearGradient id="paint45_linear" x1="330.992" y1="106.624" x2="361.649" y2="107.468" gradientUnits="userSpaceOnUse">
<stop stop-color="white"/>
<stop offset="0.9964" stop-color="#B3B6F8"/>
</linearGradient>
<linearGradient id="paint46_linear" x1="242.526" y1="389.823" x2="262.666" y2="397.724" gradientUnits="userSpaceOnUse">
<stop stop-color="#40447E"/>
<stop offset="0.9964" stop-color="#3C3B6B"/>
</linearGradient>
<linearGradient id="paint47_linear" x1="127.677" y1="291.986" x2="256.538" y2="408.217" gradientUnits="userSpaceOnUse">
<stop stop-color="#311944"/>
<stop offset="1" stop-color="#A03976"/>
</linearGradient>
<linearGradient id="paint48_linear" x1="221.31" y1="326.661" x2="126.402" y2="326.661" gradientUnits="userSpaceOnUse">
<stop stop-color="#311944"/>
<stop offset="1" stop-color="#A03976"/>
</linearGradient>
<linearGradient id="paint49_linear" x1="62.5255" y1="313.141" x2="203.604" y2="321.893" gradientUnits="userSpaceOnUse">
<stop stop-color="#311944"/>
<stop offset="1" stop-color="#893976"/>
</linearGradient>
<linearGradient id="paint50_linear" x1="142.787" y1="211.897" x2="164.803" y2="344.883" gradientUnits="userSpaceOnUse">
<stop stop-color="#FFC444"/>
<stop offset="0.9964" stop-color="#F36F56"/>
</linearGradient>
<linearGradient id="paint51_linear" x1="110.13" y1="217.302" x2="132.145" y2="350.288" gradientUnits="userSpaceOnUse">
<stop stop-color="#FFC444"/>
<stop offset="0.9964" stop-color="#F36F56"/>
</linearGradient>
<linearGradient id="paint52_linear" x1="110.104" y1="217.307" x2="132.12" y2="350.293" gradientUnits="userSpaceOnUse">
<stop stop-color="#FFC444"/>
<stop offset="0.9964" stop-color="#F36F56"/>
</linearGradient>
<linearGradient id="paint53_linear" x1="134.682" y1="291.213" x2="145.392" y2="367.672" gradientUnits="userSpaceOnUse">
<stop stop-color="#FFC444"/>
<stop offset="0.9964" stop-color="#F36F56"/>
</linearGradient>
<linearGradient id="paint54_linear" x1="95.7238" y1="219.686" x2="117.74" y2="352.673" gradientUnits="userSpaceOnUse">
<stop stop-color="#FFC444"/>
<stop offset="0.9964" stop-color="#F36F56"/>
</linearGradient>
<linearGradient id="paint55_linear" x1="132.366" y1="238.86" x2="115.294" y2="238.86" gradientUnits="userSpaceOnUse">
<stop stop-color="#FFC444"/>
<stop offset="0.9964" stop-color="#F36F56"/>
</linearGradient>
<linearGradient id="paint56_linear" x1="152.832" y1="309.396" x2="109.606" y2="309.396" gradientUnits="userSpaceOnUse">
<stop stop-color="#FFC444"/>
<stop offset="0.9964" stop-color="#F36F56"/>
</linearGradient>
<linearGradient id="paint57_linear" x1="123.951" y1="224.424" x2="126.926" y2="253.283" gradientUnits="userSpaceOnUse">
<stop stop-color="#FFC444"/>
<stop offset="0.9964" stop-color="#F36F56"/>
</linearGradient>
<linearGradient id="paint58_linear" x1="129.564" y1="230.665" x2="117.069" y2="184.551" gradientUnits="userSpaceOnUse">
<stop stop-color="#FFC444"/>
<stop offset="0.9964" stop-color="#F36F56"/>
</linearGradient>
<linearGradient id="paint59_linear" x1="145.67" y1="294.186" x2="194.038" y2="306.313" gradientUnits="userSpaceOnUse">
<stop stop-color="#40447E"/>
<stop offset="0.9964" stop-color="#3C3B6B"/>
</linearGradient>
<linearGradient id="paint60_linear" x1="215.794" y1="331.701" x2="240.482" y2="329.74" gradientUnits="userSpaceOnUse">
<stop stop-color="#40447E"/>
<stop offset="0.9964" stop-color="#3C3B6B"/>
</linearGradient>
<linearGradient id="paint61_linear" x1="109.998" y1="311.455" x2="223.525" y2="328.436" gradientUnits="userSpaceOnUse">
<stop stop-color="#311944"/>
<stop offset="1" stop-color="#A03976"/>
</linearGradient>
<linearGradient id="paint62_linear" x1="143.434" y1="227.512" x2="166.922" y2="349.004" gradientUnits="userSpaceOnUse">
<stop stop-color="#311944"/>
<stop offset="1" stop-color="#A03976"/>
</linearGradient>
<linearGradient id="paint63_linear" x1="114.434" y1="316.962" x2="200.356" y2="319.979" gradientUnits="userSpaceOnUse">
<stop stop-color="#FF9085"/>
<stop offset="1" stop-color="#FB6FBB"/>
</linearGradient>
<linearGradient id="paint64_linear" x1="463.104" y1="294.976" x2="477.476" y2="237.485" gradientUnits="userSpaceOnUse">
<stop stop-color="#AA80F9"/>
<stop offset="0.9964" stop-color="#6165D7"/>
</linearGradient>
<linearGradient id="paint65_linear" x1="476.826" y1="428.158" x2="484.426" y2="433.208" gradientUnits="userSpaceOnUse">
<stop stop-color="#444B8C"/>
<stop offset="0.9964" stop-color="#26264F"/>
</linearGradient>
<linearGradient id="paint66_linear" x1="484.181" y1="433.256" x2="482.518" y2="421.495" gradientUnits="userSpaceOnUse">
<stop stop-color="#FFC444"/>
<stop offset="0.9964" stop-color="#F36F56"/>
</linearGradient>
<linearGradient id="paint67_linear" x1="477.397" y1="427.3" x2="484.997" y2="432.351" gradientUnits="userSpaceOnUse">
<stop stop-color="#444B8C"/>
<stop offset="0.9964" stop-color="#26264F"/>
</linearGradient>
<linearGradient id="paint68_linear" x1="428.568" y1="431.928" x2="435.387" y2="437.993" gradientUnits="userSpaceOnUse">
<stop stop-color="#444B8C"/>
<stop offset="0.9964" stop-color="#26264F"/>
</linearGradient>
<linearGradient id="paint69_linear" x1="362.233" y1="246.078" x2="369.577" y2="252.64" gradientUnits="userSpaceOnUse">
<stop stop-color="#FFC444"/>
<stop offset="0.9964" stop-color="#F36F56"/>
</linearGradient>
<linearGradient id="paint70_linear" x1="435.136" y1="438.004" x2="435.136" y2="426.126" gradientUnits="userSpaceOnUse">
<stop stop-color="#FFC444"/>
<stop offset="0.9964" stop-color="#F36F56"/>
</linearGradient>
<linearGradient id="paint71_linear" x1="434.577" y1="443.451" x2="479.036" y2="263.946" gradientUnits="userSpaceOnUse">
<stop stop-color="#444B8C"/>
<stop offset="0.9964" stop-color="#26264F"/>
</linearGradient>
<linearGradient id="paint72_linear" x1="407.653" y1="240.103" x2="493.89" y2="308.544" gradientUnits="userSpaceOnUse">
<stop stop-color="#AA80F9"/>
<stop offset="0.9964" stop-color="#6165D7"/>
</linearGradient>
<linearGradient id="paint73_linear" x1="429.256" y1="431.156" x2="436.074" y2="437.221" gradientUnits="userSpaceOnUse">
<stop stop-color="#444B8C"/>
<stop offset="0.9964" stop-color="#26264F"/>
</linearGradient>
<linearGradient id="paint74_linear" x1="397.8" y1="252.521" x2="484.036" y2="320.962" gradientUnits="userSpaceOnUse">
<stop stop-color="#AA80F9"/>
<stop offset="0.9964" stop-color="#6165D7"/>
</linearGradient>
<linearGradient id="paint75_linear" x1="435.276" y1="215.598" x2="472.2" y2="262.053" gradientUnits="userSpaceOnUse">
<stop stop-color="#FFC444"/>
<stop offset="0.9964" stop-color="#F36F56"/>
</linearGradient>
<linearGradient id="paint76_linear" x1="436.834" y1="214.358" x2="473.758" y2="260.814" gradientUnits="userSpaceOnUse">
<stop stop-color="#FFC444"/>
<stop offset="0.9964" stop-color="#F36F56"/>
</linearGradient>
</defs>
</svg>
